<?xml version="1.0" encoding="UTF-8" standalone="no"?>


<svg version="1.1" id="svg1" width="166.74133" height="210.09494" viewBox="0 0 166.74133 210.09494" xmlns="http://www.w3.org/2000/svg" xmlns:svg="http://www.w3.org/2000/svg">
  <defs id="defs1"></defs>
  <g id="layer-MC0" transform="translate(-338.99616,-425.35574)">
    <g id="g1236" transform="translate(-77.236364,7.8545455)">
      <path id="path20" d="M 0,0 C 0,0 3.872,0.602 4.528,-0.053 5.032,-0.895 5.31,-6.136 5.382,-9.916 3.849,-11.129 1.468,-11.336 -0.379,-10.801 -0.241,-6.164 0,0 0,0" style="fill:#1c1c1c;fill-opacity:1;fill-rule:nonzero;stroke:none" transform="matrix(1.3333333,0,0,-1.3333333,505.47067,595.80733)"></path>
      <path id="path21" d="M 0,0 C 0.071,2.413 0.097,5.141 0.227,9.467 2.073,8.932 4.455,9.139 5.988,10.352 6.075,5.765 5.882,2.403 5.801,-0.171 3.872,-0.914 1.691,-0.922 0,0" style="fill:#363636;fill-opacity:1;fill-rule:nonzero;stroke:none" transform="matrix(1.3333333,0,0,-1.3333333,504.66347,622.83067)"></path>
      <path id="path22" d="m 0,0 c -0.016,-0.263 -0.597,-1.486 -2.906,-1.458 -2.531,0.034 -2.883,1.339 -2.883,1.628 0.002,0.087 0.016,0.652 0.04,1.548 C -4.058,0.796 -1.877,0.804 0.053,1.547 0.024,0.648 0.006,0.081 0,0" style="fill:#8f8f8f;fill-opacity:1;fill-rule:nonzero;stroke:none" transform="matrix(1.3333333,0,0,-1.3333333,512.32813,625.12107)"></path>
      <path id="path23" d="M 0,0 C 0.283,0.011 0.569,-0.02 0.851,-0.046 1.053,-0.061 1.268,-0.097 1.464,-0.182 1.563,-0.227 1.65,-0.277 1.748,-0.346 1.861,-0.427 1.966,-0.692 2.037,-1 c 0.207,-0.879 0.308,-1.975 0.397,-3.018 0.14,-1.684 0.219,-3.482 0.267,-5.24 0.027,-0.852 0.043,-1.743 0.049,-2.608 0.002,-0.936 0.004,-1.877 -0.012,-2.805 -0.007,-0.36 -0.01,-0.725 -0.023,-1.087 -0.022,-0.897 -0.044,-1.806 -0.083,-2.695 -0.012,-0.341 -0.018,-0.693 -0.034,-1.033 -0.047,-0.95 -0.059,-1.93 -0.101,-2.888 -0.008,-0.147 -0.006,-0.17 -0.035,-0.283 -0.056,-0.221 -0.144,-0.357 -0.227,-0.46 -0.587,-0.751 -1.241,-0.907 -1.871,-1.051 -0.154,-0.034 -0.311,-0.024 -0.469,-0.059 -0.187,-0.039 -0.381,-0.018 -0.571,-0.018 -0.118,0 -0.245,-0.023 -0.363,0.008 -0.113,0.026 -0.231,0 -0.342,0.024 -0.249,0.059 -0.498,0.069 -0.744,0.152 -0.491,0.161 -0.979,0.323 -1.437,0.928 -0.087,0.115 -0.304,0.465 -0.294,0.84 0.008,0.434 0.023,0.865 0.033,1.294 0.044,1.616 0.076,3.244 0.111,4.864 0.048,2.367 0.115,4.712 0.192,7.057 0.017,0.511 0.037,1.025 0.055,1.533 0.047,1.594 0.115,3.18 0.166,4.769 0.02,0.626 0.055,1.254 0.073,1.876 0.012,0.315 -0.006,0.471 0.101,0.572 0.096,0.09 0.231,0.098 0.334,0.101 0.112,0.006 0.223,0.045 0.336,0.045 0.235,0 0.473,0.075 0.705,0.083 0.172,0.004 0.345,0.029 0.519,0.042 C -0.824,-0.021 -0.411,0.005 0,0 m -0.148,-0.551 c -0.156,-0.015 -0.31,-0.013 -0.466,-0.019 -0.395,-0.015 -0.794,-0.066 -1.188,-0.098 -0.278,-0.019 -0.559,-0.066 -0.835,-0.097 -0.036,-0.005 -0.028,-0.041 -0.032,-0.148 -0.024,-0.702 -0.053,-1.401 -0.077,-2.104 -0.016,-0.462 -0.032,-0.931 -0.053,-1.389 -0.078,-1.979 -0.136,-3.975 -0.206,-5.959 -0.029,-0.888 -0.053,-1.773 -0.075,-2.663 -0.024,-1.132 -0.055,-2.267 -0.081,-3.403 -0.035,-1.5 -0.061,-2.999 -0.101,-4.491 -0.01,-0.445 -0.027,-0.89 -0.037,-1.337 -0.006,-0.332 0.207,-0.585 0.284,-0.666 0.316,-0.344 0.646,-0.473 0.978,-0.585 0.243,-0.081 0.486,-0.099 0.729,-0.148 0.105,-0.024 0.208,-0.006 0.313,-0.029 0.114,-0.021 0.231,-0.003 0.347,-0.003 0.158,0 0.314,0.003 0.468,0.01 0.362,0.014 0.729,0.108 1.083,0.241 0.267,0.097 0.551,0.261 0.806,0.548 0.053,0.062 0.221,0.268 0.227,0.458 0.036,0.885 0.054,1.779 0.093,2.66 0.024,0.566 0.038,1.139 0.063,1.703 0.018,0.432 0.026,0.883 0.042,1.32 0.022,0.743 0.033,1.498 0.049,2.247 0.01,0.456 0.002,0.918 0.01,1.373 0.012,0.585 -0.006,1.195 -0.008,1.778 -0.004,1 -0.04,2 -0.071,2.987 C 2.073,-7.051 2,-5.706 1.905,-4.427 1.831,-3.416 1.719,-2.158 1.533,-1.292 1.49,-1.093 1.421,-0.798 1.349,-0.749 c -0.207,0.14 -0.424,0.113 -0.634,0.166 -0.111,0.026 -0.235,0.019 -0.349,0.019 -0.17,0 -0.342,0.022 -0.514,0.013" style="fill:#000000;fill-opacity:1;fill-rule:nonzero;stroke:none" transform="matrix(1.3333333,0,0,-1.3333333,509.38027,595.10547)"></path>
      <path id="path24" d="m 0,0 c 0.192,-0.1 0.387,-0.198 0.626,-0.29 0.356,-0.131 0.777,-0.263 1.316,-0.336 0.381,-0.053 0.818,-0.079 1.239,-0.059 0.205,0.012 0.405,0.025 0.598,0.047 0.777,0.101 1.387,0.285 1.889,0.476 0.039,-0.102 0.071,-0.2 0.111,-0.298 C 5.781,-0.47 5.79,-0.474 5.777,-0.48 5.613,-0.539 5.449,-0.6 5.269,-0.656 4.909,-0.766 4.528,-0.86 4.07,-0.932 3.9,-0.958 3.73,-0.98 3.548,-0.994 3.438,-1.005 3.339,-1.009 3.228,-1.019 2.938,-1.031 2.643,-1.026 2.361,-1.005 c -0.34,0.021 -0.678,0.073 -0.951,0.134 -0.646,0.143 -1.116,0.339 -1.495,0.539 -0.018,0.008 -0.073,0.03 -0.069,0.04 C -0.107,-0.194 -0.044,-0.098 0,0" style="fill:#000000;fill-opacity:1;fill-rule:nonzero;stroke:none" transform="matrix(1.3333333,0,0,-1.3333333,504.7656,622.63413)"></path>
      <path id="path25" d="M 0,0 C -1.693,-0.917 -3.874,-0.899 -5.801,-0.154 -5.872,2.422 -6.055,5.781 -5.953,10.368 -4.422,9.151 -2.041,8.935 -0.194,9.467 -0.081,5.138 -0.059,2.407 0,0" style="fill:#363636;fill-opacity:1;fill-rule:nonzero;stroke:none" transform="matrix(1.3333333,0,0,-1.3333333,501.98173,623.00133)"></path>
      <path id="path26" d="m 0,0 c -1.847,-0.532 -4.228,-0.315 -5.759,0.901 0.083,3.783 0.381,9.022 0.887,9.864 0.658,0.65 4.532,0.037 4.532,0.037 0,0 0.218,-6.169 0.34,-10.802" style="fill:#1c1c1c;fill-opacity:1;fill-rule:nonzero;stroke:none" transform="matrix(1.3333333,0,0,-1.3333333,501.72267,610.37893)"></path>
      <path id="path27" d="m 0,0 c 0.024,-0.897 0.037,-1.46 0.037,-1.549 0,-0.292 -0.357,-1.594 -2.89,-1.616 -2.309,-0.023 -2.886,1.201 -2.9,1.464 -0.006,0.081 -0.026,0.648 -0.048,1.547 C -3.874,-0.899 -1.693,-0.917 0,0" style="fill:#8f8f8f;fill-opacity:1;fill-rule:nonzero;stroke:none" transform="matrix(1.3333333,0,0,-1.3333333,501.98173,623.00133)"></path>
      <path id="path28" d="M 0,0 C 0.114,-0.006 0.235,0.034 0.344,0.008 0.458,-0.019 0.569,0.021 0.677,-0.006 0.79,-0.026 0.907,0 1.019,-0.022 1.254,-0.079 1.495,-0.034 1.731,-0.081 1.93,-0.122 2.132,-0.109 2.333,-0.144 2.442,-0.162 2.558,-0.16 2.667,-0.187 2.76,-0.209 2.852,-0.2 2.944,-0.225 c 0.124,-0.03 0.256,0 0.375,-0.113 0.053,-0.049 0.077,-0.083 0.085,-0.273 0.108,-3.156 0.225,-6.315 0.308,-9.488 0.024,-0.937 0.051,-1.881 0.073,-2.823 0.02,-0.842 0.034,-1.688 0.052,-2.537 0.017,-0.648 0.019,-1.298 0.033,-1.948 0.016,-0.626 0.026,-1.264 0.036,-1.889 0.021,-1.005 0.051,-1.999 0.067,-2.999 0.002,-0.094 -0.01,-0.215 -0.032,-0.286 -0.079,-0.328 -0.27,-0.589 -0.387,-0.719 -0.366,-0.398 -0.751,-0.579 -1.136,-0.709 -0.48,-0.157 -0.97,-0.236 -1.46,-0.236 -0.66,0 -1.324,0.019 -1.968,0.308 -0.346,0.153 -0.719,0.328 -1.047,0.747 -0.083,0.109 -0.298,0.394 -0.316,0.714 -0.026,0.508 -0.03,1.031 -0.051,1.543 -0.083,2.496 -0.176,4.995 -0.176,7.549 0,0.409 -0.008,0.845 0.002,1.25 0.015,0.741 0.012,1.492 0.038,2.23 0.043,1.218 0.078,2.435 0.15,3.633 0.096,1.648 0.205,3.414 0.476,4.898 0.065,0.351 0.203,0.869 0.324,0.986 0.073,0.071 0.158,0.136 0.237,0.168 C -0.921,-0.032 -0.463,-0.004 0,0 M -0.136,-0.551 C -0.463,-0.587 -0.798,-0.565 -1.12,-0.709 -1.225,-0.756 -1.282,-1.003 -1.342,-1.273 -1.517,-2.045 -1.63,-3.188 -1.705,-4.099 -1.808,-5.36 -1.877,-6.62 -1.932,-7.912 c -0.048,-1.061 -0.081,-2.166 -0.097,-3.248 -0.012,-0.749 -0.018,-1.506 -0.016,-2.264 0.006,-1.61 0.038,-3.195 0.091,-4.775 0.028,-0.857 0.063,-1.719 0.085,-2.577 0.016,-0.537 0.033,-1.072 0.049,-1.609 0.006,-0.202 0.091,-0.305 0.141,-0.381 0.187,-0.281 0.411,-0.408 0.614,-0.534 0.316,-0.192 0.648,-0.255 0.976,-0.328 0.126,-0.03 0.255,-0.026 0.379,-0.047 0.212,-0.032 0.433,-0.013 0.648,-0.013 0.461,0 0.931,0.07 1.385,0.236 0.298,0.105 0.635,0.262 0.911,0.648 0.059,0.083 0.19,0.282 0.184,0.533 -0.036,1.34 -0.066,2.681 -0.093,4.03 -0.018,1.124 -0.032,2.248 -0.058,3.367 -0.023,0.986 -0.043,1.967 -0.067,2.948 -0.039,1.72 -0.097,3.427 -0.146,5.138 -0.061,1.978 -0.132,3.953 -0.2,5.928 -0.004,0.129 -0.011,0.083 -0.047,0.089 -0.264,0.052 -0.527,0.06 -0.79,0.101 -0.212,0.032 -0.429,0.044 -0.646,0.065 -0.502,0.04 -1.002,0.062 -1.507,0.054" style="fill:#000000;fill-opacity:1;fill-rule:nonzero;stroke:none" transform="matrix(1.3333333,0,0,-1.3333333,497.1028,595.26947)"></path>
      <path id="path29" d="M 0,0 C 0.05,-0.091 0.099,-0.18 0.144,-0.271 0.147,-0.279 0.166,-0.291 0.152,-0.302 0.03,-0.36 -0.085,-0.423 -0.213,-0.479 -0.685,-0.688 -1.325,-0.907 -2.191,-0.986 -2.572,-1.021 -2.969,-1.026 -3.364,-1 c -0.702,0.049 -1.31,0.18 -1.804,0.33 -0.205,0.063 -0.391,0.13 -0.569,0.194 -0.02,0.006 -0.049,0.015 -0.043,0.021 0.035,0.102 0.077,0.208 0.116,0.309 0.15,-0.056 0.298,-0.113 0.461,-0.166 0.199,-0.058 0.413,-0.124 0.642,-0.171 0.507,-0.117 1.056,-0.202 1.718,-0.202 0.435,0 0.852,0.043 1.215,0.115 C -0.899,-0.433 -0.407,-0.217 0,0" style="fill:#000000;fill-opacity:1;fill-rule:nonzero;stroke:none" transform="matrix(1.3333333,0,0,-1.3333333,501.87693,622.80467)"></path>
      <path id="path30" d="M 0,0 C 0,0 0.104,2.495 0.524,5.5 8.7,-0.321 20.706,0.403 28.038,5.111 28.627,1.616 28.496,0.975 28.474,0.085 28.451,-0.8 27.812,-1.626 26.619,-2.19 26.544,-2.228 25.4,0.571 23.308,0.011 22.275,-0.263 21.787,-1.701 21.907,-3.635 20.665,-3.908 19.469,-4.127 17.804,-4.299 17.115,-2.569 16.206,-1.336 14.52,-1.395 12.58,-1.468 11.804,-3.399 11.604,-4.493 10.225,-4.396 8.801,-4.186 7.58,-3.94 7.521,-2.873 7.535,-0.581 5.461,-0.18 3.876,0.128 2.93,-0.893 2.353,-2.313 0.709,-1.77 0,0 0,0" style="fill:#bbbbbb;fill-opacity:1;fill-rule:nonzero;stroke:none" transform="matrix(1.3333333,0,0,-1.3333333,484.7748,614.11067)"></path>
      <path id="path31" d="m 0,0 c 1.334,0.836 2.894,1.42 4.716,1.652 3.123,0.4 5.639,-0.188 7.667,-1.395 2.723,-3.568 0.854,-9.333 -6.154,-9.086 C -1.428,-8.562 -2.574,-2.829 0,0" style="fill:#d1d1d1;fill-opacity:1;fill-rule:nonzero;stroke:none" transform="matrix(1.3333333,0,0,-1.3333333,495.2188,588.22)"></path>
      <path id="path32" d="M 0,0 C 0.703,4.983 2.232,10.743 7.309,13.918 4.734,11.089 5.881,5.356 13.537,5.089 c 7.009,-0.247 8.878,5.518 6.154,9.086 4.95,-2.946 6.985,-9.584 7.823,-14.564 C 20.181,-5.097 8.175,-5.821 0,0" style="fill:#f5f5f5;fill-opacity:1;fill-rule:nonzero;stroke:none" transform="matrix(1.3333333,0,0,-1.3333333,485.474,606.77733)"></path>
      <path id="path33" d="m 0,0 c 1.235,0.032 2.432,-0.118 3.584,-0.444 2.778,-0.793 4.864,-2.566 6.427,-4.769 1.155,-1.626 1.965,-3.408 2.621,-5.223 0.334,-0.924 0.579,-1.852 0.838,-2.793 0.314,-1.145 0.488,-2.299 0.707,-3.459 0.132,-0.699 0.192,-1.4 0.298,-2.105 0.06,-0.419 0.06,-0.834 0.093,-1.261 0.04,-0.469 -0.017,-0.942 -0.021,-1.412 -0.012,-0.894 -0.765,-1.767 -1.585,-2.225 -0.362,-0.205 -0.589,-0.425 -0.871,0.008 -0.389,0.602 -0.672,1.126 -1.274,1.592 -0.51,0.399 -1.326,0.613 -1.921,0.235 -0.851,-0.541 -0.926,-1.971 -0.926,-2.828 0,-0.336 0.14,-0.625 -0.307,-0.716 -1.179,-0.247 -2.344,-0.457 -3.55,-0.593 -0.292,-0.035 -0.653,-0.162 -0.792,0.153 -0.296,0.679 -0.626,1.497 -1.211,2.024 -0.519,0.463 -0.913,0.626 -1.63,0.671 -1.491,0.098 -2.428,-1.335 -2.716,-2.48 -0.069,-0.277 -0.03,-0.64 -0.455,-0.613 -1.171,0.079 -2.376,0.247 -3.514,0.466 -0.259,0.052 -0.652,0.038 -0.691,0.341 -0.032,0.266 -0.034,0.543 -0.056,0.813 -0.097,1.228 -0.506,2.59 -2.09,2.731 -1.231,0.116 -1.932,-0.7 -2.383,-1.632 -0.117,-0.239 -0.175,-0.638 -0.561,-0.508 -0.877,0.292 -1.62,0.994 -2.076,1.719 -0.111,0.174 -0.405,0.627 -0.415,0.81 -0.014,0.281 0.019,0.602 0.04,0.879 0.059,0.771 0.114,1.541 0.197,2.307 0.468,4.264 1.12,8.525 3.528,12.324 1.35,2.134 3.531,4.14 6.05,5.113 C -3.179,-0.302 -1.618,-0.024 0,0 m 0.044,-0.547 c -2.167,-0.045 -4.291,-0.535 -6.117,-1.655 -2.694,-1.65 -4.421,-4.02 -5.551,-6.753 -0.792,-1.92 -1.245,-3.874 -1.593,-5.887 -0.166,-0.943 -0.302,-1.922 -0.393,-2.88 -0.065,-0.643 -0.14,-1.283 -0.188,-1.933 -0.041,-0.557 -0.072,-1.116 -0.118,-1.675 -0.018,-0.225 0.389,-0.775 0.533,-0.972 0.348,-0.462 0.821,-0.875 1.379,-1.116 0.556,1.286 1.715,2.414 3.353,2.031 1.261,-0.296 1.81,-1.073 2.108,-2.176 0.132,-0.48 0.148,-1.004 0.186,-1.505 0.012,-0.16 0.041,-0.11 0.197,-0.144 1.024,-0.211 2.079,-0.33 3.13,-0.439 0.252,-0.027 0.199,-0.035 0.254,0.172 0.419,1.569 1.603,3.115 3.6,2.872 1.579,-0.195 2.402,-1.547 2.926,-2.785 0.051,-0.118 0.116,-0.071 0.247,-0.056 1.082,0.131 2.153,0.299 3.214,0.521 0.241,0.049 0.198,0.023 0.198,0.254 0,1.057 0.134,2.72 1.25,3.337 0.759,0.419 1.749,0.235 2.411,-0.247 0.632,-0.458 1.078,-1.071 1.446,-1.709 0.81,0.419 1.477,1.109 1.477,1.996 0,0.475 0.04,0.93 0.006,1.41 -0.102,1.511 -0.331,2.989 -0.614,4.459 -0.439,2.294 -1.087,4.536 -2.043,6.717 -0.588,1.337 -1.345,2.652 -2.268,3.814 -0.496,0.626 -1.072,1.258 -1.705,1.793 -1.355,1.134 -2.906,1.94 -4.69,2.307 -0.855,0.174 -1.731,0.259 -2.635,0.249" style="fill:#000000;fill-opacity:1;fill-rule:nonzero;stroke:none" transform="matrix(1.3333333,0,0,-1.3333333,503.71027,585.4896)"></path>
      <path id="path34" d="m 0,0 c 1.45,-1.022 3.216,-2.052 5.8,-2.904 0.543,-0.178 1.14,-0.355 1.79,-0.508 1.361,-0.318 2.871,-0.581 4.649,-0.679 3.333,-0.18 6.426,0.285 8.7,0.924 0.615,0.172 1.174,0.342 1.705,0.532 1.944,0.689 3.45,1.468 4.698,2.271 0.012,-0.035 0.02,-0.077 0.028,-0.116 0.025,-0.146 0.095,-0.297 0.102,-0.444 0.002,-0.036 -0.199,-0.141 -0.262,-0.178 -1.486,-0.899 -3.291,-1.798 -5.795,-2.513 -1.345,-0.383 -2.989,-0.751 -4.832,-0.927 -0.916,-0.09 -1.851,-0.142 -2.843,-0.142 -3.378,0 -6.261,0.616 -8.301,1.31 -1.306,0.445 -2.336,0.911 -3.321,1.418 -0.757,0.387 -1.419,0.8 -2.016,1.202 -0.083,0.055 -0.314,0.191 -0.302,0.243 0.046,0.175 0.121,0.349 0.192,0.519 C 0,0.004 -0.008,0.002 0,0" style="fill:#000000;fill-opacity:1;fill-rule:nonzero;stroke:none" transform="matrix(1.3333333,0,0,-1.3333333,485.6224,606.42573)"></path>
      <path id="path35" d="m 0,0 31.06,-13.565 3.588,10.513 10.323,-9.094 13.578,23.94 0.399,-25.056 22.769,5.57 -9.714,-18.709 30.952,-9.907 -33.947,-9.159 10.158,-18.282 -23.648,8.942 2.768,-18.652 -11.808,16.395 -3.68,-9.301 -3.786,9.423 -14.53,-22.166 0.164,26.491 -20.74,-10.783 7.539,17.72 -5.101,1.315 3.88,4.921 -32.325,4.912 36.466,8.876 z" style="fill:#ffed4e;fill-opacity:1;fill-rule:nonzero;stroke:none" transform="matrix(1.3333333,0,0,-1.3333333,445.70053,433.22653)"></path>
      <path id="path36" d="M 0,0 C 0.514,1.175 4.992,0.138 5.066,-0.939 5.135,-1.942 4.799,-6.251 3.604,-9.946 2.766,-6.847 0.295,-6.04 -2.146,-7.043 -1.004,-3.179 -0.15,-0.342 0,0" style="fill:#66e204;fill-opacity:1;fill-rule:nonzero;stroke:none" transform="matrix(1.3333333,0,0,-1.3333333,516.2624,508.58333)"></path>
      <path id="path37" d="M 0,0 C -0.322,-0.988 -0.703,-1.933 -1.156,-2.759 -3.594,-7.21 -6.519,-9.044 -6.519,-9.044 l -3.484,-10.406 c -0.669,0.133 -1.41,0.24 -2.187,0.304 1.478,5.098 4.408,15.193 6.439,22.049 C -3.309,3.906 -0.838,3.1 0,0" style="fill:#f5f5f5;fill-opacity:1;fill-rule:nonzero;stroke:none" transform="matrix(1.3333333,0,0,-1.3333333,521.0684,521.84507)"></path>
      <path id="path38" d="m 0,0 c 0.777,-0.063 1.519,-0.171 2.187,-0.304 l -1.179,-3.524 -1.931,0.635 c 0,0 0.352,1.22 0.923,3.193" style="fill:#d1d1d1;fill-opacity:1;fill-rule:nonzero;stroke:none" transform="matrix(1.3333333,0,0,-1.3333333,504.8144,547.37373)"></path>
      <path id="path39" d="M 0,0 C 0.411,0.012 0.822,-0.039 1.229,-0.102 1.802,-0.198 2.402,-0.375 2.958,-0.636 3.22,-0.76 3.623,-0.958 3.848,-1.28 3.987,-1.48 4.03,-1.604 4.034,-1.984 4.044,-2.841 3.945,-3.761 3.852,-4.572 3.617,-6.646 3.204,-8.676 2.659,-10.481 c -0.385,-1.283 -0.895,-2.492 -1.45,-3.459 -0.646,-1.126 -1.338,-2.13 -2.063,-3.013 -0.881,-1.076 -1.805,-2.003 -2.747,-2.718 -0.078,-0.063 -0.372,-0.237 -0.417,-0.345 -0.099,-0.269 -0.184,-0.568 -0.281,-0.848 -0.164,-0.478 -0.318,-0.978 -0.484,-1.449 -0.245,-0.683 -0.466,-1.402 -0.705,-2.092 -0.662,-1.949 -1.308,-3.931 -1.968,-5.887 -0.385,-1.152 -0.775,-2.299 -1.16,-3.457 -0.079,-0.239 -0.235,-0.272 -0.365,-0.23 -0.563,0.181 -1.128,0.382 -1.691,0.55 -0.089,0.027 -0.453,0.075 -0.437,0.368 0.002,0.072 0.144,0.515 0.166,0.608 0.919,3.222 1.875,6.387 2.79,9.608 0.353,1.246 0.725,2.463 1.082,3.706 0.569,2.017 1.18,3.99 1.753,6.004 0.243,0.858 0.496,1.703 0.748,2.556 0.518,1.748 1.024,3.519 1.553,5.249 0.358,1.166 0.694,2.392 1.069,3.527 0.132,0.407 0.302,1.104 0.508,1.333 C -1.017,0 -0.474,-0.049 0,0 m 0.028,-0.551 c -0.324,-0.053 -0.7,0.02 -1.004,-0.243 -0.144,-0.128 -0.322,-0.816 -0.417,-1.107 -0.231,-0.702 -0.448,-1.454 -0.665,-2.175 -0.484,-1.596 -0.963,-3.208 -1.433,-4.822 -0.808,-2.787 -1.646,-5.535 -2.442,-8.337 -0.551,-1.946 -1.136,-3.85 -1.691,-5.791 -0.444,-1.558 -0.895,-3.117 -1.349,-4.654 -0.51,-1.731 -1.012,-3.489 -1.508,-5.226 0.453,-0.138 0.905,-0.298 1.356,-0.447 0.071,-0.023 0.065,0.036 0.105,0.155 0.794,2.357 1.572,4.745 2.376,7.088 0.585,1.707 1.142,3.456 1.725,5.161 0.136,0.401 0.27,0.802 0.403,1.209 0.067,0.205 0.336,0.328 0.45,0.409 0.714,0.519 1.42,1.207 2.108,1.95 1.146,1.241 2.258,2.818 3.199,4.716 0.164,0.328 0.33,0.764 0.47,1.137 0.776,2.063 1.316,4.61 1.602,7.176 0.083,0.755 0.14,1.448 0.16,2.234 0.01,0.411 -0.015,0.479 -0.188,0.619 -0.521,0.422 -1.12,0.605 -1.671,0.741 -0.523,0.128 -1.049,0.201 -1.586,0.207" style="fill:#000000;fill-opacity:1;fill-rule:nonzero;stroke:none" transform="matrix(1.3333333,0,0,-1.3333333,518.0228,507.53)"></path>
      <path id="path40" d="M 0,0 C 0.94,-0.002 1.831,-0.356 2.457,-0.909 3.143,-1.513 3.536,-2.256 3.801,-3.02 3.813,-3.052 3.856,-3.163 3.85,-3.189 3.801,-3.384 3.732,-3.58 3.673,-3.771 c -0.275,1.074 -0.749,2.25 -1.933,2.967 -0.555,0.336 -1.284,0.508 -1.987,0.468 -0.638,-0.039 -1.227,-0.196 -1.796,-0.437 0.006,0.05 0.026,0.109 0.041,0.16 0.026,0.074 0.044,0.161 0.072,0.236 0.009,0.019 0.065,0.034 0.092,0.043 C -1.253,-0.13 -0.654,0.01 0,0" style="fill:#000000;fill-opacity:1;fill-rule:nonzero;stroke:none" transform="matrix(1.3333333,0,0,-1.3333333,516.04627,517.2096)"></path>
      <path id="path41" d="m 0,0 c 0.15,-0.342 1.006,-3.179 2.15,-7.043 -2.446,1.003 -4.916,0.196 -5.753,-2.903 -1.194,3.695 -1.532,8.004 -1.461,9.007 C -4.99,0.138 -0.514,1.175 0,0" style="fill:#66e204;fill-opacity:1;fill-rule:nonzero;stroke:none" transform="matrix(1.3333333,0,0,-1.3333333,489.70253,508.58333)"></path>
      <path id="path42" d="m 0,0 c -0.751,-0.03 -1.499,-0.104 -2.218,-0.223 l -3.436,10.261 c 0,0 -2.924,1.834 -5.362,6.285 -0.452,0.826 -0.835,1.771 -1.154,2.759 0.836,3.1 3.306,3.906 5.753,2.903 C -4.398,15.157 -1.482,5.119 0,0" style="fill:#f5f5f5;fill-opacity:1;fill-rule:nonzero;stroke:none" transform="matrix(1.3333333,0,0,-1.3333333,501.12627,547.28773)"></path>
      <path id="path43" d="M 0,0 C 0.719,0.119 1.466,0.192 2.218,0.223 2.801,-1.786 3.163,-3.035 3.163,-3.035 L 1.228,-3.67 Z" style="fill:#d1d1d1;fill-opacity:1;fill-rule:nonzero;stroke:none" transform="matrix(1.3333333,0,0,-1.3333333,498.16933,547.58467)"></path>
      <path id="path44" d="m 0,0 c 0.531,-0.024 1.112,0.036 1.598,-0.411 0.208,-0.191 0.32,-0.592 0.441,-0.988 0.829,-2.705 1.653,-5.425 2.453,-8.175 0.386,-1.333 0.781,-2.665 1.172,-3.993 0.389,-1.313 0.78,-2.633 1.158,-3.959 0.843,-2.961 1.725,-5.87 2.566,-8.833 0.336,-1.183 0.698,-2.346 1.035,-3.535 0.287,-1.034 0.601,-2.043 0.887,-3.084 0.066,-0.241 -0.085,-0.341 -0.17,-0.37 -0.507,-0.173 -1.019,-0.339 -1.525,-0.501 -0.207,-0.064 -0.638,-0.319 -0.78,0.1 -0.314,0.907 -0.613,1.822 -0.919,2.736 -0.391,1.166 -0.794,2.326 -1.177,3.503 -0.783,2.412 -1.608,4.771 -2.395,7.173 -0.049,0.135 -0.097,0.352 -0.168,0.402 -0.389,0.266 -0.766,0.585 -1.144,0.918 -0.804,0.705 -1.57,1.58 -2.323,2.519 -0.458,0.571 -0.875,1.239 -1.302,1.895 -0.918,1.404 -1.62,3.188 -2.175,5.293 -0.362,1.38 -0.606,2.807 -0.812,4.293 -0.101,0.698 -0.182,1.534 -0.215,2.259 -0.014,0.38 -0.079,1.069 0.077,1.338 0.243,0.413 0.642,0.622 0.932,0.756 C -1.877,-0.241 -0.948,-0.043 0,0 m 0.041,-0.551 c -0.938,-0.081 -1.896,-0.207 -2.791,-0.723 -0.113,-0.065 -0.498,-0.263 -0.504,-0.571 -0.024,-0.879 0.085,-1.851 0.18,-2.681 0.377,-3.398 1.27,-6.863 2.546,-9.086 0.727,-1.262 1.488,-2.36 2.306,-3.322 0.861,-1.003 1.788,-1.911 2.7,-2.539 0.145,-0.097 0.186,-0.064 0.281,-0.356 0.285,-0.901 0.599,-1.764 0.891,-2.657 0.257,-0.785 0.52,-1.565 0.784,-2.336 0.485,-1.426 0.957,-2.88 1.443,-4.312 0.464,-1.381 0.926,-2.764 1.39,-4.147 0.042,-0.132 0.074,-0.069 0.137,-0.042 0.433,0.161 0.867,0.262 1.298,0.417 -0.512,1.807 -1.051,3.612 -1.567,5.425 -0.251,0.888 -0.514,1.759 -0.768,2.648 -0.65,2.286 -1.336,4.532 -1.986,6.816 -0.48,1.687 -0.976,3.36 -1.47,5.025 -0.865,2.926 -1.709,5.882 -2.594,8.769 -0.322,1.062 -0.63,2.141 -0.979,3.163 -0.125,0.37 -0.313,0.37 -0.504,0.432 -0.259,0.085 -0.528,0.057 -0.793,0.077" style="fill:#000000;fill-opacity:1;fill-rule:nonzero;stroke:none" transform="matrix(1.3333333,0,0,-1.3333333,487.65293,507.53)"></path>
      <path id="path45" d="m 0,0 c 0.134,0.002 0.271,-0.002 0.405,-0.013 0.516,-0.034 1.011,-0.164 1.484,-0.34 0.025,-0.005 0.047,-0.009 0.053,-0.03 0.037,-0.13 0.079,-0.263 0.111,-0.39 -0.793,0.334 -1.7,0.54 -2.602,0.39 -0.946,-0.156 -1.654,-0.648 -2.152,-1.282 -0.219,-0.275 -0.383,-0.561 -0.531,-0.866 -0.198,-0.402 -0.314,-0.823 -0.431,-1.24 -0.063,0.191 -0.12,0.381 -0.174,0.574 -0.013,0.042 0.026,0.115 0.042,0.162 0.29,0.874 0.818,1.809 1.733,2.415 C -1.48,-0.235 -0.761,-0.006 0,0" style="fill:#000000;fill-opacity:1;fill-rule:nonzero;stroke:none" transform="matrix(1.3333333,0,0,-1.3333333,489.90493,517.2096)"></path>
      <path id="path46" d="m 0,0 c 2.545,-2.158 4.368,-4.64 3.985,-7.185 -0.464,-3.076 -3.784,-4.951 -7.624,-6.099 2.331,1.805 4.107,4.135 4.599,7.132 C 1.314,-3.985 0.897,-1.918 0,0" style="fill:#66e204;fill-opacity:1;fill-rule:nonzero;stroke:none" transform="matrix(1.3333333,0,0,-1.3333333,560.3372,568.3424)"></path>
      <path id="path47" d="m 0,0 c 4.84,4.512 0.604,6.241 0.964,8.741 0.585,4.036 4.407,5.144 2.481,8.277 C 4.83,16.163 6.211,15.208 7.426,14.175 8.323,12.257 8.74,10.189 8.386,8.022 7.894,5.025 6.118,2.695 3.787,0.891 2.552,0.522 1.264,0.229 0,0" style="fill:#bbbbbb;fill-opacity:1;fill-rule:nonzero;stroke:none" transform="matrix(1.3333333,0,0,-1.3333333,550.43613,587.24213)"></path>
      <path id="path48" d="m 0,0 c 0,0 1.681,-0.662 3.961,-1.799 1.747,-5.631 0.231,-14.675 -4.337,-20.075 -2.295,-0.199 -3.885,-0.211 -3.885,-0.211 z" style="fill:#d1d1d1;fill-opacity:1;fill-rule:nonzero;stroke:none" transform="matrix(1.3333333,0,0,-1.3333333,544.03453,559)"></path>
      <path id="path49" d="M 0,0 C 4.568,5.4 6.085,14.444 4.337,20.075 5.638,19.43 7.132,18.63 8.623,17.71 10.548,14.577 6.727,13.47 6.142,9.434 5.781,6.934 10.018,5.204 5.178,0.692 3.315,0.346 1.504,0.131 0,0" style="fill:#f5f5f5;fill-opacity:1;fill-rule:nonzero;stroke:none" transform="matrix(1.3333333,0,0,-1.3333333,543.53253,588.16533)"></path>
      <path id="path50" d="m 0,0 c 0.046,0.012 0.093,-0.002 0.138,-0.019 0.494,-0.184 0.988,-0.415 1.474,-0.627 1.519,-0.672 3.013,-1.426 4.497,-2.215 1.171,-0.628 2.315,-1.327 3.425,-2.046 0.824,-0.532 1.66,-1.14 2.422,-1.762 1.002,-0.826 2.008,-1.719 2.829,-2.768 1.043,-1.338 1.919,-2.94 1.774,-4.73 -0.215,-2.627 -2.376,-4.334 -4.49,-5.379 -1.835,-0.903 -3.777,-1.458 -5.725,-1.895 -1.719,-0.383 -3.465,-0.636 -5.222,-0.846 -0.583,-0.069 -1.183,-0.132 -1.768,-0.175 -0.605,-0.042 -1.217,-0.1 -1.82,-0.121 -0.438,-0.015 -0.879,-0.045 -1.317,-0.053 -0.293,-0.002 -0.789,-0.107 -0.711,0.377 0.116,0.706 0.272,1.415 0.406,2.12 0.749,3.947 1.532,7.887 2.284,11.836 0.48,2.543 0.994,5.085 1.474,7.63 C -0.284,-0.441 -0.292,-0.035 0,0 m 0.249,-0.667 c -1.126,-5.829 -2.272,-11.661 -3.38,-17.5 -0.247,-1.304 -0.516,-2.602 -0.751,-3.908 2.375,0.073 4.74,0.26 7.061,0.62 1.823,0.279 3.627,0.638 5.401,1.168 1.187,0.354 2.401,0.794 3.522,1.39 1.818,0.973 3.737,2.47 3.901,4.791 0.114,1.622 -0.662,2.98 -1.571,4.211 -0.352,0.483 -0.8,0.93 -1.215,1.361 -0.37,0.381 -0.785,0.731 -1.184,1.071 -0.879,0.764 -1.833,1.42 -2.787,2.07 -1.041,0.713 -2.152,1.334 -3.252,1.955 -0.448,0.252 -0.911,0.501 -1.371,0.734 -0.919,0.466 -1.845,0.912 -2.776,1.339 -0.529,0.245 -1.063,0.473 -1.598,0.698" style="fill:#000000;fill-opacity:1;fill-rule:nonzero;stroke:none" transform="matrix(1.3333333,0,0,-1.3333333,543.99413,558.6328)"></path>
      <path id="path51" d="M 0,0 C 0.008,0.009 0.018,-0.02 0.024,-0.032 0.129,-0.247 0.221,-0.479 0.316,-0.713 0.862,-2.047 1.247,-3.848 1.061,-5.604 0.893,-7.227 0.417,-8.473 -0.19,-9.565 c -0.355,-0.643 -0.75,-1.179 -1.153,-1.677 -0.599,-0.736 -1.251,-1.341 -1.893,-1.882 -0.057,-0.046 -0.15,-0.142 -0.205,-0.153 -0.235,-0.055 -0.476,-0.098 -0.705,-0.138 0.426,0.332 0.855,0.658 1.271,1.053 0.354,0.328 0.714,0.672 1.048,1.069 0.662,0.781 1.312,1.654 1.821,2.857 0.316,0.746 0.55,1.527 0.688,2.47 0.32,2.178 -0.245,4.293 -0.978,5.828 C -0.199,-0.085 -0.102,-0.044 0,0" style="fill:#000000;fill-opacity:1;fill-rule:nonzero;stroke:none" transform="matrix(1.3333333,0,0,-1.3333333,560.53187,568.25907)"></path>
      <path id="path52" d="M 0,0 C 0.198,-0.119 0.403,-0.233 0.602,-0.375 0.654,-0.413 0.768,-0.701 0.808,-0.808 1.013,-1.351 1.096,-1.909 0.913,-2.565 0.725,-3.24 0.371,-3.746 0.089,-4.168 -0.535,-5.105 -1.239,-5.913 -1.719,-7.3 c -0.13,-0.367 -0.324,-1.084 -0.3,-1.565 0.024,-0.675 0.393,-1.339 0.596,-1.762 0.273,-0.567 0.574,-1.098 0.735,-1.899 0.2,-1.009 -0.142,-1.939 -0.458,-2.516 -0.496,-0.887 -1.051,-1.466 -1.618,-2.039 -0.045,-0.045 -0.063,-0.066 -0.115,-0.075 -0.183,-0.034 -0.369,-0.074 -0.551,-0.097 0.639,0.607 1.306,1.229 1.881,2.179 0.261,0.433 0.589,1.124 0.585,1.95 -0.004,0.632 -0.251,1.296 -0.445,1.699 -0.156,0.323 -0.316,0.644 -0.472,0.97 -0.223,0.46 -0.545,1.168 -0.464,1.932 0.095,0.921 0.456,1.8 0.762,2.381 0.566,1.08 1.221,1.815 1.808,2.819 0.271,0.464 0.601,1.203 0.38,2.05 C 0.462,-0.713 0.219,-0.366 0,0" style="fill:#000000;fill-opacity:1;fill-rule:nonzero;stroke:none" transform="matrix(1.3333333,0,0,-1.3333333,554.61587,564.30853)"></path>
      <path id="path53" d="m 0,0 c -1.017,-1.856 -1.569,-3.894 -1.357,-6.077 0.296,-3.024 1.914,-5.465 4.123,-7.417 -3.754,1.394 -6.952,3.484 -7.211,6.583 C -4.66,-4.346 -2.681,-1.986 0,0" style="fill:#66e204;fill-opacity:1;fill-rule:nonzero;stroke:none" transform="matrix(1.3333333,0,0,-1.3333333,446.19987,565.36453)"></path>
      <path id="path54" d="m 0,0 c 1.282,0.95 2.722,1.814 4.162,2.576 -2.127,-3.001 1.613,-4.356 1.933,-8.42 0.199,-2.519 -3.804,-4.789 0.391,-8.791 -1.245,0.317 -2.513,0.691 -3.72,1.141 -2.209,1.952 -3.827,4.393 -4.123,7.417 C -1.569,-3.894 -1.017,-1.856 0,0" style="fill:#bbbbbb;fill-opacity:1;fill-rule:nonzero;stroke:none" transform="matrix(1.3333333,0,0,-1.3333333,446.19987,565.36453)"></path>
      <path id="path55" d="m 0,0 c -1.491,0.23 -3.285,0.561 -5.121,1.024 -4.196,4.002 -0.192,6.272 -0.391,8.791 -0.32,4.064 -4.06,5.419 -1.934,8.42 1.547,0.819 3.088,1.519 4.429,2.081 C -5.127,14.809 -4.206,5.687 0,0" style="fill:#f5f5f5;fill-opacity:1;fill-rule:nonzero;stroke:none" transform="matrix(1.3333333,0,0,-1.3333333,461.6764,586.24347)"></path>
      <path id="path56" d="M 0,0 C 2.349,0.984 4.07,1.535 4.07,1.535 L 6.876,-20.78 c 0,0 -1.585,0.113 -3.859,0.464 C -1.189,-14.63 -2.11,-5.508 0,0" style="fill:#d1d1d1;fill-opacity:1;fill-rule:nonzero;stroke:none" transform="matrix(1.3333333,0,0,-1.3333333,457.6536,559.15493)"></path>
      <path id="path57" d="m 0,0 c 0.255,0.01 0.288,-0.188 0.318,-0.411 0.16,-1.207 0.289,-2.42 0.452,-3.625 0.583,-4.38 1.071,-8.782 1.66,-13.162 0.239,-1.766 0.413,-3.548 0.664,-5.308 0.033,-0.217 -0.085,-0.377 -0.287,-0.362 -0.972,0.064 -1.94,0.2 -2.9,0.322 -0.782,0.095 -1.574,0.229 -2.347,0.37 -1.713,0.317 -3.402,0.67 -5.081,1.151 -1.901,0.543 -3.809,1.235 -5.595,2.231 -0.958,0.534 -1.922,1.217 -2.685,2.058 -1,1.105 -1.671,2.418 -1.579,4.013 0.085,1.517 0.879,2.862 1.8,3.967 0.394,0.472 0.876,0.956 1.328,1.351 1.444,1.258 3.022,2.312 4.678,3.236 0.852,0.476 1.723,0.947 2.6,1.355 1.081,0.505 2.167,1.022 3.272,1.458 C -2.477,-0.873 -1.249,-0.381 0,0 m -0.235,-0.647 c -3.368,-1.175 -6.69,-2.603 -9.86,-4.468 -0.971,-0.572 -1.889,-1.209 -2.792,-1.892 -0.938,-0.708 -1.928,-1.617 -2.655,-2.607 -0.982,-1.343 -1.628,-2.941 -1.095,-4.662 0.717,-2.3 3.07,-3.724 4.979,-4.642 1.414,-0.676 2.882,-1.145 4.35,-1.585 1.642,-0.492 3.331,-0.818 5.01,-1.136 0.84,-0.162 1.694,-0.263 2.543,-0.389 0.699,-0.101 1.41,-0.176 2.116,-0.244 0.045,-0.005 0.104,-0.017 0.138,-0.003 -0.328,2.495 -0.609,4.996 -0.941,7.491 -0.276,2.079 -0.515,4.171 -0.787,6.255 -0.226,1.741 -0.445,3.483 -0.655,5.226 -0.106,0.863 -0.233,1.724 -0.328,2.588 -0.007,0.021 0,0.063 -0.023,0.068" style="fill:#000000;fill-opacity:1;fill-rule:nonzero;stroke:none" transform="matrix(1.3333333,0,0,-1.3333333,463.0612,556.74613)"></path>
      <path id="path58" d="m 0,0 c 0.098,-0.043 0.195,-0.104 0.296,-0.156 -0.739,-1.353 -1.474,-3.214 -1.375,-5.494 0.085,-1.877 0.706,-3.411 1.354,-4.528 0.89,-1.527 1.961,-2.574 2.994,-3.483 -0.225,0.057 -0.452,0.113 -0.675,0.181 -0.046,0.015 -0.069,0.032 -0.111,0.072 -0.701,0.648 -1.401,1.418 -2.039,2.345 -0.92,1.333 -1.948,3.457 -1.863,6.132 C -1.353,-2.898 -0.68,-1.245 0,0" style="fill:#000000;fill-opacity:1;fill-rule:nonzero;stroke:none" transform="matrix(1.3333333,0,0,-1.3333333,446.0052,565.26693)"></path>
      <path id="path59" d="m 0,0 c -0.117,-0.173 -0.253,-0.36 -0.373,-0.558 -0.22,-0.362 -0.534,-1.005 -0.388,-1.809 0.111,-0.611 0.409,-1.122 0.614,-1.481 0.368,-0.656 0.765,-1.216 1.121,-1.933 0.337,-0.683 0.705,-1.571 0.806,-2.724 0.037,-0.437 -0.022,-0.812 -0.121,-1.154 -0.213,-0.695 -0.492,-1.195 -0.745,-1.752 -0.221,-0.476 -0.539,-1.149 -0.63,-1.898 -0.116,-0.931 0.153,-1.654 0.413,-2.142 0.484,-0.913 1.063,-1.442 1.61,-1.977 -0.142,0.017 -0.282,0.051 -0.424,0.081 -0.052,0.011 -0.15,0.006 -0.198,0.055 -0.31,0.32 -0.625,0.656 -0.925,1.092 -0.261,0.379 -0.608,0.949 -0.76,1.666 -0.174,0.82 -0.046,1.563 0.17,2.201 0.197,0.59 0.444,1.078 0.671,1.554 0.184,0.386 0.443,0.913 0.555,1.471 0.093,0.44 0.064,0.717 0.001,1.163 -0.07,0.525 -0.243,1.126 -0.402,1.497 -0.164,0.39 -0.33,0.757 -0.513,1.079 -0.275,0.486 -0.561,0.931 -0.836,1.414 -0.247,0.428 -0.582,0.962 -0.727,1.68 -0.152,0.747 0.053,1.363 0.261,1.798 0.047,0.091 0.146,0.304 0.195,0.334 C -0.417,-0.201 -0.208,-0.116 0,0" style="fill:#000000;fill-opacity:1;fill-rule:nonzero;stroke:none" transform="matrix(1.3333333,0,0,-1.3333333,452.16933,561.7136)"></path>
      <path id="path60" d="m 0,0 c -9.412,0 -17.934,3.173 -24.104,8.301 -6.168,5.129 -9.985,12.215 -9.985,20.041 0,7.827 3.817,14.914 9.985,20.042 6.17,5.129 14.692,8.303 24.104,8.303 9.412,0 17.936,-3.174 24.104,-8.303 6.172,-5.128 9.985,-12.215 9.985,-20.042 0,-7.826 -3.813,-14.912 -9.985,-20.041 C 17.936,3.173 9.412,0 0,0" style="fill:#f5f5f5;fill-opacity:1;fill-rule:nonzero;stroke:none" transform="matrix(1.3333333,0,0,-1.3333333,503.4968,604.836)"></path>
      <path id="path61" d="m 0,0 c 2.497,0.057 4.971,-0.081 7.367,-0.454 2.227,-0.35 4.435,-0.87 6.551,-1.598 8.102,-2.776 14.309,-7.646 18.185,-14.207 1.735,-2.94 2.865,-6.407 3.201,-9.633 0.085,-0.784 0.156,-1.582 0.156,-2.379 0,-4.449 -1.031,-8.364 -3.188,-12.379 -0.771,-1.442 -1.759,-2.754 -2.78,-4.06 -0.692,-0.888 -1.507,-1.693 -2.312,-2.516 -1.301,-1.322 -2.811,-2.437 -4.358,-3.539 -3.931,-2.798 -9.461,-4.986 -14.453,-5.818 -4.485,-0.751 -9.272,-0.883 -13.794,-0.132 -8.75,1.465 -16.214,5.4 -21.526,11.535 -2.207,2.549 -3.928,5.5 -4.965,8.503 -2.752,8.011 -1.361,16.443 4.03,23.506 C -21.848,-5.261 -11.101,-0.2 0,0 m 0.067,-0.539 c -4.326,-0.123 -8.418,-0.901 -12.387,-2.3 -4.097,-1.45 -7.886,-3.623 -10.973,-6.333 -0.515,-0.455 -0.989,-0.929 -1.493,-1.377 -0.873,-0.781 -1.628,-1.721 -2.353,-2.592 -1.098,-1.32 -2.048,-2.877 -2.837,-4.353 -1.517,-2.829 -2.39,-5.986 -2.653,-9.067 -0.279,-3.259 0.091,-6.649 1.172,-9.705 2.499,-7.037 7.912,-12.92 15.579,-16.615 1.804,-0.871 3.578,-1.513 5.5,-2.131 2.809,-0.9 5.893,-1.356 8.89,-1.573 2.679,-0.192 5.364,-0.024 7.966,0.272 2.08,0.237 4.189,0.754 6.176,1.336 3.619,1.061 7.021,2.732 9.981,4.769 5.713,3.925 9.634,9.218 11.339,15.145 0.275,0.958 0.532,2.004 0.651,2.987 0.225,1.901 0.367,3.806 0.134,5.728 -0.229,1.93 -0.554,3.741 -1.225,5.583 -0.324,0.887 -0.66,1.772 -1.079,2.637 -1.446,3.001 -3.577,5.798 -6.152,8.191 -1.361,1.27 -2.862,2.428 -4.451,3.463 -6.215,4.037 -13.912,6.11 -21.785,5.935" style="fill:#000000;fill-opacity:1;fill-rule:nonzero;stroke:none" transform="matrix(1.3333333,0,0,-1.3333333,502.06573,528.914)"></path>
      <path id="path62" d="m 0,0 c -7.739,0 -14.744,2.803 -19.816,7.328 -5.071,4.532 -8.21,10.791 -8.21,17.703 0,6.913 3.139,13.172 8.21,17.7 5.072,4.533 12.077,7.333 19.816,7.333 7.736,0 14.744,-2.8 19.815,-7.333 5.075,-4.528 8.207,-10.787 8.207,-17.7 C 28.022,18.119 24.89,11.86 19.815,7.328 14.744,2.803 7.736,0 0,0" style="fill:#bbbbbb;fill-opacity:1;fill-rule:nonzero;stroke:none" transform="matrix(1.3333333,0,0,-1.3333333,503.35613,596.29813)"></path>
      <path id="path63" d="m 0,0 c 3.019,0.017 6.049,-0.317 8.87,-1.136 5.623,-1.635 10.515,-4.639 14.102,-8.92 3.151,-3.762 5.17,-8.337 5.558,-12.978 0.136,-1.628 0.15,-3.313 -0.063,-4.929 -0.372,-2.837 -1.204,-5.457 -2.569,-8.076 -0.727,-1.395 -1.641,-2.69 -2.627,-3.93 -3.582,-4.502 -8.944,-7.839 -14.8,-9.39 -7.788,-2.066 -16.31,-1.019 -23.195,2.91 -3.459,1.974 -6.227,4.495 -8.509,7.541 -2.491,3.319 -4.082,7.578 -4.434,11.488 -0.163,1.755 -0.134,3.578 0.109,5.31 0.158,1.124 0.417,2.168 0.696,3.265 0.304,1.198 0.817,2.352 1.331,3.497 1.144,2.561 3.011,5.013 5.042,7.058 0.852,0.86 1.904,1.776 2.904,2.486 2.569,1.827 5.459,3.444 8.602,4.37 C -6.059,-0.575 -3.141,-0.006 0,0 m -0.059,-0.323 c -6.31,-0.102 -12.486,-2.143 -17.368,-5.796 -5.444,-4.074 -8.734,-9.567 -9.739,-15.716 -0.155,-0.944 -0.238,-1.91 -0.238,-2.882 0,-1.962 0.117,-3.847 0.605,-5.715 0.549,-2.101 1.282,-4.147 2.43,-6.103 1.948,-3.305 4.461,-5.982 7.75,-8.32 2.602,-1.847 5.593,-3.147 8.72,-4.067 4.226,-1.245 8.916,-1.409 13.334,-0.743 3.852,0.581 7.525,2.025 10.803,3.995 2.001,1.205 3.931,2.782 5.496,4.459 1.681,1.799 2.989,3.666 4.097,5.809 3.564,6.911 3.195,15.174 -0.814,21.893 -4.905,8.22 -14.418,13.186 -24.713,13.186 z" style="fill:#000000;fill-opacity:1;fill-rule:nonzero;stroke:none" transform="matrix(1.3333333,0,0,-1.3333333,502.7812,529.336)"></path>
      <path id="path64" d="m 0,0 c -6.105,0 -11.638,2.207 -15.641,5.779 -4.002,3.576 -6.48,8.511 -6.48,13.962 0,5.452 2.478,10.385 6.48,13.961 4.003,3.572 9.536,5.783 15.641,5.783 6.107,0 11.638,-2.211 15.643,-5.783 4.002,-3.576 6.478,-8.509 6.478,-13.961 C 22.121,14.29 19.645,9.355 15.643,5.779 11.638,2.207 6.107,0 0,0" style="fill:#2c2c2c;fill-opacity:1;fill-rule:nonzero;stroke:none" transform="matrix(1.3333333,0,0,-1.3333333,503.43747,588.70307)"></path>
      <path id="path65" d="m 0,0 c 2.965,0.119 5.761,-0.379 8.493,-1.235 2.416,-0.76 4.846,-2.097 6.772,-3.591 1.986,-1.541 3.56,-3.284 4.868,-5.291 1.448,-2.222 2.365,-4.889 2.707,-7.382 0.075,-0.57 0.087,-1.125 0.134,-1.7 0.058,-0.768 -0.008,-1.53 -0.059,-2.284 -0.113,-1.799 -0.618,-3.763 -1.345,-5.438 -2.021,-4.668 -5.866,-8.572 -10.912,-10.797 -7.157,-3.161 -15.7,-2.73 -22.365,1.276 -4.523,2.719 -7.735,6.755 -9.152,11.419 -0.381,1.257 -0.606,2.574 -0.695,3.885 -0.211,3.036 0.356,5.96 1.583,8.724 1.019,2.288 2.534,4.306 4.39,6.114 C -11.583,-2.41 -5.81,-0.141 0,0 m 0.379,-0.316 c -3.41,-0.043 -6.582,-0.788 -9.635,-2.135 -3.672,-1.617 -6.756,-4.286 -8.886,-7.391 -0.703,-1.027 -1.274,-2.14 -1.752,-3.254 -2.748,-6.446 -1.267,-14.204 3.844,-19.442 2.315,-2.373 4.963,-4.172 8.199,-5.399 2.815,-1.063 5.711,-1.531 8.799,-1.531 7.28,0 14.317,3.518 18.257,9.05 3.587,5.026 4.4,11.14 2.303,16.769 C 18.746,-6.237 11.026,-0.924 2.397,-0.385 1.98,-0.356 1.565,-0.33 1.138,-0.326 0.887,-0.324 0.632,-0.309 0.379,-0.316" style="fill:#000000;fill-opacity:1;fill-rule:nonzero;stroke:none" transform="matrix(1.3333333,0,0,-1.3333333,502.5084,535.85813)"></path>
      <path id="path66" d="m 0,0 c 0.089,0.482 1.369,0.571 1.369,0.571 l 4.714,0.5 1.096,5.067 c 0,0 0.305,1.379 0.828,1.47 0.692,0.121 1.107,-1.255 1.107,-1.255 l 1.888,-4.976 4.26,0.273 c 0,0 1.594,0 1.813,-0.593 0.277,-0.744 -1.009,-1.644 -1.009,-1.644 l -3.394,-2.531 1.785,-4.925 c 0,0 0.352,-0.816 -0.027,-1.102 -0.348,-0.255 -1.069,0.249 -1.069,0.249 l -4.56,3.432 -3.844,-3.934 c 0,0 -0.618,-0.52 -0.957,-0.314 -0.331,0.202 -0.141,0.896 -0.141,0.896 l 1.375,5.368 -4.353,2.367 c 0,0 -0.994,0.466 -0.881,1.081" style="fill:#4ae1ff;fill-opacity:1;fill-rule:nonzero;stroke:none" transform="matrix(1.3333333,0,0,-1.3333333,480.12827,552.71227)"></path>
      <path id="path67" d="m 0,0 c 0.125,-0.613 -0.86,-1.102 -0.86,-1.102 l -4.312,-2.446 1.474,-5.342 c 0,0 0.209,-0.688 -0.117,-0.897 -0.338,-0.215 -0.968,0.296 -0.968,0.296 l -3.916,3.863 -4.494,-3.517 c 0,0 -0.715,-0.518 -1.061,-0.269 -0.387,0.279 -0.051,1.1 -0.051,1.1 l 1.803,5.143 -3.55,2.28 c 0,0 -1.302,0.877 -1.041,1.628 0.209,0.593 1.804,0.623 1.804,0.623 l 4.263,-0.189 1.796,5.01 c 0,0 0.389,1.384 1.084,1.275 0.524,-0.085 0.854,-1.454 0.854,-1.454 l 1.191,-5.046 4.724,-0.409 c 0,0 1.278,-0.069 1.377,-0.547" style="fill:#4ae1ff;fill-opacity:1;fill-rule:nonzero;stroke:none" transform="matrix(1.3333333,0,0,-1.3333333,527.4564,552.49347)"></path>
      <path id="path185" d="M 0,0 C -0.006,0.208 0,0.423 0.022,0.634 0.174,2.011 0.952,3.186 2.094,3.973 3.232,4.761 4.732,5.162 6.324,4.987 7.912,4.815 9.289,4.104 10.237,3.09 11.18,2.077 11.69,0.764 11.543,-0.613 11.496,-0.847 11.45,-1.088 11.401,-1.337 11.097,-2.397 10.407,-3.305 9.473,-3.953 8.333,-4.738 6.834,-5.142 5.243,-4.97 3.651,-4.793 2.274,-4.082 1.329,-3.068 0.529,-2.214 0.045,-1.138 0,0" style="fill:#5e5e5e;fill-opacity:1;fill-rule:nonzero;stroke:none" transform="matrix(1.3333333,0,0,-1.3333333,542.0768,527.5912)"></path>
      <path id="path186" d="m 0,0 c 0.045,-1.138 0.529,-2.214 1.329,-3.068 0.945,-1.014 2.322,-1.725 3.914,-1.902 1.591,-0.172 3.09,0.232 4.23,1.017 0.934,0.648 1.624,1.556 1.928,2.616 -0.737,-3.733 -1.932,-8.805 -3.677,-14.503 -1.373,-4.491 -3.082,-9.376 -5.178,-14.316 -1.833,-4.33 -3.963,-8.698 -6.42,-12.875 -2.152,-3.674 -4.556,-7.199 -7.227,-10.427 -2.045,-2.471 -4.253,-4.761 -6.622,-6.811 -2.422,-2.087 -5.417,0.572 -3.302,3.03 1.927,2.242 3.685,4.625 5.285,7.11 2.142,3.327 4.005,6.824 5.623,10.382 1.869,4.109 3.409,8.295 4.68,12.375 1.5,4.819 2.619,9.501 3.451,13.746 C -0.909,-8.155 -0.315,-3.402 0,0" style="fill:#8f8f8f;fill-opacity:1;fill-rule:nonzero;stroke:none" transform="matrix(1.3333333,0,0,-1.3333333,542.0768,527.5912)"></path>
      <path id="path187" d="m 0,0 c 0.31,-0.02 0.239,-0.358 0.199,-0.74 -0.258,-2.448 -0.531,-4.877 -0.909,-7.277 -0.608,-3.879 -1.337,-7.599 -2.214,-11.356 -0.764,-3.274 -1.687,-6.583 -2.689,-9.645 -0.82,-2.493 -1.689,-4.911 -2.633,-7.246 -0.492,-1.218 -1.004,-2.386 -1.516,-3.58 -0.466,-1.091 -1.007,-2.171 -1.517,-3.205 -0.988,-1.991 -2.072,-3.975 -3.181,-5.773 -1.406,-2.279 -2.825,-4.382 -4.346,-6.359 -0.561,-0.731 -1.156,-1.518 -1.75,-2.171 -0.447,-0.494 -1.308,-1.492 -0.801,-2.587 0.635,-1.372 2.225,-1.217 3.057,-0.651 0.895,0.608 1.788,1.568 2.637,2.363 1.038,0.981 2.021,2.1 3.021,3.182 1.855,2.009 3.586,4.414 5.283,6.824 1.159,1.642 2.242,3.46 3.323,5.275 1.059,1.768 2.05,3.668 3.017,5.565 1.594,3.12 3.002,6.413 4.385,9.784 0.591,1.437 1.134,2.937 1.675,4.433 2.438,6.733 4.462,13.955 6.008,21.431 0.083,0.403 0.119,1.099 0.413,1.132 0.208,0.022 0.366,-0.087 0.291,-0.48 -0.176,-0.945 -0.372,-1.924 -0.583,-2.851 -0.844,-3.718 -1.748,-7.456 -2.839,-11.01 -0.893,-2.914 -1.802,-5.88 -2.833,-8.637 -0.587,-1.555 -1.16,-3.107 -1.776,-4.631 -0.494,-1.229 -0.996,-2.493 -1.531,-3.678 -0.842,-1.871 -1.687,-3.761 -2.6,-5.548 -0.871,-1.707 -1.75,-3.406 -2.685,-5.028 -0.848,-1.473 -1.736,-3.003 -2.645,-4.344 -1.46,-2.15 -2.886,-4.274 -4.441,-6.184 -0.528,-0.65 -1.077,-1.272 -1.601,-1.93 -0.839,-1.051 -1.79,-1.978 -2.679,-2.905 -0.92,-0.958 -1.875,-1.773 -2.821,-2.665 -1.201,-1.13 -2.928,-1.607 -4.154,-0.317 -0.933,0.989 -0.749,2.339 0.045,3.348 0.536,0.683 1.106,1.3 1.644,1.986 1.561,1.989 3.077,4.114 4.5,6.456 1.559,2.57 2.995,5.218 4.358,8.08 0.769,1.624 1.494,3.311 2.179,5.041 1.589,4.019 3.037,8.207 4.228,12.686 1.031,3.892 1.932,7.802 2.641,11.855 0.22,1.265 0.415,2.52 0.617,3.786 0.168,1.024 0.304,2.069 0.435,3.112 0.138,1.067 0.26,2.141 0.375,3.218 C -0.362,-0.765 -0.411,0.134 0,0" style="fill:#000000;fill-opacity:1;fill-rule:nonzero;stroke:none" transform="matrix(1.3333333,0,0,-1.3333333,542.1308,527.24093)"></path>
      <path id="path188" d="m 0,0 c 0.196,0.008 0.395,-0.002 0.585,-0.019 1.128,-0.071 2.161,-0.407 3.112,-0.978 1.355,-0.815 2.335,-2.164 2.591,-3.592 0.319,-1.78 -0.363,-3.552 -1.912,-4.732 -2.13,-1.628 -5.229,-1.669 -7.497,-0.251 -1.166,0.728 -2.089,1.85 -2.438,3.078 -0.117,0.396 -0.2,0.826 -0.2,1.247 0,0.605 0.083,1.126 0.281,1.69 C -4.745,-1.454 -2.42,-0.007 0,0 m 0.03,-0.553 c -1.889,-0.014 -3.689,-0.931 -4.621,-2.432 -0.802,-1.296 -0.794,-2.896 -0.071,-4.21 0.357,-0.642 0.851,-1.197 1.468,-1.657 2.088,-1.561 5.29,-1.605 7.329,0.049 1.604,1.302 2.098,3.301 1.302,5.082 -0.598,1.331 -1.833,2.354 -3.323,2.848 -0.666,0.219 -1.361,0.326 -2.084,0.32" style="fill:#000000;fill-opacity:1;fill-rule:nonzero;stroke:none" transform="matrix(1.3333333,0,0,-1.3333333,549.3808,520.51947)"></path>
      <path id="path189" d="m 0,0 c 0.124,-0.207 0.251,-0.426 0.395,-0.637 0.492,-0.718 1.167,-1.449 2.173,-2.004 0.516,-0.288 1.053,-0.505 1.733,-0.662 1.347,-0.312 2.849,-0.171 4.014,0.295 0.567,0.23 1.035,0.513 1.442,0.819 C 9.714,-2.315 9.669,-2.44 9.631,-2.564 9.619,-2.603 9.595,-2.714 9.556,-2.738 9.344,-2.88 9.119,-3.008 8.87,-3.131 8.617,-3.255 8.315,-3.376 8.019,-3.47 7.213,-3.716 6.391,-3.838 5.456,-3.795 4.093,-3.73 2.886,-3.277 2.031,-2.712 1.584,-2.416 1.181,-2.09 0.863,-1.748 0.533,-1.39 0.235,-1.033 0.006,-0.656 -0.018,-0.622 -0.093,-0.527 -0.091,-0.492 -0.071,-0.328 -0.024,-0.162 0,0" style="fill:#000000;fill-opacity:1;fill-rule:nonzero;stroke:none" transform="matrix(1.3333333,0,0,-1.3333333,539.49027,545.42973)"></path>
      <path id="path190" d="m 0,0 c 0.551,-0.99 1.341,-2.011 2.688,-2.718 0.979,-0.514 2.221,-0.8 3.515,-0.628 0.674,0.089 1.292,0.306 1.814,0.581 C 7.958,-2.906 7.896,-3.046 7.833,-3.189 7.819,-3.22 7.821,-3.232 7.778,-3.248 6.893,-3.639 5.862,-3.81 4.779,-3.695 3.285,-3.538 2.056,-2.857 1.227,-2.11 c -0.522,0.469 -0.957,1.001 -1.28,1.531 -0.016,0.03 -0.089,0.134 -0.081,0.153 C -0.095,-0.281 -0.042,-0.142 0,0" style="fill:#000000;fill-opacity:1;fill-rule:nonzero;stroke:none" transform="matrix(1.3333333,0,0,-1.3333333,534.91933,563.79813)"></path>
      <path id="path191" d="M 0,0 C 0.014,-0.037 -0.008,-0.1 0.01,-0.14 0.097,-0.354 0.196,-0.563 0.31,-0.773 0.62,-1.351 1.061,-1.92 1.65,-2.376 2.388,-2.95 3.283,-3.338 4.362,-3.423 5,-3.473 5.617,-3.395 6.203,-3.242 6.134,-3.359 6.057,-3.481 5.982,-3.601 5.97,-3.619 5.966,-3.642 5.933,-3.646 5.49,-3.74 5.03,-3.789 4.554,-3.769 c -0.808,0.037 -1.563,0.231 -2.231,0.567 -1.142,0.579 -1.904,1.467 -2.376,2.39 -0.072,0.146 -0.15,0.293 -0.204,0.441 -0.008,0.018 0.018,0.055 0.026,0.079 0.019,0.034 0.043,0.113 0.073,0.142 C -0.109,-0.1 -0.053,-0.051 0,0" style="fill:#000000;fill-opacity:1;fill-rule:nonzero;stroke:none" transform="matrix(1.3333333,0,0,-1.3333333,528.8092,580.38147)"></path>
      <path id="path192" d="m 0,0 c 0.012,-0.215 0.016,-0.445 0.044,-0.662 0.049,-0.405 0.152,-0.8 0.334,-1.177 0.3,-0.622 0.805,-1.132 1.485,-1.428 0.585,-0.258 1.193,-0.328 1.843,-0.275 0.328,0.024 0.644,0.105 0.958,0.183 C 4.56,-3.481 4.457,-3.608 4.352,-3.73 4.333,-3.751 4.311,-3.787 4.283,-3.793 4.224,-3.808 4.161,-3.817 4.101,-3.827 c -0.695,-0.116 -1.4,-0.086 -2.058,0.133 -1.067,0.352 -1.813,1.15 -2.132,2.114 -0.103,0.3 -0.164,0.588 -0.203,0.901 -0.006,0.041 -0.026,0.16 -0.01,0.189 C -0.209,-0.32 -0.1,-0.162 0,0" style="fill:#000000;fill-opacity:1;fill-rule:nonzero;stroke:none" transform="matrix(1.3333333,0,0,-1.3333333,521.29813,594.1028)"></path>
      <path id="path193" d="m 0,0 c 2.068,-3.774 -1.901,-13.444 -9.094,-13.931 -4.097,-0.262 -4.34,2.66 -2.799,3.548 0.912,0.523 3.202,1.266 4.435,3.435 1.502,2.655 0.685,3.676 0.456,5.634 C -7.304,1.281 -1.563,2.863 0,0" style="fill:#f5f5f5;fill-opacity:1;fill-rule:nonzero;stroke:none" transform="matrix(1.3333333,0,0,-1.3333333,566.7252,506.2852)"></path>
      <path id="path194" d="M 0,0 C 0.761,0.004 1.515,-0.144 2.189,-0.543 3.57,-1.358 3.914,-3.082 3.848,-4.667 3.825,-5.246 3.746,-5.808 3.629,-6.364 3.396,-7.445 3.035,-8.464 2.547,-9.467 c -0.552,-1.148 -1.221,-2.13 -2.033,-3.08 -1.798,-2.094 -4.388,-3.48 -7.006,-3.48 -1.082,0 -2.546,0.214 -3.206,1.292 -0.334,0.542 -0.423,1.204 -0.166,1.803 0.29,0.677 0.751,0.951 1.351,1.236 1.363,0.65 2.756,1.393 3.645,2.754 0.522,0.799 0.97,1.808 1.036,2.78 0.069,0.999 -0.295,1.96 -0.406,2.933 -0.085,0.747 0.162,1.35 0.664,1.863 C -2.635,-0.411 -1.246,-0.03 0,0 m 0.016,-0.555 c -1.031,-0.03 -2.136,-0.301 -2.973,-1 -0.488,-0.407 -0.815,-0.935 -0.723,-1.626 0.112,-0.835 0.353,-1.632 0.411,-2.476 0.085,-1.28 -0.498,-2.654 -1.184,-3.668 -0.956,-1.409 -2.392,-2.201 -3.829,-2.877 -0.606,-0.284 -1.078,-0.596 -1.165,-1.363 -0.085,-0.746 0.51,-1.331 1.09,-1.583 1.101,-0.483 2.545,-0.368 3.679,-0.083 2.264,0.558 4.208,2.12 5.624,4.14 1.142,1.626 1.94,3.516 2.256,5.51 0.208,1.312 0.149,3.196 -0.808,4.176 -0.632,0.644 -1.541,0.844 -2.378,0.85" style="fill:#000000;fill-opacity:1;fill-rule:nonzero;stroke:none" transform="matrix(1.3333333,0,0,-1.3333333,562.68093,503.8828)"></path>
      <path id="path195" d="m 0,0 c 0.028,0 0.055,-0.004 0.079,-0.006 0.05,-0.009 0.065,-0.024 0.097,-0.045 0.059,-0.034 0.083,-0.081 0.105,-0.126 0.15,-0.332 0.254,-0.692 0.254,-1.045 0,-0.214 -0.023,-0.424 -0.086,-0.631 C 0.356,-2.15 0.216,-2.44 -0.012,-2.72 c -0.62,-0.743 -1.663,-1.286 -2.987,-1.545 -0.705,-0.137 -1.444,-0.05 -2.08,0.161 -1.057,0.347 -1.735,0.988 -2.013,1.669 -0.054,0.138 -0.087,0.27 -0.123,0.414 -0.033,0.124 -0.031,0.247 -0.043,0.371 -0.014,0.098 0.027,0.279 0.205,0.317 0.063,0.019 0.063,0.019 0.132,0.007 0.048,-0.007 0.062,-0.017 0.101,-0.039 0.034,-0.016 0.042,-0.034 0.065,-0.059 0.076,-0.098 0.046,-0.2 0.058,-0.307 0.016,-0.106 0.029,-0.209 0.057,-0.31 0.203,-0.701 0.893,-1.337 2.037,-1.622 0.251,-0.066 0.496,-0.094 0.768,-0.109 0.317,-0.021 0.597,0.026 0.886,0.084 0.418,0.093 0.798,0.213 1.155,0.369 0.225,0.093 0.431,0.207 0.624,0.328 0.583,0.362 0.947,0.822 1.089,1.31 0.028,0.095 0.05,0.208 0.05,0.31 0,0.083 0.012,0.174 0,0.259 -0.016,0.142 -0.044,0.275 -0.085,0.413 -0.032,0.114 -0.089,0.223 -0.127,0.335 -0.023,0.066 -0.016,0.104 -0.006,0.168 0.008,0.036 0.022,0.054 0.046,0.085 C -0.164,-0.059 -0.093,-0.017 0,0" style="fill:#000000;fill-opacity:1;fill-rule:nonzero;stroke:none" transform="matrix(1.3333333,0,0,-1.3333333,566.696,505.9128)"></path>
      <path id="path196" d="m 0,0 c -0.693,-4.289 -9.716,-9.649 -15.639,-5.662 -3.368,2.263 -1.776,4.766 -0.023,4.538 1.031,-0.136 3.285,-0.932 5.571,0.063 2.799,1.225 2.779,2.54 3.801,4.25 C -4.933,5.457 0.522,3.24 0,0" style="fill:#f5f5f5;fill-opacity:1;fill-rule:nonzero;stroke:none" transform="matrix(1.3333333,0,0,-1.3333333,574.41533,522.3372)"></path>
      <path id="path197" d="m 0,0 c 1.298,0.008 2.61,-0.577 3.458,-1.349 0.965,-0.88 1.42,-1.912 1.26,-3.078 C 4.666,-4.832 4.51,-5.27 4.328,-5.654 3.639,-7.096 2.388,-8.331 0.911,-9.344 c -2.642,-1.812 -6.486,-3.025 -9.912,-2.039 -1.895,0.545 -3.937,1.909 -4.372,3.522 -0.249,0.925 0.081,2.134 1.308,2.539 0.636,0.209 1.26,0.016 1.885,-0.108 1.305,-0.266 2.724,-0.384 4,0.07 1.15,0.411 2.207,1.073 2.825,1.954 0.53,0.753 0.795,1.595 1.277,2.365 C -1.677,-0.394 -0.913,0.006 0,0 m 0.044,-0.551 c -0.68,0.002 -1.285,-0.243 -1.609,-0.729 -0.565,-0.853 -0.818,-1.806 -1.473,-2.635 -0.609,-0.773 -1.403,-1.298 -2.391,-1.741 -1.296,-0.587 -2.629,-0.672 -4.08,-0.46 -0.529,0.079 -1.047,0.201 -1.574,0.296 -0.537,0.097 -0.931,-0.002 -1.316,-0.318 -0.642,-0.524 -0.579,-1.444 -0.239,-2.063 0.482,-0.881 1.454,-1.639 2.474,-2.137 1.641,-0.798 3.488,-1.011 5.363,-0.713 3.258,0.515 6.326,2.358 8.023,4.627 0.693,0.928 1.249,2.256 0.818,3.307 -0.186,0.456 -0.411,0.804 -0.784,1.184 -0.759,0.773 -1.97,1.36 -3.212,1.382" style="fill:#000000;fill-opacity:1;fill-rule:nonzero;stroke:none" transform="matrix(1.3333333,0,0,-1.3333333,568.49933,516.48307)"></path>
      <path id="path198" d="M 0,0 C 0.019,0.002 0.037,0 0.053,-0.004 0.109,-0.008 0.114,-0.008 0.162,-0.028 0.208,-0.051 0.219,-0.062 0.253,-0.097 0.282,-0.123 0.32,-0.185 0.324,-0.217 0.34,-0.3 0.314,-0.377 0.268,-0.447 0.111,-0.668 0.004,-0.881 -0.044,-1.124 -0.16,-1.683 -0.02,-2.278 0.255,-2.79 c 0.306,-0.56 0.798,-1.169 1.462,-1.513 0.709,-0.371 1.622,-0.678 2.485,-0.632 0.362,0.023 0.725,0.11 1.017,0.284 0.518,0.311 0.717,0.767 0.842,1.241 0.016,0.069 0.067,0.175 0.164,0.198 0.055,0.019 0.065,0.024 0.128,0.019 0.048,-0.006 0.058,-0.01 0.103,-0.029 0.046,-0.022 0.057,-0.036 0.089,-0.068 0.03,-0.029 0.032,-0.041 0.044,-0.073 0.029,-0.068 0.027,-0.11 0.015,-0.179 C 6.497,-4.005 6.275,-4.493 5.862,-4.862 5.441,-5.238 4.929,-5.437 4.297,-5.485 3.854,-5.521 3.431,-5.47 3.015,-5.374 c -0.522,0.115 -1.028,0.313 -1.49,0.545 -0.34,0.172 -0.611,0.372 -0.871,0.615 -0.549,0.508 -0.917,1.116 -1.14,1.75 -0.168,0.48 -0.221,1.075 -0.075,1.569 0.077,0.267 0.185,0.499 0.353,0.742 C -0.16,-0.079 -0.107,-0.024 0,0" style="fill:#000000;fill-opacity:1;fill-rule:nonzero;stroke:none" transform="matrix(1.3333333,0,0,-1.3333333,565.972,517.7148)"></path>
      <path id="path199" d="m 0,0 c 0.842,3.174 6.729,2.983 7.045,0.358 0.237,-1.978 -0.316,-3.171 1.744,-5.43 1.68,-1.837 4.062,-2.028 5.062,-2.324 1.693,-0.505 2.13,-3.44 -1.867,-4.138 C 4.949,-12.764 -1.114,-4.195 0,0" style="fill:#f5f5f5;fill-opacity:1;fill-rule:nonzero;stroke:none" transform="matrix(1.3333333,0,0,-1.3333333,526.58987,512.35813)"></path>
      <path id="path200" d="m 0,0 c 0.354,0.02 0.707,-0.026 1.047,-0.083 1.098,-0.179 2.349,-0.853 2.539,-1.982 0.106,-0.604 0.1,-1.22 0.13,-1.839 0.038,-0.743 0.132,-1.422 0.484,-2.094 0.393,-0.745 1,-1.515 1.678,-2.07 0.912,-0.742 2.01,-1.136 3.147,-1.41 0.567,-0.135 1.256,-0.206 1.746,-0.53 0.458,-0.307 0.778,-0.81 0.863,-1.322 0.239,-1.444 -0.974,-2.433 -2.305,-2.863 -0.929,-0.3 -2.031,-0.426 -3.033,-0.343 -1.687,0.136 -3.145,0.703 -4.563,1.598 -1.864,1.176 -3.523,3.019 -4.544,4.882 -0.898,1.638 -1.632,3.682 -1.156,5.516 C -3.534,-0.873 -1.711,-0.002 0,0 m 0.03,-0.551 c -1.466,-0.009 -3.112,-0.709 -3.468,-2.178 -0.371,-1.524 0.192,-3.197 0.862,-4.58 0.431,-0.89 1.015,-1.716 1.635,-2.488 0.864,-1.086 1.986,-2.048 3.175,-2.797 1.219,-0.771 2.681,-1.288 4.129,-1.389 1.126,-0.077 2.343,0.077 3.343,0.541 0.946,0.435 1.697,1.308 1.284,2.329 -0.18,0.443 -0.559,0.724 -1.033,0.854 -0.551,0.146 -1.114,0.237 -1.663,0.399 -0.929,0.275 -1.761,0.618 -2.545,1.186 -0.865,0.632 -1.587,1.548 -2.065,2.461 -0.353,0.666 -0.464,1.362 -0.523,2.094 -0.018,0.253 -0.006,0.51 -0.024,0.764 -0.022,0.252 -0.018,0.503 -0.043,0.752 -0.042,0.393 -0.071,0.702 -0.332,1.032 -0.628,0.781 -1.747,1.009 -2.732,1.02" style="fill:#000000;fill-opacity:1;fill-rule:nonzero;stroke:none" transform="matrix(1.3333333,0,0,-1.3333333,531.52533,508.85547)"></path>
      <path id="path201" d="m 0,0 h 0.014 c 0.023,-0.002 0.065,-0.022 0.09,-0.028 0.022,-0.012 0.081,-0.067 0.091,-0.081 0.06,-0.081 0.064,-0.199 0.08,-0.287 0.017,-0.094 0.021,-0.195 0.021,-0.294 0,-0.233 -0.021,-0.464 -0.093,-0.691 -0.158,-0.506 -0.468,-1.007 -0.998,-1.45 -0.527,-0.441 -1.412,-0.953 -2.441,-1 -0.654,-0.03 -1.306,0.024 -1.889,0.178 -1.181,0.31 -1.833,0.935 -2.108,1.593 -0.061,0.147 -0.109,0.302 -0.132,0.453 -0.02,0.1 -0.04,0.206 -0.04,0.307 0,0.193 -0.006,0.387 0.028,0.573 0.016,0.075 0.016,0.205 0.081,0.267 0.037,0.035 0.051,0.057 0.111,0.081 0.055,0.019 0.055,0.019 0.128,0.019 0.042,0 0.069,-0.012 0.101,-0.023 0.039,-0.015 0.059,-0.036 0.081,-0.058 0.035,-0.027 0.039,-0.049 0.055,-0.08 0.03,-0.058 0.026,-0.119 0.016,-0.179 -0.032,-0.173 -0.05,-0.345 -0.044,-0.519 0.004,-0.101 0.014,-0.192 0.034,-0.29 0.067,-0.411 0.318,-0.826 0.802,-1.16 0.512,-0.351 1.237,-0.555 2.047,-0.603 0.185,-0.012 0.367,-0.01 0.555,-0.01 0.35,0 0.695,0.066 0.99,0.168 0.891,0.307 1.493,0.826 1.837,1.35 0.261,0.397 0.356,0.819 0.31,1.245 -0.019,0.142 -0.097,0.317 0.044,0.444 0.039,0.033 0.047,0.039 0.108,0.061 C -0.077,0.002 -0.05,0 0,0" style="fill:#000000;fill-opacity:1;fill-rule:nonzero;stroke:none" transform="matrix(1.3333333,0,0,-1.3333333,536.02347,511.5156)"></path>
      <path id="path202" d="M 0,0 C -0.05,0.249 -0.095,0.49 -0.14,0.724 -0.29,2.101 0.221,3.414 1.165,4.427 2.11,5.441 3.489,6.152 5.079,6.324 6.668,6.499 8.169,6.098 9.305,5.31 10.447,4.522 11.227,3.348 11.375,1.971 11.401,1.76 11.407,1.545 11.401,1.337 11.358,0.199 10.868,-0.877 10.068,-1.731 9.129,-2.745 7.75,-3.456 6.158,-3.633 4.566,-3.805 3.066,-3.401 1.928,-2.616 0.995,-1.968 0.302,-1.061 0,0" style="fill:#5e5e5e;fill-opacity:1;fill-rule:nonzero;stroke:none" transform="matrix(1.3333333,0,0,-1.3333333,447.30667,529.37373)"></path>
      <path id="path203" d="m 0,0 c 0.316,-3.402 0.909,-8.155 1.984,-13.626 0.831,-4.245 1.953,-8.927 3.451,-13.746 1.272,-4.08 2.813,-8.266 4.68,-12.375 1.618,-3.558 3.481,-7.055 5.621,-10.382 1.602,-2.485 3.362,-4.868 5.29,-7.11 2.114,-2.458 -0.881,-5.117 -3.303,-3.03 -2.371,2.05 -4.577,4.34 -6.622,6.811 -2.671,3.228 -5.075,6.753 -7.231,10.427 -2.453,4.177 -4.583,8.545 -6.417,12.875 -2.099,4.94 -3.807,9.825 -5.176,14.316 -1.746,5.698 -2.941,10.77 -3.678,14.503 0.302,-1.06 0.995,-1.968 1.928,-2.616 1.138,-0.785 2.639,-1.189 4.23,-1.017 1.592,0.177 2.971,0.888 3.91,1.902 0.8,0.854 1.291,1.93 1.333,3.068" style="fill:#8f8f8f;fill-opacity:1;fill-rule:nonzero;stroke:none" transform="matrix(1.3333333,0,0,-1.3333333,462.50787,527.5912)"></path>
      <path id="path204" d="m 0,0 c 0.172,0.005 0.328,0.022 0.364,-0.327 0.132,-1.256 0.241,-2.534 0.413,-3.772 0.182,-1.307 0.341,-2.624 0.543,-3.925 0.496,-3.174 1.074,-6.414 1.786,-9.482 0.245,-1.053 0.478,-2.146 0.751,-3.179 0.679,-2.566 1.347,-5.141 2.153,-7.591 0.67,-2.052 1.349,-4.095 2.106,-6.041 0.429,-1.102 0.859,-2.248 1.322,-3.299 0.784,-1.772 1.562,-3.562 2.42,-5.242 1.247,-2.449 2.568,-4.827 3.963,-7.03 0.677,-1.069 1.397,-2.186 2.12,-3.142 1.051,-1.388 2.092,-2.88 3.208,-4.107 0.65,-0.713 1.401,-1.968 0.64,-3.26 -0.869,-1.479 -2.764,-1.383 -3.805,-0.636 -0.844,0.613 -1.687,1.462 -2.499,2.223 -1.525,1.44 -3.021,3.094 -4.441,4.81 -0.883,1.073 -1.737,2.164 -2.59,3.316 -4.584,6.183 -8.588,13.795 -11.945,21.978 -2.102,5.119 -3.908,10.593 -5.525,16.281 -0.684,2.402 -1.304,4.868 -1.862,7.347 -0.26,1.146 -0.503,2.305 -0.734,3.465 -0.066,0.342 -0.255,0.848 0.031,0.975 0.235,0.106 0.36,0.004 0.435,-0.392 0.221,-1.132 0.448,-2.277 0.701,-3.392 0.792,-3.481 1.671,-6.95 2.671,-10.302 0.53,-1.775 1.081,-3.598 1.674,-5.302 1.432,-4.108 2.892,-8.15 4.593,-11.924 0.652,-1.454 1.306,-2.946 2.013,-4.329 0.504,-0.991 0.998,-1.977 1.511,-2.963 1.168,-2.236 2.409,-4.37 3.683,-6.4 2.232,-3.559 4.617,-6.716 7.128,-9.576 1.584,-1.803 3.236,-3.442 4.943,-4.923 0.96,-0.832 2.096,-1.262 3.108,-0.455 0.877,0.707 0.837,1.896 0.088,2.815 -1.029,1.263 -2.084,2.467 -3.07,3.845 -1.27,1.777 -2.517,3.609 -3.698,5.62 -0.739,1.259 -1.438,2.535 -2.146,3.843 -1.681,3.119 -3.139,6.572 -4.506,10.077 -0.277,0.72 -0.543,1.461 -0.81,2.195 -1.203,3.268 -2.258,6.85 -3.177,10.415 -0.437,1.692 -0.877,3.456 -1.235,5.195 -0.46,2.216 -0.889,4.407 -1.264,6.654 -0.502,2.99 -0.883,5.951 -1.207,9.008 C -0.183,-0.589 -0.296,-0.04 0,0" style="fill:#000000;fill-opacity:1;fill-rule:nonzero;stroke:none" transform="matrix(1.3333333,0,0,-1.3333333,462.4056,527.24093)"></path>
      <path id="path205" d="m 0,0 c 2.444,0.059 4.771,-1.303 5.618,-3.386 0.491,-1.213 0.447,-2.527 -0.086,-3.722 -0.996,-2.232 -3.598,-3.649 -6.253,-3.471 -1.871,0.122 -3.586,0.996 -4.596,2.45 -1.384,1.988 -1.025,4.565 0.727,6.275 C -3.406,-0.688 -1.744,-0.017 0,0 m 0.024,-0.553 c -1.415,-0.018 -2.822,-0.501 -3.869,-1.375 -1.12,-0.94 -1.762,-2.175 -1.762,-3.544 0,-2.029 1.545,-3.77 3.706,-4.351 0.457,-0.124 0.899,-0.183 1.383,-0.211 0.522,-0.029 1.026,0.04 1.52,0.13 0.675,0.119 1.39,0.417 1.963,0.767 0.632,0.376 1.178,0.885 1.587,1.453 1.199,1.656 1.138,3.81 -0.253,5.359 -0.245,0.269 -0.514,0.502 -0.812,0.721 -0.621,0.458 -1.484,0.814 -2.262,0.946 -0.394,0.062 -0.788,0.113 -1.201,0.105" style="fill:#000000;fill-opacity:1;fill-rule:nonzero;stroke:none" transform="matrix(1.3333333,0,0,-1.3333333,454.93427,520.51947)"></path>
      <path id="path206" d="m 0,0 c 0.039,-0.154 0.061,-0.322 0.089,-0.484 0.008,-0.035 -0.026,-0.07 -0.05,-0.106 -0.44,-0.713 -1.074,-1.458 -1.961,-2.051 -0.921,-0.618 -2.154,-1.114 -3.657,-1.161 -1.46,-0.044 -2.817,0.351 -3.769,0.932 -0.052,0.032 -0.212,0.118 -0.226,0.156 -0.067,0.174 -0.12,0.347 -0.175,0.525 0.209,-0.157 0.43,-0.306 0.673,-0.45 0.751,-0.443 1.851,-0.786 2.96,-0.828 1.523,-0.054 2.805,0.357 3.785,0.957 C -1.177,-1.797 -0.496,-0.884 0,0" style="fill:#000000;fill-opacity:1;fill-rule:nonzero;stroke:none" transform="matrix(1.3333333,0,0,-1.3333333,465.0892,545.42973)"></path>
      <path id="path207" d="m 0,0 c 0.049,-0.128 0.085,-0.264 0.125,-0.393 0.011,-0.031 0.019,-0.037 0,-0.067 -0.186,-0.294 -0.37,-0.583 -0.605,-0.868 -0.777,-0.956 -1.968,-1.91 -3.689,-2.271 -1.201,-0.253 -2.491,-0.133 -3.53,0.317 -0.04,0.017 -0.097,0.034 -0.112,0.06 -0.081,0.15 -0.137,0.308 -0.198,0.457 0.788,-0.428 1.821,-0.688 2.89,-0.623 1.022,0.065 1.863,0.35 2.618,0.77 0.397,0.222 0.748,0.481 1.043,0.751 C -0.82,-1.296 -0.346,-0.652 0,0" style="fill:#000000;fill-opacity:1;fill-rule:nonzero;stroke:none" transform="matrix(1.3333333,0,0,-1.3333333,469.66013,563.79813)"></path>
      <path id="path208" d="m 0,0 0.051,-0.039 c 0.028,-0.028 0.107,-0.093 0.119,-0.119 0.029,-0.057 0.051,-0.11 0.075,-0.166 0.021,-0.039 0.019,-0.032 0,-0.07 -0.302,-0.724 -0.771,-1.437 -1.437,-2.039 -0.343,-0.305 -0.748,-0.575 -1.195,-0.799 -0.359,-0.176 -0.788,-0.325 -1.203,-0.412 -0.755,-0.162 -1.535,-0.164 -2.29,-0.009 -0.039,0.009 -0.065,0.004 -0.083,0.03 -0.081,0.13 -0.162,0.255 -0.235,0.385 0.174,-0.038 0.352,-0.085 0.532,-0.116 0.589,-0.105 1.201,-0.107 1.791,-0.005 1.121,0.194 2.041,0.734 2.695,1.405 0.536,0.546 0.911,1.176 1.166,1.808 0.022,0.046 0.01,0.097 0.012,0.15 C 0,0.006 0,0.004 0,0" style="fill:#000000;fill-opacity:1;fill-rule:nonzero;stroke:none" transform="matrix(1.3333333,0,0,-1.3333333,475.7728,580.38667)"></path>
      <path id="path209" d="M 0,0 C 0.079,-0.118 0.154,-0.245 0.233,-0.369 0.255,-0.407 0.312,-0.48 0.31,-0.521 0.259,-1.12 0.103,-1.703 -0.212,-2.242 c -0.187,-0.316 -0.446,-0.619 -0.744,-0.862 -0.342,-0.278 -0.723,-0.474 -1.158,-0.617 -0.215,-0.066 -0.47,-0.121 -0.695,-0.145 -0.119,-0.01 -0.249,-0.029 -0.37,-0.029 -0.106,0 -0.213,-0.005 -0.316,0 -0.235,0.019 -0.47,0.04 -0.697,0.083 -0.036,0.006 -0.093,0.008 -0.115,0.035 -0.122,0.135 -0.239,0.278 -0.353,0.418 0.047,-0.009 0.102,-0.025 0.15,-0.037 0.308,-0.078 0.604,-0.136 0.922,-0.156 1.004,-0.063 1.956,0.227 2.64,0.907 0.346,0.342 0.579,0.761 0.731,1.201 C -0.053,-0.982 -0.014,-0.494 0,0" style="fill:#000000;fill-opacity:1;fill-rule:nonzero;stroke:none" transform="matrix(1.3333333,0,0,-1.3333333,483.28453,594.1028)"></path>
      <path id="path210" d="m 0,0 c 1.562,2.863 7.302,1.281 7,-1.314 -0.224,-1.958 -1.044,-2.979 0.458,-5.634 1.231,-2.169 3.524,-2.912 4.435,-3.435 1.541,-0.888 1.296,-3.81 -2.799,-3.548 C 1.899,-13.444 -2.067,-3.774 0,0" style="fill:#f5f5f5;fill-opacity:1;fill-rule:nonzero;stroke:none" transform="matrix(1.3333333,0,0,-1.3333333,437.85933,506.2852)"></path>
      <path id="path211" d="M 0,0 C 1.022,-0.018 2.085,-0.263 2.971,-0.856 3.728,-1.362 4.39,-2.124 4.273,-3.165 4.194,-3.839 4.02,-4.489 3.914,-5.155 3.779,-6.03 3.87,-6.813 4.204,-7.618 4.558,-8.469 5.04,-9.288 5.698,-9.9 c 0.397,-0.372 0.792,-0.67 1.239,-0.954 0.648,-0.405 1.333,-0.684 1.997,-1.042 0.46,-0.246 0.812,-0.617 0.997,-1.147 0.202,-0.583 0.109,-1.292 -0.264,-1.78 -0.808,-1.075 -2.243,-1.255 -3.444,-1.197 -1.397,0.071 -2.75,0.476 -3.995,1.206 -1.521,0.884 -2.852,2.231 -3.854,3.766 -0.476,0.731 -0.857,1.474 -1.221,2.288 -0.237,0.529 -0.422,1.117 -0.583,1.671 -0.452,1.579 -0.64,3.635 0.055,5.174 C -2.744,-0.521 -1.347,0.013 0,0 m -0.136,-0.555 c -1.043,-0.034 -2.106,-0.407 -2.658,-1.45 -0.679,-1.279 -0.527,-3.098 -0.213,-4.463 0.261,-1.148 0.705,-2.237 1.256,-3.276 1,-1.888 2.567,-3.645 4.355,-4.648 1.474,-0.824 3.076,-1.207 4.739,-1.035 0.915,0.092 2.173,0.618 2.134,1.833 -0.012,0.478 -0.326,0.907 -0.697,1.141 -0.376,0.236 -0.801,0.392 -1.193,0.602 -0.548,0.296 -1.07,0.574 -1.573,0.953 -0.83,0.633 -1.452,1.333 -1.962,2.288 -0.587,1.11 -0.903,2.201 -0.698,3.487 0.106,0.677 0.283,1.337 0.36,2.019 0.141,1.219 -1.197,1.974 -2.08,2.274 -0.571,0.196 -1.16,0.281 -1.77,0.275" style="fill:#000000;fill-opacity:1;fill-rule:nonzero;stroke:none" transform="matrix(1.3333333,0,0,-1.3333333,441.8692,503.8828)"></path>
      <path id="path212" d="M 0,0 C 0.024,-0.002 0.046,-0.008 0.069,-0.015 0.118,-0.028 0.127,-0.036 0.162,-0.059 0.203,-0.087 0.21,-0.107 0.235,-0.138 0.257,-0.172 0.257,-0.196 0.267,-0.229 0.284,-0.31 0.251,-0.381 0.217,-0.456 0.026,-0.871 -0.022,-1.333 0.12,-1.762 0.336,-2.416 0.974,-2.98 1.912,-3.363 2.268,-3.512 2.63,-3.615 3.036,-3.702 c 0.425,-0.093 0.846,-0.097 1.279,-0.025 0.462,0.081 0.889,0.234 1.244,0.426 0.386,0.215 0.666,0.482 0.866,0.77 0.193,0.281 0.288,0.615 0.288,0.925 0,0.071 0.026,0.195 0.121,0.243 0.055,0.028 0.057,0.033 0.124,0.043 0.053,0.006 0.063,0 0.113,-0.013 0.041,-0.008 0.051,-0.018 0.083,-0.04 C 7.197,-1.399 7.203,-1.416 7.227,-1.45 7.276,-1.521 7.272,-1.586 7.27,-1.663 7.264,-1.77 7.258,-1.879 7.235,-1.984 7.195,-2.186 7.136,-2.375 7.043,-2.567 6.962,-2.734 6.859,-2.89 6.733,-3.048 6.369,-3.51 5.696,-3.942 4.917,-4.157 4.354,-4.315 3.7,-4.393 3.092,-4.281 2.72,-4.214 2.359,-4.115 2.017,-4 c -0.966,0.33 -1.733,0.867 -2.142,1.482 -0.205,0.304 -0.337,0.643 -0.377,0.971 -0.033,0.287 -0.02,0.583 0.054,0.864 0.047,0.183 0.106,0.375 0.203,0.553 0.028,0.051 0.059,0.068 0.12,0.104 C -0.087,-0.002 -0.046,-0.006 0,0" style="fill:#000000;fill-opacity:1;fill-rule:nonzero;stroke:none" transform="matrix(1.3333333,0,0,-1.3333333,437.87307,505.9128)"></path>
      <path id="path213" d="m 0,0 c -0.521,3.24 4.935,5.457 6.292,3.189 1.022,-1.71 1,-3.025 3.801,-4.25 2.286,-0.995 4.537,-0.199 5.571,-0.063 1.753,0.228 3.345,-2.275 -0.023,-4.538 C 9.716,-9.649 0.694,-4.289 0,0" style="fill:#f5f5f5;fill-opacity:1;fill-rule:nonzero;stroke:none" transform="matrix(1.3333333,0,0,-1.3333333,430.16733,522.3372)"></path>
      <path id="path214" d="M 0,0 C 0.172,0.008 0.349,-0.015 0.517,-0.041 1.136,-0.138 1.752,-0.47 2.042,-0.93 2.493,-1.659 2.799,-2.408 3.218,-3.144 3.763,-4.091 4.797,-4.81 5.962,-5.266 7.308,-5.79 8.7,-5.737 10.117,-5.449 c 0.375,0.074 0.788,0.179 1.175,0.214 0.852,0.077 1.605,-0.393 1.931,-1 0.79,-1.47 -0.306,-3.028 -1.745,-3.994 -1.606,-1.081 -3.382,-1.575 -5.502,-1.494 -1.282,0.05 -2.543,0.334 -3.71,0.767 -2.361,0.873 -4.566,2.37 -5.878,4.164 -0.339,0.466 -0.59,0.925 -0.808,1.424 -0.489,1.119 -0.385,2.347 0.397,3.375 C -3.195,-0.901 -1.634,-0.009 0,0 m -0.152,-0.551 c -1.938,-0.128 -3.689,-1.47 -3.971,-2.987 -0.227,-1.232 0.644,-2.659 1.551,-3.635 1.391,-1.49 3.352,-2.74 5.523,-3.429 0.992,-0.315 2.057,-0.54 3.13,-0.57 1.995,-0.059 3.763,0.443 5.237,1.515 0.952,0.694 1.825,1.726 1.567,2.786 -0.123,0.502 -0.567,0.998 -1.241,1.081 -0.427,0.053 -0.99,-0.136 -1.41,-0.206 -0.706,-0.12 -1.33,-0.227 -2.075,-0.227 -1.64,0 -2.977,0.555 -4.176,1.415 -1.115,0.798 -1.5,1.885 -2.045,2.933 -0.283,0.544 -0.504,1.016 -1.262,1.23 -0.265,0.076 -0.542,0.096 -0.828,0.094" style="fill:#000000;fill-opacity:1;fill-rule:nonzero;stroke:none" transform="matrix(1.3333333,0,0,-1.3333333,436.04227,516.48307)"></path>
      <path id="path215" d="m 0,0 c 0.114,-0.019 0.17,-0.073 0.221,-0.147 0.137,-0.204 0.245,-0.404 0.318,-0.623 0.212,-0.631 0.129,-1.354 -0.14,-1.967 -0.131,-0.306 -0.308,-0.634 -0.53,-0.916 -0.284,-0.352 -0.614,-0.71 -1.037,-0.982 -0.262,-0.166 -0.549,-0.302 -0.847,-0.424 -0.87,-0.362 -2.001,-0.603 -2.946,-0.303 -0.316,0.099 -0.593,0.247 -0.826,0.443 -0.213,0.183 -0.365,0.369 -0.494,0.594 -0.152,0.253 -0.235,0.508 -0.304,0.777 -0.033,0.12 0,0.262 0.149,0.328 0.053,0.025 0.065,0.025 0.126,0.029 0.043,0.003 0.067,-0.01 0.107,-0.021 0.037,-0.008 0.059,-0.038 0.083,-0.057 0.045,-0.038 0.065,-0.1 0.076,-0.149 0.088,-0.34 0.212,-0.668 0.49,-0.95 0.419,-0.435 1.034,-0.606 1.723,-0.569 0.423,0.025 0.871,0.124 1.255,0.259 0.491,0.174 0.993,0.393 1.365,0.701 0.577,0.476 1.017,1.123 1.205,1.753 0.148,0.491 0.156,1.007 -0.069,1.481 -0.049,0.107 -0.111,0.2 -0.18,0.298 -0.047,0.075 -0.053,0.109 -0.053,0.194 0,0.053 0.02,0.109 0.065,0.152 0.043,0.04 0.053,0.05 0.114,0.077 C -0.085,0 -0.048,-0.004 0,0" style="fill:#000000;fill-opacity:1;fill-rule:nonzero;stroke:none" transform="matrix(1.3333333,0,0,-1.3333333,438.59373,517.7148)"></path>
      <path id="path216" d="m 0,0 c 1.114,-4.195 -4.949,-12.764 -11.986,-11.534 -3.995,0.698 -3.56,3.633 -1.865,4.138 1,0.296 3.377,0.487 5.06,2.324 2.062,2.259 1.507,3.452 1.746,5.43 C -6.729,2.983 -0.843,3.174 0,0" style="fill:#f5f5f5;fill-opacity:1;fill-rule:nonzero;stroke:none" transform="matrix(1.3333333,0,0,-1.3333333,477.99547,512.35813)"></path>
      <path id="path217" d="M 0,0 C 1.438,0.034 2.958,-0.475 3.772,-1.65 4.234,-2.323 4.378,-3.253 4.317,-4.046 4.252,-4.87 4.076,-5.632 3.789,-6.407 c -0.747,-2.026 -2.175,-3.991 -3.864,-5.451 -1.776,-1.532 -4.096,-2.701 -6.539,-2.701 -0.717,0 -1.348,0.078 -2.025,0.23 -1.144,0.265 -2.464,0.964 -2.745,2.134 -0.185,0.771 0.02,1.482 0.627,2.033 0.47,0.426 1.147,0.507 1.74,0.642 0.954,0.212 1.829,0.49 2.683,0.989 0.925,0.542 1.746,1.462 2.246,2.36 0.38,0.671 0.52,1.294 0.568,2.048 0.017,0.271 0.013,0.553 0.033,0.83 0.024,0.383 0.03,0.77 0.097,1.145 0.251,1.49 1.96,2.131 3.39,2.148 m 0.035,-0.551 c -1.173,-0.024 -2.755,-0.505 -2.89,-1.795 -0.037,-0.334 -0.053,-0.66 -0.071,-1.002 -0.026,-0.593 -0.029,-1.169 -0.154,-1.745 -0.263,-1.25 -1.091,-2.365 -2.062,-3.259 -0.372,-0.346 -0.882,-0.671 -1.342,-0.905 -0.684,-0.344 -1.377,-0.551 -2.108,-0.735 -0.439,-0.115 -0.917,-0.176 -1.343,-0.323 -0.921,-0.319 -1.211,-1.436 -0.714,-2.18 0.68,-1.025 2.086,-1.355 3.262,-1.48 0.928,-0.097 1.859,0.029 2.734,0.239 1.012,0.241 2.028,0.752 2.891,1.308 1.357,0.873 2.489,2.033 3.421,3.286 0.654,0.881 1.2,1.871 1.585,2.882 0.215,0.562 0.357,1.122 0.454,1.707 0.176,1.023 0.077,2.248 -0.752,3.016 -0.773,0.711 -1.854,0.994 -2.911,0.986" style="fill:#000000;fill-opacity:1;fill-rule:nonzero;stroke:none" transform="matrix(1.3333333,0,0,-1.3333333,472.77867,508.85547)"></path>
      <path id="path218" d="m 0,0 c 0.03,0 0.057,0 0.087,-0.002 0.031,0 0.057,-0.017 0.083,-0.024 C 0.21,-0.04 0.225,-0.061 0.249,-0.083 0.282,-0.111 0.288,-0.132 0.304,-0.162 0.33,-0.217 0.33,-0.277 0.318,-0.334 0.196,-0.911 0.338,-1.472 0.766,-2.001 1.063,-2.359 1.458,-2.671 2.003,-2.937 2.231,-3.05 2.462,-3.129 2.74,-3.201 3.078,-3.29 3.552,-3.295 3.929,-3.274 c 0.599,0.03 1.182,0.147 1.65,0.358 0.666,0.304 1.014,0.705 1.181,1.146 0.036,0.099 0.056,0.195 0.076,0.298 0.029,0.136 0.027,0.269 0.027,0.407 0,0.142 -0.034,0.28 -0.049,0.419 -0.012,0.053 0.006,0.095 0.026,0.142 0.021,0.042 0.063,0.097 0.13,0.121 0.065,0.021 0.075,0.029 0.158,0.023 C 7.161,-0.362 7.195,-0.379 7.221,-0.389 7.276,-0.407 7.339,-0.494 7.349,-0.528 7.377,-0.621 7.387,-0.713 7.403,-0.81 7.466,-1.296 7.401,-1.812 7.142,-2.274 7.098,-2.347 7.051,-2.42 7.002,-2.495 6.681,-2.958 6.049,-3.414 5.202,-3.639 c -0.512,-0.132 -1.018,-0.2 -1.591,-0.2 -0.353,0 -0.648,0.018 -0.97,0.089 -0.543,0.125 -0.998,0.344 -1.377,0.583 -0.343,0.219 -0.626,0.466 -0.853,0.725 -0.267,0.303 -0.457,0.626 -0.567,0.948 -0.038,0.119 -0.079,0.241 -0.093,0.358 -0.022,0.18 -0.046,0.363 -0.032,0.547 0.01,0.129 0.022,0.265 0.06,0.393 0.016,0.06 0.045,0.091 0.099,0.143 C -0.093,-0.026 -0.044,-0.014 0,0" style="fill:#000000;fill-opacity:1;fill-rule:nonzero;stroke:none" transform="matrix(1.3333333,0,0,-1.3333333,468.54227,511.5156)"></path>
      <path id="path219" d="m 0,0 h -5.452 c 0,0 -0.951,3.112 -3.381,3.163 C -12.051,3.231 -12.809,0 -12.809,0 h -3.972 v 4.931 c 0,0 2.768,0.19 2.867,3.167 0.113,3.232 -2.867,3.898 -2.867,3.898 v 5.653 c 0,0 2.806,0.39 2.942,3.282 0.142,3.021 -2.942,3.646 -2.942,3.646 v 4.269 h 5.072 c 0,0 1.104,-2.677 3.564,-2.709 3.003,-0.031 4.174,2.709 4.174,2.709 h 5.073 c 0,0 0.72,-2.687 3.183,-2.715 2.999,-0.037 3.278,2.715 3.278,2.715 h 4.581 c 0,0 0.585,-2.724 3.586,-2.796 2.835,-0.07 3.629,2.796 3.629,2.796 h 5.07 v -4.933 c 0,0 -2.59,-1.796 -2.545,-3.914 0.065,-3.106 2.545,-3.058 2.545,-3.058 v -6.553 c 0,0 -2.431,-0.82 -2.519,-2.883 -0.089,-2.06 2.519,-3.386 2.519,-3.386 V 0 h -4.487 c 0,0 -0.375,3.165 -3.169,3.311 C 13.98,3.457 13.098,0 13.098,0 H 7.359 C 7.359,0 6.403,3.112 3.973,3.163 0.757,3.231 0,0 0,0" style="fill:#7ed2ff;fill-opacity:1;fill-rule:nonzero;stroke:none" transform="matrix(1.3333333,0,0,-1.3333333,497.4004,498.4284)"></path>
      <path id="path220" d="m 0,0 c 1.515,0.019 3.036,0.011 4.552,0.011 0.26,0 0.693,0.091 0.798,-0.205 0.176,-0.5 0.379,-0.948 0.705,-1.373 0.64,-0.834 1.533,-1.211 2.566,-1.134 1.231,0.091 2.169,0.794 2.539,2.011 0.085,0.277 0.041,0.696 0.425,0.701 1.448,0.015 2.898,0 4.348,0 0.397,0 0.391,-0.027 0.508,-0.381 0.387,-1.224 1.294,-2.054 2.516,-2.333 1.783,-0.407 3.274,0.488 3.982,2.158 0.106,0.252 0.114,0.556 0.452,0.556 h 4.463 c 0.316,0 0.84,0.117 0.84,-0.339 V -4.68 c 0,-0.243 0.074,-0.603 -0.133,-0.755 -1.037,-0.771 -2.367,-2.153 -2.414,-3.513 -0.044,-1.313 0.476,-2.588 1.843,-2.896 0.32,-0.075 0.704,0.042 0.704,-0.42 v -6.019 c 0,-0.288 0.088,-0.604 -0.226,-0.722 -1.047,-0.392 -2.153,-1.264 -2.284,-2.452 -0.152,-1.353 0.976,-2.45 2.023,-3.102 0.238,-0.15 0.487,-0.19 0.487,-0.518 v -3.457 c 0,-0.32 0.122,-0.861 -0.325,-0.861 h -3.937 c -0.273,0 -0.733,-0.099 -0.796,0.267 -0.047,0.274 -0.114,0.535 -0.204,0.805 -0.482,1.411 -1.598,2.383 -3.131,2.229 -1.385,-0.135 -2.416,-1.46 -2.833,-2.727 -0.087,-0.27 -0.099,-0.574 -0.433,-0.574 h -5.168 c -0.267,0 -0.687,-0.091 -0.802,0.203 -0.229,0.589 -0.468,1.128 -0.857,1.634 -0.668,0.874 -1.391,1.338 -2.499,1.325 -1.765,-0.023 -2.948,-1.315 -3.45,-2.935 -0.118,-0.389 -0.618,-0.235 -0.553,0.104 0.065,0.364 0.292,0.858 0.48,1.182 0.77,1.32 1.802,2.039 3.305,2.191 1.998,0.203 3.278,-1.302 3.991,-3.011 0.055,-0.126 0.014,-0.132 0.162,-0.132 h 5.052 c 0.138,0 0.152,-0.04 0.201,0.094 0.508,1.468 1.594,2.962 3.206,3.182 2.065,0.282 3.582,-1.156 4.019,-3.118 0.028,-0.136 -0.018,-0.158 0.134,-0.158 1.292,0 2.586,-0.006 3.871,0.004 0.004,1.037 0.004,2.08 0.004,3.121 0,0.072 0.015,0.5 0,0.534 -0.007,0.019 -0.382,0.243 -0.435,0.276 -0.767,0.49 -1.636,1.384 -1.936,2.266 -0.615,1.8 0.632,3.315 2.194,4.013 0.119,0.057 0.177,0.035 0.177,0.179 v 5.843 c 0,0.157 0.037,0.155 -0.115,0.181 -1.549,0.271 -2.29,1.466 -2.42,2.969 -0.148,1.729 1.073,3.237 2.358,4.252 0.113,0.093 0.177,0.077 0.177,0.241 0,1.466 0.003,2.938 -0.006,4.404 -1.474,0.002 -2.946,0 -4.418,0 -0.142,0 -0.15,0.039 -0.203,-0.093 -0.137,-0.338 -0.305,-0.668 -0.506,-0.974 -0.47,-0.719 -1.306,-1.385 -2.134,-1.589 -2.078,-0.515 -4.129,0.413 -4.907,2.501 -0.04,0.108 -0.006,0.155 -0.133,0.155 h -3.88 c -0.158,0 -0.148,0.043 -0.187,-0.105 -0.423,-1.693 -1.739,-2.604 -3.424,-2.604 -1.62,0 -2.8,1.032 -3.386,2.523 -0.048,0.118 -0.028,0.186 -0.168,0.186 H 0.022 C -0.358,-0.551 -0.368,-0.012 0,0" style="fill:#000000;fill-opacity:1;fill-rule:nonzero;stroke:none" transform="matrix(1.3333333,0,0,-1.3333333,492.09707,459.60813)"></path>
      <path id="path221" d="m 0,0 c 1.521,0.019 3.052,0.011 4.575,0.011 0.2,0 0.672,0.087 0.796,-0.183 C 5.553,-0.559 5.77,-0.907 6,-1.213 c 0.897,-1.17 1.968,-1.565 3.096,-1.476 1.171,0.097 2.43,0.733 3.287,2.146 0.083,0.138 0.158,0.324 0.239,0.439 0.115,0.161 0.466,0.153 0.5,-0.145 0.014,-0.13 -0.154,-0.407 -0.215,-0.51 -1.095,-1.806 -2.65,-2.493 -4.159,-2.493 -1.411,0 -2.76,0.762 -3.732,2.533 -0.061,0.11 -0.055,0.168 -0.152,0.168 -1.514,0 -3.033,0.004 -4.544,-0.004 -0.002,-1.256 0,-2.51 -0.002,-3.768 0.123,-0.049 0.261,-0.085 0.391,-0.136 1.093,-0.443 2.724,-1.537 2.541,-3.861 -0.182,-2.25 -1.798,-3.067 -2.932,-3.386 v -4.976 c 0,-0.279 -0.028,-0.216 0.123,-0.271 1.179,-0.425 2.726,-1.531 2.743,-3.878 0.018,-2.399 -1.588,-3.329 -2.769,-3.582 -0.089,-0.019 -0.097,0.034 -0.097,-0.134 0,-1.43 -0.002,-2.861 0.002,-4.287 h 3.386 c 0.113,0 0.083,-0.02 0.135,0.13 0.446,1.245 1.228,2.082 2.04,2.533 0.555,0.306 1.073,0.413 1.658,0.482 1.596,0.182 3.024,-0.808 3.961,-2.975 0.039,-0.095 0.035,-0.168 0.111,-0.17 1.598,-0.03 3.202,0 4.802,0 0.17,0 0.631,0.091 0.704,-0.208 0.061,-0.254 -0.147,-0.353 -0.263,-0.353 h -5.018 c -0.194,0 -0.636,-0.093 -0.741,0.205 -0.377,1.052 -0.935,1.895 -1.61,2.412 -0.421,0.317 -0.942,0.534 -1.403,0.545 -1.392,0.024 -2.833,-0.493 -3.657,-2.528 -0.134,-0.322 -0.132,-0.634 -0.413,-0.634 H 0.437 c -0.174,0 -0.68,-0.113 -0.68,0.312 v 4.408 c 0,0.405 -0.067,0.685 0.229,0.758 0.224,0.053 0.443,0.07 0.668,0.147 0.865,0.304 1.803,0.92 1.954,2.554 0.219,2.32 -1.399,3.45 -2.504,3.787 -0.159,0.051 -0.347,0.029 -0.347,0.385 0,1.845 -0.012,3.693 0,5.54 0.002,0.33 0.269,0.304 0.407,0.342 0.95,0.262 2.428,0.971 2.529,2.914 0.114,2.169 -1.462,3.059 -2.485,3.37 -0.159,0.047 -0.451,0.038 -0.451,0.391 v 4.172 C -0.243,-0.083 -0.12,-0.016 0,0" style="fill:#000000;fill-opacity:1;fill-rule:nonzero;stroke:none" transform="matrix(1.3333333,0,0,-1.3333333,474.9792,459.60813)"></path>
      <path id="path222" d="m 0,0 v 12.094 l 2.462,2.895 H 25.381 L 28.66,12.021 V -0.07 L 25.873,-2.688 H 2.606 Z" style="fill:#ebf9ff;fill-opacity:1;fill-rule:nonzero;stroke:none" transform="matrix(1.3333333,0,0,-1.3333333,483.22267,487.25907)"></path>
      <path id="path223" d="m 0,0 c -1.45,0 -2.754,0.589 -3.706,1.537 -0.947,0.945 -1.535,2.256 -1.535,3.706 0,1.447 0.588,2.756 1.535,3.705 0.952,0.95 2.256,1.533 3.706,1.533 1.448,0 2.756,-0.583 3.706,-1.533 C 4.654,7.999 5.241,6.69 5.241,5.243 5.241,3.793 4.654,2.482 3.706,1.537 2.756,0.589 1.448,0 0,0" style="fill:#3aa0cd;fill-opacity:1;fill-rule:nonzero;stroke:none" transform="matrix(1.3333333,0,0,-1.3333333,492.70187,485.95187)"></path>
      <path id="path224" d="m 376.051,133.053 h 12.778 v -12.776 h -12.778 z" style="fill:#7ed2ff;fill-opacity:1;fill-rule:nonzero;stroke:none" transform="matrix(1.3333333,0,0,-1.3333333,0,648)"></path>
      <path id="path225" d="M 0,0 H 8.839 C 8.906,0 8.918,0.002 8.977,-0.007 9.06,-0.015 9.094,-0.055 9.114,-0.067 9.155,-0.096 9.159,-0.126 9.181,-0.152 9.202,-0.188 9.193,-0.226 9.206,-0.264 9.22,-0.292 9.195,-0.326 9.195,-0.356 9.195,-0.385 9.173,-0.413 9.159,-0.437 9.151,-0.46 9.133,-0.475 9.106,-0.496 9.09,-0.507 9.076,-0.525 9.047,-0.535 9.013,-0.547 8.989,-0.558 8.896,-0.558 H 0.599 c -0.188,0 -0.392,-0.002 -0.581,0 -0.081,0 -0.129,0.019 -0.144,0.031 -0.026,0.02 -0.066,0.041 -0.081,0.059 -0.02,0.022 -0.026,0.046 -0.038,0.071 -0.01,0.012 -0.008,0.026 -0.016,0.044 -0.019,0.039 -0.012,0.078 -0.009,0.116 0,0.018 0,0.038 0.011,0.058 0.012,0.021 0.028,0.045 0.04,0.07 0.01,0.019 0.039,0.042 0.067,0.06 C -0.128,-0.033 -0.111,-0.011 0,0" style="fill:#3aa0cd;fill-opacity:1;fill-rule:nonzero;stroke:none" transform="matrix(1.3333333,0,0,-1.3333333,503.9128,478.11853)"></path>
      <path id="path226" d="M 0,0 H 8.837 C 8.906,0 8.916,0.002 8.975,-0.004 9.06,-0.014 9.094,-0.053 9.113,-0.068 9.151,-0.095 9.157,-0.125 9.18,-0.153 9.202,-0.188 9.191,-0.225 9.206,-0.263 9.218,-0.291 9.194,-0.323 9.194,-0.354 9.194,-0.383 9.171,-0.411 9.157,-0.435 9.149,-0.459 9.131,-0.474 9.104,-0.494 9.088,-0.506 9.074,-0.524 9.044,-0.534 9.011,-0.544 8.989,-0.557 8.894,-0.557 H 0.598 c -0.191,0 -0.395,-0.002 -0.582,0 -0.08,0.002 -0.127,0.019 -0.143,0.029 -0.025,0.022 -0.065,0.041 -0.081,0.06 -0.019,0.021 -0.027,0.047 -0.039,0.072 -0.008,0.013 -0.006,0.028 -0.016,0.044 -0.018,0.039 -0.012,0.075 -0.008,0.114 0,0.021 0,0.04 0.01,0.06 0.012,0.023 0.028,0.047 0.04,0.069 0.011,0.02 0.039,0.041 0.069,0.061 C -0.129,-0.032 -0.113,-0.01 0,0" style="fill:#3aa0cd;fill-opacity:1;fill-rule:nonzero;stroke:none" transform="matrix(1.3333333,0,0,-1.3333333,504.17973,482.82293)"></path>
    </g>
  </g>
</svg>