<?xml version="1.0" encoding="UTF-8" standalone="no"?>


<svg version="1.1" id="svg1" width="114.28192" height="161.83377" viewBox="0 0 114.28192 161.83377" xmlns="http://www.w3.org/2000/svg" xmlns:svg="http://www.w3.org/2000/svg">
  <defs id="defs1"></defs>
  <g id="layer-MC0" transform="translate(-670.52882,-431.51834)">
    <g id="g1233" transform="translate(86.4,-40.581818)">
      <path id="path125" d="m 0,0 c -0.235,0.765 1.899,2.164 3.284,2.522 1.375,0.353 2.718,-0.056 2.929,-0.86 0,0 0,-1.32 -2.369,-2.22 C 2.258,-1.158 0.234,-0.79 0,0" style="fill:#5e5e5e;fill-opacity:1;fill-rule:nonzero;stroke:none" transform="matrix(1.3333333,0,0,-1.3333333,675.22267,579.5416)"></path>
      <path id="path126" d="m 0,0 c -1.415,-0.646 -3.048,-1.035 -4.772,-1.079 -2.204,-0.053 -4.559,0.459 -6.803,1.737 -1.361,0.779 -2.677,1.835 -3.898,3.212 -1.717,1.942 0.51,5.146 2.505,3.469 0.49,-0.413 1.479,-1.386 2.886,-2.143 1.117,-0.603 2.499,-1.069 4.11,-1.007 0.922,0.033 1.922,0.24 2.99,0.693 0.285,0.124 0.546,0.278 0.781,0.462 0.871,0.671 1.424,1.729 1.691,2.953 0.249,1.147 0.24,2.437 0.006,3.689 0.234,-0.79 2.258,-1.158 3.844,-0.557 2.369,0.899 2.369,2.219 2.369,2.219 C 6.051,12.366 6.201,10.366 5.851,8.246 5.478,5.974 4.532,3.57 2.637,1.771 1.905,1.077 1.035,0.472 0,0" style="fill:#8f8f8f;fill-opacity:1;fill-rule:nonzero;stroke:none" transform="matrix(1.3333333,0,0,-1.3333333,675.89453,595.52347)"></path>
      <path id="path127" d="M 0,0 C 1.079,0.038 2.09,-0.439 2.28,-1.217 2.509,-2.15 2.606,-3.108 2.623,-4.078 2.635,-4.961 2.558,-5.836 2.42,-6.694 2.069,-8.892 1.185,-11.259 -0.652,-13.12 c -1.285,-1.296 -3.036,-2.311 -5.169,-2.807 -2.386,-0.554 -4.745,-0.429 -7.024,0.292 -1.439,0.457 -2.614,1.112 -3.744,1.881 -1.02,0.694 -1.828,1.492 -2.603,2.305 -0.713,0.751 -0.987,1.524 -0.858,2.431 0.102,0.719 0.656,1.847 1.728,2.129 0.867,0.233 1.51,-0.192 2.009,-0.634 1.421,-1.263 3.163,-2.612 5.516,-2.875 1.377,-0.153 2.547,0.068 3.752,0.53 1.616,0.618 2.161,1.906 2.491,3.072 0.105,0.377 0.142,0.755 0.199,1.138 0.096,0.697 0.017,1.424 -0.051,2.114 -0.031,0.328 -0.174,0.713 -0.057,1.031 0.217,0.581 0.981,1.187 1.638,1.574 C -2.024,-0.468 -1.073,-0.017 0,0 m 0.024,-0.551 c -1.212,-0.045 -2.261,-0.637 -3.1,-1.229 -0.308,-0.217 -0.816,-0.672 -0.87,-0.974 -0.025,-0.152 0.054,-0.377 0.077,-0.528 0.093,-0.616 0.111,-1.222 0.111,-1.847 0,-0.407 -0.065,-0.827 -0.128,-1.222 -0.192,-1.214 -0.747,-2.665 -2.033,-3.57 -0.494,-0.348 -1.29,-0.64 -1.94,-0.808 -1.389,-0.354 -2.774,-0.378 -4.162,-0.005 -1.33,0.36 -2.601,1.087 -3.542,1.85 -0.37,0.3 -0.726,0.592 -1.072,0.9 -0.452,0.398 -0.986,0.824 -1.758,0.473 -0.769,-0.344 -1.116,-1.273 -1.116,-1.867 0,-0.66 0.193,-1.126 0.711,-1.671 0.729,-0.769 1.468,-1.498 2.414,-2.162 1.01,-0.715 2.083,-1.324 3.36,-1.774 0.698,-0.247 1.506,-0.472 2.261,-0.578 0.434,-0.06 0.871,-0.121 1.319,-0.139 1.239,-0.057 2.52,0.056 3.665,0.356 1.966,0.527 3.491,1.373 4.696,2.59 2.033,2.058 2.812,4.646 3.067,7.082 0.068,0.632 0.079,1.272 0.068,1.911 -0.009,0.643 -0.087,1.298 -0.209,1.922 -0.087,0.474 -0.119,0.851 -0.772,1.114 -0.317,0.127 -0.68,0.17 -1.047,0.176" style="fill:#000000;fill-opacity:1;fill-rule:nonzero;stroke:none" transform="matrix(1.3333333,0,0,-1.3333333,680.84373,575.6432)"></path>
      <path id="path128" d="M 0,0 C 0.023,-0.006 0.055,-0.016 0.076,-0.026 0.115,-0.036 0.14,-0.064 0.168,-0.081 0.194,-0.105 0.206,-0.129 0.221,-0.158 0.251,-0.204 0.261,-0.257 0.257,-0.313 0.251,-0.372 0.242,-0.436 0.229,-0.498 0.202,-0.617 0.161,-0.743 0.109,-0.86 0.008,-1.083 -0.145,-1.314 -0.337,-1.524 -0.513,-1.713 -0.701,-1.887 -0.934,-2.055 -1.098,-2.171 -1.284,-2.29 -1.48,-2.392 c -0.374,-0.196 -0.772,-0.376 -1.228,-0.502 -0.291,-0.079 -0.577,-0.127 -0.891,-0.16 -0.237,-0.022 -0.478,-0.026 -0.72,-0.015 -0.196,0.007 -0.369,0.026 -0.554,0.054 -0.238,0.035 -0.47,0.099 -0.682,0.172 -0.111,0.038 -0.205,0.085 -0.301,0.134 -0.07,0.034 -0.121,0.07 -0.181,0.107 -0.067,0.046 -0.113,0.087 -0.166,0.134 -0.049,0.04 -0.081,0.076 -0.115,0.119 -0.027,0.036 -0.072,0.079 -0.089,0.116 -0.035,0.071 -0.075,0.143 -0.098,0.218 -0.012,0.055 -0.002,0.1 0.015,0.153 0.006,0.038 0.021,0.06 0.048,0.094 0.02,0.029 0.043,0.043 0.079,0.067 0.035,0.024 0.065,0.031 0.111,0.041 0.03,0.006 0.071,0 0.102,-0.004 0.03,-0.004 0.056,-0.028 0.079,-0.043 0.068,-0.044 0.092,-0.132 0.117,-0.187 0.026,-0.06 0.062,-0.113 0.126,-0.166 0.125,-0.107 0.273,-0.194 0.466,-0.26 0.556,-0.197 1.23,-0.242 1.864,-0.162 0.446,0.052 0.845,0.169 1.213,0.326 0.501,0.208 0.958,0.468 1.292,0.765 0.195,0.174 0.35,0.348 0.476,0.547 0.087,0.135 0.146,0.271 0.189,0.417 0.026,0.087 0.014,0.182 0.048,0.267 0.014,0.039 0.037,0.063 0.067,0.094 0.023,0.03 0.053,0.036 0.093,0.054 C -0.09,0.004 -0.041,-0.004 0,0" style="fill:#000000;fill-opacity:1;fill-rule:nonzero;stroke:none" transform="matrix(1.3333333,0,0,-1.3333333,683.5364,576.95307)"></path>
      <path id="path129" d="m 0,0 c -0.012,-0.148 -0.05,-0.3 -0.068,-0.45 -0.006,-0.022 -0.01,-0.095 -0.029,-0.112 -0.05,-0.042 -0.101,-0.088 -0.15,-0.13 -0.289,-0.242 -0.613,-0.471 -1.012,-0.675 -0.328,-0.17 -0.721,-0.319 -1.148,-0.413 -0.338,-0.074 -0.734,-0.117 -1.114,-0.1 -0.237,0.011 -0.472,0.039 -0.693,0.086 -1.013,0.218 -1.707,0.753 -2.136,1.243 -0.022,0.025 -0.099,0.099 -0.095,0.121 0.02,0.138 0.058,0.278 0.087,0.415 0.15,-0.196 0.318,-0.388 0.516,-0.577 0.423,-0.4 1.155,-0.844 2.084,-0.937 0.757,-0.075 1.462,0.073 2.035,0.316 C -0.951,-0.883 -0.441,-0.45 0,0" style="fill:#000000;fill-opacity:1;fill-rule:nonzero;stroke:none" transform="matrix(1.3333333,0,0,-1.3333333,683.75133,584.16147)"></path>
      <path id="path130" d="M 0,0 C 0.008,0.004 0.006,-0.002 0.006,-0.007 0.008,-0.026 0.008,-0.049 0.01,-0.071 0.026,-0.383 0.081,-0.69 0.174,-0.99 0.387,-1.665 0.802,-2.28 1.387,-2.756 1.897,-3.174 2.509,-3.459 3.177,-3.58 3.479,-3.637 3.771,-3.647 4.086,-3.625 4.38,-3.606 4.655,-3.532 4.937,-3.469 4.85,-3.55 4.759,-3.631 4.668,-3.712 4.589,-3.783 4.51,-3.848 4.429,-3.912 4.404,-3.935 4.342,-3.935 4.307,-3.938 4.062,-3.97 3.825,-3.978 3.574,-3.963 2.409,-3.902 1.284,-3.287 0.583,-2.429 0.366,-2.165 0.192,-1.888 0.045,-1.58 -0.152,-1.171 -0.253,-0.76 -0.306,-0.314 -0.31,-0.29 -0.322,-0.26 -0.298,-0.241 -0.2,-0.158 -0.098,-0.079 0,0" style="fill:#000000;fill-opacity:1;fill-rule:nonzero;stroke:none" transform="matrix(1.3333333,0,0,-1.3333333,673.168,588.23307)"></path>
      <path id="path131" d="m 0,0 c -0.354,-0.562 -0.613,-1.264 -0.613,-2.07 0,-0.672 0.207,-1.351 0.5,-1.834 0.251,-0.415 0.541,-0.75 0.867,-0.999 0.143,-0.112 0.283,-0.201 0.427,-0.291 0.045,-0.029 0.087,-0.053 0.13,-0.083 -0.159,-0.002 -0.327,0 -0.493,0 -0.04,0 -0.081,0.007 -0.121,0.007 -0.032,0 -0.116,0.078 -0.15,0.104 -0.289,0.227 -0.557,0.504 -0.796,0.849 -0.502,0.728 -0.813,1.745 -0.66,2.822 0.079,0.541 0.263,1.043 0.501,1.456 0.013,0.024 0.036,0.017 0.056,0.018 C -0.232,-0.017 -0.115,-0.003 0,0" style="fill:#000000;fill-opacity:1;fill-rule:nonzero;stroke:none" transform="matrix(1.3333333,0,0,-1.3333333,668.19667,589.92573)"></path>
      <path id="path132" d="m 0,0 c 0.114,-0.053 0.229,-0.115 0.341,-0.174 -0.417,-0.269 -0.826,-0.622 -1.149,-1.124 -0.179,-0.277 -0.343,-0.603 -0.447,-0.962 -0.094,-0.334 -0.147,-0.656 -0.15,-1.022 -0.002,-0.245 0.024,-0.496 0.073,-0.722 0.059,-0.265 0.145,-0.508 0.241,-0.747 -0.004,0 -0.008,0.002 -0.011,0.004 -0.128,0.075 -0.258,0.152 -0.388,0.229 -0.022,0.012 -0.057,0.027 -0.067,0.059 -0.041,0.127 -0.075,0.257 -0.103,0.393 -0.123,0.585 -0.097,1.255 0.06,1.816 0.149,0.511 0.364,0.943 0.634,1.314 C -0.676,-0.545 -0.352,-0.243 0,0" style="fill:#000000;fill-opacity:1;fill-rule:nonzero;stroke:none" transform="matrix(1.3333333,0,0,-1.3333333,662.22133,588.4844)"></path>
      <path id="path359" d="M 0,0 C 0.184,3.718 0.496,6.93 1.019,7.749 1.692,8.384 5.546,7.666 5.546,7.666 5.546,7.666 5.55,3.61 5.55,-1.005 3.673,-0.82 1.806,-0.488 0,0" style="fill:#1c1c1c;fill-opacity:1;fill-rule:nonzero;stroke:none" transform="matrix(1.3333333,0,0,-1.3333333,636.1836,613.9076)"></path>
      <path id="path360" d="M 0,0 C 1.806,-0.488 3.673,-0.82 5.55,-1.005 5.552,-5.351 5.555,-10.188 5.552,-12.61 H -0.256 C -0.258,-10.008 -0.226,-4.609 0,0" style="fill:#363636;fill-opacity:1;fill-rule:nonzero;stroke:none" transform="matrix(1.3333333,0,0,-1.3333333,636.1836,613.9076)"></path>
      <path id="path361" d="M 0,0 H 5.808 C 5.806,-0.895 5.804,-1.46 5.802,-1.549 5.784,-2.136 5.26,-2.122 5.26,-2.122 h -4.8 c 0,0 -0.436,0.049 -0.453,0.573 C 0.005,-1.466 0,-0.9 0,0" style="fill:#8f8f8f;fill-opacity:1;fill-rule:nonzero;stroke:none" transform="matrix(1.3333333,0,0,-1.3333333,635.8424,630.72133)"></path>
      <path id="path362" d="m 0,0 c 0.174,0.006 0.347,-0.024 0.521,-0.028 0.147,-0.009 0.293,-0.033 0.441,-0.039 0.176,-0.006 0.35,-0.02 0.522,-0.057 0.206,-0.04 0.413,-0.036 0.62,-0.074 0.218,-0.047 0.439,-0.06 0.656,-0.106 0.109,-0.02 0.258,-0.004 0.358,-0.118 0.062,-0.057 0.083,-0.085 0.083,-0.301 0,-1.756 0.004,-3.515 0.004,-5.269 0,-5.32 -0.002,-10.646 -0.002,-15.961 0,-0.245 0.019,-0.557 -0.04,-0.739 -0.036,-0.128 -0.081,-0.223 -0.132,-0.286 -0.188,-0.227 -0.417,-0.31 -0.623,-0.31 h -4.204 c -0.314,0 -0.644,-0.065 -0.946,0.107 -0.113,0.07 -0.404,0.264 -0.406,0.785 0,0.426 -0.005,0.856 -0.005,1.292 0,0.848 0.005,1.7 0.005,2.546 0,0.23 0,0.487 0.003,0.715 0.01,0.45 0.006,0.902 0.014,1.355 0.015,0.691 0.019,1.385 0.032,2.074 0.036,1.605 0.076,3.191 0.138,4.776 0.069,1.746 0.164,3.504 0.32,5.185 0.123,1.347 0.325,2.984 0.681,3.839 0.115,0.263 0.238,0.363 0.372,0.42 C -1.071,0.024 -0.532,0.012 0,0 M -0.492,-0.551 C -0.775,-0.56 -1.053,-0.588 -1.328,-0.69 -1.452,-0.737 -1.549,-1.086 -1.626,-1.39 -1.952,-2.671 -2.1,-4.555 -2.218,-6.126 c -0.136,-1.924 -0.2,-3.906 -0.264,-5.887 -0.027,-0.682 -0.038,-1.377 -0.049,-2.065 -0.01,-0.351 -0.015,-0.696 -0.023,-1.049 -0.004,-0.227 -0.006,-0.462 -0.009,-0.688 -0.017,-0.758 -0.023,-1.536 -0.027,-2.294 -0.002,-1.007 -0.006,-2.012 -0.006,-3.022 0,-0.413 0.002,-0.83 0.004,-1.239 0.002,-0.407 0.245,-0.377 0.328,-0.367 0.324,0.037 0.654,0.007 0.976,0.007 h 3.712 c 0.062,0 0.202,0.036 0.219,0.287 0.009,0.143 0.005,0.405 0.005,0.56 0,7.007 0.004,14.026 -0.003,21.03 -0.263,0.061 -0.533,0.071 -0.796,0.125 -0.087,0.019 -0.178,0.015 -0.265,0.038 -0.107,0.024 -0.217,0.013 -0.324,0.038 -0.213,0.043 -0.428,0.014 -0.641,0.064 -0.108,0.025 -0.223,-0.006 -0.33,0.019 -0.149,0.03 -0.31,0.018 -0.459,0.018 z" style="fill:#000000;fill-opacity:1;fill-rule:nonzero;stroke:none" transform="matrix(1.3333333,0,0,-1.3333333,639.67973,602.8672)"></path>
      <path id="path363" d="m 0,0 c -0.002,0.113 0,0.223 0,0.335 h 5.806 c 0.003,-0.112 0,-0.222 0,-0.333 C 3.872,0 1.937,0.002 0,0" style="fill:#000000;fill-opacity:1;fill-rule:nonzero;stroke:none" transform="matrix(1.3333333,0,0,-1.3333333,635.84507,630.94533)"></path>
      <path id="path364" d="M 0,0 C 0,0 3.855,0.718 4.528,0.083 5.051,-0.736 5.36,-3.948 5.545,-7.666 3.738,-8.154 1.869,-8.486 -0.002,-8.671 -0.002,-4.056 0,0 0,0" style="fill:#1c1c1c;fill-opacity:1;fill-rule:nonzero;stroke:none" transform="matrix(1.3333333,0,0,-1.3333333,650.29293,603.68613)"></path>
      <path id="path365" d="m 0,0 c 0.229,-4.608 0.257,-10.008 0.255,-12.609 h -5.804 c -0.002,2.421 0,7.259 0.002,11.605 C -3.676,-0.82 -1.807,-0.488 0,0" style="fill:#363636;fill-opacity:1;fill-rule:nonzero;stroke:none" transform="matrix(1.3333333,0,0,-1.3333333,657.68613,613.918)"></path>
      <path id="path366" d="m 0,0 c -0.013,-0.525 -0.452,-0.573 -0.452,-0.573 h -4.795 c 0,0 -0.53,-0.015 -0.545,0.573 -0.002,0.089 -0.002,0.653 -0.004,1.549 H 0.008 C 0.008,0.647 0.002,0.083 0,0" style="fill:#8f8f8f;fill-opacity:1;fill-rule:nonzero;stroke:none" transform="matrix(1.3333333,0,0,-1.3333333,658.0156,632.7956)"></path>
      <path id="path367" d="m 0,0 c 0.255,0.022 0.517,-0.002 0.771,-0.012 0.246,-0.01 0.491,-0.047 0.73,-0.141 0.087,-0.037 0.166,-0.083 0.251,-0.141 0.188,-0.125 0.354,-0.621 0.466,-1.115 0.166,-0.713 0.298,-1.669 0.383,-2.515 0.117,-1.195 0.208,-2.412 0.273,-3.645 0.074,-1.462 0.131,-2.916 0.176,-4.401 0.028,-0.85 0.047,-1.711 0.056,-2.569 0.01,-0.481 0.027,-0.982 0.029,-1.462 0.002,-0.686 0.022,-1.378 0.022,-2.061 0,-0.426 0.008,-0.853 0.008,-1.283 0,-1.014 0.011,-2.059 -0.006,-3.068 -0.006,-0.425 -0.222,-0.648 -0.324,-0.723 -0.119,-0.085 -0.265,-0.151 -0.391,-0.151 h -4.631 c -0.192,0 -0.397,-0.015 -0.585,0.095 -0.133,0.079 -0.286,0.171 -0.387,0.508 -0.048,0.166 -0.038,0.569 -0.038,0.796 0,6.144 0.002,12.291 0.002,18.436 0,0.929 -0.004,1.871 0.002,2.803 0.002,0.275 0.198,0.295 0.256,0.309 0.238,0.061 0.475,0.063 0.711,0.119 0.149,0.036 0.3,0.025 0.451,0.057 0.168,0.039 0.338,0.026 0.505,0.067 0.089,0.025 0.179,0.006 0.272,0.027 C -0.668,-0.004 -0.334,-0.034 0,0 M 0.032,-0.551 C -0.219,-0.593 -0.476,-0.545 -0.727,-0.605 -0.815,-0.63 -0.907,-0.611 -0.994,-0.632 -1.104,-0.649 -1.215,-0.647 -1.32,-0.668 -1.464,-0.688 -1.604,-0.687 -1.743,-0.721 -1.851,-0.749 -1.958,-0.737 -2.067,-0.764 -2.254,-0.81 -2.444,-0.8 -2.63,-0.849 -2.639,-4.938 -2.639,-9.031 -2.639,-13.128 v -8.465 c 0,-0.261 -0.002,-0.547 0.002,-0.809 0.013,-0.373 0.243,-0.328 0.326,-0.328 1.56,0 3.125,-0.006 4.687,-0.006 0.072,0 0.225,0.042 0.227,0.366 10e-4,0.924 0.007,1.849 0.005,2.776 -0.004,0.681 -0.016,1.365 -0.016,2.041 0,0.511 -0.014,1.03 -0.016,1.537 0,0.404 -0.018,0.8 -0.02,1.202 0,0.321 -0.01,0.671 -0.019,0.998 -0.038,1.794 -0.097,3.561 -0.174,5.326 -0.075,1.68 -0.192,3.373 -0.37,4.97 -0.101,0.896 -0.269,1.973 -0.494,2.584 -0.059,0.163 -0.107,0.227 -0.183,0.257 -0.419,0.157 -0.854,0.118 -1.284,0.128" style="fill:#000000;fill-opacity:1;fill-rule:nonzero;stroke:none" transform="matrix(1.3333333,0,0,-1.3333333,654.1784,602.8776)"></path>
      <path id="path368" d="m 0,0 c -0.002,0.113 0,0.223 0,0.334 h 5.802 c 0.002,-0.111 0,-0.221 0,-0.332 C 3.868,0 1.935,0.002 0,0" style="fill:#000000;fill-opacity:1;fill-rule:nonzero;stroke:none" transform="matrix(1.3333333,0,0,-1.3333333,650.2904,630.9544)"></path>
      <path id="path369" d="m 0,0 c 1.152,0.591 2.452,1.008 3.922,1.198 3.125,0.402 5.64,-0.188 7.671,-1.397 0.143,-0.085 0.29,-0.176 0.429,-0.267 -0.131,-0.679 -0.504,-1.282 -1.067,-1.772 -0.913,-0.794 -2.331,-1.283 -4.027,-1.283 -1.701,0 -3.365,0.489 -4.678,1.283 C 1.255,-1.639 0.462,-0.867 0,0" style="fill:#d1d1d1;fill-opacity:1;fill-rule:nonzero;stroke:none" transform="matrix(1.3333333,0,0,-1.3333333,640.2604,581.08333)"></path>
      <path id="path370" d="m 0,0 c 0.462,-0.867 1.255,-1.639 2.25,-2.238 1.313,-0.794 2.977,-1.283 4.678,-1.283 1.696,0 3.114,0.489 4.027,1.283 0.563,0.49 0.936,1.093 1.067,1.772 4.637,-3.07 6.578,-9.463 7.391,-14.293 -8.415,-4.625 -18.498,-4.566 -27.754,-0.674 0.648,4.99 2.47,11.802 7.547,14.977 C -0.537,-0.292 -0.27,-0.143 0,0" style="fill:#f5f5f5;fill-opacity:1;fill-rule:nonzero;stroke:none" transform="matrix(1.3333333,0,0,-1.3333333,640.2604,581.08333)"></path>
      <path id="path371" d="m 0,0 c 9.256,-3.893 19.339,-3.951 27.754,0.674 0.588,-3.499 0.586,-6.176 0.586,-6.176 -0.09,-0.059 -0.612,-0.458 -0.612,-0.458 0,0 0.044,3.51 -1.199,3.39 -0.937,-0.093 -1.306,-1.736 -1.14,-4.422 -1.476,-0.635 -2.702,-0.975 -4.454,-1.329 -0.281,1.105 -1.082,3.106 -2.978,2.991 -1.632,-0.102 -2.973,-1.373 -3.233,-3.708 -1.847,-0.083 -4.138,0.107 -6.185,0.407 0.057,2.426 -1.124,3.967 -2.977,4.178 -0.863,0.097 -2.278,-0.109 -3.076,-2.655 -0.986,0.348 -1.931,0.739 -2.818,1.171 0,0 -0.105,2.546 0.332,5.937" style="fill:#bbbbbb;fill-opacity:1;fill-rule:nonzero;stroke:none" transform="matrix(1.3333333,0,0,-1.3333333,629.13933,601.66013)"></path>
      <path id="path372" d="m 0,0 c 0.647,0.023 1.296,-0.024 1.926,-0.1 2.314,-0.285 4.602,-1.363 6.226,-2.95 0.583,-0.567 1.113,-1.124 1.58,-1.763 1.041,-1.416 1.885,-2.95 2.515,-4.551 0.391,-0.996 0.777,-2.049 1.033,-3.076 0.334,-1.334 0.685,-2.669 0.881,-4.032 0.11,-0.782 0.259,-1.582 0.321,-2.365 0.08,-0.984 0.191,-1.958 0.217,-2.955 0.006,-0.229 0.106,-0.813 -0.091,-0.966 -0.19,-0.147 -0.392,-0.291 -0.588,-0.437 -0.2,-0.152 -0.462,-0.042 -0.475,0.192 -0.028,0.737 -0.049,1.433 -0.217,2.137 -0.058,0.247 -0.273,1 -0.638,0.992 -0.503,-0.01 -0.735,-0.82 -0.807,-1.166 -0.189,-0.913 -0.183,-1.984 -0.119,-2.933 0.021,-0.326 -0.351,-0.386 -0.624,-0.502 -1.124,-0.471 -2.368,-0.794 -3.554,-1.046 -0.32,-0.068 -0.741,-0.255 -0.843,0.164 -0.273,1.146 -1.099,2.822 -2.661,2.721 -1.843,-0.12 -2.743,-1.733 -2.95,-3.223 -0.053,-0.404 -0.04,-0.491 -0.53,-0.495 -0.758,-0.008 -1.519,-0.008 -2.269,0.035 -1.138,0.064 -2.264,0.179 -3.382,0.332 -0.376,0.05 -0.591,0.018 -0.591,0.439 0,1.608 -0.599,3.457 -2.589,3.773 -1.54,0.243 -2.39,-0.919 -2.799,-2.104 -0.081,-0.237 -0.13,-0.639 -0.519,-0.509 -0.856,0.284 -1.681,0.657 -2.505,1.032 -0.407,0.181 -0.455,0.159 -0.469,0.598 -0.041,1.075 0.03,2.173 0.086,3.235 0.031,0.548 0.092,1.109 0.151,1.658 0.125,1.15 0.293,2.299 0.526,3.43 0.353,1.719 0.79,3.378 1.445,5.035 0.955,2.393 2.21,4.549 4.205,6.373 C -5.941,-1.047 -3.02,-0.021 0,0 m 0.059,-0.551 c -2.465,-0.026 -4.836,-0.701 -6.802,-2.098 -2.831,-2.013 -4.444,-5.116 -5.48,-8.143 -0.527,-1.549 -0.859,-3.102 -1.163,-4.695 -0.224,-1.181 -0.351,-2.412 -0.445,-3.616 -0.04,-0.528 -0.063,-1.062 -0.104,-1.591 -0.021,-0.276 -0.011,-0.569 -0.021,-0.846 -0.017,-0.381 0,-0.762 0,-1.143 0,-0.145 0.028,-0.117 0.157,-0.179 0.717,-0.349 1.465,-0.637 2.203,-0.914 0.445,1.306 1.45,2.734 3.158,2.576 1.857,-0.168 2.942,-1.46 3.246,-3.064 0.067,-0.356 0.09,-0.721 0.12,-1.088 0.006,-0.101 0.036,-0.073 0.137,-0.088 1.804,-0.234 3.635,-0.414 5.506,-0.355 0.231,1.764 1.342,3.57 3.49,3.714 1.793,0.121 2.801,-1.586 3.174,-2.94 1.207,0.23 2.379,0.563 3.532,1.008 0.05,0.02 0.395,0.144 0.413,0.164 0.026,0.031 -0.004,0.498 -0.004,0.578 0,1.014 -0.027,2.127 0.383,3.061 0.202,0.47 0.648,0.972 1.263,0.881 0.838,-0.126 1.088,-1.415 1.173,-2.027 0.048,-0.357 0.078,-0.713 0.103,-1.074 0.103,0.051 0.052,0.258 0.052,0.368 0,0.394 -0.028,0.801 -0.06,1.194 -0.089,1.188 -0.191,2.355 -0.364,3.523 -0.24,1.643 -0.585,3.235 -1.013,4.838 -0.261,0.983 -0.615,1.946 -0.981,2.908 -0.386,1.031 -0.92,2.062 -1.488,3.036 -0.868,1.49 -2.067,2.883 -3.509,3.968 -1.871,1.408 -4.266,2.09 -6.676,2.044" style="fill:#000000;fill-opacity:1;fill-rule:nonzero;stroke:none" transform="matrix(1.3333333,0,0,-1.3333333,647.67453,578.95827)"></path>
      <path id="path373" d="m 0,0 c 0.024,-0.059 0.022,-0.133 0.039,-0.198 0.008,-0.036 0.065,-0.132 0.008,-0.162 -0.081,-0.042 -0.156,-0.083 -0.235,-0.127 -0.61,-0.33 -1.298,-0.669 -2.053,-0.989 -0.817,-0.348 -1.694,-0.707 -2.74,-1.027 -0.482,-0.145 -0.955,-0.289 -1.493,-0.429 -1.086,-0.279 -2.499,-0.579 -4.042,-0.745 -0.392,-0.041 -0.753,-0.079 -1.166,-0.109 -2.149,-0.166 -4.445,-0.087 -6.382,0.16 -1.907,0.242 -3.51,0.583 -4.855,0.951 -1.715,0.468 -3.197,0.979 -4.476,1.509 -0.083,0.036 -0.349,0.128 -0.349,0.162 0,0.109 0.038,0.219 0.051,0.328 0.57,-0.237 1.16,-0.475 1.796,-0.707 1.55,-0.558 3.27,-1.091 5.554,-1.545 1.205,-0.241 2.741,-0.456 4.348,-0.554 2.29,-0.14 4.479,-0.023 6.387,0.26 2.595,0.385 4.481,0.983 5.992,1.55 C -2.177,-1.136 -1.043,-0.564 0,0" style="fill:#000000;fill-opacity:1;fill-rule:nonzero;stroke:none" transform="matrix(1.3333333,0,0,-1.3333333,666.09893,600.53253)"></path>
      <path id="path374" d="m 0,0 c 0.097,3.21 -2.035,4.694 -4.666,4.447 2.214,3.365 3.854,5.834 4.095,6.117 C 0.263,11.536 4.248,9.25 4.007,8.197 3.784,7.22 2.215,3.189 0,0" style="fill:#66e204;fill-opacity:1;fill-rule:nonzero;stroke:none" transform="matrix(1.3333333,0,0,-1.3333333,661.01827,486.86453)"></path>
      <path id="path375" d="m 0,0 c 2.89,4.45 8.399,12.951 12.324,18.934 2.631,0.247 4.763,-1.238 4.666,-4.448 C 16.398,13.632 15.757,12.84 15.086,12.18 11.464,8.626 8.135,7.715 8.135,7.715 L 2.005,-0.926 C 1.405,-0.602 0.728,-0.29 0,0" style="fill:#f5f5f5;fill-opacity:1;fill-rule:nonzero;stroke:none" transform="matrix(1.3333333,0,0,-1.3333333,638.36453,506.17973)"></path>
      <path id="path376" d="m 0,0 -2.367,-3.342 -1.669,1.165 c 0,0 0.914,1.379 2.031,3.103 C -1.277,0.636 -0.6,0.324 0,0" style="fill:#d1d1d1;fill-opacity:1;fill-rule:nonzero;stroke:none" transform="matrix(1.3333333,0,0,-1.3333333,641.03773,507.414)"></path>
      <path id="path377" d="M 0,0 C 0.128,0.015 0.266,0.011 0.394,-0.012 1.191,-0.129 1.987,-0.506 2.716,-0.964 3.196,-1.271 4.102,-1.922 4.259,-2.61 4.334,-2.932 4.053,-3.645 3.938,-3.959 3.619,-4.838 3.244,-5.74 2.846,-6.559 2.455,-7.362 2.07,-8.171 1.631,-8.932 c -0.855,-1.491 -1.807,-3.021 -2.941,-4.218 -0.711,-0.749 -1.499,-1.466 -2.288,-2.066 -1.535,-1.164 -3.173,-2.213 -4.884,-2.788 -0.17,-0.057 -0.199,-0.038 -0.32,-0.213 -1.552,-2.215 -3.125,-4.402 -4.682,-6.609 -0.308,-0.432 -0.614,-0.889 -0.927,-1.309 -0.432,-0.568 -0.82,-1.198 -1.254,-1.761 -0.393,-0.51 -0.743,-1.093 -1.138,-1.604 -0.211,-0.277 -0.403,-0.77 -0.758,-0.534 -0.492,0.332 -0.99,0.686 -1.48,1.032 -0.257,0.185 -0.395,0.258 -0.157,0.611 0.672,0.993 1.32,2.022 1.973,3.026 1.119,1.712 2.224,3.436 3.342,5.145 1.658,2.54 3.303,5.089 4.957,7.627 1.177,1.802 2.354,3.6 3.528,5.405 0.828,1.267 1.665,2.525 2.501,3.789 0.362,0.545 0.718,1.122 1.101,1.644 0.308,0.419 0.569,0.885 0.892,1.298 C -0.642,-0.121 -0.374,0.009 0,0 M 0.031,-0.544 C -0.2,-0.547 -0.325,-0.609 -0.479,-0.826 -1.142,-1.749 -1.775,-2.713 -2.401,-3.669 -3.48,-5.323 -4.576,-6.96 -5.655,-8.612 c -0.843,-1.294 -1.687,-2.582 -2.528,-3.876 -0.682,-1.04 -1.369,-2.079 -2.041,-3.128 -0.686,-1.07 -1.399,-2.12 -2.078,-3.204 -0.838,-1.33 -1.719,-2.628 -2.565,-3.949 -1.251,-1.95 -2.524,-3.877 -3.787,-5.814 0.391,-0.269 0.769,-0.557 1.165,-0.815 0.074,-0.049 0.072,0.007 0.132,0.081 0.388,0.509 0.74,1.099 1.133,1.605 0.245,0.31 0.493,0.679 0.719,1.015 0.464,0.686 0.972,1.341 1.438,2.025 0.433,0.646 0.901,1.263 1.344,1.897 0.792,1.13 1.596,2.242 2.392,3.368 0.396,0.567 0.798,1.143 1.203,1.701 0.123,0.166 0.502,0.234 0.687,0.308 1.092,0.437 2.182,0.984 3.209,1.688 1.252,0.856 2.444,1.805 3.53,2.969 1.119,1.199 2.045,2.675 2.885,4.164 0.427,0.751 0.827,1.538 1.195,2.341 0.481,1.045 0.977,2.182 1.306,3.318 0.073,0.251 -0.044,0.389 -0.178,0.56 -0.528,0.662 -1.462,1.196 -2.154,1.484 -0.428,0.178 -0.864,0.317 -1.321,0.33" style="fill:#000000;fill-opacity:1;fill-rule:nonzero;stroke:none" transform="matrix(1.3333333,0,0,-1.3333333,661.04693,472.112)"></path>
      <path id="path378" d="m 0,0 c 0.261,0.002 0.519,-0.009 0.771,-0.049 0.476,-0.066 0.916,-0.184 1.355,-0.401 0.853,-0.415 1.48,-1.1 1.835,-1.968 0.087,-0.211 0.166,-0.454 0.214,-0.677 0.039,-0.172 0.079,-0.345 0.097,-0.516 0.019,-0.195 0.049,-0.393 0.049,-0.591 0,-0.041 0.012,-0.158 -0.002,-0.185 -0.107,-0.174 -0.227,-0.336 -0.339,-0.504 -10e-4,0.063 -10e-4,0.136 0.003,0.203 0.018,0.365 -0.003,0.741 -0.054,1.097 -0.084,0.568 -0.27,1.171 -0.6,1.658 -0.205,0.305 -0.454,0.594 -0.752,0.817 -0.273,0.205 -0.566,0.373 -0.889,0.496 -0.498,0.19 -0.998,0.269 -1.539,0.288 -0.26,0.01 -0.522,-0.019 -0.773,-0.033 0.066,0.105 0.134,0.213 0.204,0.314 0.019,0.027 0.017,0.036 0.051,0.036 C -0.247,-0.013 -0.122,0.008 0,0" style="fill:#000000;fill-opacity:1;fill-rule:nonzero;stroke:none" transform="matrix(1.3333333,0,0,-1.3333333,655.48053,480.68093)"></path>
      <path id="path379" d="m 0,0 c -3.218,2.177 -6.134,5.366 -6.697,6.196 -0.601,0.9 2.289,4.472 3.419,3.861 C -2.952,9.88 -0.535,8.169 2.746,5.828 0.204,5.111 -1.247,2.959 0,0" style="fill:#66e204;fill-opacity:1;fill-rule:nonzero;stroke:none" transform="matrix(1.3333333,0,0,-1.3333333,602.2956,496.10933)"></path>
      <path id="path380" d="m 0,0 c 5.797,-4.139 14.27,-10.257 18.589,-13.381 -0.575,-0.482 -1.119,-1.003 -1.61,-1.539 l -9.023,5.974 c 0,0 -3.431,-0.357 -8.096,1.654 -0.861,0.372 -1.746,0.883 -2.606,1.464 C -3.993,-2.869 -2.542,-0.717 0,0" style="fill:#f5f5f5;fill-opacity:1;fill-rule:nonzero;stroke:none" transform="matrix(1.3333333,0,0,-1.3333333,605.95707,488.33853)"></path>
      <path id="path381" d="M 0,0 C 1.695,-1.224 2.752,-1.987 2.752,-1.987 L 1.616,-3.676 -1.609,-1.539 C -1.119,-1.003 -0.575,-0.482 0,0" style="fill:#d1d1d1;fill-opacity:1;fill-rule:nonzero;stroke:none" transform="matrix(1.3333333,0,0,-1.3333333,630.74213,506.17973)"></path>
      <path id="path382" d="m 0,0 c 0.375,0 0.636,-0.227 0.889,-0.396 2.799,-1.93 5.541,-3.919 8.289,-5.877 3.573,-2.548 7.091,-5.129 10.663,-7.675 1.173,-0.836 2.329,-1.689 3.499,-2.524 1.357,-0.969 2.683,-1.954 4.038,-2.918 0.271,-0.198 0.705,-0.406 0.517,-0.711 -0.249,-0.396 -0.541,-0.781 -0.8,-1.175 -0.087,-0.136 -0.334,-0.613 -0.541,-0.628 -0.17,-0.017 -0.585,0.309 -0.727,0.4 -0.526,0.343 -1.059,0.692 -1.573,1.041 -0.639,0.443 -1.315,0.879 -1.975,1.307 -1.468,0.947 -2.882,1.937 -4.349,2.882 -1.098,0.708 -2.156,1.445 -3.248,2.148 -0.092,0.061 -0.383,0.283 -0.468,0.312 -0.064,0.022 -0.332,-0.002 -0.424,-0.002 -1.771,0 -3.318,0.262 -4.942,0.711 -2.145,0.59 -4.035,1.471 -5.666,2.636 -1.854,1.318 -3.474,2.74 -4.934,4.256 -0.534,0.553 -1.073,1.132 -1.517,1.726 -0.364,0.486 -0.204,0.99 0.013,1.482 0.276,0.626 0.826,1.389 1.379,1.915 C -1.411,-0.646 -0.824,-0.061 0,0 m -0.049,-0.559 c -0.623,-0.135 -1.115,-0.599 -1.472,-0.974 -0.55,-0.567 -1.095,-1.29 -1.322,-1.956 -0.071,-0.204 -0.132,-0.429 0.004,-0.628 0.427,-0.619 1.03,-1.213 1.569,-1.781 1.195,-1.27 2.586,-2.461 4.052,-3.597 0.907,-0.705 1.985,-1.381 3.065,-1.914 1.2,-0.585 2.635,-1.049 3.997,-1.383 0.759,-0.187 1.666,-0.344 2.46,-0.411 0.666,-0.053 1.271,-0.063 1.948,-0.04 0.166,0.006 0.368,-0.164 0.492,-0.245 0.519,-0.351 1.062,-0.691 1.571,-1.041 1.029,-0.709 2.117,-1.379 3.143,-2.086 0.626,-0.429 1.282,-0.838 1.914,-1.26 0.611,-0.408 1.233,-0.81 1.839,-1.219 1.066,-0.722 2.164,-1.439 3.244,-2.14 0.255,0.397 0.532,0.79 0.791,1.184 0.045,0.066 -0.016,0.073 -0.085,0.124 -4.027,2.871 -7.973,5.791 -11.996,8.661 -1.311,0.936 -2.635,1.867 -3.922,2.817 -1.331,0.982 -2.712,1.935 -4.056,2.908 -1.981,1.436 -4.018,2.849 -6.014,4.272 -0.315,0.223 -0.647,0.432 -0.964,0.651 -0.069,0.044 -0.158,0.072 -0.258,0.058" style="fill:#000000;fill-opacity:1;fill-rule:nonzero;stroke:none" transform="matrix(1.3333333,0,0,-1.3333333,597.53253,482.2448)"></path>
      <path id="path383" d="M 0,0 C 0.119,-0.07 0.239,-0.164 0.353,-0.245 0.229,-0.277 0.107,-0.313 -0.012,-0.354 -1.134,-0.723 -2.418,-1.543 -2.768,-3.09 c -0.12,-0.528 -0.107,-1.069 -0.012,-1.601 0.089,-0.502 0.269,-0.973 0.464,-1.436 -0.163,0.111 -0.321,0.223 -0.476,0.34 -0.037,0.026 -0.039,0.047 -0.059,0.093 -0.197,0.563 -0.338,1.154 -0.338,1.78 0,0.308 0.026,0.592 0.091,0.883 C -2.705,-1.292 -1.262,-0.38 0,0" style="fill:#000000;fill-opacity:1;fill-rule:nonzero;stroke:none" transform="matrix(1.3333333,0,0,-1.3333333,605.7188,488.17707)"></path>
      <path id="path384" d="m 0,0 c 4.909,3.388 2.314,5.544 2.592,8.058 0.367,3.352 4.002,5.127 0.446,9.039 1.4,-0.823 2.809,-1.745 4.048,-2.746 C 8.027,12.453 8.495,10.398 8.191,8.228 7.772,5.214 6.057,2.845 3.767,0.986 2.539,0.587 1.262,0.261 0,0" style="fill:#bbbbbb;fill-opacity:1;fill-rule:nonzero;stroke:none" transform="matrix(1.3333333,0,0,-1.3333333,683.00653,564.53773)"></path>
      <path id="path385" d="m 0,0 c 0,0 1.699,-0.621 4.004,-1.699 1.311,-0.615 2.826,-1.381 4.344,-2.264 3.555,-3.912 -0.079,-5.686 -0.447,-9.039 -0.277,-2.514 2.318,-4.67 -2.591,-8.058 -1.853,-0.388 -3.656,-0.646 -5.16,-0.814 -2.284,-0.255 -3.872,-0.308 -3.872,-0.308 z" style="fill:#f5f5f5;fill-opacity:1;fill-rule:nonzero;stroke:none" transform="matrix(1.3333333,0,0,-1.3333333,675.92707,536.45827)"></path>
      <path id="path386" d="M 0,0 C 0.304,2.171 -0.164,4.226 -1.105,6.123 1.49,4.027 3.371,1.592 3.048,-0.964 2.663,-4.048 -0.616,-6.002 -4.425,-7.241 -2.135,-5.383 -0.419,-3.014 0,0" style="fill:#66e204;fill-opacity:1;fill-rule:nonzero;stroke:none" transform="matrix(1.3333333,0,0,-1.3333333,693.9284,553.56773)"></path>
      <path id="path387" d="m 0,0 c 0.061,0.013 0.121,-0.008 0.176,-0.032 1.744,-0.662 3.463,-1.42 5.158,-2.258 1.134,-0.562 2.296,-1.16 3.382,-1.822 1.253,-0.764 2.507,-1.546 3.655,-2.467 1.741,-1.4 3.564,-3.114 4.286,-5.379 0.494,-1.547 0.199,-3.26 -0.757,-4.548 -0.409,-0.555 -0.862,-1.02 -1.384,-1.45 -1.479,-1.213 -3.388,-2.013 -5.14,-2.598 -2.278,-0.765 -4.666,-1.258 -7.031,-1.595 -0.614,-0.089 -1.241,-0.191 -1.859,-0.249 -0.684,-0.063 -1.375,-0.163 -2.067,-0.205 -0.513,-0.033 -1.039,-0.099 -1.556,-0.105 -0.29,-0.004 -0.909,-0.179 -0.822,0.35 0.281,1.754 0.598,3.502 0.881,5.253 0.316,1.948 0.671,3.894 0.984,5.84 0.442,2.785 0.942,5.555 1.396,8.333 0.129,0.787 0.251,1.587 0.398,2.37 0.036,0.209 0.03,0.541 0.3,0.562 m 0.255,-0.658 c -0.455,-2.777 -0.955,-5.548 -1.4,-8.329 -0.341,-2.149 -0.738,-4.286 -1.081,-6.435 -0.096,-0.603 -0.196,-1.214 -0.305,-1.816 -0.283,-1.637 -0.549,-3.282 -0.824,-4.921 1.269,0.046 2.531,0.183 3.785,0.317 2.109,0.227 4.223,0.598 6.279,1.1 1.828,0.447 3.704,1.037 5.423,1.924 1.854,0.954 3.878,2.458 4.172,4.801 0.283,2.272 -1.323,4.285 -2.807,5.725 -1.499,1.451 -3.218,2.556 -4.96,3.633 -1.051,0.651 -2.184,1.235 -3.286,1.788 -1.641,0.82 -3.311,1.551 -4.996,2.213" style="fill:#000000;fill-opacity:1;fill-rule:nonzero;stroke:none" transform="matrix(1.3333333,0,0,-1.3333333,675.88667,536.09373)"></path>
      <path id="path388" d="M 0,0 C 0.257,-0.498 0.49,-1.065 0.69,-1.667 0.826,-2.082 0.93,-2.499 1.026,-2.965 1.16,-3.582 1.239,-4.423 1.215,-5.111 1.188,-5.905 1.083,-6.688 0.889,-7.392 0.664,-8.224 0.362,-8.969 0.017,-9.604 c -0.258,-0.472 -0.532,-0.92 -0.817,-1.305 -0.677,-0.904 -1.385,-1.647 -2.122,-2.288 -0.051,-0.044 -0.15,-0.148 -0.198,-0.16 -0.235,-0.055 -0.473,-0.114 -0.709,-0.154 0.638,0.514 1.277,1.055 1.89,1.736 0.73,0.818 1.455,1.767 2.02,3.071 0.338,0.782 0.6,1.657 0.727,2.678 0.294,2.28 -0.342,4.357 -1.104,5.886 C -0.198,-0.094 -0.1,-0.043 0,0" style="fill:#000000;fill-opacity:1;fill-rule:nonzero;stroke:none" transform="matrix(1.3333333,0,0,-1.3333333,692.65107,545.3112)"></path>
      <path id="path389" d="m 0,0 c 0.219,-0.087 0.452,-0.15 0.67,-0.258 0.055,-0.028 0.162,-0.185 0.219,-0.251 0.292,-0.356 0.605,-0.83 0.84,-1.358 0.323,-0.741 0.438,-1.56 0.199,-2.483 -0.241,-0.95 -0.707,-1.678 -1.07,-2.442 -0.43,-0.909 -0.965,-2.013 -0.767,-3.402 0.092,-0.648 0.256,-1.242 0.35,-1.883 0.126,-0.841 0.068,-1.519 -0.2,-2.201 -0.302,-0.776 -0.808,-1.364 -1.235,-1.783 -0.442,-0.435 -0.903,-0.816 -1.36,-1.131 -0.066,-0.047 -0.208,-0.033 -0.283,-0.033 -0.117,0 -0.238,-0.016 -0.356,-0.01 0.741,0.518 1.488,1.055 2.181,1.867 0.533,0.62 1.125,1.592 0.952,3.031 -0.097,0.772 -0.31,1.473 -0.401,2.248 -0.156,1.339 0.352,2.471 0.772,3.352 0.388,0.82 0.886,1.581 1.13,2.628 C 1.82,-3.346 1.675,-2.55 1.405,-1.973 1.005,-1.114 0.509,-0.553 0,0" style="fill:#000000;fill-opacity:1;fill-rule:nonzero;stroke:none" transform="matrix(1.3333333,0,0,-1.3333333,686.60027,541.57427)"></path>
      <path id="path390" d="m 0,0 c -9.282,-1.557 -18.211,0.16 -25.145,4.198 -6.931,4.04 -11.866,10.397 -13.162,18.115 -1.294,7.718 1.298,15.338 6.535,21.416 5.237,6.079 13.116,10.617 22.396,12.173 9.285,1.556 18.213,-0.164 25.147,-4.201 C 22.702,47.663 27.636,41.307 28.934,33.589 30.228,25.87 27.633,18.25 22.4,12.171 17.162,6.094 9.283,1.558 0,0" style="fill:#f5f5f5;fill-opacity:1;fill-rule:nonzero;stroke:none" transform="matrix(1.3333333,0,0,-1.3333333,647.09373,582.33987)"></path>
      <path id="path391" d="m 0,0 c 1.314,-0.034 2.61,-0.121 3.895,-0.281 4.517,-0.569 8.901,-1.932 12.82,-4.056 10.264,-5.553 15.474,-15.467 14.276,-25.629 -0.471,-4.012 -1.931,-7.852 -4.251,-11.443 -1.62,-2.509 -3.685,-4.874 -6.091,-6.919 -5.945,-5.047 -13.61,-8.28 -21.853,-9.068 -1.865,-0.178 -3.994,-0.268 -5.9,-0.148 -2.442,0.155 -4.845,0.447 -7.174,1.021 -8.426,2.084 -15.69,6.919 -19.626,13.686 -4.036,6.944 -4.412,14.755 -1.449,22.026 2.335,5.727 7.094,11.182 12.916,14.756 C -15.876,-2.024 -8.13,0.211 0,0 M -1.396,-0.534 C -3.349,-0.607 -5.34,-0.7 -7.225,-1.038 c -1.823,-0.33 -3.653,-0.647 -5.411,-1.215 -1.942,-0.628 -3.744,-1.274 -5.577,-2.141 -4.578,-2.157 -8.343,-5.038 -11.538,-8.58 -1.239,-1.373 -2.386,-2.976 -3.309,-4.54 -1.148,-1.954 -1.997,-3.971 -2.659,-6.039 -0.807,-2.527 -0.996,-5.1 -0.996,-7.773 0,-0.528 0.032,-1.167 0.108,-1.692 0.266,-1.864 0.611,-3.648 1.261,-5.445 2.037,-5.623 6.093,-10.289 11.767,-13.717 9.129,-5.52 21.664,-6.227 31.833,-2.576 6.122,2.195 11.308,5.575 15.315,10.111 0.952,1.074 1.798,2.202 2.584,3.377 3.297,4.912 4.982,10.956 4.316,16.608 -0.128,1.079 -0.317,2.14 -0.564,3.197 -1.82,7.829 -8.29,14.85 -16.885,18.26 -4.537,1.798 -9.365,2.705 -14.416,2.669" style="fill:#000000;fill-opacity:1;fill-rule:nonzero;stroke:none" transform="matrix(1.3333333,0,0,-1.3333333,644.9388,506.6992)"></path>
      <path id="path392" d="m 0,0 c -7.478,-1.258 -14.807,0.353 -20.616,3.975 -5.804,3.619 -10.089,9.246 -11.468,16.022 -1.381,6.779 0.403,13.426 4.398,18.691 4,5.258 10.21,9.144 17.693,10.396 7.48,1.258 14.809,-0.353 20.617,-3.976 C 16.432,41.49 20.712,35.858 22.091,29.083 23.473,22.308 21.69,15.661 17.69,10.396 13.693,5.138 7.482,1.253 0,0" style="fill:#bbbbbb;fill-opacity:1;fill-rule:nonzero;stroke:none" transform="matrix(1.3333333,0,0,-1.3333333,653.04947,573.7044)"></path>
      <path id="path393" d="m 0,0 c 2.479,-0.006 4.866,-0.356 7.198,-0.936 6.241,-1.561 12.16,-5.415 15.678,-10.424 2.556,-3.639 4.064,-7.539 4.443,-11.787 0.687,-7.631 -2.559,-15.033 -8.683,-20.316 -2.479,-2.14 -5.346,-3.731 -8.483,-4.936 -1.711,-0.655 -3.706,-1.181 -5.52,-1.46 -2.151,-0.329 -4.403,-0.502 -6.636,-0.357 -1.518,0.097 -3.097,0.245 -4.559,0.585 -2.416,0.562 -4.829,1.292 -7.044,2.439 -1.8,0.929 -3.445,1.917 -5.006,3.159 -2.452,1.945 -4.629,4.391 -6.125,6.971 -0.803,1.381 -1.485,2.795 -1.99,4.257 -2.478,7.203 -1.437,14.748 3.026,21.165 2.161,3.099 4.992,5.606 8.355,7.62 1.077,0.653 2.192,1.161 3.36,1.675 1.69,0.749 3.42,1.225 5.208,1.64 C -4.591,-0.196 -2.305,0.01 0,0 m -0.524,-0.322 c -5.59,-0.067 -11.051,-1.646 -15.644,-4.597 -9.765,-6.273 -13.899,-17.664 -10.191,-27.888 0.817,-2.254 1.967,-4.356 3.429,-6.335 2.573,-3.478 6.392,-6.394 10.504,-8.235 2.05,-0.921 4.197,-1.573 6.395,-2.005 1.934,-0.383 3.925,-0.569 5.962,-0.545 1.067,0.011 2.238,0.053 3.274,0.211 1.971,0.3 3.951,0.6 5.82,1.29 1.286,0.472 2.528,0.895 3.746,1.529 1.768,0.914 3.42,1.883 4.937,3.123 2.759,2.246 4.909,4.734 6.537,7.727 3.752,6.905 3.736,15.082 -0.057,21.974 -1.129,2.049 -2.608,4.046 -4.337,5.719 -5.306,5.149 -12.664,8.097 -20.375,8.032" style="fill:#000000;fill-opacity:1;fill-rule:nonzero;stroke:none" transform="matrix(1.3333333,0,0,-1.3333333,646.8216,507.48173)"></path>
      <path id="path394" d="m 0,0 c -5.895,-0.987 -11.651,0.288 -16.186,3.147 -4.534,2.864 -7.848,7.313 -8.871,12.668 -1.02,5.361 0.448,10.61 3.647,14.771 3.197,4.155 8.122,7.224 14.019,8.21 5.901,0.99 11.656,-0.284 16.188,-3.148 4.538,-2.861 7.855,-7.312 8.874,-12.668 C 18.691,17.624 17.221,12.373 14.023,8.212 10.83,4.059 5.899,0.99 0,0" style="fill:#2c2c2c;fill-opacity:1;fill-rule:nonzero;stroke:none" transform="matrix(1.3333333,0,0,-1.3333333,653.45187,565.94013)"></path>
      <path id="path395" d="m 0,0 c 4.608,0.128 9.102,-1.096 12.907,-3.477 7.784,-4.876 11.115,-13.901 8.331,-22.038 -2.387,-6.976 -8.67,-12.301 -16.502,-13.821 -6.346,-1.232 -12.999,0.116 -18.101,3.815 -2.959,2.145 -5.239,4.959 -6.632,8.143 -1.124,2.562 -1.637,5.417 -1.484,8.23 0.054,1.073 0.21,2.078 0.433,3.11 0.279,1.301 0.751,2.548 1.308,3.785 0.99,2.197 2.572,4.331 4.382,6.038 0.921,0.871 1.936,1.716 3.005,2.396 1.721,1.095 3.462,1.959 5.435,2.627 C -4.717,-0.445 -2.37,-0.081 0,0 M 0.57,-0.317 C -1.116,-0.35 -2.774,-0.5 -4.379,-0.854 c -2.724,-0.608 -5.257,-1.63 -7.587,-3.115 -2.078,-1.318 -3.876,-3.048 -5.332,-4.923 -1.891,-2.44 -3.057,-5.249 -3.604,-8.134 -0.411,-2.173 -0.321,-4.538 0.111,-6.693 0.266,-1.332 0.709,-2.63 1.275,-3.893 1.62,-3.61 4.636,-6.805 8.256,-8.863 5.407,-3.075 11.864,-3.767 17.896,-2.046 5.896,1.68 10.636,5.558 13.254,10.669 0.611,1.195 1.103,2.494 1.419,3.763 0.243,0.974 0.435,1.97 0.486,2.985 0.053,1.055 0.121,2.142 -0.032,3.193 -0.104,0.701 -0.164,1.377 -0.326,2.067 -0.474,2.035 -1.247,4.097 -2.447,5.926 -1.75,2.66 -4.135,4.989 -7.047,6.624 -3.468,1.945 -7.312,2.975 -11.373,2.977" style="fill:#000000;fill-opacity:1;fill-rule:nonzero;stroke:none" transform="matrix(1.3333333,0,0,-1.3333333,648.0664,513.56507)"></path>
      <path id="path396" d="m 0,0 c -1.466,-0.485 -4.125,0.2 -4.584,2.181 -0.474,2.04 1.079,3.477 2.219,3.882 C -0.528,6.719 1.772,5.949 2.319,4.174 2.825,2.518 2.054,0.685 0,0" style="fill:#4ae1ff;fill-opacity:1;fill-rule:nonzero;stroke:none" transform="matrix(1.3333333,0,0,-1.3333333,648.5,532.8268)"></path>
      <path id="path397" d="m 0,0 c -0.953,-0.275 -2.113,0.267 -3.222,1.372 -1.107,1.103 -2.16,2.763 -2.897,4.723 -0.737,1.96 -1.019,3.842 -0.877,5.307 0.143,1.464 0.707,2.507 1.663,2.781 0.949,0.277 2.111,-0.268 3.22,-1.375 C -1.01,11.706 0.043,10.044 0.784,8.085 1.52,6.129 1.799,4.242 1.659,2.78 1.516,1.315 0.952,0.271 0,0" style="fill:#4ae1ff;fill-opacity:1;fill-rule:nonzero;stroke:none" transform="matrix(1.3333333,0,0,-1.3333333,661.70573,535.48827)"></path>
      <path id="path398" d="m 0,0 c 0.14,0.129 0.275,0.257 0.415,0.378 1.881,1.718 3.314,2.815 3.314,2.815 0.938,0.48 2.324,-0.172 3.865,-1.676 1.545,-1.505 3.205,-3.824 4.623,-6.596 1.417,-2.773 2.32,-5.482 2.636,-7.61 0.312,-2.132 -0.035,-3.71 -0.972,-4.188 0,0 -1.533,-0.425 -3.793,-0.86 -0.059,-0.013 -0.115,-0.021 -0.178,-0.034 0.127,2.631 -2.395,2.169 -3.479,3.793 C 5.157,-12.065 6.853,-9.846 6,-8.099 4.813,-5.656 2.928,-6.158 1.873,-3.817 1.425,-2.812 2.162,-0.517 0,0" style="fill:#f5f5f5;fill-opacity:1;fill-rule:nonzero;stroke:none" transform="matrix(1.3333333,0,0,-1.3333333,595.6836,553.57547)"></path>
      <path id="path399" d="m 0,0 c 0.062,0.283 0.109,0.575 0.142,0.881 0.196,1.941 -0.246,4.252 -1.381,6.477 -1.139,2.228 -2.755,3.944 -4.442,4.919 -0.283,0.162 -0.566,0.306 -0.85,0.425 0.735,1.005 1.557,1.984 2.399,2.902 1.031,1.13 2.092,2.171 3.059,3.071 C 1.089,18.158 0.352,15.863 0.8,14.857 1.854,12.517 3.74,13.019 4.927,10.576 5.779,8.829 4.084,6.609 5.357,4.697 6.441,3.073 8.964,3.535 8.837,0.903 7.389,0.63 5.657,0.353 3.847,0.18 2.581,0.059 1.277,-0.013 0,0" style="fill:#bbbbbb;fill-opacity:1;fill-rule:nonzero;stroke:none" transform="matrix(1.3333333,0,0,-1.3333333,597.11453,578.4752)"></path>
      <path id="path400" d="m 0,0 c -4.046,0.053 -7.756,0.945 -9.042,3.776 -1.069,2.345 0.004,5.233 1.858,8.001 0.207,0.312 0.426,0.619 0.653,0.925 0.284,-0.119 0.567,-0.263 0.85,-0.425 1.687,-0.975 3.303,-2.691 4.442,-4.919 C -0.104,5.133 0.338,2.822 0.142,0.881 0.109,0.575 0.062,0.283 0,0" style="fill:#66e204;fill-opacity:1;fill-rule:nonzero;stroke:none" transform="matrix(1.3333333,0,0,-1.3333333,597.11453,578.4752)"></path>
      <path id="path401" d="m 0,0 c 0.249,-0.047 0.313,-0.349 0.123,-0.503 -0.376,-0.3 -0.753,-0.595 -1.124,-0.905 -0.937,-0.778 -1.854,-1.583 -2.75,-2.426 -0.743,-0.7 -1.468,-1.421 -2.177,-2.146 -0.913,-0.936 -1.775,-1.944 -2.571,-2.96 -0.647,-0.825 -1.27,-1.702 -1.798,-2.607 -0.971,-1.679 -1.772,-3.529 -1.544,-5.475 0.236,-2.007 1.869,-3.409 3.787,-4.052 1.46,-0.492 3.011,-0.724 4.573,-0.772 0.905,-0.033 1.823,-0.02 2.723,0.02 1.954,0.087 3.927,0.334 5.83,0.673 1.549,0.275 3.071,0.591 4.595,0.977 0.219,0.055 0.557,0.223 0.687,-0.048 0.093,-0.199 -0.016,-0.346 -0.217,-0.405 -0.525,-0.152 -1.074,-0.284 -1.604,-0.399 -1.539,-0.33 -3.08,-0.66 -4.645,-0.883 -0.83,-0.119 -1.671,-0.243 -2.509,-0.312 -0.802,-0.069 -1.598,-0.143 -2.412,-0.17 -0.901,-0.033 -1.821,-0.046 -2.722,0.004 -1.864,0.106 -3.712,0.368 -5.404,1.168 -1.592,0.75 -2.88,2.107 -3.186,3.801 -0.421,2.337 0.614,4.646 1.855,6.63 0.748,1.195 1.612,2.331 2.538,3.41 0.955,1.112 1.982,2.203 3.059,3.234 0.953,0.912 1.924,1.779 2.905,2.645 0.475,0.417 0.987,0.806 1.473,1.209 C -0.375,-0.175 -0.194,0.012 0,0" style="fill:#000000;fill-opacity:1;fill-rule:nonzero;stroke:none" transform="matrix(1.3333333,0,0,-1.3333333,600.71613,548.95053)"></path>
      <path id="path402" d="m 0,0 c 0.271,-0.068 0.541,-0.187 0.792,-0.379 0.492,-0.372 0.753,-0.939 0.858,-1.806 0.074,-0.622 0.029,-1.286 0.282,-1.808 0.633,-1.3 1.543,-1.641 2.416,-2.256 0.541,-0.379 0.994,-0.788 1.422,-1.475 0.349,-0.562 0.532,-1.094 0.496,-1.925 -0.041,-0.991 -0.37,-1.953 -0.298,-2.966 0.081,-1.203 0.709,-1.803 1.324,-2.199 0.658,-0.424 1.401,-0.594 2.015,-1.207 0.405,-0.404 0.669,-1.036 0.626,-1.841 -0.01,-0.002 -0.023,-0.004 -0.031,-0.008 -0.103,-0.023 -0.202,-0.047 -0.305,-0.067 -0.006,0.139 0.006,0.291 -0.006,0.435 -0.077,0.954 -0.541,1.32 -1.029,1.632 -0.865,0.547 -2.03,0.762 -2.643,2.07 -0.336,0.719 -0.346,1.494 -0.231,2.347 0.114,0.847 0.417,2.092 0.114,2.901 -0.272,0.719 -0.736,1.298 -1.183,1.679 -0.852,0.727 -1.796,1.011 -2.559,2.019 -0.191,0.248 -0.462,0.683 -0.559,1.043 -0.19,0.701 -0.1,1.515 -0.309,2.223 -0.279,0.954 -0.921,1.195 -1.494,1.32 C -0.204,-0.17 -0.1,-0.085 0,0" style="fill:#000000;fill-opacity:1;fill-rule:nonzero;stroke:none" transform="matrix(1.3333333,0,0,-1.3333333,595.8828,553.40627)"></path>
      <path id="path403" d="m 0,0 c 0.038,-0.012 0.079,-0.034 0.121,-0.05 0.486,-0.229 0.968,-0.498 1.44,-0.833 1.242,-0.877 2.44,-2.175 3.392,-3.812 0.326,-0.557 0.632,-1.151 0.889,-1.792 0.53,-1.313 0.95,-2.897 0.95,-4.51 0,-0.268 -0.009,-0.531 -0.033,-0.79 -0.03,-0.345 -0.072,-0.654 -0.138,-0.986 -0.01,-0.055 -0.002,-0.067 -0.038,-0.067 -0.107,0 -0.211,-0.002 -0.318,0 0.012,0.059 0.026,0.123 0.037,0.182 0.469,2.432 -0.221,4.971 -1.128,6.837 -1.365,2.812 -3.352,4.672 -5.368,5.546 C -0.13,-0.18 -0.067,-0.091 0,0" style="fill:#000000;fill-opacity:1;fill-rule:nonzero;stroke:none" transform="matrix(1.3333333,0,0,-1.3333333,588.53387,561.35547)"></path>
      <path id="path404" d="m 0,0 c 0.3,0.006 0.598,-0.049 0.887,-0.146 0.775,-0.263 1.592,-0.858 2.301,-1.525 0.899,-0.848 1.757,-1.85 2.546,-2.969 0.624,-0.886 1.25,-1.844 1.813,-2.875 0.452,-0.836 0.891,-1.682 1.292,-2.582 0.298,-0.675 0.586,-1.358 0.847,-2.079 0.295,-0.812 0.588,-1.714 0.793,-2.602 0.233,-1.011 0.448,-2.137 0.401,-3.241 -0.04,-0.956 -0.265,-1.905 -0.785,-2.399 -0.205,-0.19 -0.478,-0.451 -0.713,-0.318 -0.148,0.085 -0.207,0.35 -0.03,0.456 0.133,0.079 0.267,0.162 0.386,0.3 0.657,0.765 0.672,2.342 0.494,3.521 -0.269,1.784 -0.807,3.511 -1.433,5.032 -0.768,1.865 -1.663,3.633 -2.667,5.198 -0.857,1.338 -1.752,2.53 -2.735,3.566 -0.317,0.337 -0.647,0.648 -0.985,0.93 -0.796,0.668 -1.744,1.304 -2.642,1.154 -0.163,-0.03 -0.315,-0.158 -0.481,-0.119 -0.185,0.042 -0.287,0.358 -0.068,0.502 C -0.543,-0.044 -0.257,-0.014 0,0" style="fill:#000000;fill-opacity:1;fill-rule:nonzero;stroke:none" transform="matrix(1.3333333,0,0,-1.3333333,601.49347,548.74867)"></path>
      <path id="path405" d="M 0,0 C 0.257,-1.266 -0.95,-2.019 -1.401,-1.271 -3.635,2.41 -6.537,1.718 -7.354,1.764 -9.086,1.861 -9.518,5.379 -7.051,5.5 -5.745,5.561 -1.231,5.396 0,0" style="fill:#f5f5f5;fill-opacity:1;fill-rule:nonzero;stroke:none" transform="matrix(1.3333333,0,0,-1.3333333,681.53253,572.25787)"></path>
      <path id="path406" d="M 0,0 C 0.073,0.007 0.152,0.002 0.225,0 1.019,-0.016 1.812,-0.157 2.542,-0.404 3.633,-0.773 4.561,-1.389 5.255,-2.166 5.668,-2.628 5.988,-3.114 6.266,-3.645 6.607,-4.303 6.818,-4.985 6.99,-5.678 7.043,-5.9 7.05,-6.111 7.029,-6.34 7.003,-6.617 6.884,-6.943 6.681,-7.179 6.586,-7.29 6.492,-7.379 6.363,-7.464 6.294,-7.504 6.243,-7.528 6.164,-7.557 6.019,-7.611 5.911,-7.636 5.747,-7.62 5.644,-7.609 5.604,-7.6 5.509,-7.561 c -0.197,0.077 -0.333,0.223 -0.43,0.374 -0.213,0.355 -0.451,0.689 -0.719,1.009 -0.727,0.877 -1.756,1.62 -3.055,1.83 -0.428,0.07 -0.862,0.085 -1.307,0.07 -0.18,-0.008 -0.356,-0.019 -0.54,-0.019 -0.401,0 -0.722,0.136 -1.007,0.36 -0.396,0.317 -0.622,0.823 -0.717,1.247 -0.194,0.858 0.047,2.043 1.098,2.496 C -0.8,-0.036 -0.419,0.011 0,0 m -0.144,-0.555 c -0.546,0.006 -1.032,-0.175 -1.318,-0.558 -0.186,-0.251 -0.289,-0.574 -0.304,-0.859 -0.02,-0.529 0.118,-1.169 0.602,-1.555 0.188,-0.15 0.389,-0.21 0.652,-0.21 0.295,0 0.587,0.03 0.885,0.021 0.46,-0.012 0.889,-0.04 1.322,-0.141 0.776,-0.182 1.449,-0.502 2.041,-0.952 0.77,-0.582 1.355,-1.316 1.815,-2.074 0.105,-0.17 0.23,-0.247 0.464,-0.141 0.214,0.101 0.343,0.336 0.407,0.52 0.153,0.423 -0.015,0.879 -0.13,1.288 -0.162,0.561 -0.405,1.138 -0.713,1.666 -0.755,1.303 -2.009,2.335 -3.722,2.769 -0.644,0.162 -1.31,0.237 -2.001,0.226" style="fill:#000000;fill-opacity:1;fill-rule:nonzero;stroke:none" transform="matrix(1.3333333,0,0,-1.3333333,672.55987,564.54947)"></path>
      <path id="path407" d="m 0,0 c 0.032,0.004 0.067,-0.002 0.1,-0.01 0.098,-0.022 0.2,-0.065 0.297,-0.109 0.069,-0.03 0.129,-0.068 0.197,-0.106 0.056,-0.032 0.105,-0.071 0.162,-0.111 0.048,-0.036 0.091,-0.079 0.14,-0.119 0.048,-0.047 0.092,-0.1 0.137,-0.152 0.046,-0.055 0.085,-0.116 0.125,-0.172 0.035,-0.049 0.062,-0.1 0.087,-0.155 C 1.276,-0.988 1.3,-1.041 1.322,-1.102 1.349,-1.158 1.367,-1.211 1.388,-1.275 1.405,-1.328 1.416,-1.379 1.43,-1.436 1.452,-1.533 1.473,-1.632 1.48,-1.735 1.49,-1.847 1.497,-1.968 1.49,-2.084 1.486,-2.145 1.486,-2.217 1.479,-2.276 1.46,-2.396 1.446,-2.517 1.414,-2.633 1.399,-2.693 1.384,-2.76 1.363,-2.814 1.347,-2.873 1.324,-2.938 1.303,-2.993 1.278,-3.046 1.256,-3.112 1.229,-3.163 1.199,-3.216 1.173,-3.276 1.143,-3.327 1.112,-3.38 1.077,-3.435 1.045,-3.48 1.009,-3.533 0.968,-3.594 0.928,-3.639 0.885,-3.686 0.843,-3.744 0.798,-3.784 0.756,-3.825 0.709,-3.874 0.66,-3.91 0.594,-3.963 0.522,-4.016 0.45,-4.056 0.411,-4.08 0.367,-4.11 0.328,-4.129 0.264,-4.155 0.192,-4.191 0.126,-4.21 0.069,-4.226 0.006,-4.254 -0.051,-4.261 c -0.078,-0.01 -0.155,-0.03 -0.236,-0.028 -0.051,0 -0.092,0.028 -0.144,0.057 -0.026,0.012 -0.045,0.046 -0.065,0.073 -0.023,0.028 -0.028,0.064 -0.042,0.101 -0.009,0.031 -0.002,0.075 -0.002,0.105 0,0.022 0.021,0.063 0.028,0.086 0.016,0.034 0.044,0.052 0.069,0.074 0.043,0.041 0.101,0.051 0.154,0.062 0.097,0.009 0.19,0.023 0.285,0.062 0.081,0.036 0.164,0.081 0.245,0.138 0.045,0.034 0.085,0.068 0.128,0.107 0.046,0.042 0.091,0.093 0.134,0.142 0.04,0.049 0.08,0.111 0.115,0.166 0.172,0.273 0.283,0.607 0.314,0.964 0.005,0.103 0.005,0.2 0,0.301 -0.006,0.061 -0.012,0.116 -0.023,0.174 -0.006,0.053 -0.017,0.098 -0.028,0.149 -0.02,0.092 -0.055,0.179 -0.091,0.26 -0.028,0.074 -0.066,0.138 -0.107,0.199 -0.072,0.107 -0.15,0.194 -0.24,0.271 -0.044,0.039 -0.1,0.079 -0.151,0.108 -0.053,0.032 -0.104,0.056 -0.154,0.079 -0.093,0.042 -0.197,0.056 -0.282,0.117 -0.026,0.018 -0.048,0.055 -0.073,0.087 -0.015,0.024 -0.019,0.061 -0.024,0.092 -0.008,0.032 0.003,0.068 0.009,0.1 0.005,0.033 0.024,0.059 0.038,0.088 0.02,0.034 0.048,0.052 0.079,0.08 C -0.081,-0.018 -0.038,-0.018 0,0" style="fill:#000000;fill-opacity:1;fill-rule:nonzero;stroke:none" transform="matrix(1.3333333,0,0,-1.3333333,672.07947,564.55733)"></path>
      <path id="path408" d="m 0,0 c -0.011,-1.509 -1.768,-1.641 -2.02,-0.835 -0.362,1.16 -0.872,1.228 -1.348,1.228 -0.445,-0.002 -0.844,0.03 -1.573,-0.702 -0.644,-0.643 -2.671,0.831 -1.866,1.959 0.742,1.031 2.203,2.264 3.861,2.064 C -0.643,3.432 0.014,1.373 0,0" style="fill:#f5f5f5;fill-opacity:1;fill-rule:nonzero;stroke:none" transform="matrix(1.3333333,0,0,-1.3333333,684.1328,576.7552)"></path>
      <path id="path409" d="M 0,0 C 0.105,0 0.208,-0.006 0.31,-0.014 0.972,-0.085 1.616,-0.323 2.098,-0.698 2.488,-1 2.771,-1.349 2.993,-1.739 3.157,-2.033 3.267,-2.324 3.363,-2.634 3.44,-2.881 3.489,-3.146 3.52,-3.403 3.582,-3.946 3.601,-4.514 3.254,-4.999 3.141,-5.159 3.005,-5.283 2.818,-5.396 2.701,-5.472 2.575,-5.52 2.43,-5.562 2.294,-5.601 2.154,-5.611 2.007,-5.611 1.883,-5.611 1.764,-5.578 1.65,-5.548 1.577,-5.53 1.526,-5.5 1.462,-5.469 1.383,-5.435 1.33,-5.386 1.266,-5.34 c -0.068,0.053 -0.138,0.136 -0.179,0.203 -0.036,0.055 -0.076,0.144 -0.095,0.202 -0.085,0.248 -0.168,0.48 -0.328,0.707 -0.136,0.197 -0.352,0.331 -0.646,0.331 -0.162,0 -0.316,0.003 -0.472,-0.013 -0.409,-0.049 -0.721,-0.316 -0.97,-0.561 -0.056,-0.056 -0.117,-0.099 -0.186,-0.15 -0.067,-0.046 -0.125,-0.065 -0.208,-0.089 -0.11,-0.04 -0.26,-0.044 -0.375,-0.034 -0.187,0.015 -0.365,0.062 -0.527,0.141 -0.375,0.172 -0.658,0.406 -0.89,0.689 -0.164,0.207 -0.276,0.421 -0.339,0.652 -0.018,0.065 -0.029,0.121 -0.036,0.189 -0.027,0.202 0,0.406 0.077,0.596 0.04,0.098 0.087,0.187 0.151,0.28 0.191,0.276 0.438,0.557 0.691,0.802 C -2.309,-0.666 -1.252,0.009 0,0 m -0.146,-0.555 c -1.021,-0.052 -1.863,-0.609 -2.495,-1.207 -0.243,-0.228 -0.46,-0.477 -0.646,-0.739 -0.249,-0.346 -0.159,-0.686 0.075,-1.02 0.179,-0.255 0.504,-0.504 0.845,-0.624 0.139,-0.048 0.354,-0.089 0.475,0.004 0.11,0.087 0.197,0.189 0.304,0.276 0.146,0.115 0.276,0.215 0.442,0.305 0.231,0.134 0.524,0.213 0.812,0.215 0.236,0.002 0.461,0.012 0.687,-0.041 0.054,-0.01 0.092,-0.019 0.143,-0.04 0.068,-0.026 0.123,-0.047 0.185,-0.083 0.066,-0.039 0.117,-0.069 0.175,-0.117 0.1,-0.086 0.183,-0.167 0.255,-0.268 0.191,-0.267 0.304,-0.543 0.398,-0.832 0.068,-0.211 0.219,-0.299 0.487,-0.326 0.26,-0.03 0.566,0.108 0.717,0.272 0.252,0.268 0.284,0.549 0.284,0.876 0,0.409 -0.079,0.812 -0.199,1.203 -0.218,0.729 -0.71,1.494 -1.585,1.886 -0.415,0.179 -0.879,0.271 -1.359,0.26" style="fill:#000000;fill-opacity:1;fill-rule:nonzero;stroke:none" transform="matrix(1.3333333,0,0,-1.3333333,679.76693,571.41013)"></path>
      <path id="path410" d="M 0,0 C 1.383,0.602 2.219,-0.952 1.585,-1.507 0.67,-2.309 0.402,-3.009 0.595,-3.444 0.777,-3.85 1.15,-4.103 2.107,-4.474 2.96,-4.799 2.61,-7.173 1.251,-6.891 0.01,-6.632 -1.711,-5.798 -2.195,-4.2 -2.878,-1.979 -1.258,-0.547 0,0" style="fill:#f5f5f5;fill-opacity:1;fill-rule:nonzero;stroke:none" transform="matrix(1.3333333,0,0,-1.3333333,674.11853,570.86973)"></path>
      <path id="path411" d="M 0,0 C 0.229,-0.002 0.45,-0.057 0.662,-0.162 0.726,-0.194 0.778,-0.23 0.841,-0.271 0.996,-0.377 1.134,-0.524 1.246,-0.7 1.314,-0.812 1.363,-0.923 1.405,-1.051 1.428,-1.13 1.44,-1.192 1.45,-1.271 1.462,-1.351 1.456,-1.413 1.456,-1.494 1.456,-1.567 1.432,-1.634 1.418,-1.703 1.397,-1.786 1.354,-1.875 1.312,-1.944 1.276,-1.999 1.203,-2.086 1.154,-2.13 0.944,-2.316 0.756,-2.505 0.569,-2.739 0.411,-2.937 0.177,-3.309 0.205,-3.599 0.215,-3.734 0.284,-3.857 0.364,-3.951 0.56,-4.178 0.875,-4.319 1.124,-4.433 1.284,-4.508 1.458,-4.562 1.616,-4.64 1.677,-4.665 1.769,-4.716 1.816,-4.759 1.859,-4.795 1.944,-4.878 1.975,-4.927 2.007,-4.976 2.054,-5.042 2.078,-5.093 2.139,-5.221 2.191,-5.395 2.212,-5.536 2.252,-5.864 2.228,-6.164 2.139,-6.474 2.078,-6.685 1.995,-6.853 1.888,-7.024 1.809,-7.146 1.714,-7.235 1.61,-7.326 1.554,-7.379 1.456,-7.448 1.386,-7.48 1.32,-7.511 1.235,-7.547 1.171,-7.562 1.108,-7.575 1.024,-7.6 0.968,-7.6 c -0.133,0 -0.263,-0.007 -0.389,0.023 -0.785,0.17 -1.555,0.481 -2.26,0.996 -0.506,0.366 -1.032,0.923 -1.296,1.598 -0.232,0.593 -0.343,1.261 -0.234,1.921 0.196,1.155 0.98,2.013 1.788,2.528 C -0.976,-0.247 -0.504,-0.006 0,0 m -0.04,-0.559 c -0.347,-0.018 -0.675,-0.192 -0.986,-0.382 -0.868,-0.525 -1.738,-1.487 -1.662,-2.805 0.038,-0.696 0.279,-1.286 0.683,-1.775 0.484,-0.586 1.167,-0.996 1.799,-1.243 0.285,-0.109 0.591,-0.21 0.887,-0.264 0.202,-0.039 0.343,-0.023 0.528,0.091 0.194,0.121 0.332,0.405 0.403,0.654 0.079,0.273 0.089,0.628 -0.014,0.892 -0.036,0.096 -0.097,0.183 -0.174,0.225 -0.134,0.069 -0.281,0.118 -0.417,0.177 -0.264,0.109 -0.527,0.238 -0.774,0.411 -0.176,0.123 -0.344,0.295 -0.458,0.512 -0.036,0.069 -0.058,0.113 -0.081,0.19 -0.02,0.065 -0.034,0.104 -0.04,0.172 -0.008,0.086 -0.012,0.148 -0.007,0.235 0.011,0.073 0.015,0.117 0.029,0.185 0.15,0.651 0.665,1.17 1.086,1.551 0.04,0.038 0.075,0.077 0.101,0.129 0.131,0.268 -0.067,0.638 -0.241,0.794 -0.196,0.18 -0.421,0.263 -0.662,0.251" style="fill:#000000;fill-opacity:1;fill-rule:nonzero;stroke:none" transform="matrix(1.3333333,0,0,-1.3333333,674.94147,570.31907)"></path>
      <path id="path412" d="M 0,0 C 0.781,1.97 2.721,3.797 5.459,4.791 7.344,5.476 9.604,5.763 12.129,5.435 13.648,5.236 15.26,4.813 16.944,4.116 18.64,3.414 17.834,-0.132 15.069,0.249 14.494,0.328 13.279,0.647 11.902,0.8 10.586,0.945 9.12,0.936 7.934,0.411 7.142,0.062 6.474,-0.513 6.05,-1.422 6,-1.531 5.953,-1.643 5.919,-1.756 5.595,-2.74 5.803,-3.806 6.391,-4.81 7.014,-5.871 8.049,-6.871 9.322,-7.652 8.555,-7.276 6.808,-8.305 6.099,-9.708 5.04,-11.798 6.026,-12.677 6.026,-12.677 4.78,-12.021 3.132,-10.732 1.794,-9.03 0.108,-6.886 -1.082,-4.089 -0.345,-1.075 -0.258,-0.719 -0.143,-0.36 0,0" style="fill:#8f8f8f;fill-opacity:1;fill-rule:nonzero;stroke:none" transform="matrix(1.3333333,0,0,-1.3333333,614.7188,589.07813)"></path>
      <path id="path413" d="M 0,0 C 0,0 -0.986,0.879 0.072,2.969 0.781,4.372 2.528,5.4 3.296,5.024 4.035,4.661 3.843,2.737 2.78,1.275 2,0.2 0.755,-0.401 0,0" style="fill:#5e5e5e;fill-opacity:1;fill-rule:nonzero;stroke:none" transform="matrix(1.3333333,0,0,-1.3333333,622.75387,605.98053)"></path>
      <path id="path414" d="m 0,0 c 0.285,0.004 0.571,0.006 0.856,-0.012 1.383,-0.081 2.743,-0.29 4.052,-0.682 0.683,-0.202 1.333,-0.428 2.001,-0.683 0.464,-0.18 0.819,-0.4 1.045,-0.84 C 8.582,-3.438 7.956,-5.055 6.69,-5.664 5.717,-6.13 4.761,-5.804 3.78,-5.613 2.741,-5.415 1.739,-5.267 0.656,-5.247 0.421,-5.238 0.129,-5.249 -0.105,-5.272 -1.422,-5.415 -2.539,-5.77 -3.317,-6.883 c -1.041,-1.484 -0.455,-3.159 0.614,-4.453 0.277,-0.332 0.627,-0.717 0.974,-0.992 0.407,-0.324 0.824,-0.674 1.279,-0.934 0.573,-0.324 0.634,-1.085 0.567,-1.662 -0.186,-1.582 -1.328,-3.582 -3.088,-3.967 -0.611,-0.131 -0.978,0.065 -1.474,0.359 -1.592,0.951 -3.129,2.388 -4.19,3.878 -0.905,1.257 -1.62,2.628 -1.929,4.116 -0.304,1.464 -0.251,2.934 0.226,4.344 0.644,1.891 1.964,3.323 3.692,4.392 C -4.668,-0.573 -2.329,-0.032 0,0 m 0.032,-0.553 c -3.559,-0.02 -7.439,-1.48 -9.289,-4.593 -0.532,-0.892 -0.804,-1.933 -0.909,-2.936 -0.146,-1.413 0.173,-2.867 0.747,-4.148 1.015,-2.263 2.927,-4.322 5.053,-5.693 0.358,-0.233 0.739,-0.505 1.195,-0.437 1.14,0.175 2.03,1.356 2.422,2.328 0.228,0.571 0.453,1.414 0.242,2.015 -0.083,0.237 -0.295,0.314 -0.494,0.45 -0.546,0.373 -1.02,0.733 -1.506,1.199 -1.327,1.271 -2.374,3.144 -1.722,4.948 0.583,1.612 2.062,2.459 3.743,2.663 1.026,0.122 2.016,0.047 3.027,-0.081 0.865,-0.111 1.707,-0.319 2.558,-0.47 1.252,-0.22 2.288,0.5 2.501,1.69 0.113,0.625 -0.031,1.342 -0.687,1.634 -0.575,0.253 -1.196,0.46 -1.79,0.648 -1.168,0.366 -2.367,0.601 -3.595,0.721 -0.492,0.046 -0.992,0.06 -1.496,0.062" style="fill:#000000;fill-opacity:1;fill-rule:nonzero;stroke:none" transform="matrix(1.3333333,0,0,-1.3333333,627.93493,581.28387)"></path>
      <path id="path415" d="m 0,0 c 0.021,0 0.043,-0.002 0.063,-0.006 0.05,-0.006 0.12,-0.01 0.165,-0.026 C 0.3,-0.057 0.371,-0.074 0.439,-0.113 0.492,-0.142 0.515,-0.176 0.549,-0.23 0.567,-0.261 0.569,-0.297 0.575,-0.334 0.581,-0.366 0.573,-0.395 0.569,-0.423 0.562,-0.47 0.549,-0.492 0.524,-0.528 0.509,-0.561 0.484,-0.572 0.456,-0.595 0.428,-0.619 0.403,-0.623 0.369,-0.63 0.251,-0.658 0.173,-0.581 0.063,-0.564 -0.132,-0.54 -0.302,-0.568 -0.485,-0.623 -0.844,-0.73 -1.227,-0.951 -1.537,-1.2 c -0.44,-0.349 -0.862,-0.79 -1.136,-1.341 -0.182,-0.366 -0.338,-0.755 -0.411,-1.169 -0.083,-0.465 -0.062,-0.945 0.187,-1.34 0.056,-0.085 0.131,-0.141 0.177,-0.235 0.013,-0.03 0.013,-0.069 0.017,-0.104 0.002,-0.03 -0.012,-0.058 -0.023,-0.089 -0.011,-0.036 -0.034,-0.056 -0.058,-0.084 -0.021,-0.029 -0.047,-0.041 -0.079,-0.057 -0.033,-0.021 -0.046,-0.021 -0.081,-0.027 -0.049,-0.009 -0.065,-0.005 -0.11,0.002 -0.094,0.023 -0.134,0.07 -0.196,0.144 -0.125,0.141 -0.215,0.307 -0.287,0.488 -0.166,0.419 -0.183,0.918 -0.1,1.371 0.085,0.48 0.264,0.979 0.491,1.4 0.169,0.309 0.356,0.583 0.583,0.842 0.341,0.384 0.741,0.721 1.162,0.968 C -0.96,-0.172 -0.492,0.015 0,0" style="fill:#000000;fill-opacity:1;fill-rule:nonzero;stroke:none" transform="matrix(1.3333333,0,0,-1.3333333,626.74093,598.81253)"></path>
      <path id="path416" d="m 0,0 c 0.065,-0.002 0.136,0.006 0.201,0 0.02,-0.002 0.03,0.004 0.04,-0.014 0.075,-0.107 0.136,-0.224 0.203,-0.336 -0.237,0.022 -0.486,0.024 -0.727,0.002 -0.255,-0.02 -0.494,-0.067 -0.739,-0.135 -0.624,-0.173 -1.181,-0.507 -1.661,-0.932 -0.339,-0.308 -0.605,-0.654 -0.834,-1.039 -0.205,-0.342 -0.34,-0.719 -0.441,-1.096 -0.09,-0.34 -0.124,-0.69 -0.145,-1.045 -0.086,0.11 -0.177,0.223 -0.26,0.339 -0.021,0.027 -0.047,0.048 -0.043,0.083 0.058,0.565 0.205,1.095 0.456,1.615 0.317,0.659 0.807,1.24 1.403,1.686 C -1.816,-0.334 -0.919,-0.008 0,0" style="fill:#000000;fill-opacity:1;fill-rule:nonzero;stroke:none" transform="matrix(1.3333333,0,0,-1.3333333,622.7852,595.25653)"></path>
      <path id="path417" d="M 0,0 C 0.055,0 0.109,0.002 0.169,0 1.529,-0.049 2.54,-0.707 3.151,-1.385 3.283,-1.535 3.4,-1.685 3.506,-1.839 3.524,-1.863 3.54,-1.875 3.532,-1.901 3.491,-2.031 3.453,-2.173 3.404,-2.299 3.091,-1.786 2.68,-1.271 2.02,-0.881 c -0.64,0.379 -1.483,0.628 -2.4,0.527 -0.788,-0.087 -1.418,-0.391 -1.882,-0.774 -0.245,-0.2 -0.433,-0.419 -0.621,-0.638 0.051,0.193 0.091,0.389 0.155,0.583 0.011,0.035 0.029,0.116 0.055,0.138 0.13,0.125 0.276,0.245 0.436,0.357 C -1.662,-0.294 -0.893,-0.002 0,0" style="fill:#000000;fill-opacity:1;fill-rule:nonzero;stroke:none" transform="matrix(1.3333333,0,0,-1.3333333,617.98173,588.63027)"></path>
      <path id="path418" d="m 0,0 c 0.028,-0.002 0.053,-0.019 0.075,-0.03 0.834,-0.383 1.628,-1.12 2.064,-2.158 0.073,-0.173 0.132,-0.35 0.18,-0.534 0.095,-0.339 0.14,-0.682 0.146,-1.049 C 2.471,-3.961 2.448,-4.157 2.431,-4.342 2.428,-4.368 2.433,-4.372 2.412,-4.383 2.297,-4.435 2.179,-4.492 2.063,-4.54 c 0.035,0.228 0.068,0.464 0.068,0.702 0,0.284 -0.027,0.545 -0.083,0.815 -0.149,0.718 -0.511,1.371 -0.952,1.842 -0.225,0.242 -0.462,0.438 -0.725,0.61 -0.269,0.175 -0.551,0.296 -0.835,0.403 C -0.306,-0.109 -0.153,-0.051 0,0" style="fill:#000000;fill-opacity:1;fill-rule:nonzero;stroke:none" transform="matrix(1.3333333,0,0,-1.3333333,622.30213,582.58467)"></path>
      <path id="path419" d="m 0,0 c 0.154,-0.016 0.316,-0.04 0.472,-0.066 0.018,0 0.041,-0.004 0.056,-0.025 C 0.604,-0.187 0.681,-0.287 0.747,-0.402 0.915,-0.676 1.065,-0.99 1.158,-1.375 1.237,-1.69 1.275,-2.043 1.258,-2.397 1.247,-2.509 1.239,-2.614 1.226,-2.724 1.197,-2.905 1.158,-3.077 1.105,-3.244 0.988,-3.622 0.828,-3.942 0.644,-4.21 0.539,-4.357 0.436,-4.487 0.322,-4.61 0.3,-4.633 0.266,-4.684 0.241,-4.684 c -0.051,0 -0.101,0.011 -0.154,0.013 -0.093,0.002 -0.187,0.012 -0.275,0.02 0.382,0.358 0.765,0.812 0.984,1.531 0.043,0.14 0.073,0.29 0.098,0.443 0.08,0.519 0.011,1.075 -0.149,1.517 C 0.698,-1.034 0.652,-0.927 0.6,-0.815 0.498,-0.613 0.377,-0.441 0.259,-0.291 0.179,-0.184 0.085,-0.099 0,0" style="fill:#000000;fill-opacity:1;fill-rule:nonzero;stroke:none" transform="matrix(1.3333333,0,0,-1.3333333,630.54813,581.78907)"></path>
      <path id="path420" d="M 0,0 C -0.174,1.264 1.215,3.374 2.582,3.852 4.431,4.496 5.259,2.493 4.344,1.752 3.682,1.211 2.175,1.152 1.658,-0.737 1.505,-1.296 0.144,-1.047 0,0" style="fill:#f5f5f5;fill-opacity:1;fill-rule:nonzero;stroke:none" transform="matrix(1.3333333,0,0,-1.3333333,627.06253,599.4792)"></path>
      <path id="path421" d="m 0,0 c 0.341,0.012 0.69,-0.055 0.984,-0.239 0.12,-0.075 0.223,-0.153 0.325,-0.257 0.102,-0.108 0.183,-0.213 0.26,-0.341 0.066,-0.105 0.108,-0.219 0.149,-0.338 0.023,-0.062 0.034,-0.117 0.05,-0.18 C 1.796,-1.503 1.803,-1.643 1.792,-1.792 1.79,-1.855 1.78,-1.899 1.772,-1.956 1.756,-2.029 1.737,-2.092 1.713,-2.161 1.693,-2.231 1.663,-2.282 1.628,-2.35 1.598,-2.41 1.563,-2.455 1.523,-2.514 1.48,-2.566 1.442,-2.606 1.394,-2.655 1.239,-2.803 1.033,-2.918 0.845,-3.008 0.434,-3.204 0.019,-3.368 -0.354,-3.647 -0.822,-3.996 -1.092,-4.459 -1.262,-5.026 -1.288,-5.128 -1.358,-5.279 -1.441,-5.343 -1.486,-5.379 -1.565,-5.449 -1.611,-5.47 -1.687,-5.5 -1.786,-5.535 -1.863,-5.541 c -0.091,-0.01 -0.168,-0.016 -0.259,-0.008 -0.068,0.004 -0.128,0.012 -0.196,0.028 -0.076,0.015 -0.132,0.035 -0.205,0.059 -0.055,0.019 -0.093,0.041 -0.144,0.065 -0.125,0.061 -0.227,0.138 -0.33,0.223 -0.093,0.076 -0.172,0.174 -0.241,0.274 -0.073,0.106 -0.123,0.212 -0.166,0.334 -0.055,0.159 -0.085,0.336 -0.085,0.511 0,0.175 0.018,0.337 0.049,0.505 0.083,0.446 0.273,0.909 0.5,1.308 0.403,0.705 0.982,1.399 1.663,1.822 C -0.883,-0.173 -0.453,-0.017 0,0 M 0.006,-0.556 C -0.462,-0.573 -0.879,-0.798 -1.251,-1.08 -1.5,-1.272 -1.723,-1.513 -1.932,-1.754 c -0.196,-0.23 -0.377,-0.504 -0.524,-0.769 -0.262,-0.462 -0.472,-0.998 -0.472,-1.532 0,-0.441 0.239,-0.755 0.63,-0.896 0.115,-0.045 0.368,-0.085 0.472,0.004 0.03,0.026 0.056,0.168 0.074,0.213 0.193,0.583 0.486,1.058 0.952,1.447 0.373,0.309 0.819,0.513 1.254,0.711 0.234,0.103 0.565,0.251 0.689,0.498 0.085,0.168 0.113,0.322 0.092,0.511 -0.048,0.483 -0.405,0.879 -0.858,0.977 -0.059,0.017 -0.113,0.025 -0.181,0.03 -0.06,0.007 -0.125,0.007 -0.19,0.004" style="fill:#000000;fill-opacity:1;fill-rule:nonzero;stroke:none" transform="matrix(1.3333333,0,0,-1.3333333,631.32293,593.8112)"></path>
      <path id="path422" d="M 0,0 C 1.03,4.508 4.806,4.676 5.896,4.597 7.867,4.451 7.667,1.67 6.15,1.474 5.472,1.387 3.039,2.015 1.17,-1.063 0.794,-1.687 -0.217,-1.058 0,0" style="fill:#f5f5f5;fill-opacity:1;fill-rule:nonzero;stroke:none" transform="matrix(1.3333333,0,0,-1.3333333,627.35413,601.54693)"></path>
      <path id="path423" d="m 0,0 c 0.15,0.002 0.296,-0.004 0.439,-0.018 0.5,-0.058 0.908,-0.273 1.194,-0.62 0.344,-0.423 0.443,-0.931 0.4,-1.435 C 1.986,-2.6 1.693,-3.237 1.114,-3.529 1.003,-3.584 0.885,-3.635 0.756,-3.659 0.65,-3.679 0.551,-3.693 0.441,-3.695 0.203,-3.701 -0.036,-3.691 -0.271,-3.691 -1,-3.691 -1.687,-3.854 -2.292,-4.189 -2.914,-4.531 -3.371,-5.01 -3.767,-5.516 -3.94,-5.74 -4.07,-5.985 -4.242,-6.208 c -0.065,-0.081 -0.121,-0.113 -0.211,-0.171 -0.078,-0.052 -0.133,-0.058 -0.225,-0.08 -0.091,-0.02 -0.135,-0.011 -0.22,-0.003 -0.091,0.005 -0.127,0.019 -0.208,0.047 -0.147,0.055 -0.258,0.14 -0.361,0.235 -0.14,0.131 -0.247,0.289 -0.302,0.457 -0.105,0.296 -0.135,0.594 -0.067,0.904 0.077,0.336 0.17,0.67 0.294,0.998 0.383,1.012 0.945,1.925 1.903,2.665 C -2.658,-0.4 -1.322,0.011 0,0 m -0.16,-0.555 c -1.245,-0.03 -2.509,-0.462 -3.375,-1.235 -0.398,-0.355 -0.715,-0.727 -0.973,-1.158 -0.38,-0.634 -0.627,-1.298 -0.779,-1.977 -0.073,-0.317 -0.014,-0.743 0.324,-0.947 0.073,-0.043 0.178,-0.065 0.251,-0.017 0.085,0.057 0.164,0.219 0.219,0.306 0.273,0.424 0.605,0.843 0.998,1.203 0.182,0.166 0.393,0.347 0.609,0.484 0.411,0.263 0.858,0.482 1.358,0.608 0.467,0.117 0.909,0.155 1.407,0.155 0.219,0 0.435,-0.015 0.65,-0.002 0.195,0.011 0.41,0.124 0.54,0.245 0.393,0.377 0.485,0.947 0.371,1.42 -0.079,0.326 -0.29,0.63 -0.658,0.794 -0.288,0.125 -0.614,0.123 -0.942,0.121" style="fill:#000000;fill-opacity:1;fill-rule:nonzero;stroke:none" transform="matrix(1.3333333,0,0,-1.3333333,634.776,595.0352)"></path>
      <path id="path424" d="M 0,0 C 2.109,3.9 5.852,2.849 6.844,2.288 8.256,1.492 7.836,-1.094 6.321,-0.747 5.638,-0.594 3.442,0.847 0.872,-1.409 0.352,-1.865 -0.468,-0.924 0,0" style="fill:#f5f5f5;fill-opacity:1;fill-rule:nonzero;stroke:none" transform="matrix(1.3333333,0,0,-1.3333333,627.04947,605.50787)"></path>
      <path id="path425" d="M 0,0 H 0.026 C 0.885,-0.009 1.79,-0.19 2.498,-0.558 2.847,-0.737 3.071,-0.973 3.254,-1.25 3.355,-1.406 3.437,-1.599 3.484,-1.765 3.663,-2.374 3.618,-3.103 3.209,-3.662 3.163,-3.723 3.118,-3.771 3.062,-3.83 3.015,-3.878 2.964,-3.913 2.909,-3.953 2.849,-4.002 2.792,-4.028 2.724,-4.064 2.654,-4.099 2.594,-4.119 2.519,-4.142 2.454,-4.162 2.396,-4.168 2.328,-4.176 2.254,-4.187 2.19,-4.182 2.113,-4.182 c -0.06,0 -0.098,0.008 -0.155,0.016 -0.196,0.032 -0.364,0.098 -0.541,0.164 -0.326,0.126 -0.644,0.241 -0.988,0.326 -0.342,0.085 -0.747,0.128 -1.116,0.11 -1.061,-0.055 -1.938,-0.555 -2.598,-1.13 -0.067,-0.057 -0.127,-0.102 -0.204,-0.149 -0.081,-0.05 -0.138,-0.054 -0.234,-0.078 -0.102,-0.022 -0.162,-0.007 -0.258,0.006 -0.091,0.016 -0.13,0.038 -0.205,0.075 -0.131,0.065 -0.231,0.159 -0.314,0.253 -0.119,0.136 -0.198,0.289 -0.251,0.445 -0.019,0.059 -0.043,0.138 -0.051,0.199 -0.015,0.132 -0.028,0.281 -0.008,0.415 0.023,0.178 0.071,0.373 0.161,0.537 0.402,0.737 0.96,1.498 1.747,2.065 C -2.114,-0.369 -1.12,0.004 0,0 m -0.143,-0.56 c -1.026,-0.03 -1.958,-0.42 -2.631,-0.975 -0.385,-0.319 -0.723,-0.689 -0.981,-1.068 -0.166,-0.247 -0.34,-0.501 -0.443,-0.759 -0.121,-0.287 -0.081,-0.729 0.22,-0.964 0.07,-0.051 0.159,-0.077 0.238,-0.02 0.153,0.112 0.285,0.239 0.439,0.352 0.411,0.292 0.821,0.551 1.334,0.731 0.393,0.138 0.782,0.225 1.215,0.247 0.717,0.038 1.32,-0.09 1.956,-0.311 0.256,-0.09 0.507,-0.203 0.768,-0.278 0.166,-0.044 0.373,-0.031 0.516,0.044 0.415,0.211 0.513,0.709 0.535,1.041 0.02,0.282 -0.044,0.598 -0.178,0.859 -0.148,0.29 -0.368,0.511 -0.738,0.675 -0.675,0.299 -1.451,0.445 -2.25,0.426" style="fill:#000000;fill-opacity:1;fill-rule:nonzero;stroke:none" transform="matrix(1.3333333,0,0,-1.3333333,632.91933,601.336)"></path>
    </g>
  </g>
</svg>