<?xml version="1.0" encoding="UTF-8" standalone="no"?>


<svg version="1.1" id="svg1" width="127.98492" height="171.38501" viewBox="0 0 127.98492 171.38501" xmlns="http://www.w3.org/2000/svg" xmlns:svg="http://www.w3.org/2000/svg">
  <defs id="defs1"></defs>
  <g id="layer-MC0" transform="translate(-957.55705,-343.19226)">
    <g id="g1231" transform="translate(41.890909,-86.4)">
      <path id="path97" d="m 998.14982,599.44937 c -0.848,-0.24134 -1.328,-0.72667 -1.412,-1.32267 -0.0893,-0.6 0.20933,-1.31067 0.92133,-1.984 0.70933,-0.676 1.69733,-1.18933 2.72135,-1.47467 1.0187,-0.28666 2.072,-0.34666 2.9187,-0.11466 0.6093,0.17333 1.0293,0.476 1.2453,0.85733 0.061,0.16933 0.1187,0.32667 0.1667,0.472 0.087,0.59467 -0.2134,1.30667 -0.9227,1.98 -0.7133,0.67067 -1.7013,1.18933 -2.72,1.476 -1.02,0.28933 -2.07602,0.348 -2.91868,0.11067" style="fill:#1c1c1c;fill-opacity:1;fill-rule:nonzero;stroke:none;stroke-width:1.33333"></path>
      <path id="path98" d="m 996.73835,598.12644 c -0.33734,-0.98 -0.57067,-1.74934 -1.15867,-3.46267 1.41733,-2.32933 5.75062,-3.47067 7.67732,-2.656 0.6467,1.63467 0.9227,2.36667 1.2867,3.40267 -0.216,-0.38134 -0.6347,-0.684 -1.244,-0.85734 -0.848,-0.232 -1.9014,-0.172 -2.92,0.11467 -1.02269,0.28533 -2.01069,0.79867 -2.72135,1.47467 -0.712,0.67466 -1.00934,1.384 -0.92,1.984" style="fill:#8f8f8f;fill-opacity:1;fill-rule:nonzero;stroke:none;stroke-width:1.33333"></path>
      <path id="path99" d="m 995.57942,594.66417 c -1.24534,-3.58934 -4.6,-13.23467 -4.69467,-13.508 1.22133,-1.69734 3.28,-3.13867 6.86,-2.816 0,0 3.95335,9.74 5.51205,13.668 -1.9267,-0.816 -6.26005,0.32666 -7.67738,2.656" style="fill:#363636;fill-opacity:1;fill-rule:nonzero;stroke:none;stroke-width:1.33333"></path>
      <path id="path100" d="m 997.74489,578.33991 c -3.58,-0.32267 -5.63867,1.11866 -6.86133,2.816 -1.88134,-5.5 -3.47334,-10.18534 -3.47334,-10.18534 0,0 4.552,-2.56266 5.672,-2.056 1.02133,0.816 2.81067,4.77467 4.66267,9.42534" style="fill:#1c1c1c;fill-opacity:1;fill-rule:nonzero;stroke:none;stroke-width:1.33333"></path>
      <path id="path101" d="m 992.63155,568.48577 c 0.21333,0.0133 0.524,-0.008 0.71466,0.16666 0.68934,0.64 1.26667,1.72 1.76934,2.72267 1.35333,2.68933 2.468,5.616 3.65066,8.49867 0.64,1.556 1.25729,3.13333 1.89999,4.69333 0.8427,2.052 1.6747,4.128 2.4973,6.204 0.568,1.43067 1.1454,2.84667 1.6667,4.32533 0.049,0.14267 0.2733,0.696 0.26,0.82667 -0.049,0.36267 -0.4347,0.36933 -0.5973,0.26133 -0.1374,-0.0947 -0.2347,-0.45866 -0.3107,-0.67333 -0.7347,-2.08533 -1.5587,-4.052 -2.356,-6.06533 -0.5867,-1.488 -1.1867,-2.97334 -1.7853,-4.44134 -1.28269,-3.12666 -2.52002,-6.30533 -3.82402,-9.40666 -0.56933,-1.36134 -1.17067,-2.744 -1.82533,-4.004 -0.40667,-0.784 -0.912,-1.78 -1.45334,-2.30134 -0.14266,-0.13733 -0.52,-0.052 -0.68666,-0.009 -1.496,0.35467 -2.94934,1.10933 -4.38267,1.87067 0.48267,1.46933 0.99867,2.90266 1.47867,4.36133 0.92933,2.796 1.91866,5.53867 2.85733,8.312 0.36667,1.07867 0.748,2.15467 1.12267,3.22133 0.376,1.06934 0.75333,2.14267 1.12,3.22134 0.87333,2.576 1.79066,5.108 2.63866,7.72666 0.0893,0.28667 -0.0987,0.45467 -0.248,0.48667 -0.376,0.0933 -0.45466,-0.19467 -0.60266,-0.66533 -0.33467,-1.01467 -0.66934,-2.02534 -1.012,-3.03067 -1.13334,-3.34533 -2.33067,-6.64 -3.46667,-9.98533 -0.28667,-0.83467 -0.57867,-1.67734 -0.87067,-2.50667 -0.568,-1.612 -1.10933,-3.25467 -1.67066,-4.876 -0.24267,-0.69867 -0.472,-1.428 -0.72267,-2.12133 -0.43867,-1.20667 -0.82933,-2.46534 -1.25867,-3.68 -0.128,-0.36267 -0.356,-0.768 0.008,-0.97467 0.508,-0.292 1.036,-0.57333 1.55734,-0.816 1.256,-0.58933 2.51733,-1.212 3.832,-1.34133" style="fill:#000000;fill-opacity:1;fill-rule:nonzero;stroke:none;stroke-width:1.33333"></path>
      <path id="path102" d="m 1001.7409,591.52484 c 0.4867,0.005 0.9853,0.0587 1.408,0.20133 0.025,0.012 0.045,0.012 0.051,0.0307 0.051,0.168 0.068,0.344 0.1133,0.51066 -0.048,-0.016 -0.1027,-0.0413 -0.1547,-0.06 -0.2186,-0.0867 -0.4293,-0.14266 -0.6853,-0.184 -0.7347,-0.11333 -1.5347,-0.04 -2.2387,0.10267 -1.20665,0.244 -2.25331,0.708 -3.08798,1.26933 -0.652,0.44267 -1.13467,0.96667 -1.45867,1.512 -0.0507,-0.116 -0.10133,-0.22666 -0.15066,-0.34 -0.0133,-0.032 -0.076,-0.132 -0.056,-0.16266 0.032,-0.048 0.0653,-0.096 0.10533,-0.148 0.42267,-0.56934 1.01867,-1.08267 1.776,-1.52534 0.628,-0.36933 1.37333,-0.68 2.184,-0.90133 0.69338,-0.184 1.42538,-0.30533 2.19468,-0.30533" style="fill:#000000;fill-opacity:1;fill-rule:nonzero;stroke:none;stroke-width:1.33333"></path>
      <path id="path103" d="m 1002.0195,594.04431 c 0.5107,-0.012 1.0067,0.0427 1.472,0.184 0.1667,0.0533 0.316,0.116 0.4694,0.19066 0.1453,0.0653 0.272,0.14934 0.4,0.24267 0.1133,0.0787 0.2066,0.17333 0.292,0.27067 0.12,0.13866 0.228,0.29466 0.2933,0.45066 0.061,0.14267 0.1213,0.30134 0.1373,0.45334 0.012,0.1 0.015,0.208 0.012,0.30533 0,0.124 -0.02,0.23733 -0.048,0.35333 -0.025,0.132 -0.063,0.25867 -0.1173,0.38934 -0.2293,0.564 -0.6773,1.112 -1.2307,1.54133 -0.2306,0.18133 -0.4786,0.368 -0.7413,0.51333 -0.4933,0.28134 -1.0013,0.51334 -1.5813,0.696 -0.6454,0.2 -1.3534,0.332 -2.05735,0.332 -1.052,0 -2.036,-0.28133 -2.592,-0.968 -0.0653,-0.0827 -0.11067,-0.152 -0.15734,-0.23866 -0.048,-0.08 -0.076,-0.15334 -0.108,-0.23467 -0.0373,-0.092 -0.0533,-0.17333 -0.0813,-0.268 -0.009,-0.0667 -0.0147,-0.124 -0.02,-0.188 -0.036,-0.332 0.0347,-0.65733 0.16133,-0.964 0.284,-0.692 0.86,-1.30133 1.58134,-1.79333 1.064,-0.72667 2.46792,-1.228 3.91592,-1.268 m 0.035,0.73733 c -0.7213,0.012 -1.3853,0.16933 -2.0387,0.39067 -0.54792,0.18533 -1.06926,0.46133 -1.50926,0.764 -0.44266,0.3 -0.81466,0.65333 -1.07866,1.04533 -0.25467,0.37467 -0.39734,0.78267 -0.29734,1.19867 0.056,0.23466 0.212,0.43466 0.448,0.608 0.456,0.332 1.14934,0.44 1.768,0.44 0.79996,0 1.67996,-0.216 2.37326,-0.50534 0.5294,-0.21866 1.0294,-0.488 1.4494,-0.82266 0.3813,-0.30667 0.6866,-0.608 0.9186,-0.98934 0.1454,-0.22933 0.2427,-0.49466 0.2587,-0.74266 0.023,-0.29067 -0.053,-0.532 -0.2773,-0.77467 -0.4294,-0.46933 -1.2907,-0.62133 -2.0147,-0.612" style="fill:#000000;fill-opacity:1;fill-rule:nonzero;stroke:none;stroke-width:1.33333"></path>
      <path id="path104" d="m 1023.7083,557.55084 c 0.716,-0.0547 1.3774,-0.268 1.9587,-0.60267 0,0 -2.5973,2.208 -6.8773,3.712 -1.8854,0.656 -4.1054,1.16933 -6.5947,1.27467 -1.9613,0.088 -4.092,-0.0853 -6.36,-0.63334 -2.044,-0.5 -4.2053,-1.30533 -6.44265,-2.51733 -0.81067,-0.44 -1.636,-0.93067 -2.47067,-1.48267 -3.508,-2.31066 -1.69733,-7.06266 1.36134,-5.78 0.93333,0.39067 1.82798,0.73334 2.68528,1.03467 1.8934,0.65733 3.604,1.10933 5.1574,1.39333 1.812,0.332 3.4,0.44267 4.7893,0.388 1.756,-0.068 3.184,-0.38266 4.3427,-0.81466 2.6533,-0.992 3.8613,-2.568 4.1653,-3.04934 -0.504,0.81334 -0.7667,1.784 -0.6867,2.81334 0.099,1.272 0.704,2.388 1.6054,3.16266 0.9013,0.772 2.092,1.2 3.3666,1.10134" style="fill:#8f8f8f;fill-opacity:1;fill-rule:nonzero;stroke:none;stroke-width:1.33333"></path>
      <path id="path105" d="m 1019.4233,550.47404 c 0.128,-0.19467 0.2587,-0.38667 0.4147,-0.56267 0.7746,-0.89867 1.8893,-1.50667 3.1613,-1.6 1.2773,-0.1 2.472,0.32667 3.372,1.09867 0.9013,0.772 1.5067,1.88666 1.6027,3.164 0.097,1.27733 -0.3254,2.468 -1.0987,3.372 -0.34,0.39733 -0.7533,0.73733 -1.208,1.00133 -0.5813,0.33467 -1.2427,0.54933 -1.9587,0.604 -1.2746,0.0987 -2.4653,-0.32933 -3.368,-1.10267 -0.9,-0.77466 -1.5053,-1.89066 -1.6053,-3.16266 -0.079,-1.028 0.184,-2 0.688,-2.812" style="fill:#5e5e5e;fill-opacity:1;fill-rule:nonzero;stroke:none;stroke-width:1.33333"></path>
      <path id="path106" d="m 1023.1875,547.92977 c 0.792,-0.0213 1.56,0.12533 2.268,0.45733 1.4667,0.68267 2.4947,1.99733 2.808,3.56667 0.1374,0.696 0.124,1.388 -0.024,2.076 -0.1,0.45866 -0.2706,0.88266 -0.4946,1.304 -0.2534,0.47733 -0.5814,0.87733 -0.972,1.25466 -0.6507,0.628 -1.568,1.08934 -2.4414,1.252 -0.4293,0.08 -0.8773,0.116 -1.3226,0.0827 -0.648,-0.048 -1.2627,-0.20533 -1.8507,-0.49467 -1.7133,-0.848 -2.8067,-2.57333 -2.8067,-4.47866 0,-0.44 0.045,-0.86134 0.1587,-1.27334 0.3213,-1.18666 1,-2.172 2.0213,-2.87466 0.7854,-0.54267 1.7107,-0.84 2.656,-0.872 m 0.043,0.74133 c -1.6173,0.0373 -3.124,1.04667 -3.7773,2.548 -0.6267,1.43867 -0.4227,3.09333 0.5453,4.33867 0.5387,0.696 1.2587,1.172 2.0853,1.44 0.9227,0.304 2.0414,0.24133 2.9267,-0.136 0.5373,-0.23467 1.0693,-0.58267 1.464,-1.02 0.4773,-0.532 0.8507,-1.18267 1.0173,-1.87467 0.1,-0.42 0.1347,-0.812 0.1174,-1.25467 -0.043,-1.172 -0.628,-2.31866 -1.5467,-3.07333 -0.5507,-0.45867 -1.2253,-0.76933 -1.9213,-0.90267 -0.2947,-0.0533 -0.6014,-0.072 -0.9107,-0.0653" style="fill:#000000;fill-opacity:1;fill-rule:nonzero;stroke:none;stroke-width:1.33333"></path>
      <path id="path107" d="m 1019.3529,550.10431 c 0.1173,-0.009 0.2253,0.0267 0.2813,0.0707 0.3,0.212 0.1334,0.48267 -0.025,0.696 -0.744,1.02667 -2.1027,2.19867 -4.0707,2.94267 -1.5933,0.60133 -3.504,0.96667 -5.7173,0.904 -2.2907,-0.064 -4.232,-0.44533 -6.164,-0.944 -1.7187,-0.44533 -3.2173,-1.008 -4.71601,-1.58267 -0.35867,-0.14266 -0.70667,-0.316 -1.10133,-0.42933 -0.996,-0.29467 -1.64667,0.25733 -1.89867,0.56933 -0.58533,0.732 -0.67067,1.636 -0.47733,2.416 0.168,0.67334 0.55333,1.416 1.35066,2.02667 0.44,0.332 0.98,0.66133 1.50667,0.97067 1.18933,0.70266 2.45331,1.388 3.96001,2.00133 2.6253,1.06667 5.82,1.94667 9.6667,1.83333 2.4346,-0.076 4.8893,-0.608 6.7146,-1.26666 0.9827,-0.356 1.9654,-0.75334 2.78,-1.16934 1.0507,-0.54266 2.0614,-1.09066 2.9147,-1.68666 0.3693,-0.26267 0.7093,-0.52934 1.0773,-0.79067 0.224,-0.168 0.456,-0.0627 0.5374,0.0693 0.1506,0.24267 0.063,0.39734 -0.208,0.61867 -0.772,0.61467 -1.7227,1.23867 -2.7267,1.792 -1.756,0.968 -3.84,1.924 -6.408,2.54133 -2.0627,0.49467 -4.3387,0.74267 -6.7427,0.60267 -3.7346,-0.22133 -6.8973,-1.33333 -9.3053,-2.48533 -0.95334,-0.452 -1.81201,-0.928 -2.63868,-1.416 -0.80933,-0.48134 -1.664,-1.00534 -2.16533,-1.556 -0.288,-0.312 -0.56,-0.672 -0.704,-0.99867 -0.31333,-0.69467 -0.52933,-1.41333 -0.424,-2.13867 0.0667,-0.484 0.14267,-0.95066 0.424,-1.41466 0.232,-0.38 0.64933,-0.98267 1.47467,-1.232 0.95733,-0.29467 1.66533,0.0373 2.31333,0.308 0.944,0.39733 1.98931,0.77733 3.03731,1.11733 2.7294,0.89733 6.6454,1.83333 10.244,1.39867 2.824,-0.33734 4.5867,-1.30267 5.824,-2.33734 0.4174,-0.348 0.7174,-0.70133 1.0094,-1.064 0.1026,-0.124 0.1213,-0.284 0.3773,-0.36666" style="fill:#000000;fill-opacity:1;fill-rule:nonzero;stroke:none;stroke-width:1.33333"></path>
      <path id="path108" d="m 1015.5274,553.42191 c -0.051,0.15333 -0.108,0.33733 -0.156,0.508 -0.264,0.92533 -0.2786,1.93066 -0.02,2.85866 0.412,1.488 1.3934,2.52534 2.4494,3.164 0.432,0.26267 0.88,0.44134 1.3306,0.59734 -0.1586,0.0493 -0.312,0.10266 -0.4746,0.152 -0.059,0.0187 -0.192,0.0787 -0.2454,0.0533 -0.344,-0.148 -0.6813,-0.30533 -1.0133,-0.524 -1.104,-0.72667 -2.124,-1.868 -2.5187,-3.46933 -0.104,-0.43467 -0.1613,-0.86667 -0.1613,-1.33334 0,-0.61333 0.088,-1.14666 0.2453,-1.70666 0.011,-0.0333 0.013,-0.0867 0.043,-0.0973 0.176,-0.0747 0.348,-0.13733 0.5213,-0.20266" style="fill:#000000;fill-opacity:1;fill-rule:nonzero;stroke:none;stroke-width:1.33333"></path>
      <path id="path109" d="m 1011.129,554.32697 c 0.02,-0.003 0.04,-0.003 0.06,0 -0.192,0.28933 -0.3866,0.596 -0.5426,0.936 -0.24,0.53066 -0.416,1.06133 -0.5054,1.712 -0.1746,1.30533 0.1707,2.488 0.7387,3.36 0.488,0.75466 1.0973,1.22533 1.7107,1.592 -0.2494,0.008 -0.5027,0.0107 -0.7547,0.0107 -0.043,0 -0.051,-0.0107 -0.088,-0.0373 -0.3547,-0.26267 -0.68,-0.57733 -0.9827,-0.95867 -0.508,-0.632 -0.9613,-1.58933 -1.08,-2.64266 -0.037,-0.40267 -0.049,-0.81867 -0.01,-1.22534 0.1013,-0.984 0.4307,-1.82666 0.848,-2.53333 0.023,-0.04 0.1027,-0.18533 0.1267,-0.18533 0.16,-0.0173 0.316,-0.0147 0.4746,-0.028" style="fill:#000000;fill-opacity:1;fill-rule:nonzero;stroke:none;stroke-width:1.33333"></path>
      <path id="path110" d="m 1005.8621,553.91031 c 0.172,0.0227 0.3533,0.0573 0.528,0.0867 -0.3293,0.32934 -0.6387,0.70534 -0.9067,1.2 -0.4346,0.8 -0.748,1.87334 -0.6426,3.088 0.073,0.90667 0.3573,1.66 0.708,2.244 0.2053,0.33467 0.432,0.60134 0.6586,0.86934 -0.2026,-0.052 -0.408,-0.10267 -0.608,-0.16 -0.039,-0.0107 -0.124,-0.0293 -0.1533,-0.068 -0.3187,-0.44 -0.624,-0.97067 -0.824,-1.64267 -0.1533,-0.52 -0.248,-1.084 -0.248,-1.688 0,-0.18667 0.01,-0.38667 0.024,-0.568 0.1547,-1.544 0.8053,-2.63467 1.464,-3.36133" style="fill:#000000;fill-opacity:1;fill-rule:nonzero;stroke:none;stroke-width:1.33333"></path>
      <path id="path111" d="m 1000.7239,552.47404 c 0.1614,0.0493 0.3254,0.10533 0.4907,0.16266 -0.4347,0.372 -0.852,0.80534 -1.1987,1.40134 -0.14929,0.26133 -0.27995,0.52266 -0.39329,0.82533 -0.088,0.22133 -0.152,0.444 -0.21333,0.68133 -0.096,0.372 -0.13867,0.75867 -0.15733,1.15867 -0.016,0.38533 0.0267,0.75733 0.092,1.11733 0.0747,0.40667 0.21333,0.772 0.34533,1.12534 -0.18133,-0.10267 -0.368,-0.19067 -0.55333,-0.30534 -0.036,-0.0187 -0.0387,-0.0133 -0.0587,-0.0733 -0.24667,-0.76933 -0.33867,-1.62 -0.224,-2.48 0.21733,-1.64133 1.03067,-2.86 1.87065,-3.61333" style="fill:#000000;fill-opacity:1;fill-rule:nonzero;stroke:none;stroke-width:1.33333"></path>
      <path id="path112" d="m 965.57169,572.18244 c -1.11734,2.196 -4.97067,1.092 -2.64,-4.44534 3.87733,-9.19733 8.016,-15.25333 10.72266,-17.80133 3.41467,-3.21867 8.64134,-6.66667 13.65867,-7.592 1.68933,-0.30933 1.924,2.29067 -1.728,3.44267 -12.70533,4.024 -16.52533,19.52666 -20.01333,26.396" style="fill:#bd8155;fill-opacity:1;fill-rule:nonzero;stroke:none;stroke-width:1.33333"></path>
      <path id="path113" d="m 987.46355,541.95577 c 0.70933,-0.0707 1.46133,0.45066 1.39866,1.32266 -0.10266,1.52 -1.88933,2.45467 -3.02133,2.824 -1.712,0.548 -3.39733,1.30667 -4.952,2.352 -4.38,2.94534 -7.416,7.412 -9.852,12.328 -0.45066,0.916 -0.89066,1.844 -1.30933,2.78934 -0.85067,1.92666 -1.644,3.87733 -2.46533,5.81466 -0.432,1.01867 -0.88534,2.12 -1.41467,3.07334 -0.608,1.08533 -1.96133,1.51466 -2.952,0.82133 -1.66,-1.16933 -1.06933,-3.84533 -0.396,-5.47867 0.808,-1.95733 1.70133,-3.87733 2.632,-5.76 1.43333,-2.87466 3.02667,-5.64266 4.82533,-8.23066 0.63734,-0.91334 1.328,-1.85867 2.06,-2.69067 1.38534,-1.57333 2.92134,-2.908 4.54934,-4.08667 3.324,-2.412 7.00933,-4.42666 10.89733,-5.07866 m 0.0293,0.74533 c -2.44533,0.41467 -4.75733,1.428 -7.008,2.67467 -1.6,0.884 -3.15733,1.94666 -4.58533,3.10533 -0.72933,0.58933 -1.44533,1.20667 -2.132,1.86267 -0.888,0.848 -1.70533,1.87066 -2.452,2.85733 -1.65333,2.17467 -3.03333,4.57067 -4.37467,6.98533 -0.608,1.092 -1.19066,2.256 -1.72666,3.39867 -0.72267,1.53067 -1.47334,3.09467 -2.092,4.684 -0.43067,1.1 -0.91334,3.02133 -0.15067,4.06667 0.696,0.94533 1.87067,0.556 2.33067,-0.44 0.26933,-0.59334 0.55866,-1.172 0.82533,-1.77467 1.03733,-2.36667 1.972,-4.77867 3.03467,-7.13067 0.848,-1.868 1.74,-3.74666 2.76666,-5.48 1.03334,-1.74933 2.14534,-3.508 3.46267,-5.036 1.296,-1.50133 2.63867,-2.90266 4.19333,-4.00933 0.86934,-0.62133 1.71467,-1.18267 2.66267,-1.67733 1.12666,-0.588 2.216,-1.01467 3.39066,-1.404 0.79734,-0.25867 2.07467,-0.89067 2.41067,-1.81734 0.192,-0.52666 -0.0293,-0.92 -0.556,-0.86533" style="fill:#000000;fill-opacity:1;fill-rule:nonzero;stroke:none;stroke-width:1.33333"></path>
      <path id="path114" d="m 964.69662,588.88937 c -1.48134,0.39733 -8.10533,-0.22667 -10.41067,-1.28534 -1.176,-0.53733 -1.59866,-1.38 -1.488,-3.27733 0.17867,-3.02133 4.09334,-17.85067 6.456,-19.69333 2.15467,-1.68 8.14267,0.0667 8.76133,0.72666 0.93334,0.98134 -0.4,16.90267 -0.63333,19.36934 -0.23333,2.44 -0.99067,3.70133 -2.68533,4.16" style="fill:#bd8155;fill-opacity:1;fill-rule:nonzero;stroke:none;stroke-width:1.33333"></path>
      <path id="path115" d="m 962.25129,563.55737 c 1.36133,0.052 2.71333,0.25066 4.02533,0.656 0.62,0.19333 1.31733,0.37866 1.9,0.8 0.33867,0.24533 0.42267,0.88266 0.468,1.39866 0.12133,1.436 0.0733,2.98934 0.0267,4.444 -0.0493,1.664 -0.13467,3.332 -0.24267,4.97867 -0.156,2.412 -0.316,4.82267 -0.524,7.21733 -0.11333,1.33334 -0.17067,2.84534 -0.65333,4.012 -0.764,1.85067 -2.276,2.31067 -3.59334,2.31067 -0.75066,0 -1.496,-0.005 -2.23333,-0.064 -0.936,-0.0667 -1.88133,-0.14533 -2.81067,-0.29067 -0.96133,-0.14933 -1.908,-0.312 -2.86133,-0.544 -0.70533,-0.172 -1.504,-0.38133 -2.16266,-0.836 -0.78934,-0.544 -1.18134,-1.35066 -1.18134,-2.70133 0,-1.16533 0.23067,-2.284 0.46267,-3.36533 0.248,-1.184 0.52533,-2.35867 0.82933,-3.516 0.42534,-1.65734 0.888,-3.30534 1.39067,-4.928 0.704,-2.26 1.468,-4.48534 2.40533,-6.49334 0.37733,-0.79866 0.95733,-1.88 1.544,-2.30266 0.99333,-0.72134 2.10933,-0.76667 3.21067,-0.776 m -0.44267,0.74133 c -0.772,0.0587 -1.60933,0.0907 -2.31067,0.61733 -0.48533,0.364 -0.95066,1.28 -1.27466,1.93334 -0.70267,1.42 -1.28,3.068 -1.824,4.65733 -0.772,2.25733 -1.428,4.61733 -2.03467,6.956 -0.35733,1.388 -0.696,2.82667 -0.95866,4.25467 -0.23334,1.26 -0.56,3.21866 0.32533,4.08266 0.48533,0.46934 1.15867,0.66667 1.708,0.82934 1.63066,0.46533 3.296,0.664 4.97066,0.852 0.46667,0.0533 0.93334,0.0733 1.404,0.11866 0.148,0.02 0.30134,0.008 0.45334,0.0253 0.20266,0.02 0.43466,0.0107 0.64,0.0107 0.66666,0 1.33066,0.0293 1.97066,-0.19466 0.95734,-0.32934 1.636,-1.05867 1.95334,-2.55467 0.18266,-0.848 0.23066,-1.768 0.30933,-2.65067 0.108,-1.25333 0.21333,-2.51733 0.3,-3.772 0.17733,-2.53066 0.35333,-5.06266 0.44533,-7.62 0.0613,-1.676 0.14534,-3.456 0.032,-5.13333 -0.016,-0.236 -0.076,-0.94667 -0.18666,-1.10667 -0.0533,-0.0773 -0.36934,-0.20933 -0.45467,-0.244 -0.868,-0.38533 -1.76933,-0.59866 -2.668,-0.792 -0.64,-0.136 -1.28,-0.18933 -1.932,-0.24933 -0.288,-0.0227 -0.576,-0.0147 -0.868,-0.02" style="fill:#000000;fill-opacity:1;fill-rule:nonzero;stroke:none;stroke-width:1.33333"></path>
      <path id="path116" d="m 962.15115,566.97151 c 0.076,-0.004 0.17066,-0.0147 0.23733,0.0987 0.11733,0.204 -0.064,0.30667 -0.12667,0.34934 -0.99066,0.772 -1.844,2.39466 -2.58933,4.17733 -0.292,0.70667 -0.56933,1.44667 -0.83067,2.20533 -0.244,0.688 -0.476,1.39067 -0.69733,2.116 -0.51333,1.70934 -1.01067,3.45734 -1.456,5.29067 -0.24533,1.02533 -0.49333,2.05467 -0.724,3.10933 -0.11866,0.56534 -0.24933,1.136 -0.35466,1.72 -0.0413,0.216 -0.0973,0.26534 -0.19334,0.28134 -0.064,0.008 -0.32,0 -0.25866,-0.308 0.152,-0.772 0.31333,-1.528 0.484,-2.28267 0.356,-1.57867 0.72799,-3.128 1.13066,-4.62933 0.588,-2.20934 1.224,-4.33867 1.95333,-6.30534 0.29067,-0.78266 0.59867,-1.56 0.92267,-2.25866 0.29467,-0.62934 0.604,-1.25867 0.928,-1.772 0.26,-0.41067 0.53333,-0.83334 0.81867,-1.13467 0.248,-0.25867 0.49466,-0.52533 0.756,-0.65733" style="fill:#000000;fill-opacity:1;fill-rule:nonzero;stroke:none;stroke-width:1.33333"></path>
      <path id="path117" d="m 954.67715,582.60951 c -0.18134,-0.0293 -0.29734,-0.3 -0.34267,-0.696 -0.0427,-0.40267 -0.008,-0.94534 0.10533,-1.524 0.116,-0.58134 0.3,-1.092 0.496,-1.44934 0.196,-0.35866 0.408,-0.568 0.58934,-0.532 0.18533,0.032 0.30266,0.296 0.344,0.696 0.0453,0.40267 0.0147,0.93734 -0.10667,1.52134 -0.11333,0.58 -0.296,1.096 -0.492,1.452 -0.19867,0.35866 -0.40933,0.56666 -0.59333,0.532" style="fill:#f3f3f3;fill-opacity:1;fill-rule:nonzero;stroke:none;stroke-width:1.33333"></path>
      <path id="path118" d="m 955.51182,578.03791 c 0.0653,-0.005 0.136,0.0147 0.19866,0.0493 0.0627,0.032 0.136,0.0693 0.19334,0.116 0.0427,0.0373 0.064,0.0733 0.0987,0.124 0.028,0.0373 0.0733,0.0973 0.0907,0.14267 0.02,0.0533 0.04,0.11066 0.0573,0.164 0.0253,0.06 0.036,0.11466 0.048,0.176 0.0293,0.116 0.04,0.24133 0.0507,0.36266 0.0107,0.2 0.016,0.40667 0,0.608 -0.0307,0.53067 -0.132,1.07067 -0.28133,1.55467 -0.076,0.256 -0.16667,0.50933 -0.27467,0.73333 -0.0627,0.12134 -0.128,0.252 -0.19467,0.35467 -0.0467,0.0653 -0.092,0.13733 -0.14,0.18667 -0.052,0.0627 -0.108,0.13466 -0.168,0.176 -0.0787,0.0573 -0.172,0.14266 -0.26,0.156 -0.15333,0.032 -0.304,0.0747 -0.452,-0.0173 -0.076,-0.0427 -0.18133,-0.0907 -0.23866,-0.17466 -0.032,-0.052 -0.0707,-0.10267 -0.0987,-0.15734 -0.036,-0.056 -0.0547,-0.124 -0.0787,-0.18666 -0.06,-0.164 -0.092,-0.36134 -0.10533,-0.548 -0.012,-0.17467 -0.0173,-0.364 -0.007,-0.53867 0.012,-0.20267 0.028,-0.40533 0.0573,-0.60267 0.0307,-0.19733 0.0653,-0.41333 0.11066,-0.604 0.0867,-0.33466 0.18134,-0.67333 0.31067,-0.97066 0.056,-0.12667 0.116,-0.26134 0.17733,-0.38 0.0333,-0.0573 0.076,-0.13334 0.11334,-0.18134 0.0333,-0.0533 0.0733,-0.116 0.11466,-0.16133 0.0587,-0.0653 0.12667,-0.14267 0.192,-0.19467 0.0587,-0.0467 0.13734,-0.108 0.19867,-0.132 0.0947,-0.0267 0.18933,-0.04 0.28667,-0.0547 m -0.0653,0.812 c -0.196,0.228 -0.33733,0.568 -0.456,0.91066 -0.132,0.37734 -0.216,0.80934 -0.26666,1.232 -0.0267,0.18534 -0.0387,0.38267 -0.0387,0.576 0,0.19334 0.0173,0.38267 0.0627,0.55734 0.003,0.016 0.008,0.0267 0.016,0.0413 0.0973,-0.10533 0.17866,-0.26267 0.25733,-0.41467 0.0747,-0.148 0.136,-0.32533 0.196,-0.49333 0.0573,-0.164 0.10533,-0.352 0.14667,-0.524 0.04,-0.172 0.0693,-0.35867 0.0973,-0.532 0.0373,-0.21867 0.056,-0.472 0.056,-0.70133 0.003,-0.192 -0.008,-0.38534 -0.048,-0.55867 -0.008,-0.0333 -0.0133,-0.068 -0.0227,-0.0933" style="fill:#000000;fill-opacity:1;fill-rule:nonzero;stroke:none;stroke-width:1.33333"></path>
      <path id="path119" d="m 957.90889,563.39071 c 2.20533,-1.51734 7.57733,-0.83467 9.77733,0.124 1.368,0.59066 1.33867,1.876 0.68933,2.35733 -0.57333,0.41867 -5.652,-1.236 -7.42133,0.31067 -0.928,0.82 -2.608,4.35466 -3.88133,6.876 -1.33734,2.64666 -2.13067,3.42666 -2.72,3.17866 -2.624,-1.08533 1.72933,-11.58666 3.556,-12.84666" style="fill:#dfae90;fill-opacity:1;fill-rule:nonzero;stroke:none;stroke-width:1.33333"></path>
      <path id="path120" d="m 962.23449,562.13551 c 0.36933,0.003 0.73466,0.028 1.09866,0.056 1.156,0.0893 2.29334,0.284 3.39467,0.6 0.468,0.12666 1.04133,0.308 1.44667,0.55866 0.61066,0.372 0.98266,0.92134 1.00266,1.572 0.0107,0.36134 -0.084,0.66667 -0.308,0.97334 -0.068,0.0987 -0.14133,0.14933 -0.224,0.23333 -0.22666,0.20933 -0.65466,0.19467 -0.95866,0.16933 -0.76667,-0.0587 -1.50934,-0.196 -2.268,-0.28666 -0.876,-0.096 -1.872,-0.20134 -2.76534,-0.0853 -0.72533,0.0947 -1.28,0.284 -1.71466,0.82667 -0.35867,0.45067 -0.65867,0.964 -0.94534,1.45733 -1.11466,1.94667 -1.99733,3.95467 -3.05866,5.90934 -0.27334,0.516 -0.588,1.05333 -0.948,1.524 -0.29333,0.38266 -0.69867,0.88533 -1.252,0.988 -0.44533,0.084 -0.86,-0.18134 -1.09867,-0.49734 -0.352,-0.46666 -0.47066,-1.07733 -0.47066,-1.63066 0,-0.65334 0.0547,-1.28267 0.18133,-1.91067 0.284,-1.416 0.70667,-2.81733 1.25467,-4.18267 0.51866,-1.29066 1.1,-2.57333 1.85066,-3.80266 0.36533,-0.59334 0.82533,-1.292 1.48933,-1.67334 1.248,-0.708 2.82934,-0.80133 4.29334,-0.79866 m -0.45067,0.73466 c -1.244,0.04 -2.60267,0.14534 -3.636,0.812 -0.36267,0.23734 -0.676,0.72934 -0.9,1.06667 -0.396,0.588 -0.732,1.24533 -1.04133,1.868 -0.48933,0.996 -0.924,2.03867 -1.28267,3.07067 -0.43066,1.26 -0.788,2.49466 -0.96133,3.804 -0.0813,0.61333 -0.11067,1.372 0.116,1.94666 0.0747,0.17734 0.332,0.56667 0.59867,0.44534 0.384,-0.17734 0.73733,-0.708 0.95066,-1.02534 0.82133,-1.24266 1.42533,-2.59733 2.07867,-3.89733 0.57866,-1.13333 1.156,-2.26133 1.796,-3.388 0.26,-0.44533 0.54266,-0.91733 0.87733,-1.312 0.436,-0.51867 0.89067,-0.78533 1.59867,-0.95867 1.28666,-0.31866 2.808,-0.11866 4.104,0.0453 0.60266,0.0787 1.19066,0.18666 1.80266,0.22133 0.0987,0.009 0.27067,0.028 0.32934,-0.0427 0.428,-0.468 0.196,-1.10666 -0.30134,-1.46133 -0.43733,-0.304 -1.13466,-0.504 -1.66533,-0.63867 -1.16133,-0.29733 -2.352,-0.47333 -3.58133,-0.536 -0.292,-0.012 -0.588,-0.0147 -0.88267,-0.02" style="fill:#000000;fill-opacity:1;fill-rule:nonzero;stroke:none;stroke-width:1.33333"></path>
      <path id="path121" d="m 953.35422,579.29044 c -0.30267,-0.008 -0.50267,-0.416 -0.57867,-1.052 -0.0827,-0.64134 -0.0453,-1.52134 0.13067,-2.48667 0.17866,-0.97067 0.46533,-1.84133 0.772,-2.47067 0.316,-0.628 0.65333,-1.01066 0.95333,-1.00266 0.3,0.0173 0.5,0.41733 0.58533,1.056 0.0787,0.64 0.036,1.51733 -0.14,2.48666 -0.176,0.96667 -0.45333,1.84134 -0.76933,2.468 -0.31067,0.62667 -0.65067,1.01067 -0.95333,1.00134" style="fill:#785134;fill-opacity:1;fill-rule:nonzero;stroke:none;stroke-width:1.33333"></path>
      <path id="path122" d="m 954.60675,571.91417 c 0.11066,-0.005 0.21333,0.04 0.316,0.0733 0.0987,0.032 0.168,0.11333 0.25733,0.19733 0.0627,0.0613 0.10267,0.13734 0.15333,0.224 0.0347,0.0587 0.0627,0.12667 0.0853,0.19467 0.0307,0.0613 0.0453,0.12 0.0627,0.19067 0.088,0.28933 0.13067,0.62133 0.13867,0.95333 0.0213,0.69467 -0.0427,1.37467 -0.156,2.02267 -0.096,0.53466 -0.21733,1.06933 -0.376,1.55866 -0.072,0.23067 -0.152,0.44667 -0.24,0.664 -0.108,0.26667 -0.224,0.50934 -0.35733,0.73867 -0.11334,0.20667 -0.23734,0.37333 -0.36934,0.52133 -0.056,0.0653 -0.116,0.11067 -0.176,0.17067 -0.068,0.06 -0.14133,0.0973 -0.20933,0.13733 -0.10133,0.0613 -0.19067,0.0707 -0.292,0.0893 -0.13067,0.032 -0.256,-0.0213 -0.384,-0.0627 -0.0867,-0.032 -0.156,-0.104 -0.24267,-0.18667 -0.06,-0.056 -0.0973,-0.116 -0.148,-0.20133 -0.0387,-0.0653 -0.06,-0.12533 -0.0947,-0.19867 -0.028,-0.0773 -0.044,-0.13866 -0.0707,-0.22133 -0.1,-0.33867 -0.14133,-0.80667 -0.14133,-1.19467 0,-0.65333 0.0653,-1.27466 0.17866,-1.88133 0.184,-1.008 0.49467,-2.02667 0.9,-2.768 0.0987,-0.17867 0.21467,-0.36267 0.32667,-0.5 0.048,-0.0587 0.10133,-0.12933 0.15067,-0.17467 0.0533,-0.0493 0.11066,-0.11066 0.172,-0.152 0.0627,-0.0413 0.13066,-0.0867 0.19866,-0.12133 0.0987,-0.0533 0.21334,-0.0533 0.31734,-0.0733 m 0.003,0.74 c -0.26933,0.168 -0.49066,0.56 -0.67733,0.96133 -0.39467,0.86133 -0.68667,2.02 -0.78933,3.12933 -0.0333,0.32934 -0.0453,0.67734 -0.0333,1.024 0.0107,0.29067 0.048,0.63334 0.12934,0.89067 0.0267,0.072 0.0893,0.216 0.132,0.256 0.0133,0.0107 0.0987,-0.0627 0.12133,-0.076 0.256,-0.23067 0.49067,-0.69067 0.664,-1.112 0.38933,-0.96 0.648,-2.132 0.71867,-3.32933 0.0133,-0.264 0.0107,-0.53467 -0.009,-0.79867 -0.0173,-0.30533 -0.0773,-0.65867 -0.204,-0.87333 -0.0173,-0.028 -0.032,-0.0613 -0.052,-0.072" style="fill:#000000;fill-opacity:1;fill-rule:nonzero;stroke:none;stroke-width:1.33333"></path>
      <path id="path123" d="m 966.43369,566.69804 c -0.23067,-1.688 1.62,-4.50134 3.44533,-5.13334 2.46267,-0.86 3.56933,1.80667 2.34667,2.8 -0.88267,0.71867 -2.88934,0.79467 -3.57867,3.316 -0.21067,0.748 -2.01867,0.41334 -2.21333,-0.98266" style="fill:#f5f5f5;fill-opacity:1;fill-rule:nonzero;stroke:none;stroke-width:1.33333"></path>
      <path id="path124" d="m 970.69929,561.02484 c 0.45066,-0.008 0.91733,0.0827 1.30666,0.32666 0.16,0.1 0.3,0.19867 0.43467,0.34134 0.13733,0.14266 0.24267,0.28 0.348,0.448 0.0867,0.14533 0.14667,0.29733 0.20133,0.45333 0.0253,0.0827 0.0427,0.16 0.0613,0.24533 0.0373,0.19467 0.048,0.37867 0.0347,0.584 -0.003,0.0773 -0.016,0.14267 -0.0293,0.216 -0.016,0.0987 -0.044,0.17867 -0.0733,0.27467 -0.0347,0.0893 -0.0733,0.16 -0.11334,0.24667 -0.0427,0.0853 -0.088,0.14533 -0.14533,0.22133 -0.0533,0.0693 -0.10667,0.12267 -0.16933,0.18533 -0.20667,0.2 -0.48267,0.35734 -0.73467,0.476 -0.548,0.25867 -1.10133,0.48 -1.596,0.84934 -0.624,0.46266 -0.98133,1.08666 -1.208,1.83866 -0.04,0.13067 -0.13067,0.33734 -0.24133,0.42534 -0.06,0.048 -0.16534,0.13733 -0.23067,0.16666 -0.0987,0.0373 -0.22933,0.084 -0.33467,0.0947 -0.11866,0.0133 -0.224,0.0227 -0.34266,0.0133 -0.0947,-0.008 -0.17334,-0.0187 -0.26134,-0.0413 -0.0987,-0.0147 -0.176,-0.0453 -0.27333,-0.0773 -0.0733,-0.028 -0.12667,-0.056 -0.19467,-0.0867 -0.164,-0.08 -0.3,-0.18 -0.44266,-0.29333 -0.12134,-0.10267 -0.22667,-0.236 -0.316,-0.368 -0.0973,-0.14534 -0.164,-0.284 -0.224,-0.44534 -0.0707,-0.216 -0.11067,-0.44933 -0.11067,-0.68 0,-0.23466 0.024,-0.45066 0.0653,-0.67466 0.11334,-0.59867 0.364,-1.212 0.66934,-1.74534 0.53466,-0.936 1.30666,-1.868 2.21466,-2.432 0.528,-0.32933 1.09467,-0.53333 1.70534,-0.56266 m 0.005,0.744 c -0.624,0.028 -1.17733,0.32266 -1.68,0.70133 -0.32933,0.25333 -0.624,0.57467 -0.90133,0.89867 -0.26667,0.30533 -0.50534,0.67333 -0.704,1.02533 -0.34667,0.61067 -0.63067,1.332 -0.63067,2.04533 0,0.58534 0.32533,1.00267 0.84267,1.19334 0.15733,0.056 0.49466,0.11333 0.63066,-0.009 0.0347,-0.032 0.076,-0.224 0.0987,-0.28 0.256,-0.77866 0.648,-1.41466 1.272,-1.928 0.49333,-0.41866 1.08667,-0.68666 1.66533,-0.948 0.31734,-0.14266 0.75467,-0.34 0.92134,-0.664 0.11466,-0.224 0.152,-0.432 0.124,-0.68 -0.0693,-0.65066 -0.54,-1.17466 -1.14134,-1.30666 -0.0853,-0.02 -0.15733,-0.0307 -0.244,-0.0387 -0.08,-0.009 -0.16933,-0.009 -0.25333,-0.009" style="fill:#000000;fill-opacity:1;fill-rule:nonzero;stroke:none;stroke-width:1.33333"></path>
      <path id="path227" d="m 982.39849,597.21364 c -2.54534,0.50533 -5.128,0.508 -7.73867,0 -0.008,-3.472 0.036,-10.668 0.34,-16.812 2.40667,0.64666 4.89867,1.08933 7.396,1.33866 0.003,5.79067 0.005,12.244 0.003,15.47334" style="fill:#363636;fill-opacity:1;fill-rule:nonzero;stroke:none;stroke-width:1.33333"></path>
      <path id="path228" d="m 982.39062,570.17591 c 0,0 0.005,5.408 0.005,11.564 -2.49733,-0.24934 -4.98933,-0.692 -7.396,-1.33867 0.24667,-4.964 0.656,-9.24267 1.356,-10.33333 0.896,-0.84534 6.03467,0.108 6.03467,0.108" style="fill:#1c1c1c;fill-opacity:1;fill-rule:nonzero;stroke:none;stroke-width:1.33333"></path>
      <path id="path229" d="m 982.39062,599.27617 c -0.0173,0.784 -1.63467,1.29333 -3.72134,1.32266 -2.04266,0.0333 -3.98133,-0.624 -3.99866,-1.32266 -0.003,-0.11334 -0.0107,-0.86267 -0.0107,-2.06267 2.61067,0.508 5.19333,0.50533 7.73867,0 -0.003,1.19333 -0.005,1.944 -0.008,2.06267" style="fill:#8f8f8f;fill-opacity:1;fill-rule:nonzero;stroke:none;stroke-width:1.33333"></path>
      <path id="path230" d="m 978.02475,569.35431 c 0.33466,0 0.672,-0.003 1.00666,0.028 0.19467,0.0133 0.39467,0.0107 0.58534,0.0453 0.37866,0.076 0.75733,0.0467 1.13466,0.124 0.17067,0.036 0.33734,0.028 0.508,0.0653 0.37734,0.0893 0.764,0.092 1.14667,0.18934 0.0907,0.0227 0.36,0.0347 0.36,0.44 0.005,0.84533 0.003,1.71066 0.003,2.55333 0,8.352 0.003,16.71067 0.003,25.068 0,0.448 0.007,0.98267 -0.005,1.41867 -0.0107,0.128 -0.0707,0.336 -0.10133,0.39466 -0.22267,0.40267 -0.52,0.57867 -0.76667,0.69734 -0.80133,0.38666 -1.62267,0.49733 -2.44533,0.56133 -0.37867,0.0347 -0.76667,0.0347 -1.156,0.0347 -0.124,0 -0.26134,0.0147 -0.38267,-0.0213 -0.136,-0.0267 -0.27067,0.005 -0.4,-0.0267 -0.19333,-0.048 -0.392,-0.0307 -0.58533,-0.076 -0.46267,-0.116 -0.924,-0.20134 -1.38534,-0.37734 -0.33733,-0.128 -0.72933,-0.26666 -1.04533,-0.68133 -0.084,-0.11067 -0.11067,-0.148 -0.17467,-0.38267 -0.0387,-0.13333 -0.0333,-0.44266 -0.0333,-0.62133 0,-0.50533 -0.003,-1.00133 -0.003,-1.504 0,-0.60267 -0.008,-1.244 0,-1.83867 0.008,-0.384 -0.003,-0.784 0.005,-1.16666 0.008,-0.44534 0,-0.89867 0.008,-1.34667 0.028,-1.064 0.0227,-2.14933 0.0427,-3.216 0.036,-1.61067 0.0547,-3.22267 0.108,-4.82267 0.0733,-2.23066 0.15334,-4.452 0.292,-6.63066 0.14534,-2.216 0.33467,-4.69067 0.72134,-6.63067 0.14533,-0.72667 0.4,-1.63733 0.66133,-1.85067 0.156,-0.13066 0.34,-0.232 0.50267,-0.26933 0.46133,-0.108 0.924,-0.168 1.396,-0.15733 m -0.18934,0.73866 c -0.37333,0.0347 -0.748,0.028 -1.116,0.18267 -0.16133,0.0667 -0.304,0.55867 -0.40666,0.98 -0.28667,1.18 -0.47867,2.756 -0.60667,4.196 -0.17067,1.90933 -0.28933,3.856 -0.376,5.832 -0.1,2.27333 -0.16533,4.57067 -0.21733,6.88667 -0.0373,1.66666 -0.048,3.344 -0.0653,5.02266 -0.0227,1.704 -0.0147,3.42134 -0.0147,5.13067 0,0.28 0.003,0.55867 0.003,0.83867 0.003,0.212 0.10267,0.24666 0.15067,0.28133 0.39733,0.32667 0.81867,0.4 1.22667,0.53733 0.21066,0.0693 0.432,0.084 0.64,0.132 0.11466,0.0333 0.24,0.0253 0.356,0.0533 0.18133,0.048 0.36666,0.009 0.55333,0.0493 0.21333,0.052 0.45333,0.008 0.67867,0.008 0.688,0 1.376,-0.0453 2.05733,-0.21067 0.38267,-0.0933 0.76933,-0.19333 1.144,-0.47733 0.0413,-0.0307 0.14667,-0.11067 0.164,-0.224 0.0333,-0.14667 0.0173,-0.548 0.0173,-0.732 0,-9.35067 0.0133,-18.716 -0.005,-28.06933 -0.78933,-0.18134 -1.59333,-0.24267 -2.39333,-0.33467 -0.59067,-0.068 -1.18934,-0.0853 -1.78934,-0.0827" style="fill:#000000;fill-opacity:1;fill-rule:nonzero;stroke:none;stroke-width:1.33333"></path>
      <path id="path231" d="m 974.69542,596.99484 c 0.89066,0.17066 1.95733,0.31866 3.16933,0.36133 0.972,0.036 1.95333,-0.007 2.80533,-0.10533 0.62134,-0.0667 1.17467,-0.156 1.68267,-0.256 0.0213,0.0507 0.024,0.10266 0.036,0.156 0.004,0.0333 0.004,0.0653 0.0147,0.0947 0.02,0.0493 0.0173,0.10134 0.0307,0.14934 0.003,0.008 0.012,0.024 0.008,0.0347 -0.005,0.003 -0.0413,0.0107 -0.056,0.0133 -0.392,0.0787 -0.82533,0.148 -1.28266,0.20533 -0.744,0.0947 -1.50667,0.15333 -2.384,0.164 -1.01067,0.012 -1.92134,-0.0613 -2.76934,-0.16667 -0.44,-0.0573 -0.872,-0.124 -1.252,-0.19733 -0.0253,-0.005 -0.0787,-0.0107 -0.0813,-0.0213 -0.003,-0.0213 0.0107,-0.0453 0.0133,-0.0707 0.003,-0.0373 0.0147,-0.0693 0.0173,-0.10533 0.016,-0.0853 0.04,-0.17334 0.048,-0.256" style="fill:#000000;fill-opacity:1;fill-rule:nonzero;stroke:none;stroke-width:1.33333"></path>
      <path id="path232" d="m 994.62115,547.80604 c 0.19466,0.116 0.38666,0.23866 0.57333,0.36 -0.176,0.904 -0.67333,1.712 -1.42667,2.36133 -1.21466,1.05867 -3.10533,1.712 -5.36933,1.712 -2.26533,0 -4.48266,-0.65333 -6.232,-1.712 -1.32933,-0.796 -2.38666,-1.83333 -3.00266,-2.98 1.53733,-0.792 3.26933,-1.348 5.22933,-1.60267 4.16667,-0.53066 7.52,0.252 10.228,1.86134" style="fill:#d1d1d1;fill-opacity:1;fill-rule:nonzero;stroke:none;stroke-width:1.33333"></path>
      <path id="path233" d="m 978.10809,548.14857 c 0.34,-0.212 0.696,-0.41734 1.056,-0.60134 0.616,1.14667 1.67333,2.184 3.00266,2.98 1.748,1.05867 3.96667,1.712 6.232,1.712 2.264,0 4.15467,-0.65333 5.36934,-1.712 0.75333,-0.64933 1.25066,-1.45733 1.42533,-2.36133 6.18268,4.092 8.77338,12.61733 9.85468,19.056 -11.21735,6.16667 -24.66135,6.09067 -37.00534,0.90133 0.864,-6.656 3.29333,-15.74266 10.06533,-19.97466" style="fill:#f5f5f5;fill-opacity:1;fill-rule:nonzero;stroke:none;stroke-width:1.33333"></path>
      <path id="path234" d="m 975.46235,574.05871 c -1.14934,-0.13067 -3.04267,0.14533 -4.10134,3.53866 -1.31733,-0.46666 -2.58133,-0.98266 -3.75999,-1.56 0,0 -0.14134,-3.39866 0.44266,-7.91333 12.34267,5.188 25.78667,5.264 37.00402,-0.90267 0.7866,4.66267 0.784,8.236 0.784,8.236 -0.1187,0.0747 -0.8187,0.60934 -0.8187,0.60934 0,0 0.06,-4.68134 -1.5947,-4.52 -1.2533,0.12533 -1.7453,2.31466 -1.5226,5.89733 -1.96802,0.84267 -3.60269,1.30133 -5.94002,1.77067 -0.37333,-1.47334 -1.44267,-4.144 -3.964,-3.98667 -2.18133,0.13467 -3.96933,1.82933 -4.32,4.94267 -2.46,0.11066 -5.51067,-0.14267 -8.24267,-0.54134 0.0747,-3.23866 -1.49866,-5.29066 -3.96666,-5.57066" style="fill:#bbbbbb;fill-opacity:1;fill-rule:nonzero;stroke:none;stroke-width:1.33333"></path>
      <path id="path235" d="m 986.57822,545.41937 c 0.864,-0.0347 1.728,0.0293 2.568,0.136 3.08533,0.37733 6.13866,1.81333 8.30133,3.93066 0.77733,0.75467 1.484,1.496 2.10933,2.35067 1.38532,1.88533 2.51072,3.932 3.35072,6.064 0.524,1.328 1.0333,2.736 1.3773,4.10667 0.4453,1.77466 0.916,3.55333 1.1747,5.37466 0.148,1.03867 0.3453,2.10534 0.428,3.15334 0.1066,1.31066 0.2546,2.61066 0.2893,3.94133 0.01,0.30267 0.144,1.08267 -0.1187,1.28533 -0.256,0.19734 -0.5253,0.38934 -0.7866,0.58267 -0.2694,0.204 -0.616,0.0573 -0.6307,-0.256 -0.035,-0.98 -0.068,-1.90933 -0.292,-2.84933 -0.077,-0.32934 -0.364,-1.33067 -0.8507,-1.32267 -0.6693,0.0147 -0.98,1.09067 -1.076,1.556 -0.2493,1.21733 -0.244,2.648 -0.1586,3.912 0.028,0.42933 -0.468,0.512 -0.832,0.668 -1.49872,0.628 -3.15738,1.05733 -4.73605,1.39467 -0.42667,0.0893 -0.99067,0.34 -1.124,-0.216 -0.34267,-1.43067 -1.39867,-3.636 -3.31733,-3.636 -2.58534,0 -3.88267,2.25333 -4.16667,4.30266 -0.0707,0.53867 -0.0533,0.652 -0.70667,0.66 -1.01066,0.009 -2.02533,0.009 -3.02533,-0.0467 -1.51733,-0.0867 -3.01867,-0.24267 -4.512,-0.44267 -0.50133,-0.0693 -0.78533,-0.0267 -0.78533,-0.58533 0,-2.14267 -0.79867,-4.60934 -3.45467,-5.03467 -2.05066,-0.32267 -3.18666,1.22933 -3.72933,2.80667 -0.108,0.31866 -0.17067,0.85066 -0.69467,0.68 -1.13866,-0.37734 -2.23866,-0.87734 -3.33733,-1.372 -0.54267,-0.24267 -0.604,-0.216 -0.628,-0.80134 -0.0533,-1.43066 0.0427,-2.9 0.11733,-4.312 0.0413,-0.73333 0.12267,-1.48 0.20134,-2.20933 0.16666,-1.53467 0.39066,-3.064 0.70133,-4.57467 0.47067,-2.29333 1.04933,-4.50133 1.92667,-6.71333 1.27333,-3.19067 2.94933,-6.06667 5.604,-8.5 2.892,-2.63467 6.78666,-4.00533 10.81333,-4.03333 m 0.0787,0.73466 c -3.28933,0.0373 -6.44799,0.93334 -9.06933,2.79867 -3.77733,2.68133 -5.92533,6.81867 -7.30666,10.85467 -0.70267,2.06666 -1.14534,4.14 -1.55334,6.26133 -0.296,1.572 -0.46533,3.216 -0.59066,4.82267 -0.0533,0.69866 -0.084,1.412 -0.14134,2.11333 -0.0253,0.37333 -0.012,0.76533 -0.0253,1.13733 -0.0253,0.50534 0,1.016 0,1.52 0,0.192 0.0373,0.15734 0.20933,0.24 0.956,0.468 1.95334,0.84534 2.94134,1.21734 0.58933,-1.74 1.92933,-3.644 4.204,-3.43734 2.47866,0.228 3.92533,1.948 4.33333,4.092 0.0893,0.472 0.12133,0.95734 0.15733,1.44667 0.008,0.13467 0.048,0.0973 0.18534,0.11867 2.40266,0.31066 4.84666,0.552 7.33866,0.47333 0.308,-2.35333 1.78667,-4.75733 4.65333,-4.94933 2.38934,-0.16534 3.732,2.108 4.22934,3.91733 1.612,-0.31067 3.17466,-0.75067 4.71201,-1.34133 0.067,-0.0307 0.5267,-0.19467 0.548,-0.224 0.037,-0.0413 0,-0.66134 0,-0.768 0,-1.352 -0.033,-2.83734 0.5106,-4.08134 0.2667,-0.628 0.8694,-1.29733 1.6894,-1.17466 1.1186,0.16666 1.4453,1.88666 1.5586,2.704 0.064,0.47333 0.1054,0.948 0.14,1.42933 0.1347,-0.0653 0.064,-0.34533 0.064,-0.48933 0,-0.52534 -0.035,-1.068 -0.077,-1.59334 -0.1187,-1.58133 -0.2573,-3.14133 -0.4853,-4.7 -0.3227,-2.18933 -0.78,-4.30933 -1.348,-6.44666 -0.352,-1.31067 -0.82,-2.59467 -1.304,-3.87467 -0.524,-1.37867 -1.232,-2.752 -1.9907,-4.05333 -1.16005,-1.98534 -2.75605,-3.84134 -4.68138,-5.28934 -2.492,-1.876 -5.68533,-2.784 -8.89867,-2.724" style="fill:#000000;fill-opacity:1;fill-rule:nonzero;stroke:none;stroke-width:1.33333"></path>
      <path id="path236" d="m 1005.0001,566.99231 c 0.037,0.0787 0.035,0.176 0.055,0.264 0.011,0.0467 0.085,0.176 0.011,0.21333 -0.2493,0.13067 -0.4653,0.26 -0.7186,0.384 -1.0414,0.524 -2.108,1.05333 -3.404,1.55467 -1.22138,0.47866 -2.54404,0.956 -4.13871,1.38133 -0.99467,0.25867 -2.11467,0.536 -3.376,0.752 -0.76133,0.13333 -1.564,0.256 -2.44667,0.34933 -0.52266,0.0613 -1.00133,0.108 -1.55466,0.15067 -2.868,0.21867 -5.924,0.116 -8.508,-0.21333 -2.544,-0.324 -4.68134,-0.78 -6.47467,-1.26934 -2.28667,-0.62666 -4.26267,-1.304 -5.968,-2.01466 -0.11067,-0.0453 -0.46267,-0.16667 -0.46267,-0.212 0,-0.14534 0.0507,-0.292 0.0653,-0.43734 0.76266,0.31467 1.54666,0.63334 2.396,0.94134 2.06533,0.74533 4.36133,1.456 7.404,2.06133 1.60666,0.31467 3.65466,0.60667 5.79733,0.736 3.05067,0.18933 5.972,0.0293 8.516,-0.34533 3.46,-0.51867 5.97733,-1.30934 7.99205,-2.06534 1.9133,-0.716 3.428,-1.47733 4.816,-2.23066" style="fill:#000000;fill-opacity:1;fill-rule:nonzero;stroke:none;stroke-width:1.33333"></path>
      <path id="path237" d="m 988.56515,541.89857 c 2.08666,0.36666 4.584,1.39866 5.54,3.17866 1.93333,3.584 -0.77467,6.72267 -2.69867,8.69334 -4.64,4.74133 -18.004,11.59733 -24.25066,16.40266 -0.568,0.44 -1.27867,3.48534 -2.49067,4.268 -1.296,0.83734 -3.148,0.39467 -3.23067,-1.56933 -0.068,-1.66533 2.32534,-4.632 2.97467,-5.18 5.412,-4.552 27.36933,-15.20133 26.35866,-20.66267 -0.27466,-1.47733 -1.45466,-2.74133 -4.89733,-2.528 0.79867,-0.256 2.63867,-2.28133 2.69467,-2.60266" style="fill:#bd8155;fill-opacity:1;fill-rule:nonzero;stroke:none;stroke-width:1.33333"></path>
      <path id="path238" d="m 988.51182,541.53911 c 1.50666,0.192 2.96133,0.76133 4.24666,1.59066 1.69334,1.1 2.58134,3.09467 2.35067,5.028 -0.264,2.29734 -1.71867,4.10667 -3.328,5.75867 -0.688,0.71467 -1.45867,1.40667 -2.24267,2.00533 -1.91866,1.472 -3.89466,2.86 -5.94666,4.14267 -1.736,1.08 -3.464,2.172 -5.208,3.25067 -1.136,0.69866 -2.30533,1.38533 -3.42933,2.11066 -2.29867,1.488 -4.66,2.87867 -6.86,4.50667 -0.268,0.2 -0.708,0.48 -0.86534,0.76667 -0.62266,1.14533 -0.936,2.39466 -1.736,3.46533 -0.87733,1.172 -2.89733,1.504 -3.88533,0.28 -1.22267,-1.51733 -0.13067,-3.48933 0.792,-4.868 0.48533,-0.72133 1.07733,-1.55333 1.744,-2.144 0.67067,-0.59333 1.49867,-1.16667 2.244,-1.66 1.85467,-1.22667 3.75333,-2.428 5.66933,-3.56667 1.73334,-1.02666 3.44,-2.11466 5.15067,-3.168 1.348,-0.828 2.72133,-1.69333 4.02133,-2.588 1.628,-1.11866 3.29467,-2.22533 4.82,-3.48133 0.72,-0.59067 1.49733,-1.22 2.144,-1.89867 0.95333,-0.99866 2.45867,-2.548 2.2,-3.99866 -0.33733,-1.868 -2.228,-2.21867 -3.90133,-2.21867 -0.31067,0 -0.90934,0.152 -0.98267,-0.26533 -0.068,-0.38267 0.204,-0.43734 0.51867,-0.45867 1.54933,-0.092 3.46933,0.10533 4.476,1.40133 1.21466,1.56134 0.59066,3.31067 -0.556,4.704 -1.48267,1.80267 -3.28134,3.24534 -5.14934,4.62667 -1.60533,1.18667 -3.26133,2.29333 -4.93466,3.37467 -1.70267,1.10533 -3.43333,2.16133 -5.16533,3.224 -2.94267,1.816 -5.97867,3.568 -8.79467,5.56 -0.47467,0.33466 -1.064,0.74533 -1.45733,1.164 -1.02534,1.09066 -2.036,2.51066 -2.50667,3.91466 -0.332,0.99067 0.036,2.34934 1.32267,2.37867 1.58666,0.0307 2.09066,-1.45867 2.62266,-2.61867 0.25734,-0.56533 0.584,-1.628 1.08934,-2.00933 3.536,-2.65333 7.372,-4.92133 11.15333,-7.24933 0.79067,-0.48267 1.57867,-0.976 2.36667,-1.46667 1.656,-1.01333 3.26933,-2.072 4.88666,-3.14133 2.34933,-1.556 4.72,-3.252 6.604,-5.384 1.72267,-1.94934 3.12133,-4.288 2.01733,-6.88267 -0.91733,-2.14933 -3.34533,-3.016 -5.5,-3.45333 -0.42266,-0.0893 -0.40266,-0.66134 0.009,-0.732" style="fill:#000000;fill-opacity:1;fill-rule:nonzero;stroke:none;stroke-width:1.33333"></path>
      <path id="path239" d="m 979.58462,431.04697 c 0.424,-1.65734 6.53733,-1.25734 6.872,0.14266 0.30533,1.30134 0.79066,7.04534 0.0133,12.164 -1.768,-3.896 -5.192,-4.42266 -8.19333,-2.58133 0.67066,-5.332 1.184,-9.248 1.308,-9.72533" style="fill:#66e204;fill-opacity:1;fill-rule:nonzero;stroke:none;stroke-width:1.33333"></path>
      <path id="path240" d="m 978.27609,440.77217 c 3.00133,-1.84134 6.42533,-1.31467 8.19466,2.58266 -0.20933,1.37067 -0.50533,2.69334 -0.924,3.876 -2.24533,6.38267 -5.70266,9.43067 -5.70266,9.43067 l -2.33467,14.44267 c -0.91067,-0.032 -1.90933,-0.0107 -2.944,0.0733 0.84267,-7.02933 2.52133,-20.94133 3.71067,-30.40533" style="fill:#f5f5f5;fill-opacity:1;fill-rule:nonzero;stroke:none;stroke-width:1.33333"></path>
      <path id="path241" d="m 974.56515,471.17724 c 1.03466,-0.0827 2.03333,-0.10534 2.944,-0.0733 l -0.79467,4.88934 -2.67733,-0.412 c 0,0 0.20266,-1.69067 0.528,-4.404" style="fill:#d1d1d1;fill-opacity:1;fill-rule:nonzero;stroke:none;stroke-width:1.33333"></path>
      <path id="path242" d="m 982.33595,429.60551 c 0.29466,-0.0253 0.59733,-0.008 0.89466,0 0.19867,0.008 0.41467,0.016 0.61467,0.0613 0.27867,0.0627 0.55733,0.044 0.832,0.13067 0.472,0.148 0.95333,0.196 1.412,0.488 0.26,0.16266 0.656,0.30533 0.788,1.12533 0.19467,1.148 0.28933,2.53067 0.34,3.79067 0.13333,3.25466 -0.028,6.38266 -0.55067,9.22133 -0.15333,0.85067 -0.39066,1.836 -0.624,2.51067 -0.78266,2.276 -1.62666,4.048 -2.56533,5.624 -1.00533,1.70933 -2.092,3.116 -3.16667,4.18 -0.0573,0.06 -0.10533,0.0493 -0.13733,0.23733 -0.0587,0.38 -0.124,0.75733 -0.184,1.13733 -0.256,1.63067 -0.53333,3.22934 -0.78533,4.856 -0.25867,1.65067 -0.54,3.26534 -0.796,4.91734 -0.37067,2.36533 -0.77467,4.692 -1.14534,7.064 -0.04,0.23733 -0.15866,1.10666 -0.216,1.22266 -0.17333,0.33734 -0.61866,0.15334 -0.82266,0.128 -0.71067,-0.0733 -1.42,-0.22666 -2.13067,-0.33066 -0.0867,-0.016 -0.47466,-0.008 -0.416,-0.50667 0.0973,-0.832 0.19067,-1.66267 0.29467,-2.49067 0.316,-2.572 0.61333,-5.172 0.93733,-7.73466 0.156,-1.25334 0.29867,-2.536 0.45334,-3.79867 0.124,-1.008 0.23733,-2.036 0.36933,-3.032 0.156,-1.208 0.28667,-2.45467 0.44267,-3.652 0.18933,-1.424 0.34399,-2.90133 0.52933,-4.33067 0.28933,-2.17066 0.52933,-4.41066 0.81333,-6.576 0.30667,-2.304 0.568,-4.66533 0.87733,-6.964 0.24667,-1.81333 0.46534,-3.69066 0.74534,-5.47333 0.12266,-0.82933 0.35866,-0.988 0.62,-1.17333 0.82666,-0.58667 1.71066,-0.556 2.576,-0.632 m 0.0253,0.72933 c -0.71333,0.0507 -1.43733,0.088 -2.13867,0.47467 -0.16,0.0893 -0.25866,0.16933 -0.33466,0.65066 -0.336,2.084 -0.57867,4.28934 -0.86667,6.41734 -0.0933,0.68666 -0.184,1.408 -0.268,2.10666 -0.15467,1.25867 -0.31867,2.50267 -0.472,3.76 -0.21067,1.78534 -0.45467,3.54934 -0.65867,5.34134 -0.25733,2.16533 -0.53333,4.30933 -0.79466,6.46666 -0.17334,1.45067 -0.348,2.9 -0.52534,4.34134 -0.23333,1.88 -0.44799,3.784 -0.68399,5.66 -0.176,1.416 -0.34267,2.85066 -0.51867,4.27333 -0.216,1.812 -0.43733,3.63467 -0.64533,5.44667 0.632,0.116 1.26666,0.176 1.90133,0.28933 0.0747,0.0133 0.0627,-0.036 0.0947,-0.244 0.35867,-2.308 0.752,-4.57467 1.10934,-6.876 0.25866,-1.656 0.54266,-3.268 0.8,-4.92133 0.35333,-2.28 0.744,-4.524 1.10133,-6.808 0.0533,-0.35467 0.25867,-0.43734 0.36933,-0.548 1.21467,-1.19734 2.42267,-2.884 3.53867,-4.92 0.79467,-1.452 1.59467,-3.208 2.216,-5.396 0.40667,-1.43867 0.70133,-3.54934 0.82533,-5.39867 0.124,-1.88133 0.14267,-3.912 0.032,-5.81733 -0.0507,-0.98934 -0.14533,-2.39467 -0.32666,-3.23734 -0.0813,-0.34933 -0.34534,-0.44933 -0.47467,-0.51333 -0.66267,-0.32933 -1.336,-0.36933 -2.01067,-0.5 -0.14666,-0.032 -0.29866,-0.028 -0.44266,-0.0373 -0.27334,-0.02 -0.548,0 -0.82667,-0.0107" style="fill:#000000;fill-opacity:1;fill-rule:nonzero;stroke:none;stroke-width:1.33333"></path>
      <path id="path243" d="m 981.44542,439.53004 c 0.42666,-0.0133 0.84,0.028 1.23466,0.11333 0.41734,0.0947 0.82267,0.244 1.16934,0.42133 1.276,0.66134 2.03733,1.696 2.572,2.68934 0.0213,0.0453 0.10266,0.16533 0.1,0.208 -0.0387,0.26666 -0.0613,0.532 -0.108,0.8 -0.11334,-0.23334 -0.216,-0.47067 -0.33467,-0.70534 -0.35333,-0.69333 -0.83067,-1.396 -1.51467,-1.976 -0.63466,-0.54 -1.46666,-0.98 -2.48666,-1.08 -0.76534,-0.0787 -1.50667,0.032 -2.18934,0.26134 -0.61333,0.20533 -1.14,0.47733 -1.644,0.792 0.0147,-0.14134 0.0293,-0.28134 0.0533,-0.42267 0,-0.02 0.005,-0.124 0.016,-0.13867 0.016,-0.02 0.13733,-0.08 0.16933,-0.0987 0.85333,-0.46134 1.86133,-0.83467 2.96267,-0.864" style="fill:#000000;fill-opacity:1;fill-rule:nonzero;stroke:none;stroke-width:1.33333"></path>
      <path id="path244" d="m 950.77875,449.20457 c -2.368,-4.60267 -3.74534,-10.2 -3.86534,-11.53067 -0.13333,-1.43733 5.53067,-3.76533 6.46534,-2.33333 0.26933,0.41866 2.004,3.96266 4.33866,8.804 -3.42533,-0.79067 -6.504,0.8 -6.93866,5.06" style="fill:#66e204;fill-opacity:1;fill-rule:nonzero;stroke:none;stroke-width:1.33333"></path>
      <path id="path245" d="m 970.90755,471.68764 c 1.20133,2.52 1.94666,4.08666 1.94666,4.08666 l -2.40666,1.24534 -2.40667,-4.56267 c 0.92,-0.31067 1.88933,-0.57067 2.86667,-0.76933" style="fill:#d1d1d1;fill-opacity:1;fill-rule:nonzero;stroke:none;stroke-width:1.33333"></path>
      <path id="path246" d="m 970.90755,471.68764 c -0.97734,0.19866 -1.94667,0.45866 -2.86667,0.76933 l -6.73466,-12.75733 c 0,0 -4.24267,-1.78134 -8.41334,-7.112 -0.772,-0.99067 -1.47466,-2.15067 -2.11466,-3.38267 0.43466,-4.26133 3.51333,-5.85067 6.93866,-5.06 4.13467,8.55067 10.13733,21.12933 13.19067,27.54267" style="fill:#f5f5f5;fill-opacity:1;fill-rule:nonzero;stroke:none;stroke-width:1.33333"></path>
      <path id="path247" d="m 952.13942,434.53004 c 0.34266,-0.0133 0.676,0.04 0.996,0.17333 0.32133,0.132 0.46533,0.28933 0.684,0.67733 0.464,0.81867 0.888,1.72267 1.31466,2.584 2.61334,5.27867 5.13334,10.67067 7.71067,15.98267 0.64,1.31333 1.27467,2.63067 1.89867,3.956 1.52266,3.252 3.104,6.432 4.628,9.68267 0.488,1.04266 0.996,2.06266 1.47866,3.11066 0.68934,1.464 1.40134,2.90267 2.08534,4.37067 0.15333,0.34933 0.512,0.80533 0.0827,1.048 -0.58533,0.33467 -1.19733,0.61867 -1.79333,0.932 -0.34667,0.17733 -0.86,0.62533 -1.15467,0.0693 -0.61866,-1.18666 -1.244,-2.37866 -1.87066,-3.556 -1.05067,-1.97333 -2.10267,-3.948 -3.14134,-5.94266 -1.17066,-2.248 -2.372,-4.47067 -3.54666,-6.71734 -0.092,-0.18533 -0.416,-0.87466 -0.52134,-0.928 -0.56933,-0.304 -1.11733,-0.588 -1.676,-0.95066 -1.74533,-1.116 -3.45466,-2.52667 -5.00933,-4.19867 -0.65333,-0.708 -1.33067,-1.472 -1.93333,-2.304 -2.06534,-2.86933 -3.552,-6.39067 -4.74934,-10.27867 -0.276,-0.89866 -0.572,-1.89733 -0.76933,-2.83733 -0.11067,-0.52 -0.42667,-1.65467 -0.24533,-2.14 0.23466,-0.636 0.98533,-1.12667 1.4,-1.38533 1.31066,-0.81334 2.71466,-1.26534 4.132,-1.348 m -0.164,0.74 c -1.37467,0.18533 -2.78934,0.61866 -4.05334,1.56133 -0.18933,0.14267 -0.68,0.52533 -0.62666,0.92267 0.176,1.30133 0.57066,2.684 0.93066,3.91333 0.87867,3.00933 2.00667,5.74933 3.36,8.25333 1.07467,1.98934 2.484,3.612 3.84267,4.99734 1.36533,1.396 2.93467,2.668 4.44667,3.59333 0.53066,0.32267 1.06933,0.616 1.61466,0.86667 0.18,0.0813 0.556,0.924 0.69067,1.19066 1.03467,1.97467 2.08533,3.92934 3.116,5.90534 0.90133,1.73333 1.83067,3.44533 2.73467,5.18133 0.82133,1.56933 1.644,3.148 2.484,4.69467 0.124,0.22933 0.1,0.17333 0.276,0.0813 0.52133,-0.28 1.04666,-0.52933 1.56266,-0.816 -1.776,-3.72 -3.53066,-7.492 -5.32933,-11.19333 -2.10267,-4.33867 -4.14933,-8.752 -6.25867,-13.08534 -1.68266,-3.47466 -3.348,-6.97333 -5.03066,-10.44266 -0.66667,-1.37467 -1.336,-2.76534 -2.024,-4.11067 -0.19734,-0.38 -0.41067,-0.868 -0.632,-1.20267 -0.26134,-0.392 -0.764,-0.27333 -1.104,-0.31066" style="fill:#000000;fill-opacity:1;fill-rule:nonzero;stroke:none;stroke-width:1.33333"></path>
      <path id="path248" d="m 956.15115,443.72671 c 0.11466,-0.003 0.23333,0.008 0.344,0.016 0.36133,0.0213 0.69333,0.0693 1.04133,0.132 0.0307,0.005 0.0573,0.005 0.068,0.0307 0.088,0.156 0.156,0.33467 0.23867,0.49067 -0.012,0 -0.02,-0.003 -0.0307,-0.003 l -0.244,-0.0547 c -0.83867,-0.192 -1.768,-0.224 -2.62,-0.0613 -1.14667,0.22134 -2.10933,0.83334 -2.776,1.7 -0.81333,1.064 -1.09733,2.34934 -1.20533,3.59734 -0.11067,-0.21067 -0.21334,-0.41867 -0.31467,-0.62934 -0.0227,-0.0573 -0.052,-0.0973 -0.0467,-0.15333 0.20267,-1.348 0.71334,-2.752 1.83334,-3.75733 0.99333,-0.888 2.32533,-1.33334 3.712,-1.308" style="fill:#000000;fill-opacity:1;fill-rule:nonzero;stroke:none;stroke-width:1.33333"></path>
      <path id="path249" d="m 1043.1433,500.60684 c 0.856,4.05866 -2.4187,7.952 -6.6853,11.17333 2.076,-3.34 3.208,-7.07733 2.4253,-11.05333 -0.568,-2.86934 -2.052,-5.25867 -4.064,-7.23734 4.1853,1.50934 7.6147,3.75867 8.324,7.11734" style="fill:#66e204;fill-opacity:1;fill-rule:nonzero;stroke:none;stroke-width:1.33333"></path>
      <path id="path250" d="m 1032.1458,514.66417 c 3.9454,-7.90134 -2.16,-8.084 -2.8693,-11.376 -1.1547,-5.31334 3.1053,-8.48134 -0.7573,-11.49334 2.1253,0.42134 4.2986,0.97467 6.3,1.69467 2.012,1.98 3.496,4.36933 4.064,7.23733 0.7826,3.976 -0.3494,7.71334 -2.4254,11.05334 -1.3693,1.036 -2.84,2.004 -4.312,2.884" style="fill:#bbbbbb;fill-opacity:1;fill-rule:nonzero;stroke:none;stroke-width:1.33333"></path>
      <path id="path251" d="m 1016.2787,490.43631 c 0,0 2.408,0.0453 5.7827,0.39733 4.808,6.224 7.1293,18.228 3.9373,27.1 -2.776,1.32267 -4.7493,2.076 -4.7493,2.076 z" style="fill:#d1d1d1;fill-opacity:1;fill-rule:nonzero;stroke:none;stroke-width:1.33333"></path>
      <path id="path252" d="m 1025.9987,517.93364 c 3.192,-8.872 0.8707,-20.876 -3.9373,-27.1 1.9253,0.20533 4.1667,0.50533 6.4587,0.96133 3.8613,3.012 -0.3974,6.18 0.756,11.49333 0.7093,3.29067 6.8146,3.47467 2.8693,11.376 -2.1653,1.29734 -4.328,2.408 -6.1467,3.26934" style="fill:#f5f5f5;fill-opacity:1;fill-rule:nonzero;stroke:none;stroke-width:1.33333"></path>
      <path id="path253" d="m 1016.2239,490.07177 c 0.1894,-0.0107 0.384,0.0147 0.5734,0.0147 0.508,0.008 1.0106,0.04 1.5133,0.068 1.864,0.12267 3.7,0.28667 5.5387,0.52 1.044,0.132 2.0973,0.26934 3.1306,0.46134 2.716,0.5 5.364,1.07466 7.988,2.01733 1.048,0.372 2.1574,0.81733 3.1507,1.372 1.1387,0.636 2.228,1.29067 3.1787,2.21867 0.6306,0.61333 1.1813,1.304 1.5946,2.08933 1.476,2.824 0.64,5.86533 -1.1373,8.284 -1.028,1.412 -2.2347,2.636 -3.548,3.74533 -0.852,0.712 -1.7107,1.36267 -2.608,2.01467 -1.2733,0.92533 -2.6587,1.75733 -4.016,2.55867 -1.564,0.92133 -3.22,1.78666 -4.8413,2.56133 -1.5747,0.752 -3.164,1.508 -4.776,2.13467 -0.3414,0.132 -0.9534,0.516 -1.0947,-0.0827 -0.077,-0.344 -0.124,-0.744 -0.1853,-1.10667 -0.276,-1.592 -0.544,-3.196 -0.808,-4.79333 -0.7347,-4.44533 -1.504,-8.88933 -2.236,-13.33333 -0.5374,-3.252 -1.1067,-6.49867 -1.6387,-9.75334 -0.051,-0.32933 -0.2587,-0.91466 0.2213,-0.99066 m 0.508,0.75333 c 0.364,2.17867 0.7094,4.364 1.088,6.54267 0.5894,3.43466 1.1694,6.88 1.7387,10.32133 0.4707,2.868 0.9667,5.728 1.436,8.59733 0.1733,1.036 0.3627,2.07067 0.5267,3.10134 0.01,0.036 0.01,0.0987 0.036,0.108 3.0013,-1.228 5.9693,-2.64267 8.856,-4.25734 2.3186,-1.29866 4.5493,-2.72133 6.636,-4.37866 1.1293,-0.90534 2.1706,-1.88134 3.1533,-2.98667 2.0453,-2.28133 3.656,-5.58133 2.0627,-8.62133 -1.4587,-2.78667 -4.7134,-4.35734 -7.4187,-5.35067 -0.9347,-0.34667 -1.8827,-0.63467 -2.832,-0.9 -3.0707,-0.85733 -6.2067,-1.34667 -9.3773,-1.728 -1.952,-0.23067 -3.924,-0.36667 -5.9054,-0.448" style="fill:#000000;fill-opacity:1;fill-rule:nonzero;stroke:none;stroke-width:1.33333"></path>
      <path id="path254" d="m 1034.9727,493.33337 c 0.1387,0.124 0.284,0.28133 0.4214,0.42933 0.872,0.92667 1.7386,1.99733 2.4866,3.44267 0.8067,1.55733 1.5707,3.83066 1.4654,6.54 -0.051,1.268 -0.2587,2.39866 -0.556,3.44266 -0.4454,1.552 -1.0814,2.904 -1.7,3.976 -0.06,0.0973 -0.176,0.33734 -0.2387,0.37467 -0.2693,0.16533 -0.5413,0.34933 -0.8147,0.49733 0.308,-0.48 0.6134,-0.98266 0.9054,-1.528 0.7813,-1.46133 1.6493,-3.47466 1.9,-5.92133 0.2453,-2.432 -0.2374,-4.668 -0.9427,-6.30133 -0.9147,-2.12267 -2.0947,-3.47334 -3.236,-4.636 0.1027,-0.10534 0.204,-0.208 0.3093,-0.316" style="fill:#000000;fill-opacity:1;fill-rule:nonzero;stroke:none;stroke-width:1.33333"></path>
      <path id="path255" d="m 1028.0561,491.71884 c 0.2973,0.0373 0.604,0.108 0.9093,0.176 0.084,0.02 0.2454,0.21333 0.3294,0.30133 0.4466,0.45067 1.0613,1.268 1.1013,2.48533 0.035,1.176 -0.3453,2.37867 -0.5987,3.372 -0.4106,1.6 -0.692,3.20134 -0.34,5 0.1587,0.80667 0.4854,1.25734 0.8227,1.64934 0.516,0.6 1.064,1.05066 1.596,1.57466 0.5107,0.50534 1.072,1.10934 1.464,2.032 0.388,0.93067 0.4347,2.04 0.204,3.18134 -0.2293,1.13466 -0.6213,2.05733 -1.0227,2.92266 -0.039,0.0693 -0.2426,0.168 -0.3026,0.20667 -0.1374,0.084 -0.2814,0.17867 -0.42,0.24533 0.388,-0.752 0.76,-1.58933 1.0653,-2.516 0.2867,-0.86933 0.4987,-2.07866 0.2867,-3.12133 -0.2894,-1.39067 -1.1187,-2.15067 -1.704,-2.74933 -0.672,-0.68134 -1.4334,-1.20934 -2.032,-2.21867 -0.3654,-0.61867 -0.5107,-1.52533 -0.5627,-2.50267 -0.089,-1.90266 0.4747,-3.57466 0.8533,-5.17066 0.2454,-1.03067 0.4054,-2.092 -0.013,-3.03467 -0.432,-0.97467 -1.088,-1.37733 -1.636,-1.83333" style="fill:#000000;fill-opacity:1;fill-rule:nonzero;stroke:none;stroke-width:1.33333"></path>
      <path id="path256" d="m 916.07302,521.44537 c -0.4,-3.41334 2.13066,-6.64134 5.61866,-9.40667 -1.27466,2.52267 -1.924,5.25467 -1.54133,8.15467 0.532,4.01733 2.796,7.19866 5.82667,9.704 -5.068,-1.69334 -9.41867,-4.34267 -9.904,-8.452" style="fill:#66e204;fill-opacity:1;fill-rule:nonzero;stroke:none;stroke-width:1.33333"></path>
      <path id="path257" d="m 925.97662,529.89724 c -3.02934,-2.50534 -5.29467,-5.68667 -5.82667,-9.704 -0.38266,-2.9 0.26667,-5.632 1.54133,-8.15467 1.66267,-1.32267 3.54267,-2.53733 5.42934,-3.61733 -2.70267,4.09066 2.344,5.72933 2.952,11.132 0.376,3.35066 -4.85467,6.552 0.912,11.69733 -1.67334,-0.36533 -3.37734,-0.81067 -5.008,-1.35333" style="fill:#bbbbbb;fill-opacity:1;fill-rule:nonzero;stroke:none;stroke-width:1.33333"></path>
      <path id="path258" d="m 932.93102,505.44804 c 3.084,-1.41467 5.35466,-2.224 5.35466,-2.224 l 4.732,29.616 c 0,0 -2.11333,-0.0867 -5.164,-0.45067 -5.85866,-7.39333 -7.48933,-19.508 -4.92266,-26.94133" style="fill:#d1d1d1;fill-opacity:1;fill-rule:nonzero;stroke:none;stroke-width:1.33333"></path>
      <path id="path259" d="m 932.93102,505.44804 c -2.56667,7.43333 -0.936,19.548 4.92266,26.94133 -1.99866,-0.244 -4.40533,-0.60267 -6.86933,-1.13867 -5.76666,-5.14533 -0.536,-8.34666 -0.912,-11.69733 -0.608,-5.40267 -5.65466,-7.04133 -2.95067,-11.13333 2.024,-1.16267 4.04667,-2.16534 5.80934,-2.972" style="fill:#f5f5f5;fill-opacity:1;fill-rule:nonzero;stroke:none;stroke-width:1.33333"></path>
      <path id="path260" d="m 938.33729,502.86204 c 0.16133,0.005 0.292,0.156 0.31866,0.32133 0.0667,0.388 0.12667,0.77733 0.192,1.16533 0.80667,5.06 1.612,10.11734 2.41867,15.17467 0.67733,4.20667 1.372,8.416 2.02,12.62267 0.0253,0.15333 0.132,0.624 0.10533,0.748 -0.0653,0.31066 -0.316,0.32933 -0.57333,0.31066 -1.944,-0.13066 -3.872,-0.28666 -5.79067,-0.54 -1.052,-0.144 -2.10666,-0.27466 -3.14933,-0.47066 -2.57733,-0.47734 -5.10266,-0.99867 -7.61333,-1.808 -2.77067,-0.89334 -5.79333,-2.144 -8.02667,-4.23067 -0.8,-0.74933 -1.488,-1.60667 -1.952,-2.62267 -1.13466,-2.47066 -0.62133,-4.99733 0.796,-7.188 1.568,-2.42666 3.93467,-4.376 6.19867,-5.95333 1.09067,-0.75867 2.236,-1.47333 3.38933,-2.13467 3.52134,-2.028 7.16,-3.712 10.86933,-5.14533 0.25467,-0.0987 0.53334,-0.236 0.79734,-0.24933 m -0.35734,0.872 c -5.172,2.02 -10.41333,4.48 -15.03066,7.82 -1.376,0.996 -2.68667,2.11866 -3.87067,3.41466 -1.904,2.08267 -3.448,5.028 -2.25066,7.94 0.95066,2.33067 3.06,3.80267 5.09466,4.90134 0.60934,0.32666 1.26267,0.62666 1.89067,0.88533 1.472,0.60533 2.968,1.104 4.48267,1.51467 3.352,0.90133 6.79466,1.52 10.25733,1.89066 1.33333,0.14534 2.676,0.272 4.02266,0.34 -0.524,-3.31066 -1.04933,-6.61466 -1.588,-9.91733 -0.70933,-4.36533 -1.39333,-8.73733 -2.092,-13.10267 -0.308,-1.896 -0.59866,-3.80266 -0.916,-5.68666" style="fill:#000000;fill-opacity:1;fill-rule:nonzero;stroke:none;stroke-width:1.33333"></path>
      <path id="path261" d="m 921.48969,511.94417 c 0.13466,0.0573 0.26666,0.136 0.40133,0.19333 -0.92133,1.82667 -1.77867,4.30533 -1.60267,7.11867 0.15067,2.43066 0.93067,4.42533 1.82534,5.908 1.288,2.148 2.824,3.60933 4.33866,4.84133 -0.22133,-0.0453 -0.46,-0.1 -0.68933,-0.15333 -0.0907,-0.0253 -0.232,-0.036 -0.316,-0.10134 -0.92133,-0.79066 -1.86,-1.744 -2.708,-2.86133 -1.25867,-1.64933 -2.66,-4.14933 -2.88667,-7.444 -0.208,-2.98933 0.64934,-5.548 1.63734,-7.50133" style="fill:#000000;fill-opacity:1;fill-rule:nonzero;stroke:none;stroke-width:1.33333"></path>
      <path id="path262" d="m 927.51822,508.19937 c 0.032,-0.016 0.008,0.012 -0.005,0.032 -0.30133,0.448 -0.68933,1.008 -0.87466,1.79066 -0.22667,0.96134 0.0653,1.79067 0.35333,2.376 0.432,0.87867 0.92667,1.54 1.396,2.28134 0.65067,1.04266 1.404,2.24666 1.776,4.032 0.14933,0.70666 0.21467,1.34133 0.0507,2.07466 -0.24134,1.09467 -0.69334,1.896 -1.044,2.764 -0.296,0.72934 -0.688,1.69467 -0.688,2.788 0,1.16534 0.42133,2.00267 0.76933,2.584 0.65333,1.07867 1.412,1.728 2.12933,2.38934 -0.23333,-0.0213 -0.46666,-0.0667 -0.70133,-0.11334 -0.076,-0.016 -0.11333,-0.028 -0.18933,-0.0933 -0.49467,-0.46533 -0.98534,-0.99867 -1.44534,-1.68 -0.35466,-0.516 -0.86,-1.42267 -0.97866,-2.476 -0.184,-1.676 0.496,-3.112 0.936,-4.128 0.29466,-0.68667 0.72666,-1.56133 0.84266,-2.54267 0.088,-0.692 -0.14266,-1.69466 -0.30666,-2.23066 -0.58934,-1.89334 -1.47734,-3.008 -2.264,-4.25867 -0.364,-0.58 -0.83067,-1.28 -1.06534,-2.23467 -0.22666,-0.93066 -0.0413,-1.72533 0.24267,-2.37733 0.056,-0.132 0.20267,-0.464 0.26933,-0.512 0.26534,-0.17867 0.53334,-0.308 0.79734,-0.46533" style="fill:#000000;fill-opacity:1;fill-rule:nonzero;stroke:none;stroke-width:1.33333"></path>
      <path id="path263" d="m 985.94929,548.74364 c -12.38533,2.032 -24.28133,-0.304 -33.50533,-5.72134 -9.22267,-5.41466 -15.77334,-13.91466 -17.46134,-24.21066 -1.692,-10.29867 1.80534,-20.44534 8.81467,-28.52667 7.00933,-8.07733 17.536,-14.09067 29.92,-16.12267 12.38533,-2.02666 24.284,0.312 33.50801,5.72134 9.2227,5.41733 15.7707,13.92 17.464,24.21866 1.6867,10.29867 -1.8093,20.44134 -8.816,28.52134 -7.0173,8.07866 -17.54268,14.08933 -29.92401,16.12" style="fill:#f5f5f5;fill-opacity:1;fill-rule:nonzero;stroke:none;stroke-width:1.33333"></path>
      <path id="path264" d="m 981.90369,473.08604 c 5.86,-0.088 11.51333,0.812 16.892,2.568 2.53731,0.82666 4.95471,1.94933 7.26271,3.15333 6.1893,3.224 11.656,8.4 14.8666,13.92133 0.94,1.61734 1.6387,3.14 2.34,4.804 1.1827,2.8 1.7227,5.70934 2.0707,8.672 0.1573,1.35334 0.1413,2.72667 0.1413,4.10667 0,1.47333 -0.2293,2.924 -0.4426,4.36267 -0.3374,2.264 -1.0147,4.608 -1.8867,6.772 -2.0147,5.00133 -5.0333,9.71733 -9.1293,13.73199 -2.6,2.53867 -5.5734,4.99734 -8.8027,6.904 -6.93868,4.10667 -14.46535,6.70934 -22.80135,7.50667 -10.13866,0.96933 -20.25866,-0.84533 -28.84666,-5.492 -12.71067,-6.87733 -19.864,-18.876 -19.352,-31.55466 0.096,-2.30934 0.384,-4.436 0.908,-6.65334 0.49733,-2.108 1.232,-4.196 2.16533,-6.21866 1,-2.152 2.20267,-4.26 3.60134,-6.264 2.824,-4.044 6.37333,-7.47867 10.604,-10.58667 5.60666,-4.12533 13.28133,-7.40267 20.46266,-8.7 3.26134,-0.58533 6.52667,-1.03867 9.94667,-1.03333 m -0.36934,0.72933 c -3.1,0.0627 -6.12933,0.42667 -9.10266,0.96533 -8.704,1.56667 -16.91467,5.5 -23.32533,10.852 -2.81734,2.352 -5.09067,4.84934 -7.18667,7.63867 -4.64667,6.17733 -7.36267,14.24267 -6.936,21.56 0.0893,1.536 0.18,2.99467 0.47733,4.49333 0.784,3.93867 2.18,8.012 4.61734,11.56133 1.088,1.584 2.12,3.04534 3.45066,4.49467 6.44,7.028 15.272,11.36133 25.356,13.07067 4.33334,0.73466 9.04,0.82933 13.48933,0.40533 1.65467,-0.15733 3.31067,-0.40267 4.928,-0.71067 10.26534,-1.95733 19.19335,-6.668 26.16535,-13.49466 2.54,-2.48267 4.7027,-5.31067 6.448,-8.26667 2.628,-4.464 4.2733,-9.40933 4.6947,-14.34 0.476,-5.55066 -0.5,-10.96533 -2.8134,-16.04533 -2.2493,-4.93733 -5.8946,-9.31067 -10.492,-12.89333 -1.7226,-1.344 -3.624,-2.58667 -5.584,-3.632 -5.112,-2.72667 -10.82131,-4.54134 -16.71065,-5.25067 -2.44533,-0.3 -4.93466,-0.45333 -7.476,-0.408" style="fill:#000000;fill-opacity:1;fill-rule:nonzero;stroke:none;stroke-width:1.33333"></path>
      <path id="path265" d="m 984.39062,541.36991 c -10.184,1.67066 -20.004,-0.50534 -27.65333,-5.368 -7.652,-4.872 -13.12667,-12.42534 -14.62,-21.52134 -1.49067,-9.09333 1.28533,-18.00933 6.98133,-25.06266 5.69467,-7.05467 14.31067,-12.252 24.48933,-13.92 10.18133,-1.672 20.004,0.50533 27.65465,5.372 7.6507,4.86266 13.1267,12.42266 14.6214,21.52 1.4866,9.09333 -1.284,18.00666 -6.9814,25.05866 -5.696,7.05734 -14.30932,12.25467 -24.49198,13.92134" style="fill:#bbbbbb;fill-opacity:1;fill-rule:nonzero;stroke:none;stroke-width:1.33333"></path>
      <path id="path266" d="m 979.61729,474.73577 c 1.54933,-0.06 3.10266,0.0347 4.61466,0.17333 9.47067,0.85467 18.01735,5.02133 24.22135,11.72533 3.2613,3.52667 5.8667,8.27067 6.9853,12.70134 0.6214,2.46 1.0667,5 1.0667,7.58133 0,1.32267 -0.055,2.65733 -0.2107,3.948 -1.1373,9.34933 -6.428,17.71467 -14.6346,23.69733 -2.22805,1.62533 -4.82138,3.07333 -7.42671,4.17467 -1.536,0.64666 -2.99734,1.152 -4.572,1.65466 -1.10934,0.35734 -2.21067,0.56934 -3.33467,0.848 -2.48667,0.61067 -5.084,0.77734 -7.7,0.89067 -2.54533,0.11333 -5.18666,-0.108 -7.62533,-0.516 -2.32933,-0.39067 -4.42667,-0.94133 -6.66533,-1.684 -2.18267,-0.72533 -4.42267,-1.77867 -6.37734,-2.924 -1.89333,-1.104 -3.556,-2.28533 -5.23066,-3.676 -6.472,-5.37466 -10.47734,-13.21333 -11.124,-20.952 -0.188,-2.276 -0.12934,-4.572 0.164,-6.81333 1.18933,-9.032 6.52933,-17.488 14.54133,-23.23467 1.836,-1.31466 3.74933,-2.404 5.804,-3.43333 1.75067,-0.88 3.548,-1.508 5.384,-2.16667 1.128,-0.39866 2.47333,-0.728 3.64933,-0.97066 2.776,-0.57334 5.55333,-1.02134 8.47067,-1.024 m -0.076,0.42933 c -6.77467,0.22133 -13.56,1.90667 -19.35333,5.24667 -3.03734,1.74933 -5.84267,3.812 -8.308,6.26933 -1.512,1.512 -2.90934,3.12933 -4.08134,4.85467 -2.79466,4.10666 -4.65733,8.44533 -5.43066,13.14266 -0.69867,4.26934 -0.472,8.51067 0.60533,12.64934 0.91467,3.56133 2.692,7.27733 5.01867,10.34133 3.87333,5.09466 8.88533,8.76933 15.08266,11.31466 3.656,1.5 7.87067,2.38 11.852,2.648 5.63333,0.38 11.152,-0.45466 16.30133,-2.22 4.11467,-1.40933 7.948,-3.476 11.28265,-6.06133 3.0974,-2.40933 5.5974,-5.068 7.7654,-8.14133 2.8293,-4.008 4.628,-8.58267 5.3693,-13.19467 0.5733,-3.52666 0.4787,-7.04933 -0.1907,-10.54 -0.2186,-1.172 -0.548,-2.30933 -0.896,-3.45866 -0.5786,-1.93067 -1.528,-4.00134 -2.584,-5.792 -3.2133,-5.42934 -7.96,-9.908 -13.92665,-12.904 -3.27333,-1.64134 -6.61333,-2.74534 -10.19466,-3.46534 -2.67867,-0.536 -5.5,-0.69733 -8.312,-0.68933" style="fill:#000000;fill-opacity:1;fill-rule:nonzero;stroke:none;stroke-width:1.33333"></path>
      <path id="path267" d="m 983.24089,533.86337 c -8.03467,1.31733 -15.78667,-0.39467 -21.824,-4.23334 -6.03733,-3.83733 -10.36667,-9.79466 -11.54,-16.96933 -1.17733,-7.17467 1.01733,-14.20267 5.51333,-19.76933 4.49467,-5.56 11.29734,-9.664 19.33467,-10.97867 8.04133,-1.32 15.78666,0.39333 21.82666,4.228 6.04005,3.84 10.36535,9.80133 11.54265,16.97333 1.1747,7.172 -1.0173,14.204 -5.516,19.76934 -4.49731,5.56133 -11.29731,9.66533 -19.33731,10.98" style="fill:#2c2c2c;fill-opacity:1;fill-rule:nonzero;stroke:none;stroke-width:1.33333"></path>
      <path id="path268" d="m 979.84382,481.25924 c 7.028,-0.068 14.23733,2.24933 19.47733,6.59866 1.12135,0.93334 2.23605,1.94934 3.16805,3.032 3.5346,4.104 5.6266,8.84 6.0506,13.97867 0.4414,5.35333 -0.796,10.252 -3.54,14.96 -2.168,3.71867 -5.36665,6.85733 -9.08532,9.38 -2.92933,1.976 -6.304,3.348 -9.76533,4.288 -1.75867,0.47467 -3.764,0.80133 -5.60933,0.936 -2.668,0.19733 -5.40934,0.0947 -7.99467,-0.34267 -6.85466,-1.16133 -13.09733,-4.52266 -17.41066,-9.612 -3.42267,-4.036 -5.33334,-8.82266 -5.72667,-13.82666 -0.608,-7.696 2.688,-15.54667 8.74933,-21.02534 4.12934,-3.728 9.26267,-6.468 14.904,-7.61866 2.21467,-0.448 4.45333,-0.748 6.78267,-0.748 m -0.348,0.43733 c -8.28933,0.156 -16.132,3.43067 -21.81333,9.016 -3.05334,2.99867 -5.56534,6.91867 -6.74267,10.83733 -0.71467,2.37067 -1.20933,4.85067 -1.14667,7.376 0.08,3.27734 0.64,6.504 2.044,9.50934 1.536,3.27066 3.476,5.90533 6.26667,8.42666 3.79867,3.432 9.10133,5.88667 14.29067,6.756 2.05199,0.34267 3.99066,0.46134 6.13466,0.46134 2.10667,0 4.11067,-0.33467 6.12267,-0.69334 1.992,-0.36533 3.968,-1.07466 5.852,-1.81866 2.53466,-0.99867 4.97066,-2.49734 7.064,-4.1 3.45598,-2.66 6.04398,-5.85867 7.94538,-9.536 0.832,-1.604 1.5333,-3.42267 1.936,-5.13067 0.4853,-2.06933 0.7266,-4.03333 0.7266,-6.196 0,-3.06 -0.744,-6.32 -1.988,-9.12667 -1.7613,-3.97066 -4.584,-7.39866 -8.25998,-10.12533 -3.97334,-2.95333 -8.94934,-4.77333 -13.94667,-5.42133 -1.472,-0.18667 -2.968,-0.24 -4.48533,-0.23467" style="fill:#000000;fill-opacity:1;fill-rule:nonzero;stroke:none;stroke-width:1.33333"></path>
      <path id="path269" d="m 974.19542,516.63937 c -1.304,0.21333 -2.57867,-0.72 -3.58667,-2.40267 -1.01067,-1.68 -1.75067,-4.11467 -1.984,-6.89067 -0.23467,-2.78133 0.088,-5.38666 0.78667,-7.34533 0.70133,-1.96667 1.79066,-3.28133 3.09333,-3.49867 1.30533,-0.21466 2.58267,0.72134 3.58933,2.40134 1.01067,1.68266 1.74667,4.112 1.984,6.89333 0.23334,2.784 -0.0853,5.384 -0.788,7.34667 -0.70133,1.95733 -1.788,3.28133 -3.09466,3.496" style="fill:#4ae1ff;fill-opacity:1;fill-rule:nonzero;stroke:none;stroke-width:1.33333"></path>
      <path id="path270" d="m 985.08209,502.65377 c 0.5,-0.016 0.98,0.0627 1.436,0.21333 1.20933,0.39467 2.15733,1.12133 3.07066,1.928 0.17067,0.14933 0.36934,0.31067 0.51067,0.47467 0.0747,0.0893 0.0907,0.13466 0.11333,0.244 0.012,0.072 0.009,0.0853 -0.005,0.16266 -0.0173,0.08 -0.0627,0.188 -0.14133,0.244 -0.0653,0.052 -0.092,0.0813 -0.18267,0.10534 -0.10133,0.0307 -0.12133,0.02 -0.22667,0.008 -0.15733,-0.0187 -0.36,-0.24 -0.47866,-0.33734 -0.55067,-0.448 -1.16934,-0.77466 -1.86534,-1.01466 -0.75466,-0.26 -1.61466,-0.356 -2.40933,-0.172 -0.42533,0.096 -0.836,0.26666 -1.212,0.46533 -0.41467,0.22133 -0.73467,0.50267 -1.064,0.82133 -0.44,0.436 -0.74667,0.91867 -1.012,1.456 -0.052,0.10667 -0.0813,0.172 -0.2,0.23734 -0.0707,0.04 -0.076,0.048 -0.15333,0.0573 -0.144,0.0187 -0.24134,-0.009 -0.35734,-0.0853 -0.15866,-0.11334 -0.22933,-0.31467 -0.172,-0.49067 0.0893,-0.25867 0.212,-0.51067 0.32267,-0.764 0.33467,-0.764 0.69733,-1.52533 1.27067,-2.18133 0.236,-0.28134 0.488,-0.51867 0.80133,-0.732 0.56933,-0.39334 1.24,-0.62267 1.95467,-0.64" style="fill:#4ae1ff;fill-opacity:1;fill-rule:nonzero;stroke:none;stroke-width:1.33333"></path>
      <path id="path271" d="m 1018.849,548.42191 c 0.3347,-4.628 -1.5306,-5.75334 -1.8586,-6.46667 -0.7187,-1.53867 1.804,-4.172 3.8,-2.524 2.1626,1.78667 3.6173,6.49333 1.244,9.62533 -1.3334,1.75734 -3.2347,0.0613 -3.1854,-0.63466" style="fill:#f5f5f5;fill-opacity:1;fill-rule:nonzero;stroke:none;stroke-width:1.33333"></path>
      <path id="path272" d="m 1019.3503,538.54311 c 0.508,-0.004 1.024,0.12933 1.48,0.45333 0.9694,0.69333 1.844,2.01467 2.32,3.43067 0.2747,0.82666 0.4774,1.78 0.4774,2.7 0,0.96933 -0.1454,1.87466 -0.4827,2.71466 -0.34,0.82934 -0.8373,1.636 -1.448,2.044 -0.089,0.0587 -0.172,0.10267 -0.2667,0.14267 -0.3626,0.164 -0.808,0.22133 -1.1906,0.12667 -0.5107,-0.12934 -1.1107,-0.43734 -1.4907,-0.996 -0.1653,-0.244 -0.292,-0.48 -0.264,-0.84 0.028,-0.45867 0.043,-0.93067 0.023,-1.39334 -0.023,-0.65866 -0.096,-1.252 -0.2467,-1.868 -0.1933,-0.748 -0.476,-1.33066 -0.86,-1.90133 -0.2187,-0.31733 -0.4773,-0.58533 -0.6827,-0.92533 -0.052,-0.0867 -0.075,-0.14934 -0.1146,-0.24934 -0.063,-0.18666 -0.099,-0.348 -0.104,-0.556 -0.027,-0.688 0.3506,-1.40133 0.7146,-1.80266 0.6187,-0.684 1.364,-1.06667 2.136,-1.08 m -0.037,0.74 c -0.6547,0.0453 -1.288,0.43466 -1.7587,1.13066 -0.204,0.29734 -0.372,0.75067 -0.2906,1.17067 0.055,0.304 0.308,0.56533 0.4666,0.76933 0.3867,0.49467 0.772,1.09467 1.0107,1.756 0.256,0.71067 0.4107,1.412 0.4747,2.19467 0.056,0.664 0.064,1.388 0.01,2.04933 -0.012,0.18134 0.084,0.31734 0.1666,0.43067 0.216,0.288 0.616,0.548 0.8974,0.61867 0.3773,0.0907 0.732,0.072 1.0746,-0.188 0.4374,-0.33467 0.8174,-1.004 1.072,-1.608 0.2734,-0.64667 0.416,-1.40267 0.444,-2.14534 0.02,-0.40933 -0.015,-0.89733 -0.071,-1.284 -0.1054,-0.69466 -0.2734,-1.29866 -0.52,-1.92266 -0.1507,-0.384 -0.332,-0.73467 -0.5254,-1.07467 -0.292,-0.516 -0.6573,-0.94 -1.032,-1.304 -0.3293,-0.32933 -0.716,-0.524 -1.104,-0.58133 -0.1026,-0.0147 -0.208,-0.012 -0.3133,-0.012" style="fill:#000000;fill-opacity:1;fill-rule:nonzero;stroke:none;stroke-width:1.33333"></path>
      <path id="path273" d="m 1020.6277,546.28657 c 2.98,-4.41734 7.5827,-1.96934 8.3813,-0.94534 0.6667,0.856 1.168,1.84934 1.0147,2.86134 -0.2373,1.53733 -1.2987,2.168 -2.1333,1.63333 -0.656,-0.41467 -0.8174,-1.492 -2.12,-1.54933 -2.1054,-0.096 -2.3614,1.10133 -3.6694,1.31733 -1.64,0.276 -2.2586,-2.152 -1.4733,-3.31733" style="fill:#f5f5f5;fill-opacity:1;fill-rule:nonzero;stroke:none;stroke-width:1.33333"></path>
      <path id="path274" d="m 1024.8881,543.37244 c 1.4427,-0.028 2.884,0.48266 3.9587,1.30666 0.2333,0.17867 0.4066,0.37334 0.5746,0.59467 0.3627,0.47733 0.7,1.05867 0.8534,1.60133 0.108,0.37734 0.1866,0.82267 0.1333,1.22 -0.099,0.724 -0.3267,1.50134 -1.0133,2 -0.093,0.068 -0.1787,0.108 -0.28,0.16267 -0.089,0.04 -0.1707,0.0627 -0.2654,0.0867 -0.079,0.0267 -0.1413,0.0267 -0.2266,0.0373 -0.1214,0.012 -0.2134,0.005 -0.3347,-0.0107 -0.081,-0.005 -0.1333,-0.0253 -0.2133,-0.0453 -0.1054,-0.0373 -0.1787,-0.068 -0.2747,-0.12267 -0.2187,-0.116 -0.4027,-0.272 -0.5507,-0.45333 -0.3466,-0.424 -0.66,-1.00667 -1.3346,-1.076 -0.4387,-0.048 -0.9374,-0.0147 -1.344,0.11467 -0.452,0.14933 -0.7787,0.38133 -1.152,0.632 -0.4067,0.27866 -0.8467,0.51333 -1.376,0.564 -0.097,0.009 -0.1707,0.012 -0.276,0.009 -0.1694,-0.005 -0.34,-0.04 -0.4907,-0.10267 -0.108,-0.044 -0.1893,-0.0787 -0.2867,-0.13866 -0.6613,-0.39467 -0.9706,-1.18 -1.044,-1.828 -0.039,-0.3 -0.041,-0.63467 0.016,-0.928 0.045,-0.22934 0.1187,-0.5 0.2387,-0.716 0.336,-0.58 0.784,-1.09334 1.3053,-1.568 0.8747,-0.8 2.1027,-1.32934 3.3827,-1.34 m 0.035,0.73733 c -0.8974,0.012 -1.7347,0.30267 -2.4427,0.78133 -0.62,0.42 -1.1413,1.00667 -1.528,1.58667 -0.2693,0.40267 -0.324,0.89067 -0.2693,1.348 0.048,0.42533 0.2266,0.956 0.6213,1.24933 0.512,0.38267 1.1733,0.0813 1.624,-0.22133 0.448,-0.296 0.848,-0.588 1.3907,-0.75867 0.5426,-0.17866 1.112,-0.21333 1.6933,-0.156 0.2747,0.0227 0.608,0.15334 0.832,0.296 0.3827,0.252 0.6173,0.57467 0.8733,0.91334 0.1254,0.16133 0.2547,0.312 0.4574,0.42 0.4666,0.24933 0.9146,-0.10534 1.1293,-0.44534 0.3987,-0.636 0.472,-1.42 0.228,-2.112 -0.188,-0.55333 -0.5147,-1.08933 -0.9227,-1.552 -0.12,-0.14 -0.316,-0.26666 -0.4706,-0.37733 -0.2214,-0.16533 -0.5014,-0.29867 -0.7534,-0.424 -0.4333,-0.21333 -0.9306,-0.35333 -1.4066,-0.45333 -0.34,-0.0733 -0.696,-0.0947 -1.056,-0.0947" style="fill:#000000;fill-opacity:1;fill-rule:nonzero;stroke:none;stroke-width:1.33333"></path>
      <path id="path275" d="m 1020.5951,549.53911 c 3.3294,-4.13867 7.7054,-1.27334 8.4267,-0.18134 0.5973,0.91334 1.0133,1.94667 0.7773,2.944 -0.352,1.50934 -1.4626,2.04267 -2.2533,1.43334 -0.6107,-0.472 -0.6947,-1.56 -1.984,-1.736 -2.0853,-0.28 -2.4387,0.87466 -3.76,0.98266 -1.6547,0.12134 -2.0813,-2.35466 -1.2067,-3.44266" style="fill:#f5f5f5;fill-opacity:1;fill-rule:nonzero;stroke:none;stroke-width:1.33333"></path>
      <path id="path276" d="m 1024.6107,547.00657 c 1.3147,-0.024 2.5787,0.43733 3.6267,1.13466 0.4013,0.26667 0.8547,0.64534 1.112,1.036 0.54,0.83467 0.9707,1.82 0.8773,2.79334 -0.071,0.68933 -0.3653,1.508 -0.9706,1.99466 -0.083,0.068 -0.1534,0.116 -0.244,0.17067 -0.093,0.056 -0.176,0.0853 -0.276,0.12533 -0.089,0.0387 -0.176,0.0507 -0.2694,0.0653 -0.091,0.024 -0.1786,0.0187 -0.276,0.0187 -0.097,0 -0.1666,-0.016 -0.26,-0.0333 -0.099,-0.0147 -0.1613,-0.0427 -0.2533,-0.0773 -0.1507,-0.0613 -0.292,-0.144 -0.408,-0.252 -0.1453,-0.12534 -0.2613,-0.25867 -0.3693,-0.40934 -0.232,-0.33733 -0.4374,-0.76933 -0.8107,-1.00133 -0.1773,-0.11067 -0.3267,-0.156 -0.54,-0.19733 -0.4173,-0.072 -0.86,-0.064 -1.28,0.0293 -0.3453,0.0747 -0.672,0.24533 -0.9707,0.416 -0.5026,0.28667 -0.996,0.532 -1.6093,0.532 -0.108,0 -0.1893,-0.008 -0.2947,-0.0213 -0.095,-0.0147 -0.1613,-0.032 -0.252,-0.06 -0.256,-0.08 -0.48,-0.232 -0.6666,-0.40934 -0.48,-0.48133 -0.6907,-1.22 -0.6907,-1.848 0,-0.348 0.037,-0.74266 0.1707,-1.06666 0.059,-0.14534 0.1266,-0.32534 0.2213,-0.456 0.2773,-0.38267 0.5933,-0.732 0.9587,-1.06134 0.9453,-0.84133 2.132,-1.41733 3.4746,-1.42266 m 0.035,0.73733 c -0.8213,0.009 -1.5813,0.256 -2.2627,0.67067 -0.5666,0.34666 -1.1013,0.852 -1.4906,1.35466 -0.2454,0.316 -0.3294,0.672 -0.3614,1.04667 -0.041,0.50533 0.1054,1.192 0.5214,1.56133 0.1453,0.13467 0.3026,0.19467 0.5013,0.22667 0.468,0.0733 0.9427,-0.18533 1.32,-0.39733 0.4227,-0.23334 0.8053,-0.42934 1.2827,-0.53734 0.5426,-0.124 1.1013,-0.0987 1.6493,0 0.3493,0.06 0.7627,0.27867 1,0.52267 0.2,0.20933 0.3507,0.40667 0.504,0.644 0.244,0.37733 0.5333,0.90267 1.132,0.74533 0.4747,-0.12666 0.7747,-0.68266 0.9107,-1.06666 0.2026,-0.58 0.1706,-1.11734 -0.013,-1.69334 -0.1333,-0.41466 -0.3666,-0.87733 -0.624,-1.252 -0.284,-0.41066 -0.8013,-0.76666 -1.244,-1.032 -0.828,-0.49733 -1.8293,-0.79333 -2.8253,-0.79333" style="fill:#000000;fill-opacity:1;fill-rule:nonzero;stroke:none;stroke-width:1.33333"></path>
      <path id="path504" d="m 966.52222,566.49884 c -1.02134,-0.5 -3.35334,0.87333 -4.30134,2.74266 -1.412,2.788 -0.0947,3.96 -0.0947,3.96 -1.65734,-0.87733 -3.85733,-2.596 -5.64133,-4.864 -2.248,-2.85733 -3.83467,-6.59066 -2.85467,-10.612 0.11867,-0.46666 0.272,-0.94666 0.464,-1.424 1.04,-2.628 3.62267,-5.06266 7.27733,-6.392 2.51067,-0.90933 5.52933,-1.296 8.89067,-0.85866 2.02666,0.264 4.17866,0.832 6.42266,1.75733 2.26,0.93733 1.18667,5.66667 -2.5,5.15733 -0.76666,-0.10533 -2.38666,-0.532 -4.22,-0.73466 -1.75733,-0.19467 -3.71466,-0.18 -5.29466,0.51866 -1.056,0.464 -1.94667,1.23067 -2.51067,2.44134 -0.0653,0.148 -0.12667,0.296 -0.176,0.44533 -0.43333,1.31733 -0.15467,2.73467 0.62933,4.07333 0.828,1.41867 2.21467,2.74934 3.90934,3.78934" style="fill:#8f8f8f;fill-opacity:1;fill-rule:nonzero;stroke:none;stroke-width:1.33333"></path>
      <path id="path505" d="m 966.52222,566.49884 c 0.988,0.48533 0.72933,3.05333 -0.68934,5 -1.04133,1.43066 -2.69866,2.236 -3.70666,1.70266 0,0 -1.31734,-1.172 0.0947,-3.96 0.948,-1.86933 3.28,-3.24266 4.30134,-2.74266" style="fill:#5e5e5e;fill-opacity:1;fill-rule:nonzero;stroke:none;stroke-width:1.33333"></path>
      <path id="path506" d="m 967.30862,548.50271 c 0.38,-0.005 0.76266,-0.008 1.14133,0.0133 1.844,0.11067 3.656,0.38933 5.40267,0.90933 0.908,0.27334 1.776,0.576 2.668,0.916 0.61866,0.236 1.088,0.52934 1.39333,1.12134 0.83333,1.624 0.003,3.78266 -1.68267,4.58933 -1.30133,0.624 -2.572,0.18667 -3.88266,-0.0627 -1.388,-0.26666 -2.71867,-0.46 -4.164,-0.496 -0.31467,-0.007 -0.704,0.008 -1.01867,0.04 -1.75333,0.18934 -3.244,0.664 -4.28,2.144 -1.388,1.98134 -0.61067,4.21734 0.82,5.94 0.364,0.44267 0.832,0.95067 1.29733,1.32 0.53867,0.43734 1.096,0.90267 1.70534,1.248 0.76133,0.432 0.84266,1.448 0.756,2.21067 -0.25067,2.11467 -1.77467,4.78 -4.12,5.29333 -0.81067,0.176 -1.30667,-0.0853 -1.96267,-0.47866 -2.12266,-1.272 -4.172,-3.18534 -5.58933,-5.16534 -1.204,-1.68 -2.16,-3.508 -2.56933,-5.49466 -0.408,-1.94667 -0.33467,-3.912 0.30133,-5.78934 0.856,-2.51733 2.61867,-4.428 4.92,-5.85466 2.64267,-1.64 5.756,-2.35867 8.864,-2.404 m 0.0427,0.73733 c -4.74666,0.0293 -9.92533,1.97333 -12.38799,6.124 -0.70934,1.19067 -1.06934,2.58 -1.20667,3.912 -0.19867,1.88933 0.22667,3.82533 0.99067,5.53467 1.35866,3.01866 3.90533,5.76533 6.73733,7.59333 0.48,0.304 0.98533,0.672 1.592,0.576 1.524,-0.23067 2.71066,-1.80267 3.22933,-3.09867 0.308,-0.764 0.608,-1.888 0.32667,-2.688 -0.11067,-0.31466 -0.39467,-0.41733 -0.65867,-0.59866 -0.72933,-0.496 -1.36,-0.97867 -2.008,-1.6 -1.76667,-1.69334 -3.16266,-4.196 -2.296,-6.59867 0.776,-2.14667 2.74933,-3.28133 4.99067,-3.548 1.368,-0.16133 2.69066,-0.068 4.03866,0.10267 1.14934,0.15066 2.27334,0.42933 3.41067,0.632 1.66267,0.29333 3.04533,-0.66934 3.332,-2.25467 0.15067,-0.83467 -0.0387,-1.79067 -0.916,-2.18 -0.76667,-0.33733 -1.596,-0.61333 -2.38933,-0.86 -1.556,-0.492 -3.15334,-0.81067 -4.788,-0.96267 -0.65867,-0.0613 -1.32534,-0.0827 -1.99734,-0.0853" style="fill:#000000;fill-opacity:1;fill-rule:nonzero;stroke:none;stroke-width:1.33333"></path>
      <path id="path507" d="m 966.11729,566.03137 c 0.0253,0 0.0547,0.005 0.0813,0.0107 0.0667,0.005 0.15733,0.008 0.21867,0.0293 0.0973,0.0333 0.19466,0.06 0.28266,0.108 0.0707,0.0387 0.0987,0.0867 0.14667,0.15866 0.024,0.044 0.024,0.0907 0.032,0.14134 0.0107,0.04 0,0.076 -0.008,0.11866 -0.008,0.0573 -0.0293,0.0867 -0.0573,0.13467 -0.024,0.0467 -0.0533,0.06 -0.0907,0.0933 -0.0373,0.0307 -0.0707,0.0333 -0.116,0.048 -0.14933,0.032 -0.276,-0.0653 -0.42133,-0.0907 -0.252,-0.0373 -0.48134,0.007 -0.71867,0.0827 -0.476,0.13867 -0.988,0.43334 -1.40133,0.76267 -0.584,0.47067 -1.14934,1.056 -1.51467,1.788 -0.24267,0.48933 -0.45067,1.01067 -0.55067,1.556 -0.11333,0.62667 -0.0773,1.268 0.25467,1.792 0.0693,0.11467 0.172,0.192 0.23067,0.31333 0.02,0.0373 0.02,0.0893 0.0253,0.13867 0.003,0.0427 -0.0173,0.08 -0.028,0.11867 -0.0173,0.048 -0.048,0.0773 -0.08,0.11066 -0.0333,0.0373 -0.0653,0.0507 -0.10533,0.0773 -0.0413,0.028 -0.068,0.028 -0.11067,0.036 -0.0627,0.012 -0.084,0.004 -0.144,-0.003 -0.12267,-0.028 -0.176,-0.0893 -0.264,-0.18933 -0.16533,-0.18667 -0.284,-0.408 -0.38,-0.65334 -0.22267,-0.56133 -0.24667,-1.22533 -0.13867,-1.82533 0.116,-0.64533 0.356,-1.30933 0.66267,-1.872 0.22267,-0.40667 0.472,-0.77733 0.77733,-1.12 0.452,-0.51467 0.98267,-0.96 1.54667,-1.28933 0.58533,-0.344 1.20933,-0.596 1.87067,-0.576" style="fill:#000000;fill-opacity:1;fill-rule:nonzero;stroke:none;stroke-width:1.33333"></path>
      <path id="path508" d="m 962.15635,562.47271 c 0.0893,0.003 0.184,-0.003 0.27066,0.003 0.0267,0.003 0.04,-0.005 0.056,0.016 0.0973,0.14534 0.17867,0.30267 0.26934,0.452 -0.31734,-0.028 -0.64934,-0.0307 -0.97334,-0.003 -0.33733,0.0253 -0.656,0.0907 -0.98133,0.18266 -0.83467,0.22934 -1.57867,0.67467 -2.216,1.24134 -0.456,0.40933 -0.80667,0.86666 -1.11333,1.38266 -0.272,0.46 -0.45467,0.96134 -0.588,1.464 -0.11867,0.45067 -0.16667,0.91734 -0.192,1.39334 -0.11734,-0.14934 -0.236,-0.30267 -0.34667,-0.45067 -0.0307,-0.036 -0.06,-0.068 -0.0573,-0.11067 0.0747,-0.76266 0.276,-1.46666 0.608,-2.15733 0.42,-0.884 1.076,-1.65867 1.868,-2.244 0.97733,-0.72667 2.17333,-1.156 3.396,-1.16933" style="fill:#000000;fill-opacity:1;fill-rule:nonzero;stroke:none;stroke-width:1.33333"></path>
      <path id="path509" d="m 957.35289,555.84644 c 0.0707,0.003 0.15066,0 0.224,0.003 1.81733,0.068 3.168,0.94 3.97466,1.85067 0.18134,0.19333 0.332,0.396 0.48134,0.59867 0.02,0.0373 0.04,0.0507 0.032,0.0853 -0.0547,0.176 -0.108,0.36 -0.17067,0.528 -0.41467,-0.684 -0.968,-1.364 -1.848,-1.88533 -0.852,-0.51334 -1.97467,-0.836 -3.20133,-0.70267 -1.04667,0.11333 -1.88667,0.51867 -2.508,1.02933 -0.324,0.26534 -0.572,0.56 -0.82667,0.85467 0.068,-0.26 0.12,-0.52267 0.208,-0.78133 0.0133,-0.0467 0.0413,-0.15467 0.0733,-0.18934 0.17334,-0.164 0.36534,-0.31866 0.584,-0.468 0.764,-0.52533 1.78934,-0.91466 2.97734,-0.92266" style="fill:#000000;fill-opacity:1;fill-rule:nonzero;stroke:none;stroke-width:1.33333"></path>
      <path id="path510" d="m 961.67582,549.80084 c 0.008,-0.003 0.0173,0.004 0.028,0.007 0.352,0.15334 0.69866,0.36 1.03066,0.60934 0.32667,0.24533 0.61867,0.52666 0.89867,0.848 0.27867,0.32133 0.52933,0.71333 0.732,1.11066 0.23467,0.46534 0.40133,0.96534 0.50267,1.49467 0.0613,0.316 0.0853,0.62933 0.0947,0.96133 0.008,0.25734 -0.02,0.51334 -0.0467,0.75867 -0.003,0.0347 0.003,0.0427 -0.024,0.0573 -0.15334,0.068 -0.31067,0.14534 -0.46267,0.21067 0.044,-0.30667 0.0867,-0.616 0.0867,-0.93467 0,-0.38 -0.0347,-0.72666 -0.10934,-1.092 -0.196,-0.96 -0.68133,-1.82133 -1.26933,-2.44933 -0.3,-0.32267 -0.62133,-0.58667 -0.96667,-0.81733 -0.35866,-0.232 -0.736,-0.39067 -1.11333,-0.53867 0.208,-0.076 0.41733,-0.152 0.61867,-0.22533" style="fill:#000000;fill-opacity:1;fill-rule:nonzero;stroke:none;stroke-width:1.33333"></path>
      <path id="path511" d="m 969.92195,549.00524 c 0.204,0.024 0.41733,0.056 0.62933,0.0907 0.0213,0.003 0.0533,0.008 0.072,0.0307 0.104,0.132 0.20267,0.26667 0.29467,0.41733 0.22666,0.36534 0.42,0.78667 0.548,1.3 0.10266,0.41734 0.156,0.888 0.13066,1.35734 -0.009,0.152 -0.0227,0.292 -0.0413,0.43866 -0.0387,0.23867 -0.0893,0.46934 -0.16,0.69334 -0.15867,0.50133 -0.36667,0.93066 -0.61733,1.28266 -0.13867,0.19867 -0.27467,0.372 -0.42667,0.536 -0.0293,0.0333 -0.0747,0.0987 -0.10533,0.0987 -0.0707,0 -0.13734,-0.008 -0.21067,-0.0107 -0.11867,-0.009 -0.24667,-0.0227 -0.364,-0.0307 0.50933,-0.47734 1.02267,-1.08 1.312,-2.04667 0.056,-0.184 0.0933,-0.37733 0.12667,-0.58533 0.0467,-0.27467 0.0573,-0.57867 0.04,-0.87334 -0.0293,-0.576 -0.2,-1.13066 -0.40267,-1.55733 -0.14267,-0.288 -0.30933,-0.548 -0.48533,-0.75867 -0.11067,-0.13333 -0.22934,-0.25333 -0.34,-0.38266" style="fill:#000000;fill-opacity:1;fill-rule:nonzero;stroke:none;stroke-width:1.33333"></path>
      <path id="path512" d="m 966.72795,568.76964 c 1.368,-6.016 6.40666,-6.24134 7.86133,-6.13334 2.62533,0.19334 2.364,3.90267 0.33733,4.16134 -0.908,0.116 -4.14666,-0.716 -6.63866,3.388 -0.49867,0.83066 -1.84934,-0.007 -1.56,-1.416" style="fill:#f5f5f5;fill-opacity:1;fill-rule:nonzero;stroke:none;stroke-width:1.33333"></path>
      <path id="path513" d="m 974.14982,562.25404 c 0.2,-0.003 0.392,0.003 0.58533,0.028 0.664,0.0773 1.21333,0.35733 1.588,0.82 0.46267,0.56666 0.59467,1.24666 0.53467,1.91866 -0.06,0.7 -0.45067,1.548 -1.22267,1.93867 -0.148,0.076 -0.31067,0.14133 -0.47733,0.17067 -0.14134,0.0307 -0.27067,0.048 -0.42267,0.0507 -0.316,0.005 -0.63067,-0.008 -0.94667,-0.008 -0.96933,0 -1.88933,0.22 -2.69733,0.66667 -0.82667,0.45733 -1.44,1.08933 -1.96133,1.772 -0.23334,0.29467 -0.40667,0.62667 -0.63867,0.91867 -0.0813,0.11066 -0.16267,0.15333 -0.28133,0.22933 -0.108,0.068 -0.176,0.08 -0.29733,0.10533 -0.11867,0.028 -0.17867,0.016 -0.296,0.005 -0.11867,-0.008 -0.16534,-0.0227 -0.272,-0.0653 -0.19867,-0.068 -0.34667,-0.18133 -0.48534,-0.31333 -0.18266,-0.172 -0.32933,-0.38267 -0.40266,-0.604 -0.13867,-0.4 -0.18,-0.79467 -0.088,-1.208 0.1,-0.448 0.224,-0.89333 0.392,-1.33067 0.51066,-1.34933 1.26,-2.56933 2.53999,-3.556 1.304,-1.00533 3.084,-1.552 4.84934,-1.53866 m -0.21067,0.73733 c -1.668,0.0427 -3.348,0.616 -4.50267,1.64933 -0.528,0.47334 -0.95333,0.96934 -1.3,1.544 -0.50533,0.848 -0.83466,1.72534 -1.03866,2.63867 -0.092,0.41733 -0.02,0.98533 0.43467,1.26 0.096,0.0573 0.23466,0.0893 0.33466,0.0253 0.11334,-0.0813 0.21867,-0.29466 0.292,-0.41066 0.364,-0.57067 0.80933,-1.12667 1.328,-1.60134 0.24533,-0.22666 0.52533,-0.464 0.81467,-0.648 0.548,-0.348 1.14266,-0.648 1.81066,-0.81333 0.62267,-0.15067 1.212,-0.20133 1.876,-0.20133 0.28934,0 0.57867,0.0147 0.86534,0.003 0.264,-0.0173 0.548,-0.17066 0.71866,-0.32933 0.52667,-0.50267 0.64667,-1.26133 0.49334,-1.89333 -0.10534,-0.43334 -0.38267,-0.84267 -0.87334,-1.05734 -0.38666,-0.168 -0.81866,-0.16533 -1.25333,-0.16533" style="fill:#000000;fill-opacity:1;fill-rule:nonzero;stroke:none;stroke-width:1.33333"></path>
      <path id="path514" d="m 966.42195,572.72404 c 2.816,-5.19867 7.804,-3.796 9.124,-3.04534 1.88533,1.05867 1.32533,4.50934 -0.7,4.04534 -0.904,-0.20267 -3.84,-2.12534 -7.26267,0.88266 -0.68933,0.60934 -1.788,-0.65066 -1.16133,-1.88266" style="fill:#f5f5f5;fill-opacity:1;fill-rule:nonzero;stroke:none;stroke-width:1.33333"></path>
      <path id="path515" d="m 972.29169,568.55871 c 0.012,-0.003 0.0227,0 0.032,0 1.14933,0.008 2.356,0.25066 3.29733,0.74 0.468,0.24 0.76933,0.55066 1.01067,0.92266 0.13333,0.208 0.24266,0.468 0.30666,0.68934 0.23867,0.80933 0.17867,1.78533 -0.36666,2.524 -0.0587,0.0867 -0.124,0.152 -0.19867,0.22666 -0.06,0.0627 -0.128,0.108 -0.19867,0.164 -0.0827,0.0653 -0.16133,0.10267 -0.25333,0.152 -0.0867,0.0467 -0.16933,0.0667 -0.26933,0.1 -0.0867,0.024 -0.16534,0.0347 -0.25734,0.0427 -0.1,0.0173 -0.18133,0.0147 -0.28133,0.0147 -0.0827,0 -0.13333,-0.0147 -0.20933,-0.0253 -0.26267,-0.0427 -0.48667,-0.132 -0.72134,-0.21866 -0.43466,-0.16934 -0.856,-0.31867 -1.31733,-0.432 -0.456,-0.11867 -0.99333,-0.17467 -1.488,-0.14934 -1.412,0.0707 -2.58133,0.74 -3.464,1.50934 -0.0893,0.0733 -0.17333,0.128 -0.272,0.19333 -0.108,0.0733 -0.18133,0.0773 -0.31733,0.108 -0.132,0.0253 -0.208,0.008 -0.34134,-0.012 -0.12,-0.0187 -0.17066,-0.048 -0.272,-0.096 -0.176,-0.0853 -0.30933,-0.21067 -0.41733,-0.33733 -0.15866,-0.18534 -0.264,-0.38934 -0.33466,-0.59467 -0.0253,-0.0787 -0.0573,-0.184 -0.0653,-0.26267 -0.0267,-0.17733 -0.04,-0.37733 -0.016,-0.556 0.032,-0.23333 0.0973,-0.49733 0.21734,-0.71866 0.53599,-0.97867 1.27599,-1.99467 2.32933,-2.748 1.05066,-0.748 2.37866,-1.24134 3.868,-1.236 m -0.18934,0.74 c -1.368,0.0427 -2.61066,0.55866 -3.508,1.304 -0.51333,0.42133 -0.96533,0.91866 -1.308,1.42533 -0.22133,0.32933 -0.456,0.66933 -0.596,1.00933 -0.156,0.38534 -0.1,0.96934 0.29467,1.28 0.0933,0.0733 0.216,0.11067 0.32133,0.0307 0.204,-0.14667 0.38,-0.31733 0.584,-0.468 0.54267,-0.38933 1.096,-0.732 1.78,-0.97467 0.52667,-0.18666 1.04134,-0.30266 1.62,-0.332 0.956,-0.048 1.75734,0.12667 2.608,0.416 0.34134,0.11867 0.676,0.272 1.024,0.37334 0.216,0.06 0.49734,0.0373 0.69067,-0.06 0.55067,-0.28134 0.67867,-0.94267 0.70933,-1.38534 0.0253,-0.37866 -0.06,-0.80266 -0.236,-1.148 -0.19466,-0.38933 -0.492,-0.68 -0.98666,-0.89866 -0.89867,-0.404 -1.936,-0.59467 -2.99734,-0.572" style="fill:#000000;fill-opacity:1;fill-rule:nonzero;stroke:none;stroke-width:1.33333"></path>
    </g>
  </g>
</svg>