<?xml version="1.0" encoding="UTF-8" standalone="no"?>


<svg version="1.1" id="svg1" width="128.27359" height="165.61896" viewBox="0 0 128.27359 165.61896" xmlns="http://www.w3.org/2000/svg" xmlns:svg="http://www.w3.org/2000/svg">
  <defs id="defs1"></defs>
  <g id="layer-MC0" transform="translate(-20.865009,-274.98315)">
    <g id="g1234" transform="translate(-56.290909,-162.32727)">
      <path id="path133" d="m 176.67191,583.63998 c -1.59867,-0.38666 -4.968,-1.49066 -7.32,-4.22533 -1.02,-1.18933 0.392,-3.22667 1.672,-2.328 2.748,1.928 5.18666,2.31867 6.89333,2.476 0.84133,0.0733 1.484,1.40933 1.12267,2.608 -0.34,1.132 -1.43334,1.69333 -2.368,1.46933" style="fill:#f5f5f5;fill-opacity:1;fill-rule:nonzero;stroke:none;stroke-width:1.33333"></path>
      <path id="path134" d="m 170.44004,576.49545 c 0.0787,0.0107 0.16,0.028 0.24,0.04 0.076,0.0133 0.144,0.0427 0.216,0.0707 0.15733,0.0573 0.28666,0.14267 0.416,0.22933 1.24133,0.85067 2.60533,1.54134 4.204,1.956 0.772,0.19867 1.54666,0.31467 2.35466,0.39334 0.10534,0.0107 0.192,0.0267 0.29334,0.052 0.092,0.0227 0.15466,0.0533 0.24133,0.0933 0.14,0.0627 0.27867,0.16267 0.37733,0.25867 0.17067,0.176 0.31067,0.35733 0.416,0.56 0.31334,0.57733 0.39467,1.33333 0.24134,1.952 -0.10934,0.43733 -0.304,0.888 -0.684,1.25333 -0.38934,0.36933 -0.88,0.66133 -1.52534,0.696 -0.24,0.0107 -0.43466,-0.005 -0.66133,-0.0547 -0.72133,-0.16666 -1.45333,-0.408 -2.13333,-0.67466 -2.11067,-0.832 -4.01467,-2.084 -5.30267,-3.59334 -0.24933,-0.28933 -0.40533,-0.56933 -0.464,-0.91066 -0.0333,-0.176 -0.044,-0.348 -0.028,-0.528 0.0307,-0.34 0.144,-0.65467 0.33733,-0.968 0.14667,-0.22667 0.32267,-0.40134 0.57067,-0.57467 0.084,-0.056 0.156,-0.0867 0.24533,-0.12933 0.10534,-0.0453 0.18667,-0.0613 0.29734,-0.0893 0.11333,-0.0267 0.22666,-0.024 0.348,-0.032 m -0.0973,0.74267 c -0.38,0.0267 -0.66133,0.324 -0.796,0.56933 -0.168,0.31867 -0.23466,0.68934 -0.11066,1.024 0.11333,0.30267 0.392,0.56934 0.63733,0.82534 0.312,0.31866 0.65867,0.624 1.01733,0.92133 1.048,0.844 2.28667,1.52267 3.628,2.056 0.64,0.252 1.32667,0.47067 2.004,0.636 0.52134,0.12933 1.004,-0.0267 1.36667,-0.31333 0.41067,-0.32667 0.59733,-0.76934 0.65867,-1.196 0.0613,-0.452 -0.0133,-1.02 -0.3,-1.42 -0.11067,-0.16 -0.26667,-0.34934 -0.508,-0.39467 -0.17734,-0.0373 -0.38267,-0.0427 -0.56134,-0.0653 -1.168,-0.14 -2.25066,-0.37734 -3.328,-0.772 -0.724,-0.26667 -1.39333,-0.588 -2.02533,-0.948 -0.416,-0.23467 -0.81067,-0.488 -1.19467,-0.75734 -0.132,-0.0933 -0.30133,-0.17066 -0.488,-0.16533" style="fill:#000000;fill-opacity:1;fill-rule:nonzero;stroke:none;stroke-width:1.33333"></path>
      <path id="path135" d="m 171.56577,574.27278 c -2.48667,-5.76133 1.65866,-9.74933 3.06133,-10.59066 1.99067,-1.19467 4.432,1.36 2.84133,3.048 -0.71866,0.75466 -4.03733,2.45733 -3.68,7.52133 0.0693,1.024 -1.604,1.344 -2.22266,0.0213" style="fill:#f5f5f5;fill-opacity:1;fill-rule:nonzero;stroke:none;stroke-width:1.33333"></path>
      <path id="path136" d="m 175.64577,563.00585 c 0.564,-0.0107 1.096,0.15734 1.588,0.5 0.75333,0.52667 1.392,1.584 0.99333,2.68934 -0.14533,0.39866 -0.39467,0.724 -0.68,0.972 -0.30533,0.26666 -0.62933,0.508 -0.932,0.77466 -1.112,0.96934 -1.97867,2.22134 -2.32,3.888 -0.12267,0.60667 -0.16133,1.18534 -0.16133,1.83067 0,0.216 0.0293,0.44267 0.0213,0.65867 -0.005,0.14933 -0.0107,0.21066 -0.0533,0.348 -0.04,0.116 -0.0573,0.16533 -0.12267,0.264 -0.0747,0.11733 -0.132,0.17333 -0.22267,0.26 -0.0787,0.0667 -0.136,0.10266 -0.21733,0.14533 -0.0933,0.052 -0.16933,0.0827 -0.26933,0.11067 -0.16534,0.052 -0.32134,0.0707 -0.49067,0.068 -0.19467,-0.008 -0.37067,-0.0427 -0.55733,-0.116 -0.40534,-0.15334 -0.796,-0.508 -1.00134,-0.98267 -0.23733,-0.55867 -0.43733,-1.13733 -0.57466,-1.73333 -0.35734,-1.57467 -0.29734,-3.22934 0.24,-4.72267 0.66933,-1.84933 1.88666,-3.42133 3.27733,-4.41733 0.464,-0.332 0.95333,-0.52267 1.48267,-0.53734 m -0.008,0.74267 c -0.67734,0.024 -1.288,0.54533 -1.81467,1.04267 -1.148,1.08133 -2.08933,2.57333 -2.48933,4.30266 -0.38534,1.696 -0.11067,3.42534 0.54266,4.96 0.21867,0.51334 0.61067,0.764 1.064,0.71334 0.19467,-0.0213 0.45867,-0.14267 0.472,-0.42934 0.009,-0.19866 -0.0213,-0.408 -0.0213,-0.61866 0,-0.61467 0.024,-1.19467 0.12667,-1.77867 0.208,-1.15867 0.608,-2.132 1.23733,-3.04 0.572,-0.83467 1.25733,-1.44133 1.97867,-2.028 0.37333,-0.3 0.74266,-0.56667 0.85066,-1.14533 0.14534,-0.76 -0.45333,-1.452 -0.96133,-1.73067 -0.31333,-0.172 -0.63467,-0.26133 -0.98533,-0.248" style="fill:#000000;fill-opacity:1;fill-rule:nonzero;stroke:none;stroke-width:1.33333"></path>
      <path id="path137" d="m 171.88217,573.46812 c 2.95333,-5.564 8.94,-4.81866 10.55866,-4.25066 2.29334,0.80266 1.88,4.316 -0.54133,4.132 -1.08267,-0.088 -4.68,-1.61467 -8.508,1.844 -0.77467,0.69333 -2.15733,-0.416 -1.50933,-1.72534" style="fill:#f5f5f5;fill-opacity:1;fill-rule:nonzero;stroke:none;stroke-width:1.33333"></path>
      <path id="path138" d="m 179.76884,568.46025 c 0.116,-0.003 0.24,0.005 0.356,0.005 0.516,0.0133 1.01466,0.0773 1.504,0.16133 0.38133,0.0733 0.896,0.19067 1.20933,0.35467 0.34667,0.17466 0.624,0.37733 0.84267,0.63066 0.6,0.69734 0.76933,1.604 0.56666,2.39334 -0.15333,0.60666 -0.548,1.336 -1.48666,1.62266 -0.26,0.0787 -0.484,0.0933 -0.768,0.0907 -0.29334,0 -0.65867,-0.088 -0.93867,-0.14533 -0.83733,-0.17467 -1.62533,-0.292 -2.53333,-0.25334 -1.95734,0.0787 -3.63734,1.03467 -4.75467,2.036 -0.0973,0.0853 -0.19333,0.16134 -0.304,0.24 -0.0787,0.0547 -0.136,0.0693 -0.23333,0.108 -0.11067,0.044 -0.14534,0.0493 -0.272,0.06 -0.14667,0.0147 -0.208,0.004 -0.34934,-0.0133 -0.116,-0.0173 -0.16933,-0.0413 -0.272,-0.0827 -0.17733,-0.064 -0.31866,-0.16933 -0.43733,-0.27466 -0.31067,-0.28134 -0.45867,-0.59867 -0.524,-0.93467 -0.0507,-0.26667 -0.0267,-0.53333 0.0427,-0.796 0.068,-0.256 0.20933,-0.50267 0.34933,-0.748 0.64133,-1.10133 1.536,-2.17067 2.82667,-3.01067 1.39066,-0.90133 3.20666,-1.464 5.176,-1.444 m -0.19734,0.74 c -1.59866,0.0293 -3.20266,0.46667 -4.36266,1.196 -0.34,0.20934 -0.63467,0.41867 -0.92667,0.656 -0.924,0.74534 -1.536,1.65067 -2.04133,2.54134 -0.22667,0.396 -0.22667,0.94266 0.19733,1.28666 0.164,0.13867 0.448,0.224 0.65067,0.076 0.17333,-0.13333 0.32133,-0.27466 0.48133,-0.41066 1.02533,-0.824 2.27067,-1.552 3.852,-1.84667 1.12533,-0.208 2.284,-0.14533 3.38933,0.0667 0.304,0.06 0.60934,0.13066 0.912,0.184 0.53467,0.0947 1.03467,-0.0253 1.34134,-0.32 0.61866,-0.584 0.62133,-1.456 0.32933,-2.112 -0.18267,-0.41334 -0.58,-0.80267 -1.20133,-0.99067 -0.82,-0.24933 -1.708,-0.332 -2.62134,-0.32667" style="fill:#000000;fill-opacity:1;fill-rule:nonzero;stroke:none;stroke-width:1.33333"></path>
      <path id="path139" d="m 145.18164,558.64518 c -0.99067,-1.48666 1.296,-4.05733 2.84533,-3.24266 0.476,0.24933 2.808,2.38933 6.072,4.93333 1.58533,1.228 3.38667,2.552 5.296,3.79867 0.124,0.076 0.24267,0.156 0.364,0.23733 1.79867,1.164 3.564,2.24933 5.19467,3.22133 1.89333,1.132 3.604,2.10934 4.96266,2.864 1.97334,1.10267 3.208,1.74267 3.208,1.74267 0,0 0.91467,2.71333 -0.88133,4.91733 -1.79467,2.21067 -3.91467,1.636 -3.91467,1.636 0,0 -1.23866,-0.72133 -3.17466,-1.996 -1.32,-0.86933 -2.96534,-1.992 -4.77067,-3.32266 -1.52933,-1.12667 -3.17333,-2.40134 -4.83067,-3.792 -1.79466,-1.504 -3.61333,-3.148 -5.30266,-4.88134 -1.896,-1.94133 -3.64267,-3.99866 -5.068,-6.116" style="fill:#8f8f8f;fill-opacity:1;fill-rule:nonzero;stroke:none;stroke-width:1.33333"></path>
      <path id="path140" d="m 147.40617,554.87958 c 0.39733,0.003 0.78266,0.156 1.07733,0.38534 1.388,1.08666 2.68667,2.27866 4.072,3.36666 1.20933,0.956 2.38933,1.94267 3.65333,2.832 0.70667,0.49867 1.388,1.01334 2.10267,1.49867 2.05733,1.39067 4.172,2.72267 6.31733,4.00667 1.888,1.12933 3.79467,2.22 5.72,3.30533 0.748,0.424 1.52534,0.81867 2.276,1.244 0.26134,0.14667 0.788,0.328 0.86934,0.584 0.11333,0.35733 0.16133,0.72667 0.20533,1.09333 0.0533,0.45067 0.032,0.90267 -0.009,1.35067 -0.164,1.87333 -1.58134,4.064 -3.90267,4.56267 -0.40667,0.0893 -1.33467,0.15333 -1.69067,-0.0533 -0.45066,-0.264 -0.89733,-0.54266 -1.33733,-0.82133 -1.27333,-0.80133 -2.51067,-1.64133 -3.764,-2.47333 -0.696,-0.46667 -1.40267,-0.968 -2.07333,-1.46534 -1.05867,-0.78533 -2.15467,-1.55733 -3.17467,-2.38933 -0.65333,-0.53333 -1.32267,-1.05867 -1.984,-1.59733 -1.65333,-1.34134 -3.21333,-2.76934 -4.69867,-4.21067 -1.50666,-1.46133 -2.88666,-2.96 -4.18266,-4.54133 -0.588,-0.71867 -1.11467,-1.448 -1.65734,-2.19067 -0.348,-0.47733 -0.58933,-0.83467 -0.64533,-1.40533 -0.13467,-1.26534 1.18533,-3.04134 2.82667,-3.08134 m -0.16267,0.74534 c -1.2,0.21866 -2.26133,1.70266 -1.824,2.67066 0.148,0.32934 0.46133,0.704 0.67733,1.01067 0.82667,1.156 1.74134,2.28 2.70534,3.36267 0.556,0.624 1.136,1.25466 1.73066,1.86 1.01467,1.01866 2.06267,2.06 3.17067,3.02133 0.98667,0.856 1.95867,1.71733 2.98267,2.552 2.28666,1.85733 4.652,3.63733 7.10133,5.29733 1.488,1.008 2.992,1.992 4.544,2.92134 0.16667,0.096 0.2,0.11333 0.416,0.12666 2.16,0.132 3.68533,-1.74133 4.07867,-3.31066 0.21733,-0.85734 0.18666,-1.72267 0.009,-2.58267 -0.0227,-0.13067 -0.12,-0.14933 -0.24667,-0.21333 -4.096,-2.20134 -8.064,-4.50934 -11.956,-6.96134 -1.112,-0.69866 -2.22933,-1.42266 -3.29333,-2.18533 -1.18267,-0.84267 -2.34933,-1.69467 -3.49867,-2.58267 -1.864,-1.44133 -3.65333,-2.96533 -5.452,-4.47733 -0.31066,-0.264 -0.664,-0.56933 -1.14533,-0.50933" style="fill:#000000;fill-opacity:1;fill-rule:nonzero;stroke:none;stroke-width:1.33333"></path>
      <path id="path141" d="m 164.73764,567.45905 c 0.136,0.0853 0.27066,0.16934 0.40266,0.25334 0.0267,0.016 0.0293,0.0107 0.0267,0.0413 -0.008,0.128 -0.0187,0.256 -0.04,0.37733 -0.14933,1.03067 -0.592,2 -1.15867,2.80667 -0.25066,0.35467 -0.53466,0.704 -0.83466,1.00533 -0.72934,0.712 -1.55734,1.29334 -2.46534,1.63067 -0.0267,0.009 -0.0533,0.0293 -0.0773,0.009 -0.14133,-0.1 -0.284,-0.204 -0.424,-0.304 l 0.20533,-0.072 c 0.42534,-0.144 0.832,-0.35333 1.23067,-0.60266 0.29733,-0.18 0.56133,-0.396 0.83467,-0.62534 0.31066,-0.26266 0.59866,-0.57333 0.872,-0.908 0.2,-0.24666 0.38533,-0.51066 0.55333,-0.78533 0.50533,-0.82933 0.85067,-1.8 0.872,-2.82667 z" style="fill:#000000;fill-opacity:1;fill-rule:nonzero;stroke:none;stroke-width:1.33333"></path>
      <path id="path142" d="m 159.53777,564.23238 c 0.14,0.0813 0.276,0.17467 0.41066,0.264 0.0187,0.0133 0.0293,0.0133 0.0293,0.0387 -0.003,0.0427 -0.008,0.088 -0.0107,0.132 -0.0493,0.63733 -0.224,1.25067 -0.49467,1.816 -0.26933,0.56667 -0.60666,1.052 -1.012,1.504 -0.62933,0.7 -1.43066,1.256 -2.23866,1.62267 -0.14267,0.0627 -0.284,0.12266 -0.42934,0.18133 -0.024,0.0147 -0.0347,0.0267 -0.06,0.003 -0.12666,-0.10267 -0.25333,-0.20667 -0.372,-0.312 0.71334,-0.252 1.42,-0.616 2.044,-1.11334 0.492,-0.396 0.956,-0.884 1.31734,-1.44933 0.23333,-0.36 0.42933,-0.76 0.572,-1.17733 0.16,-0.48534 0.24666,-0.98267 0.244,-1.50934" style="fill:#000000;fill-opacity:1;fill-rule:nonzero;stroke:none;stroke-width:1.33333"></path>
      <path id="path143" d="m 153.90551,560.18158 c 0.12133,0.0947 0.248,0.19734 0.372,0.29467 0.0187,0.0187 0.024,0.0133 0.0187,0.0347 -0.0293,0.13866 -0.0613,0.27066 -0.0933,0.4 -0.06,0.22933 -0.13867,0.44266 -0.21867,0.66666 -0.34666,0.86134 -0.916,1.59334 -1.59866,2.152 -0.592,0.48534 -1.25067,0.86534 -1.93067,1.18267 -0.024,0.0107 -0.032,0.0213 -0.0493,0.005 -0.108,-0.108 -0.21867,-0.216 -0.324,-0.32666 0.47866,-0.21334 0.956,-0.456 1.40266,-0.748 0.288,-0.19334 0.58267,-0.40534 0.83334,-0.648 0.20266,-0.18934 0.41333,-0.396 0.584,-0.62667 0.10133,-0.14 0.20133,-0.28 0.29866,-0.43733 0.37067,-0.584 0.59467,-1.26267 0.70534,-1.94934" style="fill:#000000;fill-opacity:1;fill-rule:nonzero;stroke:none;stroke-width:1.33333"></path>
      <path id="path144" d="m 169.70311,570.34185 c 0.108,0.06 0.21333,0.116 0.32133,0.17867 0.0133,0.005 0.10533,0.0547 0.11067,0.0653 0.0107,0.012 0,0.12534 -0.003,0.15334 -0.016,0.48 -0.0867,0.95066 -0.20267,1.404 -0.27333,1.068 -0.756,1.98133 -1.42533,2.768 -0.22133,0.256 -0.46933,0.49866 -0.716,0.70666 -0.34,0.292 -0.69067,0.53467 -1.072,0.75334 -0.40933,0.232 -0.85867,0.416 -1.292,0.54266 -0.028,0.009 -0.0573,0.0267 -0.084,0.007 -0.13067,-0.11067 -0.268,-0.22267 -0.392,-0.33867 0.024,-0.0107 0.048,-0.016 0.0707,-0.0213 0.21466,-0.0573 0.432,-0.12 0.648,-0.19467 1.04666,-0.384 2,-1.08533 2.75333,-2.068 0.13733,-0.17333 0.27067,-0.37466 0.38133,-0.56933 0.12134,-0.208 0.22934,-0.41867 0.33467,-0.64533 0.12133,-0.26934 0.21867,-0.55334 0.308,-0.84267 0.18,-0.608 0.248,-1.25067 0.25333,-1.90133 0,0 0.005,0 0.005,0.003" style="fill:#000000;fill-opacity:1;fill-rule:nonzero;stroke:none;stroke-width:1.33333"></path>
      <path id="path291" d="m 137.76164,564.11918 c 3.756,-0.31066 11.17866,-0.30533 16.14933,4.316 3.28267,3.05734 3.50667,6.99867 3.50667,6.99867 0,0 -1.31734,-3.224 -3.372,-2.532 -1.32534,0.448 -1.64667,2.13067 -0.916,4.396 -1.74134,0.76133 -2.656,1.06133 -4.324,1.612 -0.644,-1.896 -1.904,-3.90267 -4.296,-3.42533 -1.512,0.304 -2.724,1.848 -2.30934,4.75866 -1.928,0.596 -4.13333,0.80934 -6.23333,0.65067 0.0827,-1.32267 -0.30533,-4.23733 -3.11867,-4.312 -2.24133,-0.056 -3.08933,1.55333 -3.59733,4.08267 -1.596,-0.17067 -2.57467,-0.27867 -4.408,-0.688 0.18533,-1.22267 0.57733,-4.29067 -2.47333,-4.38534 -2.06934,-0.064 -2.884,3.25867 -2.884,3.25867 0,0 0.8,-4.968 2.92133,-7.56533 5.45467,-6.66667 13.37867,-7.00134 15.35467,-7.16534" style="fill:#000000;fill-opacity:1;fill-rule:nonzero;stroke:none;stroke-width:1.33333"></path>
      <path id="path292" d="m 140.18684,563.63732 c 1.69333,-0.0133 3.348,0.0973 4.91866,0.36667 5.676,0.96533 9.24,3.68933 10.892,6.352 0.92667,1.49733 1.51734,3.01867 1.74534,4.592 0.028,0.19733 0.18533,0.716 -0.19467,0.83733 -0.3,0.0947 -0.43867,-0.132 -0.48133,-0.23066 -0.16934,-0.36134 -0.356,-0.74934 -0.624,-1.10667 -0.26134,-0.34133 -0.67734,-0.92533 -1.284,-1.16 -1.02667,-0.39467 -1.68534,0.376 -1.83867,0.75333 -0.34933,0.864 -0.18133,1.788 0.0187,2.65067 0.0667,0.27333 0.38,0.75867 -0.1,0.968 -1.356,0.59067 -2.752,1.10667 -4.26134,1.58667 -0.29333,0.0947 -0.464,-0.048 -0.51466,-0.17334 -0.25734,-0.64666 -0.46534,-1.288 -0.924,-1.91066 -0.34,-0.45867 -1.04267,-1.35334 -2.26267,-1.37467 -1.504,-0.0267 -2.17333,0.924 -2.42,1.48933 -0.35067,0.80534 -0.43733,1.70534 -0.332,2.55067 0.0173,0.13067 0.0813,0.332 0.0493,0.45733 -0.0653,0.26667 -0.124,0.276 -0.57866,0.40267 -1.81067,0.52133 -3.89467,0.72667 -5.99067,0.58133 -0.34533,-0.0253 -0.408,-0.22933 -0.408,-0.37066 0,-0.69334 -0.0293,-1.36267 -0.26667,-2.02934 -0.21333,-0.6 -0.68666,-1.70266 -2.144,-1.888 -1.45866,-0.18933 -2.24666,0.50534 -2.61333,1.072 -0.51067,0.79067 -0.72933,1.62267 -0.9,2.45067 -0.0347,0.16533 -0.0133,0.57067 -0.53467,0.52133 -1.45466,-0.132 -2.86133,-0.356 -4.228,-0.652 -0.33733,-0.0707 -0.43466,-0.17866 -0.43466,-0.35733 0,-0.4 0.116,-0.796 0.116,-1.19867 0,-0.26933 0.012,-0.55333 -0.0267,-0.82266 -0.0893,-0.57867 -0.26667,-1.6 -1.44667,-1.92134 -1.03466,-0.288 -1.60933,0.0307 -2.028,0.468 -0.57466,0.6 -0.87466,1.30134 -1.09866,1.94134 -0.0547,0.156 -0.116,0.64533 -0.38934,0.724 -0.384,0.116 -0.49866,-0.27867 -0.488,-0.384 0.0213,-0.24267 0.0733,-0.496 0.12667,-0.74 0.32667,-1.47867 0.728,-2.98 1.36267,-4.43067 0.30666,-0.70267 0.65066,-1.432 1.14,-2.11067 0.872,-1.2 2.07333,-2.43066 3.5,-3.51066 2.108,-1.60667 4.98666,-3.088 8.70133,-3.804 1.976,-0.384 4.104,-0.54534 6.24267,-0.58934 m 0.0813,0.73867 c -2.78667,0.0587 -5.52667,0.30667 -7.968,1.004 -1.604,0.45733 -3.08667,1.05067 -4.31467,1.752 -0.97466,0.55333 -1.836,1.112 -2.60533,1.74133 -0.60267,0.49734 -1.16133,0.98534 -1.66533,1.50934 -0.74934,0.77866 -1.364,1.53333 -1.82134,2.35066 -0.59333,1.076 -1.004,2.17734 -1.33866,3.276 0.49333,-0.456 1.15066,-0.948 2.38666,-0.736 1.84934,0.32267 2.17067,1.64267 2.336,2.44267 0.08,0.37467 0.0587,0.756 0.0587,1.13867 0,0.256 -0.0347,0.51333 -0.0667,0.76666 -0.0107,0.1 0.0427,0.076 0.216,0.11334 1.12267,0.23066 2.29734,0.42266 3.472,0.51866 0.24267,-0.936 0.43467,-1.91466 1.12267,-2.80266 0.52933,-0.67467 1.49867,-1.42534 3.23467,-1.19867 1.652,0.21867 2.344,1.41467 2.62933,2.10933 0.29867,0.712 0.38667,1.444 0.416,2.18667 1.796,0.10267 3.568,-0.0867 5.14667,-0.492 0.132,-0.0373 0.292,-0.048 0.284,-0.132 -0.0467,-0.38 -0.0413,-0.76933 -0.0413,-1.15733 0,-0.60534 0.17334,-1.26534 0.44267,-1.83867 0.344,-0.74 1.21733,-1.93067 3.17333,-1.876 1.35734,0.0373 2.27334,0.984 2.67067,1.516 0.45333,0.61333 0.756,1.24 1.00133,1.87467 1.26,-0.384 2.41067,-0.84267 3.55334,-1.31867 0.132,-0.0507 0.0613,-0.0853 0.0453,-0.164 -0.28267,-1.20933 -0.57467,-2.67867 0.392,-3.824 0.432,-0.504 1.46533,-0.98133 2.516,-0.49067 0.48933,0.22934 0.788,0.53734 1.08,0.82267 -0.824,-2.62133 -2.68133,-5.41733 -6.86933,-7.316 -2.59467,-1.17733 -5.936,-1.81467 -9.48667,-1.776" style="fill:#000000;fill-opacity:1;fill-rule:nonzero;stroke:none;stroke-width:1.33333"></path>
      <path id="path293" d="m 116.14324,597.87958 c 0.21866,-0.38 0.63466,-0.68666 1.24533,-0.85866 0.84667,-0.23467 1.90267,-0.17467 2.92133,0.11333 1.02267,0.28267 2.008,0.80133 2.72134,1.47733 0.70933,0.67467 1.00666,1.38534 0.92533,1.98134 -0.0907,0.596 -0.56667,1.08533 -1.41733,1.32266 -0.84534,0.23467 -1.9,0.17867 -2.92134,-0.11066 -1.01733,-0.28667 -2.00266,-0.79867 -2.71333,-1.47334 -0.70933,-0.67866 -1.012,-1.38533 -0.928,-1.984 0.0507,-0.14666 0.104,-0.30133 0.16667,-0.468" style="fill:#1c1c1c;fill-opacity:1;fill-rule:nonzero;stroke:none;stroke-width:1.33333"></path>
      <path id="path294" d="m 123.95697,600.59305 c 0.0813,-0.596 -0.216,-1.30666 -0.92667,-1.98133 -0.712,-0.676 -1.69733,-1.19467 -2.72133,-1.47733 -1.01867,-0.28934 -2.07334,-0.348 -2.92134,-0.11334 -0.61066,0.172 -1.02533,0.47867 -1.244,0.85867 0.364,-1.03867 0.64,-1.77067 1.28667,-3.40533 1.928,-0.81734 6.26133,0.32933 7.68,2.65733 -0.592,1.712 -0.81867,2.48133 -1.15333,3.46133" style="fill:#8f8f8f;fill-opacity:1;fill-rule:nonzero;stroke:none;stroke-width:1.33333"></path>
      <path id="path295" d="m 125.11004,597.13212 c -1.41734,-2.328 -5.75067,-3.47466 -7.67867,-2.65733 1.56,-3.928 5.516,-13.66667 5.516,-13.66667 3.58,-0.324 5.64,1.11467 6.85467,2.81734 -0.092,0.27333 -3.444,9.916 -4.692,13.50666" style="fill:#363636;fill-opacity:1;fill-rule:nonzero;stroke:none;stroke-width:1.33333"></path>
      <path id="path296" d="m 129.80204,583.62572 c -1.21467,-1.70266 -3.27467,-3.14133 -6.85467,-2.81733 1.84667,-4.65333 3.63867,-8.61067 4.65733,-9.424 1.12,-0.508 5.67734,2.052 5.67734,2.052 0,0 -1.59734,4.684 -3.48,10.18933" style="fill:#1c1c1c;fill-opacity:1;fill-rule:nonzero;stroke:none;stroke-width:1.33333"></path>
      <path id="path297" d="m 128.03124,570.94985 c 0.972,0.0707 1.91466,0.46134 2.84533,0.872 0.75867,0.34 1.53733,0.70267 2.28133,1.128 0.168,0.0947 0.60267,0.21067 0.468,0.636 -0.16,0.50134 -0.33466,0.996 -0.50266,1.48667 -0.28667,0.84 -0.57467,1.684 -0.86667,2.51867 -0.61067,1.75333 -1.188,3.53733 -1.80133,5.284 -0.28,0.79066 -0.548,1.59866 -0.82534,2.38933 -1.36133,3.85867 -2.67333,7.764 -4.04,11.62133 -0.43733,1.24267 -0.83866,2.528 -1.268,3.788 -0.10266,0.30267 -0.36266,0.35467 -0.55066,0.244 -0.28667,-0.17066 -0.192,-0.35733 -0.084,-0.68666 0.35866,-1.09867 0.72,-2.19067 1.088,-3.272 0.33466,-0.98267 0.696,-1.952 1.028,-2.93734 0.27866,-0.832 0.57333,-1.64533 0.85333,-2.472 0.572,-1.68933 1.16667,-3.37466 1.76133,-5.048 1.49867,-4.25466 2.92934,-8.59066 4.4,-12.87866 -0.26133,-0.15734 -0.54,-0.304 -0.812,-0.43467 -0.8,-0.392 -1.60933,-0.81867 -2.41866,-1.09733 -0.48134,-0.16934 -1.016,-0.38 -1.51334,-0.40134 -0.24266,-0.008 -0.304,0.0173 -0.49333,0.25334 -0.5,0.61333 -0.92667,1.42266 -1.324,2.20133 -0.75733,1.48933 -1.45733,3.108 -2.116,4.71067 -1.30667,3.188 -2.58133,6.41733 -3.89333,9.60933 -0.51334,1.25867 -1.004,2.54933 -1.528,3.796 -0.576,1.37733 -1.10667,2.80533 -1.66,4.20667 -0.25734,0.648 -0.47334,1.34933 -0.72667,1.99333 -0.116,0.28667 -0.352,0.30667 -0.532,0.20667 -0.316,-0.16667 -0.168,-0.45334 -0.06,-0.77734 0.31067,-0.93066 0.676,-1.852 1.02933,-2.744 0.972,-2.44666 1.944,-4.88666 2.92934,-7.31333 0.76133,-1.88933 1.54133,-3.76933 2.292,-5.67067 0.31066,-0.77466 0.62666,-1.55466 0.94266,-2.32666 0.96,-2.344 1.916,-4.64134 3.056,-6.79334 0.35867,-0.676 0.808,-1.40666 1.27467,-1.84666 0.23467,-0.22134 0.49067,-0.24534 0.76667,-0.24534" style="fill:#000000;fill-opacity:1;fill-rule:nonzero;stroke:none;stroke-width:1.33333"></path>
      <path id="path298" d="m 118.93231,593.99158 c 0.51066,-0.005 0.996,0.0533 1.46666,0.14 0.57467,0.1 1.13334,0.26534 1.63867,0.456 0.47467,0.176 0.92533,0.39467 1.32,0.62934 0.79333,0.47466 1.42267,1.01866 1.83333,1.632 0.0187,0.0227 0.0293,0.0293 0.0213,0.056 -0.0733,0.15733 -0.13734,0.31066 -0.21334,0.46933 -0.20533,-0.348 -0.47466,-0.688 -0.816,-1.004 -0.44666,-0.41867 -1.03066,-0.79467 -1.68933,-1.10667 -0.632,-0.29466 -1.396,-0.55333 -2.176,-0.696 -0.67467,-0.12266 -1.40667,-0.184 -2.10933,-0.0733 -0.304,0.048 -0.58267,0.132 -0.83334,0.24 0.0347,-0.15733 0.0693,-0.316 0.10534,-0.47867 0.008,-0.0267 -0.004,-0.0373 0.0427,-0.0533 0.42667,-0.148 0.92,-0.20533 1.40934,-0.21067" style="fill:#000000;fill-opacity:1;fill-rule:nonzero;stroke:none;stroke-width:1.33333"></path>
      <path id="path299" d="m 118.40551,596.50852 c 0.364,-0.007 0.71866,0.016 1.06133,0.0667 1.128,0.168 2.20533,0.588 3.056,1.16133 0.65067,0.44 1.20667,0.96667 1.52,1.572 0.11867,0.22667 0.208,0.45067 0.256,0.69067 0.0227,0.124 0.0387,0.252 0.0413,0.38267 0.003,0.14666 -0.0213,0.29466 -0.0507,0.432 -0.028,0.0893 -0.06,0.17066 -0.092,0.26266 -0.0333,0.0747 -0.0707,0.14 -0.11334,0.21334 -0.0387,0.0707 -0.0787,0.12133 -0.12933,0.184 -0.06,0.072 -0.11733,0.128 -0.184,0.19333 -0.16,0.156 -0.35467,0.28667 -0.576,0.392 -0.25333,0.132 -0.55333,0.22933 -0.84933,0.28667 -0.66267,0.124 -1.38267,0.11333 -2.04534,-0.005 -1.528,-0.27333 -2.86666,-0.94266 -3.80133,-1.888 -0.84,-0.85333 -1.30133,-2.10533 -0.472,-3.048 0.14,-0.156 0.31333,-0.30266 0.516,-0.41866 0.54,-0.316 1.18533,-0.464 1.86267,-0.47734 m 0.04,0.74 c -0.90134,0.0147 -1.86,0.324 -2.076,1.03067 -0.124,0.43467 0.0893,0.916 0.36266,1.29867 0.64934,0.904 1.94134,1.62266 3.25067,1.93866 0.52933,0.128 1.08267,0.196 1.652,0.17067 0.49867,-0.028 0.996,-0.13867 1.39333,-0.37867 0.24267,-0.14933 0.40667,-0.33466 0.496,-0.556 0.10534,-0.27066 0.076,-0.52933 -0.008,-0.80266 -0.0693,-0.21867 -0.21066,-0.46934 -0.372,-0.66134 -0.18133,-0.22133 -0.37733,-0.42533 -0.61333,-0.62133 -0.40267,-0.33467 -0.85333,-0.59333 -1.35733,-0.828 -0.56,-0.26133 -1.22667,-0.44267 -1.86,-0.53733 -0.28134,-0.0413 -0.57334,-0.056 -0.868,-0.0533" style="fill:#000000;fill-opacity:1;fill-rule:nonzero;stroke:none;stroke-width:1.33333"></path>
      <path id="path300" d="m 147.58204,598.97065 c -2.52534,0.59067 -5.10667,0.59067 -7.74134,0 -0.003,-3.232 0,-9.68266 0.003,-15.47333 2.5,-0.24667 4.98933,-0.68667 7.39867,-1.34267 0.30266,6.148 0.34266,13.34534 0.34,16.816" style="fill:#363636;fill-opacity:1;fill-rule:nonzero;stroke:none;stroke-width:1.33333"></path>
      <path id="path301" d="m 139.84631,571.93292 c 0,0 5.14,-0.95333 6.04,-0.10533 0.696,1.08933 1.10933,5.36933 1.35466,10.32667 -2.408,0.656 -4.89733,1.096 -7.39733,1.34266 0,-6.156 0.003,-11.564 0.003,-11.564" style="fill:#1c1c1c;fill-opacity:1;fill-rule:nonzero;stroke:none;stroke-width:1.33333"></path>
      <path id="path302" d="m 146.68551,602.13478 c -1.08267,0.42667 -3.532,0.684 -5.916,0.0133 -0.548,-0.15334 -0.90134,-0.332 -0.92267,-1.11467 0,-0.116 -0.003,-0.87067 -0.005,-2.06267 2.63466,0.59067 5.216,0.59067 7.74,0 0,1.19734 -0.0107,1.952 -0.0133,2.06267 -0.016,0.70133 -0.292,0.86933 -0.88266,1.10133" style="fill:#8f8f8f;fill-opacity:1;fill-rule:nonzero;stroke:none;stroke-width:1.33333"></path>
      <path id="path303" d="m 143.96937,571.11132 c 0.26133,-0.005 0.524,-0.005 0.78533,0.0173 0.42133,0.0373 0.85867,0.064 1.264,0.34266 0.092,0.0613 0.15067,0.10267 0.23467,0.25867 0.54266,1.01067 0.8,3.19333 0.99066,5.076 0.108,1.05733 0.192,2.212 0.256,3.308 0.108,1.748 0.19067,3.54933 0.24667,5.33733 0.0347,0.988 0.056,1.97867 0.0893,2.96667 0.024,0.99467 0.0347,1.99333 0.0587,2.98933 0.0173,0.69334 0.0107,1.404 0.0307,2.10134 0.0107,0.664 0.008,1.328 0.016,1.99466 0.016,1.264 0.0107,2.552 0.0107,3.81734 0,0.54533 -0.008,1.09466 -0.008,1.632 0,0.364 -0.0733,0.65866 -0.16533,0.83733 -0.0947,0.18267 -0.264,0.34267 -0.36933,0.40667 -0.36134,0.224 -0.73734,0.368 -1.112,0.45333 -0.73734,0.17867 -1.48267,0.27867 -2.236,0.27867 -0.548,0 -1.104,0.0133 -1.64934,-0.072 -0.376,-0.0653 -0.744,-0.104 -1.116,-0.19334 -0.388,-0.0907 -0.79333,-0.13866 -1.17733,-0.36666 -0.2,-0.116 -0.64267,-0.396 -0.64533,-1.32534 0,-0.508 -0.005,-1.00933 -0.005,-1.51466 0,-8.91067 0.008,-17.81734 0.008,-26.71867 0,-0.22267 -0.0107,-0.596 0,-0.79467 0.0173,-0.25333 0.192,-0.34 0.248,-0.36 0.39467,-0.1 0.79467,-0.10533 1.18934,-0.188 0.29066,-0.0627 0.59066,-0.0547 0.88266,-0.116 0.32134,-0.0653 0.64267,-0.0573 0.96134,-0.108 0.4,-0.0653 0.80933,-0.0307 1.212,-0.06 m 0.0213,0.73467 c -0.84,0.0187 -1.676,0.116 -2.508,0.21333 -0.292,0.0347 -0.58667,0.0627 -0.87467,0.13467 -0.12133,0.0307 -0.24,0.0387 -0.35733,0.0493 -0.0373,0.005 -0.0293,0.048 -0.0293,0.17067 0,1.39067 -0.003,2.788 -0.003,4.184 0,7.744 -0.003,15.49733 -0.003,23.25067 0,0.36 -0.005,0.82266 0.005,1.17466 0.0253,0.66934 0.324,0.65867 0.472,0.71734 0.352,0.132 0.71333,0.17333 1.07066,0.264 0.396,0.1 0.80134,0.1 1.20534,0.148 0.52933,0.0653 1.068,0.0173 1.60266,0.0173 0.40667,0 0.82534,-0.0787 1.23334,-0.16533 0.35066,-0.0733 0.69866,-0.184 1.048,-0.34267 0.12933,-0.0573 0.33466,-0.12667 0.35066,-0.67733 0.008,-0.41334 0.005,-0.88267 0.005,-1.304 0,-1.42667 0,-2.85467 -0.008,-4.27334 -0.0107,-1.176 -0.024,-2.35333 -0.0427,-3.51866 -0.036,-1.86534 -0.06,-3.71867 -0.128,-5.56 -0.0533,-1.652 -0.11067,-3.27467 -0.2,-4.90134 -0.124,-2.29066 -0.28533,-4.62666 -0.59067,-6.76533 -0.11866,-0.84 -0.34266,-1.984 -0.58,-2.472 -0.108,-0.22133 -0.32533,-0.22133 -0.452,-0.25733 -0.40133,-0.1 -0.812,-0.0627 -1.21733,-0.0867" style="fill:#000000;fill-opacity:1;fill-rule:nonzero;stroke:none;stroke-width:1.33333"></path>
      <path id="path304" d="m 139.88671,598.75198 c 0.27733,0.0587 0.56666,0.12134 0.86666,0.172 0.284,0.052 0.60534,0.1 0.92934,0.14 0.36666,0.044 0.72666,0.076 1.12266,0.10134 0.81867,0.048 1.64667,0.0267 2.41867,-0.0413 0.9,-0.0827 1.648,-0.22133 2.312,-0.372 0.016,0.0853 0.0293,0.172 0.056,0.256 0.0147,0.056 0.028,0.11067 0.036,0.164 0.003,0.005 0.0107,0.0147 -0.0107,0.0173 -0.0973,0.024 -0.184,0.0427 -0.28133,0.0613 -0.69333,0.148 -1.44667,0.27333 -2.37067,0.34133 -0.36133,0.0253 -0.78,0.0427 -1.16266,0.0427 -0.64534,0 -1.25067,-0.0293 -1.82667,-0.092 -0.572,-0.0587 -1.088,-0.13467 -1.56267,-0.22667 -0.19466,-0.0373 -0.38133,-0.0787 -0.56666,-0.11866 -0.0267,-0.005 -0.0573,-0.008 -0.0547,-0.0173 0.009,-0.0347 0.0133,-0.0667 0.028,-0.104 0.0267,-0.108 0.0373,-0.216 0.0667,-0.324" style="fill:#000000;fill-opacity:1;fill-rule:nonzero;stroke:none;stroke-width:1.33333"></path>
      <path id="path305" d="m 119.38017,572.46945 c 15.91733,-5.57066 25.59066,-4.61066 36.836,-3.696 1.13466,4.59067 1.40133,8.14934 1.40133,8.14934 0,0 -1.08267,-0.49467 -3.06133,-0.508 -0.11334,0 -1.03734,-4.39067 -3.91467,-4.18 -1.15867,0.0787 -2.312,1.172 -2.07733,3.85066 -1.676,-0.17866 -3.27467,-0.50266 -5.708,-0.25866 -0.604,-2.54534 -1.64934,-4.016 -4.25467,-3.85867 -3.09733,0.18667 -3.52667,3.272 -3.68267,4.744 -2.068,0.264 -4.19066,0.78 -5.50533,1.23867 -0.35867,-1.67867 -1.58,-3.472 -3.74,-2.87334 -2.07333,0.57867 -2.71867,2.14667 -2.98533,4.52134 -1.39067,0.25866 -3.14534,0.79733 -3.14534,0.79733 0,0 -0.39733,-3.37733 -0.16266,-7.92667" style="fill:#bbbbbb;fill-opacity:1;fill-rule:nonzero;stroke:none;stroke-width:1.33333"></path>
      <path id="path306" d="m 156.21671,568.77278 c -11.24667,-0.91466 -20.92,-1.87333 -36.836,3.696 0.356,-6.69733 2.09466,-15.93733 8.524,-20.67466 0.45866,0.8 1.27333,1.48666 2.34,2.00266 1.60133,0.76667 3.756,1.156 6.09733,0.97734 2.33467,-0.17867 4.408,-0.88267 5.872,-1.888 1.11333,-0.76 1.87333,-1.69334 2.128,-2.68133 6.87867,3.41599 10.25467,12.03466 11.87467,18.56799" style="fill:#f5f5f5;fill-opacity:1;fill-rule:nonzero;stroke:none;stroke-width:1.33333"></path>
      <path id="path307" d="m 136.34177,554.77412 c -2.34134,0.17867 -4.496,-0.21066 -6.096,-0.97733 -1.068,-0.516 -1.88267,-1.20267 -2.34134,-2.00267 1.692,-1.24266 3.704,-2.18 6.10267,-2.67066 4.11333,-0.848 7.516,-0.32 10.33467,1.08133 -0.25334,0.988 -1.01467,1.92133 -2.128,2.68133 -1.46267,1.00534 -3.53734,1.70934 -5.872,1.888" style="fill:#d1d1d1;fill-opacity:1;fill-rule:nonzero;stroke:none;stroke-width:1.33333"></path>
      <path id="path308" d="m 137.75644,548.34572 c 1.88,-0.007 3.70133,0.29734 5.40533,0.94134 4.10667,1.556 7.11467,4.864 9.04,8.20266 0.87733,1.51734 1.67067,3.064 2.28133,4.65067 0.416,1.084 0.804,2.148 1.16934,3.23867 0.87466,2.684 1.43866,5.41466 1.92266,8.17066 0.18534,1.07467 0.31867,2.18934 0.41467,3.272 0.028,0.29467 -0.16133,0.584 -0.56133,0.436 -0.83467,-0.31733 -1.86534,-0.476 -2.78134,-0.476 -0.43066,0 -0.456,-0.24266 -0.56133,-0.52933 -0.388,-1.052 -0.764,-2.10533 -1.64933,-2.97067 -0.42134,-0.40933 -1.14267,-0.772 -1.80667,-0.672 -1.52533,0.224 -1.71067,1.86134 -1.71067,2.91067 0,0.432 0.204,1.016 -0.56266,0.91733 -1.63334,-0.204 -3.19867,-0.39733 -4.89734,-0.29066 -0.368,0.0213 -0.84266,0.18266 -0.96133,-0.22667 -0.32133,-1.112 -0.632,-2.49467 -1.852,-3.2 -0.74267,-0.432 -2.03333,-0.51333 -2.85733,-0.23467 -1.88667,0.64 -2.22134,2.428 -2.45334,3.89867 -0.0707,0.448 0.0453,0.64 -0.568,0.72667 -1.56533,0.224 -2.996,0.54533 -4.50266,0.964 -0.484,0.13466 -1.08267,0.532 -1.24,-0.13067 -0.264,-1.12533 -1.12534,-2.84 -2.83467,-2.58533 -2.35467,0.348 -2.89467,2.33866 -3.09733,4.028 -0.048,0.42133 -0.0267,0.52133 -0.54,0.61866 -0.92534,0.172 -1.904,0.44534 -2.80534,0.72 -0.664,0.20267 -0.59066,-0.44 -0.62933,-0.79333 -0.048,-0.48667 -0.056,-0.972 -0.0987,-1.46 -0.0413,-0.48133 -0.068,-0.99067 -0.068,-1.48 0,-1.97333 -0.0293,-3.94267 0.13734,-5.88933 0.37333,-4.244 1.12933,-8.54267 3,-12.496 0.93733,-1.976 2.06533,-3.728 3.62933,-5.38934 2.928,-3.11866 7.40267,-4.856 12.03867,-4.872 m -0.15067,0.74534 c -2.444,0.0693 -4.836,0.52266 -6.99333,1.536 -5.816,2.72933 -8.38667,8.456 -9.67467,13.576 -0.456,1.80533 -0.73467,3.64133 -0.95333,5.5 -0.0773,0.63866 -0.13467,1.28666 -0.18,1.92666 -0.048,0.664 -0.0413,1.33734 -0.0973,1.996 -0.0347,0.36667 -0.003,0.75467 -0.0213,1.12267 -0.0307,0.67067 0.008,1.34 0.008,2.00667 0,1.05333 0.0973,2.132 0.18267,3.16133 0.78133,-0.23733 1.58,-0.424 2.38,-0.60667 0.148,-0.0333 0.10533,-0.11066 0.12133,-0.23066 0.25067,-1.892 0.956,-3.872 3.436,-4.41734 2.12533,-0.464 3.47067,1.30134 3.864,2.812 1.56133,-0.47066 3.15067,-0.848 4.77867,-1.06666 0.176,-0.0253 0.128,-0.0773 0.144,-0.21334 0.25333,-1.904 1.11466,-4.41866 3.86933,-4.58266 1.56533,-0.0947 2.732,0.25733 3.60667,1.40133 0.564,0.73733 0.83466,1.58933 1.072,2.42133 1.68266,-0.168 3.37733,0.02 5.01066,0.232 -0.12933,-1.62 0.67067,-4.20533 3.208,-3.76 1.93867,0.33734 2.90534,2.592 3.38934,3.98134 0.0693,0.20133 0.004,0.15733 0.26933,0.176 0.748,0.0493 1.45467,0.11866 2.16,0.31333 -0.272,-2.46133 -0.68533,-4.90533 -1.28267,-7.30533 -0.41066,-1.656 -0.87466,-3.30667 -1.46933,-4.928 -0.53867,-1.48267 -1.112,-2.916 -1.836,-4.35867 -1.848,-3.692 -4.71067,-7.684 -9.096,-9.56 -1.836,-0.78933 -3.82267,-1.164 -5.896,-1.13333" style="fill:#000000;fill-opacity:1;fill-rule:nonzero;stroke:none;stroke-width:1.33333"></path>
      <path id="path309" d="m 143.33204,567.70372 c 4.60933,-0.0187 8.81866,0.36934 13.044,0.708 -0.108,0.24267 -0.20534,0.48134 -0.316,0.71734 -2.776,-0.22134 -5.52934,-0.45734 -8.408,-0.58534 -2.82667,-0.13466 -5.548,-0.13866 -8.33467,0.0293 -2.56533,0.15866 -4.90267,0.476 -6.98,0.82666 -1.34133,0.232 -2.616,0.50134 -3.80133,0.776 -0.78,0.17734 -1.52,0.36667 -2.24134,0.556 -2.47866,0.64667 -4.62,1.34667 -6.69333,2.05867 -0.12667,-0.168 -0.23467,-0.34133 -0.36133,-0.50933 -0.0293,-0.0387 -0.12134,-0.11067 -0.0267,-0.14134 0.96667,-0.332 1.91333,-0.66666 2.95867,-0.99066 2.76533,-0.85067 5.768,-1.71067 9.56133,-2.392 3.296,-0.59334 7.22533,-1.05067 11.59867,-1.05334" style="fill:#000000;fill-opacity:1;fill-rule:nonzero;stroke:none;stroke-width:1.33333"></path>
      <path id="path310" d="m 159.84497,451.48505 c 2.26266,-4.87066 3.948,-8.44533 4.20933,-8.86133 0.91067,-1.44933 6.60933,0.79333 6.496,2.232 -0.0987,1.332 -1.38667,6.95067 -3.688,11.58667 -0.49867,-4.25067 -3.596,-5.79467 -7.01733,-4.95734" style="fill:#66e204;fill-opacity:1;fill-rule:nonzero;stroke:none;stroke-width:1.33333"></path>
      <path id="path311" d="m 159.84497,451.48505 c 3.42133,-0.83733 6.51866,0.70667 7.01733,4.95734 -0.61867,1.24133 -1.304,2.41333 -2.06533,3.41466 -4.08534,5.39467 -8.3,7.24267 -8.3,7.24267 l -4.064,7.6 c -0.85467,-0.31067 -1.81067,-0.59333 -2.824,-0.83467 2.94666,-6.428 6.21866,-13.72933 10.236,-22.38" style="fill:#f5f5f5;fill-opacity:1;fill-rule:nonzero;stroke:none;stroke-width:1.33333"></path>
      <path id="path312" d="m 152.43351,474.69985 -4.81334,9.85867 -2.42533,-1.21333 c 0,0 3.27467,-6.988 4.41467,-9.48 1.01333,0.24133 1.968,0.524 2.824,0.83466" style="fill:#d1d1d1;fill-opacity:1;fill-rule:nonzero;stroke:none;stroke-width:1.33333"></path>
      <path id="path313" d="m 165.24017,441.79238 c 0.944,0.032 1.912,0.21867 2.816,0.604 0.54266,0.23334 1.16933,0.48667 1.684,0.868 0.36533,0.26934 1.26133,0.85467 1.17733,1.67334 -0.072,0.7 -0.20933,1.404 -0.36933,2.068 -0.78267,3.21866 -1.77734,6.288 -3.06667,9.024 -0.58667,1.244 -1.288,2.57466 -2.036,3.59066 -0.75333,1.016 -1.548,2.028 -2.368,2.86934 -1.95733,2.00666 -4.04267,3.78266 -6.24267,4.86666 -0.14266,0.0747 -0.416,0.70134 -0.532,0.90934 -0.69466,1.29066 -1.38,2.59466 -2.07333,3.88533 -0.356,0.65867 -0.70267,1.34933 -1.064,1.988 -0.492,0.868 -0.91867,1.81867 -1.372,2.73467 l -2.46,5.032 c -0.44267,0.90266 -0.89333,1.80133 -1.328,2.71333 -0.13467,0.29733 -0.324,0.384 -0.548,0.276 -0.64533,-0.316 -1.312,-0.61867 -1.952,-0.972 -0.208,-0.11867 -0.87467,-0.24533 -0.61333,-0.81067 2.18133,-4.61733 4.32533,-9.28 6.456,-13.95866 1.02666,-2.25467 2.05466,-4.51334 3.08133,-6.77467 1.58933,-3.49067 3.18267,-6.98133 4.79733,-10.45067 1.44134,-3.1 2.87334,-6.23733 4.38,-9.26133 0.39334,-0.78933 1.05467,-0.856 1.63334,-0.87467 m -0.16267,0.73734 c -0.26667,0.068 -0.58533,0.0347 -0.772,0.42 -0.35067,0.72933 -0.71467,1.43066 -1.064,2.168 -2.136,4.51333 -4.244,9.056 -6.328,13.628 -0.98,2.15466 -1.96933,4.3 -2.94933,6.45866 -2.73467,6.00934 -5.464,12.044 -8.26934,17.97334 0.56667,0.25866 1.128,0.608 1.70134,0.856 0.08,0.0347 0.0893,-0.0413 0.14533,-0.152 0.51333,-1.016 1.012,-2.07467 1.51733,-3.11334 0.82934,-1.68933 1.644,-3.39733 2.48134,-5.08266 0.31866,-0.632 0.61733,-1.288 0.95866,-1.89067 0.36934,-0.64 0.71334,-1.33333 1.06667,-1.98933 0.428,-0.79467 0.88,-1.60134 1.28533,-2.42 0.256,-0.5 0.53334,-0.97467 0.79067,-1.47067 0.156,-0.31467 0.33733,-0.65333 0.50533,-0.948 0.148,-0.25867 0.672,-0.432 0.89867,-0.56667 1.71733,-1.016 3.42,-2.29066 4.98667,-3.89733 1.25333,-1.28267 2.50533,-2.732 3.556,-4.48667 1.16666,-1.96 2.05466,-4.12 2.88133,-6.47466 0.66667,-1.90267 1.204,-3.93467 1.608,-5.98934 0.0413,-0.19333 0.136,-0.68133 0.0707,-0.85466 -0.17467,-0.448 -0.93867,-0.9 -1.24134,-1.06934 -1.228,-0.664 -2.508,-1.10666 -3.82933,-1.09866" style="fill:#000000;fill-opacity:1;fill-rule:nonzero;stroke:none;stroke-width:1.33333"></path>
      <path id="path314" d="m 161.62431,451.04758 c 0.76133,0 1.49333,0.13867 2.18133,0.424 1.672,0.68534 2.612,2.14667 3.02667,3.65867 0.068,0.23467 0.11733,0.46667 0.16533,0.70533 0.008,0.0507 0.048,0.204 0.0293,0.244 -0.092,0.24934 -0.22933,0.49334 -0.348,0.73734 -0.005,-0.0827 -0.016,-0.16134 -0.024,-0.24 -0.0813,-0.67734 -0.216,-1.304 -0.45333,-1.94134 -0.32933,-0.89066 -0.932,-1.76533 -1.79867,-2.33866 -0.50133,-0.332 -1.09866,-0.59334 -1.70933,-0.704 -0.27733,-0.0453 -0.58,-0.0947 -0.86667,-0.0973 -0.20533,-0.003 -0.41333,-0.005 -0.62,0.009 -0.50533,0.028 -0.99466,0.11866 -1.47733,0.23733 0.064,-0.14933 0.13467,-0.29733 0.20133,-0.444 0.028,-0.0507 0.012,-0.0587 0.0787,-0.0747 0.51333,-0.124 1.06667,-0.17066 1.61467,-0.176" style="fill:#000000;fill-opacity:1;fill-rule:nonzero;stroke:none;stroke-width:1.33333"></path>
      <path id="path315" d="m 139.24151,448.43158 c -3.02934,-1.79866 -6.44267,-1.21733 -8.15334,2.70534 -0.85333,-5.104 -0.45733,-10.856 -0.17066,-12.16134 0.31333,-1.41066 6.42,-1.90133 6.86933,-0.25066 0.12667,0.47733 0.704,4.388 1.45467,9.70666" style="fill:#66e204;fill-opacity:1;fill-rule:nonzero;stroke:none;stroke-width:1.33333"></path>
      <path id="path316" d="m 142.63537,473.46545 c -0.99867,-0.11066 -1.99867,-0.15866 -2.968,-0.14266 l -1.76,-8.984 c 0,0 -3.49334,-2.99067 -5.83734,-9.33867 -0.43466,-1.176 -0.756,-2.49733 -0.98266,-3.86266 1.712,-3.92267 5.12533,-4.504 8.15466,-2.70534 1.328,9.40267 2.43467,17.992 3.39334,25.03333" style="fill:#f5f5f5;fill-opacity:1;fill-rule:nonzero;stroke:none;stroke-width:1.33333"></path>
      <path id="path317" d="m 139.66791,473.32225 c 0.96933,-0.016 1.96933,0.032 2.968,0.14267 0.372,2.764 1.376,9.70533 1.376,9.70533 l -2.67334,0.45734 z" style="fill:#d1d1d1;fill-opacity:1;fill-rule:nonzero;stroke:none;stroke-width:1.33333"></path>
      <path id="path318" d="m 134.75124,437.32612 c 0.0787,-0.0107 0.16266,-0.0227 0.23733,-0.0107 0.23467,0.0387 0.476,-0.008 0.71067,0.0387 0.47733,0.0853 0.95333,0.108 1.42533,0.30934 0.316,0.14 0.71067,0.26133 0.972,0.85466 0.0867,0.196 0.14,0.55067 0.18933,0.84934 0.364,2.244 0.69067,4.53333 1.012,6.81866 0.4,2.824 0.79067,5.65867 1.18267,8.48534 0.58933,4.22 1.13467,8.48266 1.712,12.70533 0.34267,2.512 0.66933,5.044 1.02133,7.55467 0.31467,2.29066 0.65467,4.552 0.97734,6.84 0.056,0.42266 0.14266,0.90133 0.188,1.32533 0.0333,0.308 -0.18134,0.42133 -0.24534,0.43467 -0.83066,0.144 -1.66,0.30266 -2.48933,0.424 -0.16,0.0267 -0.59333,0.18533 -0.68267,-0.31867 -0.092,-0.52667 -0.17066,-1.05867 -0.26,-1.59333 -0.41066,-2.52934 -0.81733,-5.052 -1.228,-7.57867 -0.176,-1.06267 -0.36133,-2.052 -0.56133,-3.056 -0.368,-1.83867 -0.71867,-3.72133 -1.08267,-5.55467 -0.084,-0.396 -0.16266,-0.88533 -0.24533,-1.24933 -0.0387,-0.15333 -0.19067,-0.22667 -0.25467,-0.28933 -0.80133,-0.76667 -1.61733,-1.78534 -2.38933,-2.91067 -0.848,-1.248 -1.668,-2.64933 -2.42533,-4.31733 -0.59067,-1.304 -1.14134,-2.74534 -1.552,-4.60934 -0.64267,-2.92933 -0.89067,-7.004 -0.71067,-10.47466 0.044,-0.88934 0.11067,-2.12267 0.26267,-2.912 0.14,-0.712 0.59466,-0.94534 0.83733,-1.07067 1.104,-0.58933 2.25733,-0.632 3.39867,-0.69467 m 0.0413,0.72667 c -0.908,0.068 -1.81467,0.0933 -2.70133,0.448 -0.22667,0.0893 -0.52,0.17333 -0.73334,0.43467 -0.13333,0.164 -0.19733,0.88266 -0.236,1.28 -0.45466,5.11333 -0.0587,10.93466 1.27467,14.58 1.22667,3.356 2.76267,5.83466 4.28533,7.692 0.484,0.588 0.98534,1.164 1.48534,1.588 0.116,0.10266 0.15066,0.39333 0.208,0.69866 0.35333,1.88267 0.732,3.74 1.09333,5.61334 0.272,1.412 0.55867,2.76266 0.788,4.26666 0.22133,1.43067 0.46533,2.84534 0.696,4.268 0.22533,1.38267 0.45467,2.752 0.67333,4.13734 0.0373,0.22933 0.0533,0.14266 0.132,0.12666 0.60667,-0.12933 1.22,-0.18666 1.828,-0.31333 -0.524,-3.64 -1.04,-7.328 -1.54133,-11 -0.376,-2.73867 -0.724,-5.51867 -1.104,-8.25333 -0.39467,-2.868 -0.76267,-5.776 -1.16667,-8.63867 -0.344,-2.44267 -0.67333,-4.91333 -1.024,-7.35867 -0.38,-2.67866 -0.75333,-5.392 -1.18266,-8.02533 -0.0533,-0.34267 -0.108,-0.772 -0.22667,-0.92 -0.288,-0.352 -0.688,-0.38667 -1.004,-0.468 -0.51067,-0.13733 -1.02933,-0.12667 -1.544,-0.156" style="fill:#000000;fill-opacity:1;fill-rule:nonzero;stroke:none;stroke-width:1.33333"></path>
      <path id="path319" d="m 136.02604,447.23758 c 1.16933,0.008 2.22,0.39734 3.11866,0.88267 0.032,0.02 0.056,0.0227 0.0613,0.052 0.016,0.17867 0.06,0.36 0.068,0.53733 -0.12934,-0.076 -0.25334,-0.14933 -0.38667,-0.22266 -0.99067,-0.53867 -2.16,-0.91467 -3.452,-0.77467 -0.784,0.0907 -1.51867,0.40267 -2.06933,0.79733 -1.16134,0.83734 -1.752,1.96 -2.216,3.03334 -0.036,-0.20667 -0.0653,-0.41467 -0.092,-0.62134 -0.008,-0.044 -0.0373,-0.176 -0.0187,-0.212 0.0507,-0.108 0.10133,-0.216 0.16133,-0.32133 0.29467,-0.52267 0.632,-1.05867 1.088,-1.53067 0.384,-0.39066 0.80267,-0.74533 1.35334,-1.03733 0.69066,-0.36933 1.504,-0.596 2.384,-0.58267" style="fill:#000000;fill-opacity:1;fill-rule:nonzero;stroke:none;stroke-width:1.33333"></path>
      <path id="path320" d="m 200.92831,520.88345 c 0.33733,-2.90266 -0.35067,-5.63066 -1.66267,-8.128 3.52133,2.712 6.10667,5.9 5.75333,9.31867 -0.416,4.12267 -4.72533,6.83733 -9.768,8.6 2.99334,-2.544 5.20534,-5.764 5.67734,-9.79067" style="fill:#66e204;fill-opacity:1;fill-rule:nonzero;stroke:none;stroke-width:1.33333"></path>
      <path id="path321" d="m 193.78191,509.21945 c 1.89733,1.05067 3.796,2.23867 5.484,3.536 1.312,2.49734 2,5.22534 1.66266,8.128 -0.472,4.02667 -2.684,7.24667 -5.67733,9.79067 -1.62,0.56933 -3.316,1.044 -4.98533,1.43333 6.15866,-6.32 0.40533,-8.36 0.732,-11.712 0.52666,-5.40666 5.54266,-7.12666 2.784,-11.176" style="fill:#bbbbbb;fill-opacity:1;fill-rule:nonzero;stroke:none;stroke-width:1.33333"></path>
      <path id="path322" d="m 182.53897,504.19212 c 0,0 2.27866,0.77467 5.38666,2.14534 2.68134,7.39333 1.23067,19.53066 -4.51466,27.00933 -3.04267,0.41067 -5.15734,0.52933 -5.15734,0.52933 z" style="fill:#d1d1d1;fill-opacity:1;fill-rule:nonzero;stroke:none;stroke-width:1.33333"></path>
      <path id="path323" d="m 183.41084,533.34705 c 5.74666,-7.47866 7.196,-19.61599 4.51466,-27.00933 1.77334,0.78134 3.812,1.75067 5.856,2.88134 2.76,4.04933 -2.25733,5.76933 -2.784,11.17599 -0.32666,3.35334 5.428,5.392 -0.73066,11.712 -2.46,0.56934 -4.86,0.972 -6.856,1.24" style="fill:#f5f5f5;fill-opacity:1;fill-rule:nonzero;stroke:none;stroke-width:1.33333"></path>
      <path id="path324" d="m 182.47977,503.83265 c 0.076,-0.016 0.15866,0.003 0.23466,0.0293 2.61067,0.908 5.208,2.02 7.736,3.232 2.27067,1.09466 4.568,2.29333 6.68134,3.708 1.116,0.74133 2.188,1.48533 3.224,2.35066 2.13866,1.78267 4.42,4.17467 4.96266,7.12934 0.52667,2.86666 -0.88266,5.27733 -2.892,7.00933 -1.54666,1.336 -3.50666,2.34267 -5.348,3.096 -3.82133,1.564 -7.876,2.43733 -11.89066,3.08533 -1.06667,0.17067 -2.136,0.292 -3.21334,0.436 -1.072,0.148 -2.17333,0.23067 -3.26133,0.316 -0.23733,0.0187 -0.592,0.088 -0.75867,-0.13066 -0.14133,-0.17334 -0.005,-0.71467 0.024,-0.94 0.12134,-0.84134 0.22934,-1.69734 0.364,-2.53467 0.19467,-1.21467 0.33467,-2.44267 0.52667,-3.66 0.28667,-1.81067 0.50267,-3.632 0.792,-5.44133 0.36133,-2.28934 0.63067,-4.60134 0.99333,-6.89334 0.24,-1.52 0.44,-3.056 0.66134,-4.58 0.25866,-1.792 0.54,-3.58666 0.77733,-5.38533 0.0387,-0.292 0.032,-0.784 0.38667,-0.82667 m 0.36933,0.86667 c -0.45867,2.97067 -0.84,5.96133 -1.29333,8.932 -0.172,1.10933 -0.33467,2.228 -0.48267,3.34 -0.31867,2.33733 -0.67333,4.67067 -1.00933,7 -0.21734,1.50933 -0.44934,3.016 -0.65467,4.52533 -0.14267,1.06134 -0.308,2.12267 -0.456,3.18134 -0.0893,0.6 -0.184,1.196 -0.25867,1.79733 3.22134,-0.24133 6.412,-0.67867 9.55734,-1.312 0.92933,-0.18667 1.83866,-0.40533 2.75733,-0.61467 1.52,-0.352 3.056,-0.83466 4.536,-1.36666 1.92,-0.68534 3.92533,-1.612 5.624,-2.856 1.96267,-1.43067 3.67733,-3.52134 3.49333,-6.25334 -0.18266,-2.64666 -2.10533,-4.968 -3.944,-6.61466 -0.67333,-0.60267 -1.34533,-1.152 -2.064,-1.688 -2.988,-2.236 -6.33333,-3.98267 -9.676,-5.54534 -2.01466,-0.94533 -4.072,-1.75733 -6.12933,-2.52533" style="fill:#000000;fill-opacity:1;fill-rule:nonzero;stroke:none;stroke-width:1.33333"></path>
      <path id="path325" d="m 199.45697,512.65692 c 0.0107,-0.012 0.0133,0.0133 0.0213,0.0267 0.18667,0.36667 0.376,0.75333 0.548,1.15333 0.692,1.552 1.26133,3.64667 1.20533,5.864 -0.0333,1.412 -0.28666,2.73734 -0.67333,3.88267 -0.74,2.19467 -1.836,3.78267 -2.916,5.04533 -0.54533,0.63467 -1.10933,1.18534 -1.668,1.70534 -0.0653,0.0613 -0.18667,0.19866 -0.25067,0.22133 -0.31733,0.0933 -0.632,0.16133 -0.94533,0.24 1.01733,-0.884 2.07067,-1.81733 3.02667,-3.07333 1.13866,-1.49467 2.34666,-3.424 2.81866,-6.28267 0.31867,-1.92 0.15334,-3.84 -0.33733,-5.55333 -0.32133,-1.13734 -0.75333,-2.13067 -1.216,-3.02534 0.12533,-0.0693 0.25467,-0.14266 0.38667,-0.204" style="fill:#000000;fill-opacity:1;fill-rule:nonzero;stroke:none;stroke-width:1.33333"></path>
      <path id="path326" d="m 193.35484,508.99278 c 0.27333,0.156 0.56133,0.27467 0.832,0.468 0.0587,0.04 0.184,0.312 0.23466,0.42267 0.26267,0.51333 0.5,1.336 0.36134,2.21067 -0.15334,0.976 -0.628,1.75066 -0.956,2.30133 -0.512,0.85733 -1.05734,1.61467 -1.54667,2.57467 -0.44267,0.87866 -0.904,1.94933 -1.056,3.40533 -0.0987,0.97333 0.344,1.81467 0.608,2.312 0.448,0.85733 0.97733,1.61333 1.328,2.78 0.23867,0.79067 0.24933,1.664 0.0387,2.49733 -0.26134,1.01867 -0.75067,1.788 -1.15067,2.372 -0.43467,0.63334 -0.904,1.17734 -1.36,1.65467 -0.0547,0.056 -0.18667,0.0613 -0.24933,0.0787 -0.18667,0.0533 -0.38267,0.0907 -0.56667,0.12 0.904,-0.95467 1.86533,-1.88667 2.62667,-3.556 0.332,-0.728 0.55066,-1.8 0.28133,-2.84934 -0.26133,-1.02666 -0.724,-1.76133 -1.104,-2.444 -0.24267,-0.44 -0.48933,-0.88 -0.69467,-1.46133 -0.18133,-0.508 -0.26133,-1.01333 -0.18266,-1.692 0.25066,-2.128 1.14933,-3.608 1.828,-4.72133 0.388,-0.63334 0.79333,-1.20934 1.16266,-1.91067 0.284,-0.52667 0.732,-1.47733 0.54534,-2.50267 -0.18267,-1.004 -0.63467,-1.51466 -0.98,-2.06" style="fill:#000000;fill-opacity:1;fill-rule:nonzero;stroke:none;stroke-width:1.33333"></path>
      <path id="path327" d="m 84.504566,514.24678 c -4.309333,-3.15333 -7.646666,-7.004 -6.855999,-11.07066 0.661333,-3.36667 4.058666,-5.66934 8.218666,-7.24267 -1.981333,2.01333 -3.433333,4.41867 -3.957333,7.29733 -0.713334,3.98934 0.472,7.70934 2.594666,11.016" style="fill:#66e204;fill-opacity:1;fill-rule:nonzero;stroke:none;stroke-width:1.33333"></path>
      <path id="path328" d="m 92.142566,494.13998 c -3.822666,3.07867 0.484,6.17734 -0.585333,11.50134 -0.662667,3.308 -6.618666,4.76 -2.697333,11.42133 -1.482667,-0.85867 -2.970667,-1.79733 -4.356,-2.816 -2.121333,-3.30667 -3.306667,-7.02533 -2.594667,-11.016 0.524,-2.87867 1.977334,-5.284 3.958667,-7.29733 1.990666,-0.75467 4.146666,-1.33734 6.274666,-1.79334" style="fill:#bbbbbb;fill-opacity:1;fill-rule:nonzero;stroke:none;stroke-width:1.33333"></path>
      <path id="path329" d="m 95.058566,520.24025 c -1.833333,-0.836 -4.009333,-1.91466 -6.198666,-3.17733 -3.921333,-6.66133 2.034666,-8.11333 2.697333,-11.42133 1.069333,-5.324 -3.237333,-8.424 0.585333,-11.50133 2.278667,-0.488 4.514667,-0.82667 6.44,-1.05867 -4.712,6.29733 -6.850666,18.336 -3.524,27.15866" style="fill:#f5f5f5;fill-opacity:1;fill-rule:nonzero;stroke:none;stroke-width:1.33333"></path>
      <path id="path330" d="m 95.058566,520.24025 c -3.326666,-8.82266 -1.188,-20.86133 3.524,-27.15866 3.369334,-0.408 5.774664,-0.48533 5.774664,-0.48533 l -4.51733,29.64533 c 0,0 -1.989334,-0.72667 -4.781334,-2.00134" style="fill:#d1d1d1;fill-opacity:1;fill-rule:nonzero;stroke:none;stroke-width:1.33333"></path>
      <path id="path331" d="m 104.31444,492.23638 c 0.256,-0.0427 0.456,0.18667 0.41066,0.45867 -0.184,1.064 -0.31866,2.14133 -0.492,3.208 -0.25066,1.54667 -0.48,3.10267 -0.70933,4.652 -0.36533,2.428 -0.748,4.84933 -1.11333,7.276 -0.23467,1.57467 -0.49067,3.144 -0.70934,4.71733 -0.116,0.83734 -0.26266,1.67334 -0.38666,2.51067 -0.14267,0.96133 -0.31067,1.92667 -0.44,2.892 -0.2,1.444 -0.45867,2.884 -0.664,4.33067 -0.0333,0.25466 -0.25867,0.38933 -0.489337,0.31866 -0.218667,-0.0693 -0.421333,-0.16533 -0.64,-0.248 -1.692,-0.656 -3.354666,-1.38266 -5.010666,-2.15733 -1.681334,-0.78533 -3.350667,-1.64533 -4.984,-2.56533 -1.514667,-0.856 -2.994667,-1.79334 -4.414667,-2.79734 -1.894666,-1.34666 -3.734666,-2.89466 -5.238666,-4.784 -1.784,-2.244 -2.969334,-5.152 -1.826667,-8.04666 1.006667,-2.55067 3.485333,-4.29734 5.766667,-5.39467 1.458666,-0.70133 2.947999,-1.27467 4.473333,-1.74 2.5,-0.77467 5.096,-1.32133 7.673333,-1.728 2.897333,-0.46533 5.82933,-0.76933 8.79467,-0.90267 m -0.46534,0.74934 c -3.472,0.184 -6.88933,0.636 -10.27333,1.24533 -2.313333,0.42133 -4.578667,1.02667 -6.822667,1.77733 -1.349333,0.45334 -2.713333,1.05334 -3.990666,1.75734 -1.430667,0.78533 -2.910667,1.912 -3.854667,3.33466 -1.38,2.07334 -1.24,4.52534 -0.084,6.67467 0.990667,1.83867 2.532,3.45067 4.093334,4.75733 0.924,0.76667 1.878666,1.49067 2.861333,2.16267 1.466666,1.00533 2.994666,1.91333 4.556,2.77333 2.996,1.652 6.082666,3.03734 9.198666,4.26534 0.938667,-5.95334 1.813337,-11.97867 2.745337,-17.96134 0.29733,-1.92133 0.592,-3.852 0.88,-5.77466 0.236,-1.57334 0.46666,-3.14534 0.71866,-4.708 0.008,-0.0467 0.0453,-0.23867 0.0373,-0.276 -0.0133,-0.0453 0.003,-0.0187 -0.0653,-0.028" style="fill:#000000;fill-opacity:1;fill-rule:nonzero;stroke:none;stroke-width:1.33333"></path>
      <path id="path332" d="m 85.700436,495.77932 c 0.110667,0.0907 0.218667,0.212 0.329334,0.30667 -0.816,0.83067 -1.628,1.80667 -2.362667,3.052 -0.898667,1.53333 -1.846667,3.91467 -1.730667,6.928 0.06,1.544 0.384,2.932 0.786667,4.07867 0.630667,1.80133 1.408,3.13066 2.202667,4.356 -0.216,-0.12134 -0.437334,-0.26134 -0.653334,-0.39467 -0.05467,-0.0373 -0.16,-0.0733 -0.205333,-0.13733 -0.08133,-0.12134 -0.16,-0.26267 -0.234667,-0.39067 -0.318666,-0.528 -0.637333,-1.13733 -0.924,-1.772 -0.445333,-0.988 -0.898666,-2.16267 -1.154666,-3.51733 -0.202667,-1.05067 -0.325334,-2.18 -0.257334,-3.37067 0.121334,-2.24267 0.706667,-3.90667 1.388,-5.27067 0.84,-1.67333 1.841334,-2.84 2.816,-3.868" style="fill:#000000;fill-opacity:1;fill-rule:nonzero;stroke:none;stroke-width:1.33333"></path>
      <path id="path333" d="m 92.568966,494.05398 c 0.01067,0 0.028,-0.0147 0.04133,-0.004 -0.141334,0.11467 -0.276,0.22134 -0.416,0.336 -0.405334,0.34267 -0.969334,0.86134 -1.253334,1.66267 -0.366666,1.02667 -0.129333,2.052 0.118667,3.04533 0.261333,1.056 0.597333,2.02 0.774667,3.192 0.16,1.08134 0.165333,2.052 -0.0053,3.13067 -0.172,1.07867 -0.642666,1.70267 -1.049333,2.23867 -0.813333,1.076 -1.732,1.816 -2.462667,3.16266 -0.458666,0.83867 -0.729333,1.99734 -0.44,3.30534 0.290667,1.32533 0.845334,2.24533 1.344,3.124 -0.148,-0.0653 -0.298666,-0.14934 -0.448,-0.22667 -0.06933,-0.0387 -0.26,-0.10533 -0.305333,-0.19067 -0.434667,-0.79866 -0.928,-1.81333 -1.104,-3.056 -0.213333,-1.48666 0.218667,-2.58266 0.702667,-3.42 0.541333,-0.94533 1.212,-1.60533 1.828,-2.32666 0.450666,-0.52534 0.962666,-1.084 1.309333,-1.95334 0.158667,-0.40266 0.250667,-1.06133 0.285333,-1.588 0.09733,-1.54666 -0.18,-2.72133 -0.512,-4.00133 -0.257333,-0.97733 -0.670666,-2.14933 -0.670666,-3.32933 0,-1.28267 0.594666,-2.09734 1.04,-2.58 0.08933,-0.096 0.245333,-0.28934 0.337333,-0.31734 0.294667,-0.0907 0.590667,-0.13733 0.885333,-0.204" style="fill:#000000;fill-opacity:1;fill-rule:nonzero;stroke:none;stroke-width:1.33333"></path>
      <path id="path334" d="m 135.87497,550.48118 c -12.412,-1.83866 -23.03067,-7.69333 -30.16534,-15.66266 -7.133329,-7.97467 -10.779996,-18.06667 -9.249329,-28.38267 1.533333,-10.32133 7.950669,-18.92533 17.093329,-24.48133 9.13734,-5.55733 20.99734,-8.072 33.412,-6.23067 12.412,1.84 23.032,7.692 30.168,15.66 7.13334,7.972 10.77867,18.06934 9.244,28.38534 -1.53066,10.32666 -7.95066,18.92266 -17.088,24.48266 -9.13866,5.55333 -21,8.07333 -33.41466,6.22933" style="fill:#f5f5f5;fill-opacity:1;fill-rule:nonzero;stroke:none;stroke-width:1.33333"></path>
      <path id="path335" d="m 138.46671,474.76758 c 6.44266,-0.0253 12.73066,0.96667 18.59733,3.06934 4.51733,1.62133 8.54533,3.62133 12.33067,6.256 2.17733,1.51733 4.05066,3.108 5.94533,4.88666 0.92933,0.868 1.70933,1.81334 2.54933,2.724 2.824,3.06534 5.00534,6.85067 6.59067,10.48934 0.78933,1.82133 1.46667,3.92666 1.85733,5.82666 1.86,9.01067 0.30267,17.74 -5.11066,25.68934 -6.032,8.848 -16.54534,14.868 -28.14267,16.956 -5.73733,1.03066 -12.02533,1.04133 -17.804,0.124 -2.81867,-0.45067 -5.85067,-1.13734 -8.532,-2.068 -2.74267,-0.956 -5.28533,-1.972 -7.824,-3.29467 -4.74133,-2.46667 -9.04533,-5.64 -12.576,-9.35333 -3.10267,-3.25334 -5.64133,-6.94134 -7.458666,-10.85334 -0.856,-1.864 -1.492,-3.756 -2.037333,-5.67866 -0.397334,-1.39334 -0.602667,-2.756 -0.826667,-4.18534 -0.534667,-3.39733 -0.286667,-6.944 0.289333,-10.29066 0.882667,-5.112 3.309334,-10.088 6.730663,-14.46534 3.79867,-4.86133 9.68134,-9.22533 15.828,-11.796 6.19067,-2.584 12.66,-4.01466 19.59334,-4.036 m -0.39467,0.72934 c -7.78133,0.196 -15.60533,1.96933 -22.216,5.59333 -5.03733,2.76133 -9.07467,6.04 -12.42667,10.27067 -2.80266,3.532 -4.563996,7.28266 -5.786663,11.32266 -0.685333,2.27067 -0.98,4.72134 -1.118666,7.08934 -0.153334,2.648 0.128,5.51333 0.676,8.052 0.282666,1.30533 0.666666,2.66933 1.112,3.944 0.645333,1.82533 1.444,3.61866 2.407999,5.364 5.152,9.34266 13.868,16.34133 24.968,20.44 4.78667,1.772 9.828,2.66 15.008,3.04 1.828,0.132 3.75333,0.14533 5.604,0.0547 4.084,-0.20133 7.84533,-0.832 11.696,-1.90666 2.716,-0.75867 5.292,-1.79334 7.78667,-3.01334 4.82666,-2.36266 9.13066,-5.624 12.468,-9.448 4.06933,-4.668 6.532,-9.98666 7.59866,-15.61333 1.09067,-5.74533 0.392,-12.05067 -1.79333,-17.46933 -0.796,-1.97334 -1.70667,-3.748 -2.81067,-5.65067 -0.94533,-1.62267 -2.076,-3.15467 -3.27466,-4.63333 -4.62,-5.696 -11.17867,-10.324 -18.44134,-13.36134 -3.76933,-1.57733 -7.77333,-2.70133 -11.83733,-3.36266 -3.13733,-0.51067 -6.344,-0.732 -9.62,-0.712" style="fill:#000000;fill-opacity:1;fill-rule:nonzero;stroke:none;stroke-width:1.33333"></path>
      <path id="path336" d="m 136.88991,536.18425 c -10.20934,-1.39866 -18.91867,-5.988 -24.74534,-12.27466 -5.82933,-6.288 -8.77333,-14.272 -7.45466,-22.464 1.32,-8.19333 6.652,-15.04933 14.204,-19.50267 7.55466,-4.452 17.33466,-6.50666 27.54666,-5.10533 10.21334,1.396 18.91867,5.988 24.74534,12.27733 5.832,6.28267 8.77466,14.272 7.45333,22.46934 -1.31467,8.19199 -6.644,15.04133 -14.204,19.49199 -7.55467,4.452 -17.33067,6.50934 -27.54533,5.108" style="fill:#bbbbbb;fill-opacity:1;fill-rule:nonzero;stroke:none;stroke-width:1.33333"></path>
      <path id="path337" d="m 139.09831,476.20372 c 10.53333,-0.244 21.02266,3.16134 28.52666,9.27734 6.26,5.09733 10.34267,11.72533 11.32,18.79733 0.0787,0.572 0.12667,1.136 0.168,1.72 0.0893,1.184 0.0867,2.4 -0.016,3.58 -0.29466,3.44267 -1.16933,6.764 -2.88133,9.92533 -3.08933,5.69067 -8.36933,10.51067 -15.044,13.53467 -3.52933,1.59333 -6.912,2.58267 -10.79333,3.24133 -3.30134,0.55334 -6.696,0.65867 -10.12134,0.45734 -7.66266,-0.44534 -15.63866,-2.972 -21.628,-7.04934 -1.508,-1.028 -2.964,-2.11733 -4.31066,-3.30933 -1.51867,-1.348 -2.97867,-2.88667 -4.14534,-4.43333 -1.97333,-2.616 -3.43866,-5.176 -4.53066,-8.09067 -0.756,-2.03467 -1.27334,-4.37867 -1.42267,-6.52133 -0.20267,-2.83867 0.0653,-5.53067 0.732,-8.24134 0.80133,-3.25866 2.40533,-6.30933 4.53067,-9.196 1.96,-2.66 4.7,-5.168 7.68933,-7.128 6.24533,-4.10133 13.956,-6.428 21.92667,-6.564 m 0.548,0.416 c -6.08,0.084 -11.83334,1.34134 -17.18534,3.728 -1.892,0.84267 -3.65333,1.872 -5.31866,2.98134 -5.052,3.38533 -8.748,7.932 -10.768,12.928 -2.61867,6.476 -2.292,13.91333 0.88533,20.22 3.93467,7.816 11.51067,14.25866 21.144,17.488 3.80933,1.27333 7.78667,2.1 11.89067,2.34 5.46,0.31866 10.568,-0.244 15.59866,-1.73867 4.12534,-1.22 8.32134,-3.28533 11.532,-5.73067 3.05867,-2.33066 5.65334,-4.988 7.49467,-8.028 1.08,-1.788 2.10267,-3.756 2.632,-5.668 0.46933,-1.70266 0.91867,-3.32533 1.048,-5.09733 0.14267,-1.93733 0.22133,-3.94933 -0.148,-5.86133 -0.10533,-0.54267 -0.16533,-1.08 -0.28667,-1.62267 -1.63066,-7.15867 -6.02933,-13.42267 -12.89333,-18.26933 -7.084,-5 -16.28533,-7.73067 -25.62533,-7.66934" style="fill:#000000;fill-opacity:1;fill-rule:nonzero;stroke:none;stroke-width:1.33333"></path>
      <path id="path338" d="m 138.05924,529.44212 c -8.05734,-1.104 -14.93067,-4.72533 -19.53467,-9.68 -4.60133,-4.96133 -6.92533,-11.26133 -5.888,-17.72266 1.04133,-6.46267 5.25067,-11.86533 11.21467,-15.376 5.95866,-3.51067 13.684,-5.13067 21.73733,-4.024 8.06267,1.10533 14.93467,4.72533 19.53467,9.68267 4.60666,4.96133 6.92933,11.25866 5.892,17.72 -1.04134,6.46266 -5.24934,11.86266 -11.216,15.37999 -5.96134,3.504 -13.676,5.13067 -21.74,4.02" style="fill:#2c2c2c;fill-opacity:1;fill-rule:nonzero;stroke:none;stroke-width:1.33333"></path>
      <path id="path339" d="m 139.91137,482.09185 c 10.81066,-0.26666 21.34266,4.49334 27.03733,12.04 1.56133,2.076 2.95733,4.56267 3.604,6.896 0.37333,1.32 0.748,2.65867 0.852,4.032 0.064,0.96 0.15067,1.98934 0.0693,2.96 -0.0693,0.85467 -0.14,1.756 -0.31866,2.59334 -0.59334,2.81066 -1.652,5.55866 -3.49867,8.06666 -1.904,2.584 -4.18533,4.70667 -7.13467,6.57467 -2.94666,1.87067 -6.83733,3.40533 -10.44533,4.07467 -1.54133,0.28666 -3.192,0.55333 -4.77867,0.62533 -1.204,0.06 -2.44666,0.0853 -3.656,0.028 -5.50266,-0.256 -10.63866,-1.54933 -15.33333,-4.02667 -8.35067,-4.40533 -13.75467,-11.93866 -14.12133,-19.96266 -0.2,-4.46667 1.088,-8.74267 3.81733,-12.59734 4.87733,-6.87866 14.29733,-11.21466 23.90667,-11.304 m 0.0293,0.42934 c -8.73467,0.13066 -17.11733,3.624 -22.25067,9.504 -1.528,1.74533 -2.69733,3.63733 -3.56133,5.65066 -3,6.964 -1.40933,15.12934 3.86133,21.156 0.512,0.59067 1.05067,1.16934 1.62,1.728 1.08,1.05334 2.276,2.008 3.53734,2.924 4.10266,2.96934 9.58933,5.04 14.92266,5.73467 3.72,0.48533 7.55734,0.47733 11.224,-0.19467 3.06934,-0.56533 5.85334,-1.496 8.604,-2.82133 5.26267,-2.53467 9.53734,-6.87067 11.52667,-11.55333 1.23467,-2.91067 1.82267,-6.00534 1.53733,-9.14667 -0.31066,-3.448 -1.38533,-6.62667 -3.41066,-9.71067 -1.224,-1.86533 -2.808,-3.752 -4.62267,-5.28133 -1.21733,-1.028 -2.47333,-2.00533 -3.86133,-2.85067 -3.32267,-2.03066 -6.79067,-3.424 -10.76934,-4.304 -1.24533,-0.27866 -2.53066,-0.49466 -3.816,-0.62533 -1.496,-0.152 -3.00533,-0.22 -4.54133,-0.20933" style="fill:#000000;fill-opacity:1;fill-rule:nonzero;stroke:none;stroke-width:1.33333"></path>
      <path id="path340" d="m 135.06444,513.28585 c -1.304,-0.19466 -2.236,-1.47333 -2.68667,-3.38 -0.44533,-1.90666 -0.40933,-4.45333 0.216,-7.172 0.62667,-2.71866 1.72267,-5.10266 2.98933,-6.75733 1.264,-1.65333 2.70267,-2.57866 4.012,-2.38266 1.30934,0.192 2.24134,1.46666 2.68667,3.37866 0.448,1.908 0.41067,4.44933 -0.21333,7.16933 -0.624,2.716 -1.72534,5.1 -2.99467,6.75734 -1.26,1.652 -2.7,2.58133 -4.00933,2.38666" style="fill:#4ae1ff;fill-opacity:1;fill-rule:nonzero;stroke:none;stroke-width:1.33333"></path>
      <path id="path341" d="m 148.01951,515.20772 c -1.30934,-0.19866 -2.416,-1.50133 -3.148,-3.45066 -0.732,-1.952 -1.09067,-4.54934 -0.9,-7.33334 0.18933,-2.784 0.89733,-5.22666 1.87733,-6.91866 0.98,-1.70533 2.244,-2.65333 3.55333,-2.45733 1.304,0.19066 2.41067,1.49733 3.14534,3.44533 0.728,1.952 1.088,4.55466 0.896,7.336 -0.18667,2.78 -0.89334,5.22666 -1.87334,6.92133 -0.98266,1.696 -2.24133,2.64933 -3.55066,2.45733" style="fill:#4ae1ff;fill-opacity:1;fill-rule:nonzero;stroke:none;stroke-width:1.33333"></path>
      <path id="path342" d="m 83.856036,525.05278 c -0.305333,-0.31333 0.06267,-1.58533 0.926667,-2.344 0.950667,-0.82933 2.421333,-1.124 2.657333,-0.79466 0.446667,0.62933 6.945333,9.816 6.945333,9.816 -0.346666,1.16 -1.089333,1.8 -2.234666,1.91066 0,0 -7.644,-7.91866 -8.294667,-8.588" style="fill:#f5f5f5;fill-opacity:1;fill-rule:nonzero;stroke:none;stroke-width:1.33333"></path>
      <path id="path343" d="m 87.061106,521.41478 c 0.068,-0.003 0.132,0.009 0.2,0.02 0.126667,0.0147 0.181334,0.0507 0.3,0.116 0.124,0.072 0.158667,0.11334 0.245334,0.23467 0.485333,0.68 0.964,1.364 1.448,2.044 1.753333,2.468 3.493333,4.95067 5.250666,7.42533 0.121334,0.17467 0.305334,0.348 0.237334,0.588 -0.153334,0.54534 -0.453334,1.09067 -0.861334,1.45467 -0.156,0.14133 -0.298666,0.244 -0.477333,0.34667 -0.357333,0.21066 -0.732,0.30133 -1.122667,0.36133 -0.294666,0.044 -0.376,-0.072 -0.570666,-0.28133 -0.450667,-0.48 -0.921334,-0.948 -1.373334,-1.42534 -0.473333,-0.50533 -0.962666,-0.99333 -1.442666,-1.49066 -0.378667,-0.39334 -0.758667,-0.78267 -1.137334,-1.18 -0.517333,-0.55067 -1.046666,-1.092 -1.573333,-1.632 -0.453333,-0.46534 -0.916,-0.93334 -1.366667,-1.408 -0.337333,-0.356 -0.685333,-0.70134 -1.02,-1.06 -0.07333,-0.0827 -0.197333,-0.184 -0.254666,-0.27867 -0.08267,-0.128 -0.14,-0.264 -0.150667,-0.41733 -0.008,-0.136 -0.01067,-0.30934 0.01067,-0.43867 0.224,-1.104 0.977333,-2.01333 1.909333,-2.492 0.553333,-0.28133 1.134667,-0.48667 1.749333,-0.48667 m -0.09467,0.74134 c -0.732,0.0653 -1.485334,0.404 -2.049334,0.93866 -0.374666,0.35334 -0.753333,1.02 -0.790666,1.556 -0.01333,0.19067 0.07333,0.21467 0.181333,0.332 0.261333,0.292 0.545333,0.55334 0.812,0.84534 0.385333,0.412 0.790667,0.80666 1.177333,1.21733 0.266667,0.284 0.545334,0.56133 0.816,0.84 0.52,0.536 1.033334,1.084 1.56,1.61333 0.494667,0.49867 0.972,1.024 1.466667,1.52 0.272,0.276 0.536,0.568 0.809333,0.84534 0.394667,0.40266 0.790667,0.80666 1.18,1.21733 0.03867,0.0413 0.137334,0.168 0.178667,0.168 0.088,-0.003 0.226667,-0.0507 0.314667,-0.0733 0.381333,-0.1 0.726666,-0.35334 0.986666,-0.67734 0.158667,-0.19733 0.258667,-0.43466 0.356,-0.672 0.016,-0.0493 -0.01067,-0.0587 -0.04133,-0.1 -2.213333,-3.11733 -4.408,-6.256 -6.628,-9.37466 -0.04533,-0.068 -0.1,-0.188 -0.178667,-0.19334 -0.048,-0.003 -0.101333,-0.003 -0.150666,-0.003" style="fill:#000000;fill-opacity:1;fill-rule:nonzero;stroke:none;stroke-width:1.33333"></path>
      <path id="path344" d="m 78.380836,534.34305 c -0.424,-0.128 -0.732,-1.41333 -0.353333,-2.50266 0.417333,-1.18667 1.557333,-2.172 1.925333,-1.99867 0.698667,0.32667 10.918667,4.97867 10.918667,4.97867 0.269333,1.18 -0.06533,2.104 -1.008,2.768 0,0 -10.589333,-2.984 -11.482667,-3.24534" style="fill:#f5f5f5;fill-opacity:1;fill-rule:nonzero;stroke:none;stroke-width:1.33333"></path>
      <path id="path345" d="m 79.730436,529.46945 c 0.133334,0.005 0.276,-0.0133 0.384,0.0373 0.653334,0.30533 1.309334,0.59733 1.96,0.9 1.578667,0.72266 3.169334,1.436 4.749334,2.15866 1.285333,0.596 2.581333,1.17467 3.866666,1.76934 0.232,0.10666 0.472,0.16666 0.532,0.36533 0.072,0.23467 0.09333,0.49867 0.108,0.74133 0.04,0.756 -0.238667,1.62267 -0.966667,2.22267 -0.125333,0.10267 -0.344,0.34 -0.584,0.28267 -0.145333,-0.0347 -0.3,-0.0827 -0.448,-0.12534 -3.655999,-1.02666 -7.319999,-2.05733 -10.969333,-3.096 -0.141333,-0.04 -0.178666,-0.072 -0.284,-0.136 -0.170666,-0.11733 -0.266666,-0.26533 -0.337333,-0.41733 -0.168,-0.35867 -0.254667,-0.75733 -0.254667,-1.14133 0,-0.456 0.03333,-0.89067 0.197334,-1.32 0.229333,-0.61067 0.602666,-1.228 1.185333,-1.75334 0.14,-0.12133 0.324,-0.27733 0.518667,-0.36933 0.09733,-0.048 0.229333,-0.10533 0.342666,-0.11867 m 0.08933,0.732 c -0.377334,0.184 -0.624,0.46267 -0.842667,0.724 -0.534667,0.64134 -0.745333,1.30267 -0.745333,2.032 0,0.31867 0.05467,0.68667 0.226666,0.984 0.052,0.0773 0.265334,0.11467 0.384,0.14534 2.465334,0.704 4.938667,1.39333 7.406667,2.09733 1.162667,0.32933 2.334666,0.65867 3.504,0.98533 0.05733,0.016 0.06,-0.007 0.092,-0.0373 0.316,-0.28667 0.524,-0.556 0.637333,-0.89733 0.092,-0.28 0.118667,-0.56134 0.09733,-0.85467 -0.0093,-0.0947 -0.016,-0.184 -0.03333,-0.27733 -0.0053,-0.0333 -0.056,-0.048 -0.105333,-0.068 -0.574667,-0.25467 -1.138667,-0.51867 -1.710667,-0.77867 -1.318666,-0.60933 -2.66,-1.20133 -3.972,-1.812 -0.545333,-0.256 -1.110666,-0.5 -1.658666,-0.756 -0.750667,-0.348 -1.508,-0.68533 -2.264,-1.03067 -0.278667,-0.12666 -0.576,-0.25066 -0.842667,-0.38533 -0.052,-0.0253 -0.102667,-0.0733 -0.173333,-0.0707" style="fill:#000000;fill-opacity:1;fill-rule:nonzero;stroke:none;stroke-width:1.33333"></path>
      <path id="path346" d="m 79.925106,529.47465 c 0.03733,0.003 0.07333,0.0107 0.110667,0.0147 0.113333,0.0107 0.205333,0.11867 0.297333,0.20667 0.05067,0.0547 0.1,0.116 0.150667,0.17866 0.052,0.0627 0.09467,0.12667 0.14,0.196 0.04667,0.0733 0.08133,0.144 0.125333,0.216 0.04,0.0827 0.07467,0.15867 0.113334,0.24667 0.02933,0.0733 0.05333,0.14267 0.07467,0.224 0.028,0.0827 0.04133,0.16267 0.06,0.24533 0.016,0.084 0.02667,0.16 0.03867,0.24 0.0067,0.0787 0.0067,0.15067 0.0093,0.236 0.0053,0.068 0,0.12934 -0.0027,0.19867 -0.0053,0.10267 -0.016,0.196 -0.032,0.292 -0.0053,0.068 -0.02133,0.128 -0.03467,0.19867 -0.02933,0.13066 -0.06267,0.25866 -0.108,0.38533 -0.116,0.31867 -0.250667,0.60133 -0.416,0.87733 -0.04,0.072 -0.08933,0.14267 -0.137333,0.21334 -0.09467,0.14 -0.2,0.264 -0.305334,0.38 -0.056,0.068 -0.116,0.12133 -0.178666,0.17866 -0.06133,0.06 -0.126667,0.108 -0.194667,0.156 -0.06667,0.0547 -0.137333,0.0947 -0.210667,0.14134 -0.08133,0.048 -0.161333,0.0773 -0.242666,0.11333 -0.05333,0.024 -0.105334,0.0373 -0.158667,0.0547 -0.05467,0.012 -0.12,0.0347 -0.170667,0.04 -0.06533,0.008 -0.132,0.016 -0.197333,0.02 -0.06933,0.007 -0.134667,0 -0.204,-0.004 -0.08667,-0.008 -0.157333,-0.0187 -0.238667,-0.0613 -0.04,-0.0227 -0.072,-0.0653 -0.113333,-0.104 -0.032,-0.0293 -0.04533,-0.08 -0.06667,-0.12933 -0.01467,-0.0373 -0.012,-0.084 -0.01467,-0.12933 -0.0027,-0.052 0.01467,-0.1 0.03067,-0.14267 0.01067,-0.0333 0.07467,-0.12267 0.09733,-0.13333 0.032,-0.0133 0.08533,-0.0507 0.118666,-0.0533 0.056,-0.005 0.106667,-0.003 0.166667,0.003 0.05467,0.005 0.113333,0.024 0.165333,0.0213 0.04267,-0.005 0.1,-0.005 0.14,-0.016 0.044,-0.0107 0.09733,-0.0227 0.14,-0.0373 0.09467,-0.036 0.197334,-0.084 0.284,-0.14933 0.08933,-0.0627 0.197334,-0.148 0.274667,-0.23467 0.16,-0.172 0.313333,-0.376 0.433333,-0.6 0.188,-0.34667 0.356,-0.71733 0.416,-1.144 0.0093,-0.0733 0.016,-0.13867 0.01867,-0.21067 0.0053,-0.056 0,-0.11333 0,-0.16666 0,-0.068 -0.0093,-0.12267 -0.01733,-0.184 -0.01067,-0.0733 -0.02667,-0.168 -0.04533,-0.24134 -0.016,-0.0533 -0.036,-0.12 -0.05467,-0.17066 -0.048,-0.11734 -0.104,-0.24667 -0.169334,-0.344 -0.052,-0.0733 -0.09733,-0.136 -0.150666,-0.20934 -0.08667,-0.10533 -0.194667,-0.172 -0.262667,-0.296 -0.02133,-0.0387 -0.024,-0.092 -0.032,-0.13466 -0.008,-0.0413 0.01333,-0.084 0.01867,-0.12534 0.01333,-0.0427 0.04533,-0.08 0.07067,-0.116 0.032,-0.0347 0.06133,-0.0573 0.09867,-0.08 0.05467,-0.0373 0.109333,-0.04 0.165333,-0.06" style="fill:#000000;fill-opacity:1;fill-rule:nonzero;stroke:none;stroke-width:1.33333"></path>
      <path id="path347" d="m 99.454436,533.52145 c 0.48,0.53467 -0.378666,3.03734 -2.428,5.092 -2.078666,2.09067 -4.470666,2.588 -5.382666,2.02534 -0.829333,-0.50934 -0.618667,-2.59334 2.178667,-5.39067 2.262666,-2.26267 5.002666,-2.42267 5.631999,-1.72667" style="fill:#5e5e5e;fill-opacity:1;fill-rule:nonzero;stroke:none;stroke-width:1.33333"></path>
      <path id="path348" d="m 91.643236,540.63865 c 0.913334,0.56267 3.305334,0.0653 5.384,-2.02533 2.049334,-2.05467 2.908,-4.55733 2.426667,-5.092 0.450666,0.42933 2.065337,3.07067 5.599997,6.48 1.50934,1.45867 3.36667,3.056 5.62667,4.68267 0.176,0.124 0.35333,0.24933 0.53467,0.37733 1.50933,1.05067 3.06933,2.00667 4.59333,2.84933 2.18933,1.21467 4.28933,2.208 6.00933,2.96534 2.36267,1.036 4.004,1.62933 4.17467,1.74533 0.37333,0.26267 1.80667,1.44533 1.13467,3.656 -0.61867,2.03333 -2.56267,2.06 -3.38134,1.988 -0.76133,-0.0707 -2.53733,-0.38933 -4.87866,-1.04 -1.78,-0.48933 -3.88534,-1.17067 -6.11467,-2.068 -2.03867,-0.824 -4.18267,-1.83067 -6.276,-3.05067 -0.23733,-0.14133 -0.472,-0.27733 -0.70667,-0.416 -2.68666,-1.60666 -5.06,-3.276 -7.06133,-4.82 -4.088,-3.15333 -6.612,-5.77466 -7.065334,-6.232" style="fill:#8f8f8f;fill-opacity:1;fill-rule:nonzero;stroke:none;stroke-width:1.33333"></path>
      <path id="path349" d="m 98.209636,532.79358 c 0.624,-0.009 1.204,0.13467 1.553334,0.51334 0.396,0.43733 0.73867,0.93866 1.08667,1.39866 1.50666,1.99467 3.21333,3.89334 5.144,5.68 2.14933,1.98267 4.57466,3.864 7.23066,5.55867 1.28267,0.824 2.62934,1.58267 4.004,2.312 0.88,0.46667 1.79067,0.90133 2.69734,1.34667 1.62,0.8 3.36133,1.49866 5.08133,2.20133 0.348,0.14 0.96667,0.34267 1.23067,0.53733 1.02133,0.74534 1.50133,1.90934 1.43466,2.92534 -0.0573,0.86266 -0.29466,1.93733 -1.124,2.61733 -1.352,1.10667 -3.00666,0.79067 -4.72533,0.44533 -2.88,-0.57733 -5.72533,-1.488 -8.40133,-2.51066 -1.25334,-0.47867 -2.512,-0.99867 -3.68,-1.568 -1.86534,-0.908 -3.61867,-1.88267 -5.328,-2.94934 -2.05734,-1.28533 -4.04134,-2.67866 -5.90667,-4.10666 -0.969334,-0.75067 -1.906667,-1.51734 -2.82,-2.28934 -1.2,-1.016 -2.3,-2.05466 -3.414667,-3.11066 -0.316,-0.29467 -0.593333,-0.63467 -0.928,-0.91067 -0.449333,-0.372 -0.550666,-0.96 -0.502666,-1.436 0.174666,-1.63867 1.565333,-3.33467 2.915999,-4.65467 1.017334,-0.99866 2.677334,-1.952 4.452,-2 m -0.153333,0.74 c -2.62,0.26934 -4.226667,2.08934 -5.378666,3.61467 -0.582667,0.772 -1.105334,1.77467 -1.085334,2.64267 0.0027,0.224 0.08133,0.38933 0.284,0.56 0.221334,0.196 0.422667,0.42533 0.638667,0.632 0.764,0.73066 1.501333,1.44933 2.301333,2.16 4.297333,3.83333 9.325337,7.516 14.995997,10.31066 0.46134,0.22667 0.94934,0.456 1.43067,0.664 1.916,0.83467 3.888,1.58 5.95333,2.236 1.72,0.54534 3.49067,1.004 5.28934,1.35067 1.27733,0.24133 2.69733,0.43067 3.62533,-0.43333 0.91067,-0.83734 1.016,-2.416 0.51067,-3.36667 -0.208,-0.38267 -0.52667,-0.828 -1.03067,-1.05867 -0.592,-0.264 -1.24267,-0.49866 -1.85333,-0.74533 -2.49734,-1.02267 -4.83734,-2.13467 -7.14934,-3.34133 -1.512,-0.78667 -2.956,-1.65067 -4.352,-2.55734 -4.37733,-2.84266 -7.93333,-6.11866 -10.90266,-9.67466 -0.70934,-0.84534 -1.34267,-1.72534 -2.012004,-2.58934 -0.28,-0.36133 -0.629333,-0.404 -1.185333,-0.404 z" style="fill:#000000;fill-opacity:1;fill-rule:nonzero;stroke:none;stroke-width:1.33333"></path>
      <path id="path350" d="m 99.365236,533.18158 c 0.04933,0.008 0.105334,-0.008 0.156,0.003 0.08667,0.0253 0.170667,0.0653 0.230667,0.136 0.056,0.064 0.148,0.24267 0.164,0.32133 0.01867,0.0773 0.032,0.18267 0.03467,0.25867 0.0027,0.0813 0.0027,0.19467 -0.004,0.27733 -0.01733,0.16534 -0.044,0.32667 -0.08,0.48667 -0.134667,0.58 -0.401334,1.168 -0.693334,1.70933 -0.245333,0.45867 -0.545333,0.92 -0.864,1.33067 -0.445333,0.58 -0.953333,1.164 -1.530666,1.65333 -0.690667,0.57867 -1.422667,1.084 -2.273334,1.436 -0.666666,0.272 -1.390666,0.46667 -2.130666,0.42 -0.194667,-0.009 -0.353333,-0.0373 -0.54,-0.0907 -0.142667,-0.044 -0.290667,-0.10534 -0.413333,-0.18667 -0.056,-0.0373 -0.14,-0.15733 -0.142667,-0.21867 0,-0.072 -0.0053,-0.11733 0.016,-0.19466 0.02667,-0.092 0.076,-0.156 0.162667,-0.20934 0.05867,-0.0427 0.08667,-0.0387 0.153333,-0.0493 0.08933,-0.016 0.178667,0.032 0.256,0.072 0.426667,0.21867 1.005333,0.16 1.461333,0.0547 1.304,-0.29867 2.505333,-1.09867 3.426667,-2.028 0.213333,-0.212 0.413333,-0.42934 0.601333,-0.65467 0.656,-0.792 1.250667,-1.688 1.609333,-2.64533 0.129334,-0.36267 0.284,-0.81467 0.237334,-1.2 -0.0093,-0.0707 -0.064,-0.14134 -0.09867,-0.20134 -0.04667,-0.0853 -0.04667,-0.11333 -0.04667,-0.20133 0.0027,-0.0733 0.05467,-0.14267 0.110667,-0.18667 0.06267,-0.0493 0.116,-0.072 0.197333,-0.092" style="fill:#000000;fill-opacity:1;fill-rule:nonzero;stroke:none;stroke-width:1.33333"></path>
      <path id="path351" d="m 115.48697,547.72985 c 0.20266,0.11334 0.40533,0.21867 0.60533,0.35067 0.0453,0.024 0.0373,0.0187 0.0587,0.0773 0.24,0.64134 0.35733,1.30267 0.35333,2.024 -0.003,0.37467 -0.0453,0.732 -0.124,1.08134 -0.12133,0.53866 -0.30267,1.016 -0.54533,1.46933 -0.456,0.848 -1.11734,1.52533 -1.79467,1.984 -0.26,0.18133 -0.53733,0.34933 -0.808,0.47333 -0.0453,0.0187 -0.148,0.08 -0.19067,0.0693 -0.19733,-0.0587 -0.39733,-0.14267 -0.592,-0.22134 0.96934,-0.356 1.92534,-0.96533 2.65067,-1.97866 0.72667,-1.00667 1.124,-2.352 0.89067,-3.772 -0.088,-0.56134 -0.28,-1.072 -0.50667,-1.55734 0,-0.003 0.003,-0.003 0.003,0" style="fill:#000000;fill-opacity:1;fill-rule:nonzero;stroke:none;stroke-width:1.33333"></path>
      <path id="path352" d="m 110.43231,544.49545 c 0.152,0.11334 0.30266,0.232 0.45333,0.348 0.0413,0.0293 0.0493,0.0267 0.0573,0.0827 0.0533,0.47333 0.0507,0.97067 -0.0133,1.43067 -0.0627,0.5 -0.168,0.95066 -0.33467,1.42133 -0.42133,1.20133 -1.18,2.21067 -2.09066,2.916 -0.68,0.53467 -1.47067,0.916 -2.25067,1.112 -0.0467,0.0133 -0.17067,0.056 -0.20933,0.0387 -0.188,-0.0893 -0.37467,-0.21867 -0.56,-0.32 0.388,-0.0773 0.77733,-0.168 1.15733,-0.304 0.94267,-0.34 1.84133,-0.94 2.536,-1.804 0.572,-0.704 0.97467,-1.54134 1.19867,-2.47867 0.18533,-0.78267 0.20133,-1.64667 0.0533,-2.44 -0.003,-0.003 0,-0.009 0.003,-0.003" style="fill:#000000;fill-opacity:1;fill-rule:nonzero;stroke:none;stroke-width:1.33333"></path>
      <path id="path353" d="m 104.83791,539.79358 c 0.12666,0.12534 0.26266,0.25067 0.392,0.37867 0.016,0.0213 0.04,0.0307 0.04,0.0587 -0.0107,0.16266 -0.024,0.324 -0.04,0.484 -0.0787,0.61466 -0.24667,1.26133 -0.48667,1.83333 -0.22667,0.532 -0.496,1.032 -0.828,1.49067 -0.53733,0.74133 -1.208,1.4 -1.96133,1.888 -0.88534,0.57333 -1.81067,0.94133 -2.81867,1.112 -0.04533,0.007 -0.145333,0.0347 -0.18,0.009 -0.173333,-0.11333 -0.336,-0.25067 -0.505333,-0.36667 0.369333,-0.0427 0.74,-0.0933 1.098666,-0.184 0.284,-0.0653 0.581337,-0.15066 0.847997,-0.26133 0.332,-0.136 0.66934,-0.28133 0.98,-0.472 0.34,-0.20267 0.66934,-0.436 0.97734,-0.692 1.008,-0.84533 1.78,-1.98667 2.18133,-3.272 0.20267,-0.64533 0.3,-1.31067 0.30267,-2.00667" style="fill:#000000;fill-opacity:1;fill-rule:nonzero;stroke:none;stroke-width:1.33333"></path>
      <path id="path354" d="m 121.58071,550.76758 c 0.15466,0.0707 0.30533,0.13867 0.456,0.212 0.0187,0.009 0.0213,0 0.0213,0.02 0.012,0.06 0.0147,0.148 0.02,0.21067 0.0507,0.57733 0.008,1.152 -0.0973,1.7 -0.10267,0.55867 -0.308,1.12667 -0.53467,1.59067 -0.23733,0.47733 -0.51867,0.924 -0.824,1.30933 -0.42133,0.54 -0.88267,1.004 -1.36933,1.396 -0.032,0.0253 -0.0907,0.0947 -0.12267,0.084 -0.17867,-0.044 -0.36267,-0.084 -0.53867,-0.132 0.73467,-0.54533 1.424,-1.19867 2.00934,-2.07733 0.596,-0.896 1.05333,-2.052 1.05333,-3.34667 0,-0.33467 -0.0267,-0.652 -0.076,-0.96667 0,-0.003 0.003,-0.003 0.003,0" style="fill:#000000;fill-opacity:1;fill-rule:nonzero;stroke:none;stroke-width:1.33333"></path>
      <path id="path355" d="m 96.705636,531.03585 c 0.653334,0.0533 1.264,-0.16 1.730667,-0.55066 0.385333,-0.31867 0.672,-0.76134 0.794667,-1.26934 0,0 -0.870667,4.98667 -1.086667,5.588 -0.310667,0.84 -2.365333,0.956 -2.621333,-0.17733 -0.108,-0.492 -0.721334,-4.31733 -0.896,-5.40533 0.08,0.36933 0.248,0.704 0.482666,0.98266 0.386667,0.46267 0.948,0.77467 1.596,0.832" style="fill:#f5f5f5;fill-opacity:1;fill-rule:nonzero;stroke:none;stroke-width:1.33333"></path>
      <path id="path356" d="m 94.589106,528.96158 -0.008,-0.0293 c -0.01067,-0.14667 -0.01067,-0.292 0,-0.44267 0.064,-0.64266 0.382667,-1.208 0.849334,-1.59333 0.470666,-0.392 1.082666,-0.60267 1.732,-0.548 0.649333,0.0533 1.214666,0.36933 1.594666,0.82933 0.384,0.46134 0.592,1.06667 0.526667,1.71067 -0.008,0.11067 -0.02667,0.21867 -0.05333,0.32667 -0.121334,0.508 -0.408,0.95066 -0.794667,1.27066 -0.466667,0.39067 -1.076,0.604 -1.730667,0.55067 -0.646666,-0.0573 -1.209333,-0.37067 -1.594666,-0.832 -0.236,-0.27867 -0.402667,-0.61333 -0.484,-0.984 -0.02133,-0.14267 -0.03733,-0.23867 -0.03733,-0.25867" style="fill:#f5f5f5;fill-opacity:1;fill-rule:nonzero;stroke:none;stroke-width:1.33333"></path>
      <path id="path357" d="m 96.975906,525.97065 c 0.150667,0.003 0.305334,0.0107 0.453334,0.04 0.113333,0.0187 0.229333,0.048 0.34,0.0813 0.233333,0.0747 0.445333,0.17333 0.656,0.304 0.07067,0.0493 0.133333,0.0933 0.202666,0.14133 0.07333,0.06 0.14,0.11867 0.208,0.188 0.162667,0.14667 0.3,0.31733 0.418667,0.50267 0.04933,0.076 0.08267,0.14666 0.124,0.22933 0.036,0.0627 0.06267,0.12133 0.08667,0.18667 0.03733,0.0867 0.06533,0.17066 0.092,0.264 0.02667,0.0827 0.04267,0.15733 0.05733,0.24133 0.03333,0.14267 0.04533,0.28667 0.048,0.43467 0.0027,0.0653 0.0027,0.12666 0,0.192 -0.01067,0.38933 -0.105333,0.744 -0.278667,1.096 -0.513333,1.04133 -1.665333,1.67466 -2.813333,1.51866 -0.216,-0.028 -0.445333,-0.0773 -0.645333,-0.16133 -0.1,-0.04 -0.186667,-0.0773 -0.282667,-0.12533 -0.07067,-0.0427 -0.130667,-0.0773 -0.197333,-0.11734 -0.197334,-0.12666 -0.368,-0.272 -0.529334,-0.44533 -0.154666,-0.16133 -0.278666,-0.34 -0.386666,-0.53733 -0.1,-0.18267 -0.172,-0.37067 -0.229334,-0.57467 -0.068,-0.244 -0.09733,-0.46533 -0.09733,-0.724 0,-0.91333 0.469333,-1.76533 1.234667,-2.27333 0.458666,-0.30534 0.988,-0.464 1.538666,-0.46134 m -0.052,0.74 c -0.337333,0.008 -0.658666,0.096 -0.954666,0.264 -0.346667,0.196 -0.66,0.52134 -0.826667,0.88267 -0.076,0.15867 -0.126667,0.30533 -0.16,0.47333 -0.072,0.36667 -0.03733,0.72534 0.08667,1.07334 0.218666,0.616 0.782666,1.08666 1.406666,1.21733 0.437334,0.096 0.869334,0.0467 1.277334,-0.136 0.418666,-0.196 0.782666,-0.55067 0.98,-0.976 0.113333,-0.24267 0.184,-0.496 0.189333,-0.76933 0.008,-0.26667 -0.03067,-0.53334 -0.132,-0.78 -0.044,-0.11334 -0.092,-0.21867 -0.157333,-0.32134 -0.110667,-0.17333 -0.242667,-0.33733 -0.405334,-0.47066 -0.124,-0.096 -0.242666,-0.18 -0.38,-0.24667 -0.216,-0.11467 -0.432,-0.16533 -0.666666,-0.196 -0.08667,-0.0147 -0.170667,-0.0147 -0.257334,-0.0147" style="fill:#000000;fill-opacity:1;fill-rule:nonzero;stroke:none;stroke-width:1.33333"></path>
      <path id="path358" d="m 94.639906,528.56972 c 0.032,0.007 0.068,0.02 0.105334,0.0293 0.04,0.0147 0.07333,0.0533 0.110666,0.0853 0.08133,0.0693 0.09467,0.196 0.110667,0.30667 0.278667,1.716 0.548,3.42133 0.84,5.128 0.02133,0.156 0.052,0.34 0.1,0.48533 0.016,0.0533 0.024,0.076 0.056,0.12133 0.141333,0.21867 0.410667,0.30667 0.616,0.33734 0.126667,0.02 0.249333,0.0227 0.381333,0.0173 0.166667,-0.005 0.337334,-0.0453 0.496,-0.11067 0.06,-0.028 0.110667,-0.06 0.168,-0.0947 0.06533,-0.0387 0.150667,-0.132 0.181334,-0.224 0.03467,-0.11334 0.06133,-0.23734 0.088,-0.356 0.154666,-0.708 0.297333,-1.41334 0.426666,-2.12534 0.173334,-0.912 0.329334,-1.83066 0.5,-2.74266 0.01333,-0.0907 0.024,-0.20134 0.05067,-0.284 0.02667,-0.11867 0.05467,-0.14667 0.128,-0.216 0.04267,-0.0413 0.08,-0.0467 0.126667,-0.0653 0.04267,-0.016 0.08,-0.0107 0.124,-0.0107 0.05867,0 0.09467,0.0173 0.145333,0.032 0.04933,0.0227 0.08133,0.0533 0.121333,0.0893 0.03067,0.024 0.04667,0.076 0.06533,0.11067 0.052,0.108 0.0027,0.276 -0.016,0.38933 -0.084,0.48533 -0.170667,0.972 -0.258667,1.45867 -0.168,0.872 -0.32,1.75466 -0.494667,2.62 -0.09467,0.452 -0.173333,0.91333 -0.310666,1.348 -0.02933,0.1 -0.084,0.17866 -0.134667,0.26666 -0.052,0.0907 -0.124,0.14934 -0.197333,0.21867 -0.07067,0.0733 -0.154667,0.11867 -0.242667,0.17333 -0.06267,0.04 -0.124,0.0653 -0.194667,0.0947 -0.068,0.0293 -0.126666,0.052 -0.2,0.0733 -0.213333,0.0587 -0.437333,0.0987 -0.658666,0.0987 -0.08133,0 -0.173334,0.003 -0.252,-0.007 -0.08267,-0.0107 -0.18,-0.016 -0.264,-0.0387 -0.084,-0.0213 -0.176,-0.0373 -0.253334,-0.072 -0.08933,-0.036 -0.192,-0.076 -0.281333,-0.13067 -0.06267,-0.0427 -0.150667,-0.0893 -0.208,-0.14533 -0.076,-0.0693 -0.168,-0.14267 -0.224,-0.23467 -0.04267,-0.0653 -0.116,-0.16133 -0.142667,-0.23733 -0.02533,-0.0733 -0.06533,-0.16534 -0.084,-0.24134 -0.052,-0.21066 -0.08667,-0.44 -0.124,-0.65333 -0.124,-0.75733 -0.252,-1.50933 -0.372,-2.268 -0.12,-0.74533 -0.249333,-1.492 -0.362666,-2.244 -0.02933,-0.188 -0.068,-0.38 -0.08933,-0.57067 -0.01333,-0.104 0,-0.128 0.03467,-0.21733 0.028,-0.0587 0.04133,-0.0667 0.08267,-0.10533 0.048,-0.0373 0.08,-0.0507 0.134666,-0.072 0.05333,-0.02 0.110667,-0.0173 0.172,-0.0173" style="fill:#000000;fill-opacity:1;fill-rule:nonzero;stroke:none;stroke-width:1.33333"></path>
    </g>
  </g>
</svg>