<?xml version="1.0" encoding="UTF-8" standalone="no"?>


<svg version="1.1" id="svg1" width="16.453491" height="16.690536" viewBox="0 0 16.453491 16.690536" xmlns="http://www.w3.org/2000/svg" xmlns:svg="http://www.w3.org/2000/svg">
  <defs id="defs1"></defs>
  <g id="layer-MC2" transform="translate(-588.06306,-246.49389)">
    <path id="path762" d="m 0,0 h 1.861 c 0,0 0.156,-1.314 1.312,-1.371 C 4.334,-1.434 4.698,0 4.698,0 h 2.379 c 0,0 0.394,-1.288 1.4,-1.312 C 9.812,-1.34 10.127,0 10.127,0 h 1.644 v -2.043 c 0,0 -1.146,-0.079 -1.186,-1.311 -0.047,-1.34 1.186,-1.615 1.186,-1.615 v -2.345 c 0,0 -1.162,-0.162 -1.218,-1.359 -0.057,-1.253 1.218,-1.513 1.218,-1.513 v -1.768 H 9.67 c 0,0 -0.3,1.112 -1.318,1.126 -1.242,0.015 -1.36,-1.126 -1.36,-1.126 H 5.095 c 0,0 -0.243,1.128 -1.491,1.161 -1.171,0.026 -1.501,-1.161 -1.501,-1.161 H 0 v 2.044 c 0,0 1.075,0.745 1.055,1.622 C 1.031,-6.999 0,-7.021 0,-7.021 v 2.716 c 0,0 1.011,0.34 1.047,1.195 C 1.083,-2.256 0,-1.707 0,-1.707 Z" style="fill:#FFFFFF;fill-opacity:1;fill-rule:nonzero;stroke:none" transform="matrix(1.3333333,0,0,-1.3333333,588.4388,246.87173)"></path>
    <path id="path763" d="m 0,0 c 0.516,0.006 1.04,0.004 1.559,0.004 0.241,0 0.569,0.067 0.624,-0.247 0.085,-0.482 0.338,-0.984 0.86,-1.097 0.664,-0.144 1.073,0.295 1.326,0.862 0.096,0.207 0.102,0.482 0.394,0.482 H 6.81 c 0.214,0 0.48,0.057 0.571,-0.188 0.174,-0.462 0.512,-1.061 1.053,-1.116 0.624,-0.063 1.089,0.263 1.361,0.818 0.095,0.198 0.099,0.486 0.387,0.486 h 1.575 c 0.19,0 0.338,-0.081 0.338,-0.296 v -1.701 c 0,-0.277 0.065,-0.544 -0.272,-0.605 -0.437,-0.079 -0.805,-0.326 -0.888,-0.8 -0.116,-0.64 0.097,-1.164 0.674,-1.47 0.188,-0.099 0.486,-0.101 0.486,-0.385 v -1.995 c 0,-0.218 0.058,-0.542 -0.21,-0.609 -0.43,-0.105 -0.831,-0.322 -0.958,-0.788 -0.175,-0.654 0.072,-1.164 0.672,-1.45 0.192,-0.089 0.496,-0.085 0.496,-0.372 v -1.701 c 0,-0.178 -0.079,-0.334 -0.274,-0.334 h -1.812 c -0.223,0 -0.468,-0.059 -0.569,0.196 -0.052,0.13 -0.086,0.239 -0.164,0.365 -0.284,0.469 -0.692,0.642 -1.225,0.524 -0.368,-0.081 -0.662,-0.403 -0.727,-0.777 -0.026,-0.162 -0.085,-0.306 -0.273,-0.308 -0.549,-0.013 -1.102,0 -1.655,0 -0.273,0 -0.443,-0.055 -0.544,0.245 -0.159,0.476 -0.489,0.806 -0.989,0.886 -0.593,0.098 -1.071,-0.149 -1.348,-0.694 -0.095,-0.19 -0.11,-0.437 -0.379,-0.437 H 0.089 c -0.183,0 -0.322,0.079 -0.322,0.283 v 1.727 c 0,0.207 -0.051,0.404 0.126,0.541 0.345,0.274 0.743,0.642 0.874,1.077 0.069,0.221 0.067,0.499 -0.008,0.717 -0.123,0.369 -0.322,0.539 -0.711,0.581 -0.15,0.017 -0.279,0.1 -0.281,0.272 -0.012,0.806 0,1.614 0,2.422 0,0.213 -0.055,0.464 0.18,0.561 0.413,0.176 0.863,0.478 0.859,0.982 -0.006,0.413 -0.363,0.771 -0.687,0.984 -0.138,0.091 -0.348,0.162 -0.352,0.356 -0.012,0.46 0,0.924 0,1.385 0,0.229 -0.065,0.561 0.233,0.614 M 0.325,-0.551 C 0.321,-0.96 0.323,-1.369 0.323,-1.774 c 0,-0.071 0.031,-0.067 0.083,-0.103 0.442,-0.28 0.847,-0.725 0.94,-1.253 C 1.479,-3.862 0.97,-4.439 0.36,-4.745 0.31,-4.769 0.323,-4.783 0.323,-4.84 c 0,-0.727 -0.008,-1.453 0,-2.181 0,-0.054 0.037,-0.04 0.079,-0.054 C 0.646,-7.132 0.86,-7.3 1.024,-7.48 1.389,-7.885 1.472,-8.669 1.261,-9.155 1.057,-9.621 0.738,-9.985 0.348,-10.305 0.312,-10.335 0.323,-10.362 0.323,-10.413 v -1.534 c 0.533,0.009 1.068,-0.019 1.6,-0.003 0.045,0.003 0.049,0.051 0.069,0.092 0.215,0.48 0.674,0.893 1.179,1.012 0.818,0.195 1.648,-0.13 2.063,-0.887 0.033,-0.057 0.061,-0.117 0.085,-0.178 0.025,-0.055 0.036,-0.039 0.095,-0.039 0.454,0 0.909,-0.004 1.363,0 0.055,0.003 0.047,0.029 0.061,0.075 0.298,0.899 1.266,1.25 2.11,0.94 0.442,-0.162 0.751,-0.563 0.946,-0.982 0.022,-0.049 0.046,-0.033 0.101,-0.033 0.513,0 1.026,0 1.539,0.003 0,0.415 0.006,0.832 0.002,1.249 0,0.047 -0.011,0.036 -0.051,0.051 -0.811,0.319 -1.269,0.996 -1.152,1.887 0.085,0.666 0.535,1.166 1.162,1.375 0.062,0.018 0.041,0.03 0.041,0.091 v 1.808 c 0,0.061 -0.015,0.045 -0.064,0.069 -0.572,0.245 -0.981,0.723 -1.092,1.341 -0.115,0.623 0.036,1.261 0.534,1.679 0.173,0.141 0.385,0.238 0.594,0.299 0.047,0.012 0.028,0.033 0.028,0.077 v 1.468 c -0.373,0.002 -0.753,0.002 -1.124,0.002 -0.064,0 -0.055,-0.032 -0.077,-0.087 -0.283,-0.721 -0.962,-1.223 -1.73,-1.223 -0.377,0 -0.686,0.091 -0.983,0.332 -0.304,0.241 -0.518,0.583 -0.677,0.934 -0.03,0.062 -0.05,0.044 -0.117,0.044 H 4.989 C 4.931,-0.551 4.942,-0.559 4.92,-0.614 4.678,-1.215 4.284,-1.707 3.65,-1.883 3.243,-1.993 2.752,-1.896 2.401,-1.659 2.037,-1.412 1.808,-1.017 1.692,-0.599 1.672,-0.535 1.67,-0.551 1.604,-0.551 Z" style="fill:#FFFFFF;fill-opacity:1;fill-rule:nonzero;stroke:none" transform="matrix(1.3333333,0,0,-1.3333333,588.3828,246.5072)"></path>
    <path id="path764" d="m 443.304,298.595 h 7.624 v -7.623 h -7.624 z" style="fill:#FFFFFF;fill-opacity:1;fill-rule:nonzero;stroke:none" transform="matrix(1.3333333,0,0,-1.3333333,0,648)"></path>
    <path id="path765" d="m 0,0 c 0.317,-0.006 0.607,-0.081 0.883,-0.172 0.287,-0.091 0.554,-0.206 0.84,-0.302 0.169,-0.058 0.335,-0.101 0.516,-0.139 0.168,-0.035 0.347,-0.043 0.532,-0.043 0.117,0 0.23,0.014 0.341,0.031 0.114,0.014 0.213,0.044 0.323,0.072 0.042,0.009 0.066,0.012 0.111,0.012 0.038,-0.001 0.076,-0.024 0.109,-0.034 0.033,-0.012 0.051,-0.043 0.069,-0.063 0.026,-0.026 0.037,-0.058 0.05,-0.087 0.012,-0.03 0.01,-0.061 0.015,-0.091 C 3.793,-0.854 3.78,-0.891 3.772,-0.932 3.763,-0.962 3.734,-0.988 3.712,-1.015 3.684,-1.049 3.639,-1.077 3.576,-1.091 3.376,-1.146 3.173,-1.187 2.952,-1.205 2.839,-1.211 2.726,-1.215 2.608,-1.211 2.371,-1.203 2.146,-1.168 1.932,-1.116 1.541,-1.017 1.211,-0.877 0.854,-0.751 0.575,-0.652 0.265,-0.547 -0.071,-0.559 -0.124,-0.561 -0.162,-0.565 -0.215,-0.571 -0.379,-0.589 -0.573,-0.654 -0.696,-0.719 -0.802,-0.777 -0.899,-0.832 -0.99,-0.897 -1.067,-0.95 -1.13,-1.006 -1.207,-1.057 -1.229,-1.075 -1.245,-1.081 -1.276,-1.091 -1.3,-1.1 -1.347,-1.098 -1.375,-1.1 c -0.036,0 -0.062,0.015 -0.091,0.025 -0.039,0.018 -0.055,0.036 -0.079,0.06 -0.033,0.029 -0.045,0.055 -0.061,0.088 -0.02,0.034 -0.016,0.065 -0.024,0.099 -0.007,0.038 0.012,0.073 0.02,0.111 0.018,0.069 0.105,0.13 0.176,0.185 0.091,0.074 0.195,0.139 0.304,0.208 0.097,0.061 0.206,0.114 0.319,0.16 0.055,0.026 0.108,0.047 0.169,0.065 0.065,0.022 0.121,0.035 0.192,0.051 0.069,0.016 0.126,0.024 0.197,0.034 C -0.17,-0.002 -0.083,-0.002 0,0" style="fill:#FFFFFF;fill-opacity:1;fill-rule:nonzero;stroke:none" transform="matrix(1.3333333,0,0,-1.3333333,594.73827,256.35413)"></path>
    <path id="path766" d="m 0,0 c -0.332,0 -0.636,0.138 -0.854,0.356 -0.221,0.219 -0.357,0.521 -0.357,0.855 0,0.334 0.136,0.636 0.357,0.856 C -0.636,2.284 -0.332,2.418 0,2.418 0.334,2.418 0.636,2.284 0.853,2.067 1.073,1.847 1.211,1.545 1.211,1.211 1.211,0.877 1.073,0.575 0.853,0.356 0.636,0.138 0.334,0 0,0" style="fill:#FFFFFF;fill-opacity:1;fill-rule:nonzero;stroke:none" transform="matrix(1.3333333,0,0,-1.3333333,598.16147,255.04173)"></path>
  </g>
</svg>