<?xml version="1.0" encoding="UTF-8" standalone="no"?>


<svg version="1.1" id="svg1" width="124.10452" height="177.1655" viewBox="0 0 124.10452 177.1655" xmlns="http://www.w3.org/2000/svg" xmlns:svg="http://www.w3.org/2000/svg">
  <defs id="defs1"></defs>
  <g id="layer-MC0" transform="translate(-129.93422,-431.47164)">
    <g id="g1235" transform="translate(-78.545455,1.3090909)">
      <path id="path68" d="m 255.17758,605.00823 c -0.81733,0.51334 -2.028,0.324 -2.71067,-0.644 -0.72666,-1.02133 -0.53733,-2.49066 0.24267,-2.828 1.56933,-0.68533 3.75867,-1.828 5.76267,-4.52533 0.92533,-1.25733 2.90933,0.23067 2.31333,1.68 -1.36667,3.34267 -4.212,5.44667 -5.608,6.31733" style="fill:#f5f5f5;fill-opacity:1;fill-rule:nonzero;stroke:none;stroke-width:1.33333"></path>
      <path id="path69" d="m 259.37104,596.17103 c 0.0547,0 0.11333,0.009 0.16667,0.012 0.1,0.0107 0.17333,0.0293 0.27066,0.056 0.16267,0.044 0.308,0.11067 0.45334,0.2 0.3,0.17867 0.53733,0.416 0.71866,0.724 0.0947,0.156 0.168,0.30534 0.21867,0.48534 0.024,0.1 0.0373,0.18666 0.0573,0.29466 0.012,0.0933 0.007,0.17867 0.007,0.28 0,0.38934 -0.20133,0.80267 -0.36667,1.148 -0.616,1.29334 -1.46933,2.484 -2.47333,3.49867 -0.55867,0.564 -1.12267,1.06933 -1.73867,1.54533 -0.392,0.30134 -0.79066,0.57467 -1.20666,0.84134 -0.27867,0.18666 -0.56667,0.312 -0.89067,0.36533 -0.89733,0.156 -1.79333,-0.224 -2.352,-0.948 -0.58667,-0.76667 -0.79733,-1.892 -0.364,-2.78133 0.0507,-0.0987 0.0933,-0.16934 0.15867,-0.25867 0.0627,-0.0893 0.12133,-0.144 0.2,-0.21867 0.0613,-0.056 0.10266,-0.0867 0.17466,-0.12666 0.15734,-0.0947 0.316,-0.16134 0.484,-0.23867 1.45334,-0.66133 2.788,-1.52667 3.91467,-2.66933 0.464,-0.46934 0.90133,-0.96 1.29067,-1.48267 0.11866,-0.164 0.23466,-0.29467 0.39066,-0.42533 0.084,-0.0653 0.152,-0.104 0.244,-0.152 0.1,-0.052 0.18667,-0.076 0.292,-0.10534 0.11334,-0.0347 0.22934,-0.0347 0.35067,-0.044 m -0.0293,0.74134 c -0.42667,0.003 -0.63467,0.42 -0.86934,0.712 -0.95066,1.19066 -2.05733,2.228 -3.32133,3.04 -0.70533,0.456 -1.464,0.84266 -2.236,1.18266 -0.20533,0.092 -0.332,0.236 -0.416,0.44534 -0.24,0.59066 -0.0773,1.40266 0.30533,1.904 0.44534,0.57733 1.13067,0.85866 1.83867,0.65333 0.27067,-0.0787 0.55067,-0.28667 0.784,-0.44533 1.08,-0.732 2.052,-1.57467 2.94,-2.56267 0.856,-0.96133 1.53867,-2.04133 2.05733,-3.23733 0.16134,-0.37734 0.11867,-0.732 -0.0893,-1.08267 -0.2,-0.33733 -0.6,-0.612 -0.99333,-0.60933" style="fill:#000000;fill-opacity:1;fill-rule:nonzero;stroke:none;stroke-width:1.33333"></path>
      <path id="path70" d="m 257.06758,594.51343 c -0.16667,1.45067 -1.86267,1.67734 -2.116,0.68134 -1.264,-4.92 -4.94933,-5.48667 -5.86533,-5.97867 -2.044,-1.09333 -0.53734,-4.292 1.728,-3.78533 1.59866,0.35066 6.79066,2.83066 6.25333,9.08266" style="fill:#f5f5f5;fill-opacity:1;fill-rule:nonzero;stroke:none;stroke-width:1.33333"></path>
      <path id="path71" d="m 250.38011,585.00689 c 0.42667,0.0147 0.84267,0.13067 1.236,0.284 2.244,0.872 4.25867,2.59734 5.22267,4.95467 0.16133,0.40667 0.29066,0.812 0.396,1.23867 0.12933,0.54 0.18933,1.06933 0.22933,1.62533 0.02,0.308 0.008,0.616 0.005,0.924 -0.005,0.47467 -0.0587,0.94667 -0.31466,1.34933 -0.10134,0.156 -0.212,0.28134 -0.352,0.4 -0.12934,0.11867 -0.27467,0.204 -0.44267,0.26934 -0.16667,0.068 -0.332,0.11066 -0.512,0.11333 -0.152,0.003 -0.32933,0 -0.47067,-0.0507 -0.256,-0.0973 -0.43733,-0.208 -0.60266,-0.44266 -0.18,-0.24667 -0.22134,-0.548 -0.312,-0.83467 -0.244,-0.788 -0.58134,-1.56667 -1.04534,-2.24133 -0.37466,-0.55067 -0.84533,-1.05334 -1.35866,-1.46267 -0.78267,-0.616 -1.644,-0.99867 -2.55334,-1.336 -0.34133,-0.128 -0.63466,-0.24667 -0.92933,-0.47333 -0.62667,-0.47467 -0.94267,-1.26934 -0.78533,-2.07334 0.15333,-0.83333 0.62933,-1.512 1.34133,-1.92533 0.37333,-0.22133 0.82133,-0.32133 1.248,-0.31867 m -0.0947,0.74 c -0.81066,0.024 -1.49333,0.64267 -1.728,1.448 -0.192,0.684 0.0453,1.3 0.62934,1.652 0.26666,0.16667 0.61066,0.26667 0.896,0.37467 1.40666,0.53333 2.67066,1.29867 3.64,2.53467 0.76666,0.97866 1.252,2.08533 1.57466,3.292 0.0507,0.18666 0.12667,0.3 0.30934,0.36 0.25333,0.0827 0.53466,-0.036 0.73733,-0.204 0.248,-0.204 0.34,-0.54267 0.35867,-0.85734 0.0653,-0.95866 0.0133,-1.90133 -0.22134,-2.80933 -0.40266,-1.552 -1.27066,-2.932 -2.46933,-3.95467 -0.91067,-0.77466 -1.91467,-1.36933 -3.036,-1.72533 -0.22133,-0.0707 -0.45067,-0.116 -0.69067,-0.11067" style="fill:#000000;fill-opacity:1;fill-rule:nonzero;stroke:none;stroke-width:1.33333"></path>
      <path id="path72" d="m 256.50904,593.84676 c 1.03333,1.04534 0.0707,2.52934 -0.88667,2.11467 -4.72133,-2.072 -7.65066,0.51067 -8.652,0.93333 -2.23866,0.94267 -3.74266,-2.26133 -1.82133,-3.74666 1.356,-1.05067 6.80267,-3.64267 11.36,0.69866" style="fill:#f5f5f5;fill-opacity:1;fill-rule:nonzero;stroke:none;stroke-width:1.33333"></path>
      <path id="path73" d="m 250.61451,591.04996 c 0.216,-0.008 0.43733,0.008 0.65067,0.0213 2.30266,0.15733 4.096,1.204 5.37066,2.388 0.29734,0.27733 0.50667,0.56133 0.60534,0.89066 0.10133,0.34934 0.12133,0.71467 -0.012,1.05867 -0.04,0.108 -0.0827,0.20133 -0.14267,0.304 -0.0453,0.0787 -0.1,0.14533 -0.16267,0.224 -0.0693,0.0787 -0.13733,0.136 -0.22666,0.20533 -0.0773,0.0707 -0.164,0.10534 -0.26667,0.15867 -0.0947,0.0467 -0.17733,0.0573 -0.288,0.0867 -0.11733,0.024 -0.34133,0.0147 -0.452,-0.0213 -0.34,-0.0947 -0.64267,-0.248 -0.97733,-0.36133 -1.19067,-0.408 -2.476,-0.596 -3.79867,-0.37067 -1.25333,0.21734 -2.21867,0.71067 -3.15867,1.264 -0.376,0.21867 -0.74,0.432 -1.24,0.51067 -0.52933,0.0773 -0.988,-0.024 -1.39066,-0.24533 -0.40134,-0.22534 -0.70134,-0.59467 -0.87734,-0.908 -0.45333,-0.796 -0.46666,-1.73867 -0.0507,-2.53734 0.29733,-0.57333 0.80933,-0.98533 1.52533,-1.38 1.356,-0.748 3.088,-1.28 4.892,-1.288 m -0.18667,0.74267 c -1.83066,0.0573 -3.58266,0.672 -4.86266,1.51333 -1.05467,0.69467 -1.144,1.85334 -0.596,2.70934 0.22666,0.348 0.73733,0.772 1.404,0.66666 0.40533,-0.064 0.69066,-0.24266 0.99066,-0.41866 1.05067,-0.61067 2.13334,-1.164 3.53467,-1.37334 1.60133,-0.23866 3.05333,0.0187 4.43867,0.55067 0.172,0.064 0.35333,0.164 0.53733,0.212 0.24267,0.0627 0.48933,-0.17467 0.55867,-0.29467 0.208,-0.352 0.19466,-0.73066 -0.0507,-1.07866 -0.14933,-0.21067 -0.4,-0.408 -0.61867,-0.596 -0.39733,-0.344 -0.89733,-0.676 -1.404,-0.956 -1.08533,-0.6 -2.47866,-0.97867 -3.932,-0.93467" style="fill:#000000;fill-opacity:1;fill-rule:nonzero;stroke:none;stroke-width:1.33333"></path>
      <path id="path74" d="m 277.16398,571.35583 c -0.67733,2.45734 -1.688,4.96267 -2.87333,7.40134 -1.06134,2.18133 -2.26534,4.308 -3.49334,6.30933 -1.132,1.83867 -2.28933,3.56933 -3.38533,5.124 -1.29333,1.83067 -2.496,3.41333 -3.47467,4.652 -1.43733,1.82267 -2.384,2.90267 -2.384,2.90267 0,0 -1.83333,1.20666 -4.232,-0.31734 -2.4,-1.52666 -2.392,-4.39066 -2.392,-4.39066 0,0 0.97467,-0.99867 2.49734,-2.66267 1.05066,-1.14533 2.36533,-2.616 3.80666,-4.28933 1.23734,-1.432 2.57067,-3.02534 3.90667,-4.69334 0.092,-0.11733 0.18133,-0.23066 0.27333,-0.34133 1.42,-1.78533 2.708,-3.60933 3.824,-5.276 2.3,-3.444 3.836,-6.212 4.20534,-6.59733 1.21333,-1.264 4.19866,0.45333 3.72133,2.17866" style="fill:#8f8f8f;fill-opacity:1;fill-rule:nonzero;stroke:none;stroke-width:1.33333"></path>
      <path id="path75" d="m 274.36971,568.38063 c 0.456,-0.04 0.89867,0.068 1.32533,0.23734 0.58934,0.23466 1.39334,0.79866 1.71467,1.548 0.232,0.53866 0.21067,0.964 0.0507,1.52933 -0.51467,1.788 -1.172,3.536 -1.89467,5.20133 -1.00933,2.33334 -2.19333,4.54667 -3.432,6.66667 -0.88,1.50667 -1.80133,3.00533 -2.764,4.436 -1.28,1.90133 -2.60133,3.80267 -3.98933,5.59333 -0.64534,0.832 -1.28134,1.66934 -1.94,2.47734 -0.39467,0.48533 -0.78934,0.996 -1.20267,1.45333 -0.14267,0.15867 -0.348,0.45733 -0.50667,0.55333 -0.552,0.336 -1.26666,0.49334 -1.87466,0.49334 -1.74934,0 -3.704,-0.992 -4.68667,-3.044 -0.31333,-0.65067 -0.64533,-1.73467 -0.61067,-2.5 0.0107,-0.23734 0.40534,-0.55867 0.54534,-0.704 1.84933,-1.92 3.664,-3.95067 5.43866,-6 1.03067,-1.19334 2.06534,-2.4 3.072,-3.63467 1.23467,-1.51067 2.45467,-3.04 3.61334,-4.668 0.50266,-0.69867 0.99066,-1.412 1.47866,-2.124 0.992,-1.42933 1.92534,-2.94667 2.852,-4.44133 0.456,-0.744 0.89867,-1.48667 1.36667,-2.21067 0.372,-0.57067 0.89867,-0.82267 1.444,-0.86267 m 0.0787,0.73467 c -0.41334,0.0173 -0.71067,0.22933 -0.972,0.65067 -0.9,1.428 -1.76934,2.87466 -2.676,4.29333 -1.29867,2.04267 -2.652,4.012 -4.08534,5.92 -1.204,1.612 -2.476,3.11867 -3.73466,4.636 -1.14934,1.39067 -2.33734,2.748 -3.52667,4.07067 -1.34933,1.508 -2.704,2.97733 -4.08133,4.432 -0.092,0.1 -0.0573,0.20533 -0.0347,0.34533 0.14267,1.08 0.49867,1.88 1.08,2.65467 0.88267,1.17733 2.548,1.868 3.76533,1.684 0.32934,-0.048 0.97467,-0.148 1.224,-0.44534 1.39334,-1.68133 2.768,-3.38933 4.10934,-5.17733 0.76666,-1.02133 1.50133,-2.08 2.236,-3.12533 1.04933,-1.49467 2.03733,-3.05867 3.00666,-4.63067 0.692,-1.12267 1.32934,-2.29333 1.98534,-3.45867 0.34533,-0.61466 0.67733,-1.28133 0.99333,-1.92133 1.18267,-2.37333 2.30533,-5.01467 3.04533,-7.69467 0.31867,-1.152 -0.96133,-1.90933 -1.59866,-2.13066 -0.24267,-0.0827 -0.488,-0.0973 -0.736,-0.10267" style="fill:#000000;fill-opacity:1;fill-rule:nonzero;stroke:none;stroke-width:1.33333"></path>
      <path id="path76" d="m 261.39318,585.89236 c 0.016,0.0373 0.0373,0.0893 0.0547,0.13067 0.19066,0.50533 0.488,1.004 0.86533,1.46 0.96267,1.16267 2.544,2.17867 4.35333,2.43333 0.29734,0.0427 0.596,0.0533 0.904,0.0533 -0.096,0.132 -0.192,0.268 -0.288,0.39466 -0.0307,0.0453 -0.02,0.0453 -0.092,0.0453 -0.16533,-0.005 -0.356,-0.0213 -0.516,-0.0453 -0.216,-0.0307 -0.42133,-0.0627 -0.632,-0.10933 -0.256,-0.0533 -0.508,-0.128 -0.75333,-0.216 -0.23467,-0.08 -0.45333,-0.16933 -0.67733,-0.272 -0.956,-0.432 -1.77867,-1.048 -2.42267,-1.74133 -0.21067,-0.22934 -0.39067,-0.464 -0.56667,-0.716 -0.216,-0.304 -0.39466,-0.64267 -0.52933,-0.96534 -0.008,-0.028 -0.032,-0.0493 -0.008,-0.076 0.1,-0.12666 0.20267,-0.25066 0.308,-0.376" style="fill:#000000;fill-opacity:1;fill-rule:nonzero;stroke:none;stroke-width:1.33333"></path>
      <path id="path77" d="m 265.30518,581.18916 c 0.0347,0.092 0.0733,0.20267 0.11333,0.30534 0.20534,0.504 0.51867,0.99733 0.924,1.44 0.248,0.26933 0.54267,0.536 0.872,0.76 0.396,0.276 0.82934,0.524 1.31734,0.70533 0.28133,0.10133 0.548,0.18933 0.84,0.26 0.50533,0.11467 1.02,0.18267 1.56266,0.188 l -0.24533,0.39733 c -0.016,0.028 -0.0107,0.0427 -0.0587,0.04 -0.35466,-0.0213 -0.70533,-0.0573 -1.048,-0.12666 -0.47466,-0.0947 -0.924,-0.224 -1.364,-0.40534 -0.91733,-0.38266 -1.68133,-0.93866 -2.268,-1.59066 -0.15866,-0.17734 -0.29066,-0.35334 -0.42933,-0.54534 -0.208,-0.29333 -0.38133,-0.61866 -0.504,-0.928 -0.012,-0.028 -0.0413,-0.0827 -0.028,-0.0973 0.0947,-0.136 0.21067,-0.26933 0.316,-0.40267" style="fill:#000000;fill-opacity:1;fill-rule:nonzero;stroke:none;stroke-width:1.33333"></path>
      <path id="path78" d="m 269.37424,575.57076 c 0.008,0 0.0107,0.008 0.0133,0.016 0.21867,0.404 0.47334,0.79867 0.81067,1.16667 0.224,0.24267 0.472,0.472 0.76667,0.68267 0.21066,0.14666 0.42666,0.27333 0.65866,0.39066 0.81734,0.42 1.804,0.62134 2.77334,0.72134 -0.0627,0.13066 -0.13334,0.25733 -0.19734,0.38933 -0.0133,0.0333 -0.005,0.036 -0.0573,0.0293 -0.664,-0.0787 -1.32,-0.20133 -1.93067,-0.41333 -0.296,-0.10267 -0.564,-0.21067 -0.82533,-0.34667 -0.70533,-0.35733 -1.256,-0.82533 -1.688,-1.348 -0.216,-0.25733 -0.41333,-0.54 -0.572,-0.82 -0.0107,-0.02 -0.032,-0.0453 -0.0187,-0.06 0.088,-0.13866 0.17734,-0.276 0.26667,-0.408" style="fill:#000000;fill-opacity:1;fill-rule:nonzero;stroke:none;stroke-width:1.33333"></path>
      <path id="path79" d="m 257.59691,590.18796 c 0.108,0.31867 0.23467,0.64534 0.39467,0.96267 0.39066,0.77467 0.93866,1.51067 1.688,2.108 0.36266,0.29333 0.76266,0.55067 1.2,0.764 0.956,0.472 2.06933,0.69333 3.192,0.588 -0.0613,0.11067 -0.12934,0.22133 -0.19734,0.332 -0.008,0.02 -0.0707,0.12667 -0.0827,0.136 -0.028,0.003 -0.104,0 -0.13067,0.003 -1.09867,0.0427 -2.24933,-0.264 -3.15333,-0.74934 -0.92667,-0.49066 -1.71467,-1.17333 -2.268,-1.93466 -0.41334,-0.56 -0.732,-1.14534 -0.956,-1.75734 -0.0107,-0.0253 -0.0373,-0.0653 -0.016,-0.092 0.108,-0.11866 0.216,-0.24 0.32933,-0.36" style="fill:#000000;fill-opacity:1;fill-rule:nonzero;stroke:none;stroke-width:1.33333"></path>
      <path id="path80" d="m 284.98038,587.78823 c -0.15067,-1.31733 -1.05067,-4.11733 -3.836,-3.692 -2.212,0.344 -2.76,2.08 -2.808,4.656 -1.60133,0.11867 -2.58667,0.18267 -4.464,0.108 -0.032,-1.23333 -0.19467,-4.32533 -3.21067,-3.87466 -2.04533,0.30266 -2.26266,3.71866 -2.26266,3.71866 0,0 -0.0933,-5.028 1.53466,-7.96266 4.18534,-7.53467 11.92,-9.26934 13.83467,-9.77734 3.64267,-0.97733 10.948,-2.28666 16.65867,1.37734 3.77733,2.42133 4.70133,6.26133 4.70133,6.26133 0,0 -1.87467,-2.932 -3.77467,-1.89333 -1.22666,0.67733 -1.24,2.38666 -0.11733,4.49066 -1.58133,1.05867 -2.424,1.51734 -3.97067,2.35467 -0.972,-1.74933 -2.568,-3.50533 -4.83333,-2.60533 -1.43333,0.56666 -2.35733,2.3 -1.428,5.08933 -1.796,0.92933 -3.92533,1.53067 -6.024,1.74933" style="fill:#000000;fill-opacity:1;fill-rule:nonzero;stroke:none;stroke-width:1.33333"></path>
      <path id="path81" d="m 291.61704,569.55249 c 4.10667,0.005 7.908,1.38267 10.18933,3.33734 1.596,1.368 2.71734,3.00533 3.332,4.58133 0.136,0.35067 0.31334,0.75067 0.36267,1.10933 0.0347,0.268 -0.39467,0.61334 -0.68667,0.224 -0.22933,-0.29866 -0.44533,-0.60666 -0.72533,-0.89733 -0.34933,-0.36267 -1.196,-1.15733 -2.06667,-1.02667 -0.98533,0.13734 -1.23066,1.044 -1.23066,1.52534 0,0.744 0.21866,1.40933 0.524,2.11466 0.15066,0.34934 0.53466,0.72667 0.056,1.044 -0.832,0.548 -1.69334,1.096 -2.62134,1.60667 -0.40266,0.21867 -0.82133,0.43733 -1.20933,0.664 -0.28133,0.16 -0.47333,0.10267 -0.59067,-0.0907 -0.50266,-0.80533 -1.08933,-1.86133 -2.26933,-2.432 -0.95467,-0.45466 -2.184,-0.16933 -2.78133,0.392 -1.112,1.04267 -0.968,2.436 -0.71734,3.60667 0.056,0.26667 0.38,0.84933 0.0133,1.05067 -0.58267,0.328 -1.36,0.64133 -2.04934,0.884 -1.17466,0.41866 -2.72666,0.788 -4.06533,0.90933 -0.336,0.0333 -0.452,-0.16133 -0.47867,-0.324 -0.0947,-0.66133 -0.25733,-1.26533 -0.58933,-1.89867 -0.304,-0.588 -1.092,-1.58933 -2.408,-1.504 -1.95467,0.128 -2.40533,1.28267 -2.65867,2.204 -0.15733,0.55467 -0.16533,1.10534 -0.21733,1.67334 -0.016,0.22133 0.10133,0.78 -0.40133,0.82533 -1.064,0.0907 -2.16534,0.148 -3.25867,0.13067 -0.37333,-0.005 -0.73733,-0.02 -1.108,-0.024 -0.48533,0 -0.456,-0.31867 -0.46133,-0.51867 -0.0133,-0.52133 -0.0587,-1.096 -0.21067,-1.59467 -0.16133,-0.54533 -0.50667,-1.61466 -1.64133,-1.78 -0.808,-0.11333 -1.41467,0.0653 -1.812,0.47734 -0.69067,0.72133 -0.86667,1.688 -1.00934,2.48933 -0.0267,0.184 0.0107,0.65867 -0.30266,0.752 -0.38534,0.11067 -0.49334,-0.25467 -0.49334,-0.38933 0,-1.044 0.056,-2.07734 0.17734,-3.10534 0.20533,-1.676 0.52666,-3.40133 1.39333,-4.99466 1.89333,-3.48934 5.33867,-6.93467 10.80533,-8.972 0.996,-0.372 2.00667,-0.656 3.084,-0.948 2.56534,-0.688 5.26534,-1.14667 8.12667,-1.10134 m -0.67733,0.73467 c -2.46267,0.048 -4.81467,0.42933 -7.04667,1.03067 -1.22133,0.32666 -2.36533,0.64666 -3.47867,1.072 -3.34533,1.3 -6.00666,3.19333 -7.81333,5.248 -1.45333,1.65066 -2.65467,3.43866 -3.11333,5.236 -0.18,0.70533 -0.34534,1.404 -0.44,2.12 -0.032,0.23733 -0.1,0.49066 -0.0893,0.72266 0.376,-0.512 0.88534,-1.052 1.93334,-1.128 1.69066,-0.11866 2.38666,0.71067 2.81066,1.49867 0.41334,0.76133 0.46134,1.60533 0.53467,2.41333 1.20133,0.0733 2.40533,-0.0107 3.58267,-0.0813 0.20533,-0.009 0.14666,-0.0147 0.16266,-0.12533 0.0373,-0.28134 0.024,-0.568 0.0533,-0.84534 0.10266,-1.02933 0.384,-2.256 1.472,-3.108 0.832,-0.64666 2.54666,-0.908 3.62266,-0.32666 0.85867,0.46133 1.256,1.04533 1.59867,1.672 0.3,0.55066 0.448,1.12133 0.57867,1.69733 1.84666,-0.248 3.728,-0.76933 5.17733,-1.496 0.11067,-0.0533 0.044,-0.11867 0.0213,-0.19867 -0.256,-0.79466 -0.28533,-1.64266 -0.20133,-2.46666 0.0693,-0.68267 0.48267,-1.628 1.23333,-2.184 0.98267,-0.72934 2.44667,-0.99067 3.68267,-0.27867 1.09333,0.62667 1.66667,1.48133 2.188,2.29333 0.82533,-0.432 1.61467,-0.89066 2.37467,-1.356 0.30533,-0.188 0.61866,-0.38 0.908,-0.57466 0.092,-0.0653 0.0267,-0.108 -0.008,-0.18934 -0.488,-1.01866 -0.88534,-2.31066 -0.49734,-3.372 0.17867,-0.48266 0.62667,-1.16666 1.50134,-1.376 0.96933,-0.23333 1.76266,0.23334 2.312,0.63334 -1.30667,-2.62267 -4.124,-5.21867 -8.82667,-6.15867 -1.36667,-0.26667 -2.75333,-0.39733 -4.23333,-0.372" style="fill:#000000;fill-opacity:1;fill-rule:nonzero;stroke:none;stroke-width:1.33333"></path>
      <path id="path82" d="m 288.48491,606.93143 c 1.62,-1.904 1.688,-5.45466 0.37867,-7.38133 0.696,0.124 1.37066,0.19333 1.99466,0.21467 2.204,0.0867 3.38267,5.36533 1.124,6.90533 -1.04,0.24667 -2.23066,0.33467 -3.49733,0.26133" style="fill:#8f8f8f;fill-opacity:1;fill-rule:nonzero;stroke:none;stroke-width:1.33333"></path>
      <path id="path83" d="m 271.65024,590.86889 c -0.928,-4.26 -0.84,-7.71066 -0.84,-7.71066 l 7.30933,-2.256 c 0,0 0.31867,4.064 1.18,8.06266 -2.21333,1.91734 -5.476,2.27867 -7.64933,1.904" style="fill:#1c1c1c;fill-opacity:1;fill-rule:nonzero;stroke:none;stroke-width:1.33333"></path>
      <path id="path84" d="m 279.29931,588.96529 c 0.548,2.54 1.31467,5.05467 2.36267,6.48267 1.78133,2.43733 4.64933,3.64267 7.20133,4.10133 1.30933,1.928 1.24133,5.47867 -0.37867,7.38267 -4.244,-0.236 -9.31466,-2.244 -12.31733,-5.948 -2.46267,-3.036 -3.79867,-6.81867 -4.51733,-10.11467 2.17466,0.37467 5.436,0.012 7.64933,-1.904" style="fill:#363636;fill-opacity:1;fill-rule:nonzero;stroke:none;stroke-width:1.33333"></path>
      <path id="path85" d="m 278.06038,580.54076 c 0.0733,-0.0133 0.148,0 0.216,0.0293 0.192,0.0813 0.20267,0.22 0.22133,0.41733 0.0733,0.712 0.14,1.424 0.22667,2.13067 0.33467,2.73866 0.77467,5.47466 1.52533,8.116 0.23734,0.84133 0.52134,1.66533 0.86667,2.472 0.608,1.428 1.572,2.57333 2.768,3.42666 2.07867,1.48534 4.50933,2.13867 6.944,2.26934 1.00933,0.0533 1.66,0.752 2.136,1.68666 0.67733,1.344 0.88267,3.48 0.14267,4.83467 -0.21067,0.38667 -0.67467,1.04 -1.09334,1.12133 -1.228,0.25067 -2.456,0.33734 -3.74533,0.25067 -3.54133,-0.24 -7.21067,-1.57333 -10.14933,-3.87733 -1.54934,-1.21467 -2.81467,-2.77334 -3.844,-4.51467 -2.19734,-3.736 -3.23467,-8.072 -3.67467,-12.38533 -0.0947,-0.912 -0.16533,-1.87334 -0.16533,-2.80667 0,-0.392 -0.10267,-0.79467 0.31866,-0.92267 2.43867,-0.73733 4.868,-1.516 7.30667,-2.248 m -0.28933,0.86 c -2.07334,0.65867 -4.16267,1.268 -6.24134,1.92134 -0.044,0.0173 -0.336,0.10266 -0.34666,0.12266 -0.0133,0.0147 0.003,0.48534 0.005,0.544 0.0333,1.05867 0.10267,2.096 0.21867,3.13334 0.16533,1.436 0.41066,2.87733 0.74533,4.27333 0.78933,3.29067 2.10533,6.568 4.16933,9.188 1.412,1.79333 3.19867,3.10133 5.14667,4.07467 1.4,0.69866 2.924,1.24933 4.42,1.54933 1.89467,0.38933 3.96,0.556 5.87467,0.13867 0.26666,-0.06 0.63466,-0.63467 0.74533,-0.9 0.604,-1.39334 0.31333,-3.524 -0.62667,-4.68667 -0.31066,-0.384 -0.63733,-0.588 -1.096,-0.61867 -1.14,-0.0813 -2.21466,-0.21333 -3.3,-0.51733 -2.75733,-0.78133 -5.47066,-2.332 -6.87333,-5.22133 -0.48667,-1 -0.832,-2.064 -1.132,-3.12534 -0.632,-2.216 -1.00667,-4.53066 -1.33867,-6.82533 -0.10933,-0.75467 -0.208,-1.532 -0.27866,-2.296 -0.0213,-0.22667 -0.0347,-0.46933 -0.0707,-0.69733 0,-0.0173 0,-0.0573 -0.0213,-0.0573" style="fill:#000000;fill-opacity:1;fill-rule:nonzero;stroke:none;stroke-width:1.33333"></path>
      <path id="path86" d="m 288.56304,599.50569 c 0.19733,0.0227 0.392,0.0653 0.58533,0.0973 0.0333,0.005 0.06,0.0787 0.084,0.11866 0.27067,0.47867 0.49467,1.07334 0.63734,1.79867 0.06,0.30267 0.0947,0.62133 0.116,0.95067 0.0213,0.356 0.02,0.73066 -0.0133,1.08533 -0.0507,0.67467 -0.184,1.27733 -0.36933,1.81067 -0.076,0.22133 -0.16267,0.43866 -0.25733,0.62933 -0.14267,0.29467 -0.29334,0.55733 -0.45867,0.78667 -0.0373,0.0507 -0.0733,0.108 -0.11333,0.148 -0.0133,0.0187 -0.0893,0.008 -0.11067,0.008 -0.15067,0 -0.308,-0.0107 -0.45333,-0.016 0.45333,-0.51867 0.896,-1.24134 1.148,-2.30267 0.104,-0.45067 0.16666,-0.888 0.19066,-1.39333 0.0147,-0.3 0.003,-0.616 -0.0213,-0.90267 -0.0293,-0.45067 -0.12133,-0.88267 -0.22667,-1.27467 -0.0373,-0.13866 -0.0893,-0.28533 -0.13733,-0.41733 -0.0733,-0.21067 -0.17067,-0.41333 -0.26267,-0.58933 -0.10533,-0.19867 -0.224,-0.36134 -0.33733,-0.53734" style="fill:#000000;fill-opacity:1;fill-rule:nonzero;stroke:none;stroke-width:1.33333"></path>
      <path id="path87" d="m 286.38464,590.17489 c -1.12933,1.928 -0.98533,4.90134 0.15333,6.67734 -0.81466,-0.10267 -1.57866,-0.272 -2.27866,-0.5 -2.016,-0.652 -2.308,-5.66934 0.27866,-6.38 0.59067,0.076 1.21467,0.15466 1.84667,0.20266" style="fill:#8f8f8f;fill-opacity:1;fill-rule:nonzero;stroke:none;stroke-width:1.33333"></path>
      <path id="path88" d="m 291.91398,584.42876 c -0.764,-3.13466 -2.99467,-6.24533 -2.99467,-6.24533 l 5.784,-3.53067 c 0,0 2.392,2.84934 3.744,6.78267 -1.73466,1.96533 -4.46,2.85867 -6.53333,2.99333" style="fill:#1c1c1c;fill-opacity:1;fill-rule:nonzero;stroke:none;stroke-width:1.33333"></path>
      <path id="path89" d="m 286.53824,596.85196 c -1.13867,-1.776 -1.28267,-4.74933 -0.15333,-6.67733 1.94933,0.14933 3.936,0.048 4.92666,-1.172 0.99334,-1.22267 1.004,-2.9 0.60267,-4.57333 2.07333,-0.13467 4.79733,-1.02934 6.53333,-2.99467 1.02134,2.992 1.44267,6.60533 -0.22933,10.07067 -2.24667,4.65066 -7.50933,5.884 -11.68,5.34666" style="fill:#363636;fill-opacity:1;fill-rule:nonzero;stroke:none;stroke-width:1.33333"></path>
      <path id="path90" d="m 294.66531,574.28303 c 0.256,-0.04 0.45067,0.272 0.61067,0.488 1.47866,1.98934 2.70533,4.16934 3.56133,6.664 0.60133,1.77067 0.98267,3.80134 0.86133,5.75734 -0.092,1.54933 -0.46,3.06133 -1.11733,4.416 -1.11867,2.30933 -2.892,3.82 -4.92,4.688 -0.64,0.272 -1.288,0.49333 -1.94667,0.656 -1.38,0.34 -2.83466,0.45333 -4.27466,0.364 -1.072,-0.0667 -2.20534,-0.24 -3.232,-0.58267 -0.664,-0.224 -1.212,-0.756 -1.52267,-1.52933 -0.708,-1.768 -0.48667,-4.17067 0.99333,-5.228 0.21867,-0.156 0.676,-0.39734 0.91334,-0.36267 0.432,0.0507 0.864,0.096 1.296,0.14533 0.756,0.084 1.50666,0.108 2.276,0.0867 0.89866,-0.028 2.14666,-0.22667 2.82666,-1.03867 0.73734,-0.884 0.916,-2.09866 0.74267,-3.31733 -0.26267,-1.86133 -1.104,-3.744 -1.992,-5.28933 -0.336,-0.58267 -0.692,-1.192 -1.08,-1.72934 -0.184,-0.25466 -0.144,-0.47066 0.10133,-0.61866 1.764,-1.08267 3.532,-2.16534 5.29734,-3.24267 0.19466,-0.12267 0.4,-0.27067 0.60533,-0.32667 m -0.052,0.86134 c -1.71867,1.06 -3.44933,2.10133 -5.164,3.15866 1.15867,1.792 2.27067,3.79867 2.824,6.01734 0.416,1.672 0.42667,3.44 -0.588,4.80666 -1.024,1.38 -2.83067,1.46534 -4.25067,1.46534 -0.936,0 -1.85466,-0.11467 -2.768,-0.23067 -0.30933,-0.0387 -0.76666,0.35867 -0.98266,0.62533 -0.90667,1.12934 -0.82267,3.45867 0.0733,4.56667 0.37867,0.46133 0.90267,0.55067 1.39333,0.66667 0.78534,0.192 1.576,0.30533 2.392,0.35066 0.6,0.0373 1.20934,0.0347 1.80667,-0.003 1.68933,-0.10534 3.40933,-0.556 4.95467,-1.42267 1.53866,-0.86933 2.91866,-2.252 3.72533,-4.12 0.57333,-1.324 0.86133,-2.576 0.92667,-4.06667 0.16933,-3.648 -1.38267,-7.28666 -3.152,-10.10266 -0.36134,-0.576 -0.73334,-1.12667 -1.14134,-1.656 -0.016,-0.0213 -0.032,-0.0427 -0.0493,-0.056" style="fill:#000000;fill-opacity:1;fill-rule:nonzero;stroke:none;stroke-width:1.33333"></path>
      <path id="path91" d="m 286.13331,590.16449 c 0.16667,0 0.33467,0.0133 0.5,0.0213 -0.16533,0.276 -0.316,0.588 -0.45067,0.96666 -0.13866,0.39067 -0.25466,0.88267 -0.31066,1.37867 -0.06,0.57333 -0.0573,1.164 0.016,1.728 0.056,0.46 0.15066,0.868 0.272,1.248 0.18133,0.57333 0.41866,1.01333 0.668,1.39067 -0.16534,-0.0187 -0.33067,-0.048 -0.492,-0.0813 -0.016,-0.003 -0.084,-0.005 -0.0947,-0.024 -0.132,-0.21066 -0.25067,-0.46933 -0.35867,-0.74 -0.0387,-0.0987 -0.0733,-0.19333 -0.11066,-0.292 -0.068,-0.196 -0.136,-0.44 -0.192,-0.66666 -0.084,-0.372 -0.15067,-0.80134 -0.176,-1.212 -0.0453,-0.70667 -0.003,-1.35334 0.11866,-1.99734 0.13334,-0.68666 0.36134,-1.264 0.61067,-1.72" style="fill:#000000;fill-opacity:1;fill-rule:nonzero;stroke:none;stroke-width:1.33333"></path>
      <path id="path92" d="m 268.72904,590.21529 c 0,0 -0.98533,-3.25066 -1.56267,-7.77066 14.672,-8.308 24.36134,-9.08267 35.59067,-10.18134 1.93333,4.31334 2.83066,7.77067 2.83066,7.77067 0,0 -1.156,-0.29067 -3.10666,0.0427 -0.11334,0.0187 -1.79734,-4.13334 -4.59467,-3.41734 -1.12266,0.28534 -2.068,1.56267 -1.35733,4.15734 -1.68,0.12133 -3.31333,0.0867 -5.668,0.76133 -1.04267,-2.39733 -2.32933,-3.66133 -4.87067,-3.04 -3.01066,0.73467 -2.892,3.84267 -2.78666,5.32133 -1.97867,0.62667 -3.98267,1.51467 -5.192,2.20134 -0.65067,-1.592 -2.168,-3.13867 -4.19067,-2.168 -1.93333,0.936 -2.292,2.6 -2.136,4.97733 -1.32267,0.5 -2.956,1.34533 -2.956,1.34533" style="fill:#bbbbbb;fill-opacity:1;fill-rule:nonzero;stroke:none;stroke-width:1.33333"></path>
      <path id="path93" d="m 271.88264,560.58503 c 0.588,0.70267 1.51733,1.23467 2.66,1.55334 1.71067,0.47066 3.89867,0.46666 6.16933,-0.12267 2.268,-0.59067 4.184,-1.65733 5.44534,-2.89733 0.95866,-0.94934 1.54133,-2 1.61733,-3.02 7.37733,2.13733 12.23333,10.024 14.98266,16.16533 -11.22933,1.09867 -20.91999,1.87333 -35.59199,10.18133 -0.83867,-6.65333 -0.76934,-16.06 4.71733,-21.86" style="fill:#f5f5f5;fill-opacity:1;fill-rule:nonzero;stroke:none;stroke-width:1.33333"></path>
      <path id="path94" d="m 280.71144,562.01609 c -2.27067,0.588 -4.45733,0.592 -6.16933,0.12267 -1.14134,-0.31867 -2.07067,-0.85067 -2.66,-1.55333 1.44533,-1.528 3.256,-2.80267 5.52933,-3.71467 3.89467,-1.56667 7.34267,-1.65067 10.36267,-0.772 -0.0747,1.02 -0.65734,2.07067 -1.61734,3.02 -1.26,1.24 -3.17733,2.30667 -5.44533,2.89733" style="fill:#d1d1d1;fill-opacity:1;fill-rule:nonzero;stroke:none;stroke-width:1.33333"></path>
      <path id="path95" d="m 283.29291,555.18529 c 3.89333,-0.184 7.69467,1.38534 10.516,3.75867 1.108,0.92933 2.20133,1.95733 3.09467,3.04133 1.488,1.808 2.86133,3.69467 3.98,5.73334 1.23733,2.24666 2.332,4.49333 3.23466,6.836 0.67734,1.748 1.32,3.50266 1.80667,5.28933 0.0747,0.292 -0.003,0.61067 -0.424,0.55067 -0.492,-0.072 -0.97467,-0.13067 -1.488,-0.0987 -0.51067,0.0267 -0.964,0.088 -1.46133,0.14267 -0.416,0.0493 -0.59334,-0.484 -0.748,-0.764 -0.58267,-1.06134 -1.90534,-2.88134 -3.436,-2.71867 -1.74134,0.18133 -1.82534,1.89733 -1.624,3.12667 0.06,0.34 0.40666,1.056 -0.21467,1.10933 -0.368,0.032 -0.76933,0.0653 -1.13467,0.0733 -1.29333,0.0427 -2.516,0.21067 -3.74666,0.49467 -0.352,0.0773 -0.948,0.39067 -1.13734,-0.0547 -0.26,-0.59733 -0.56933,-1.21066 -0.98533,-1.73333 -0.87733,-1.10933 -1.88267,-1.41867 -3.35333,-1.08933 -2.43867,0.544 -2.75467,2.82266 -2.60134,4.75333 0.0307,0.39333 0.0227,0.488 -0.39333,0.62667 -1.62533,0.528 -3.36133,1.22 -4.84667,2.04666 -0.31066,0.18134 -0.53733,0.18134 -0.688,-0.16 -0.568,-1.24266 -1.74133,-2.712 -3.45066,-2.00533 -1.95334,0.804 -2.15734,2.364 -2.15734,4.09733 0,0.364 0.18,0.82934 -0.27333,1.00267 -0.94133,0.364 -1.916,0.81733 -2.8,1.276 -0.32133,0.16533 -0.52133,0.032 -0.604,-0.26133 -0.61067,-2.144 -1.06133,-4.32534 -1.39333,-6.52667 -0.152,-1.012 -0.29734,-2.05733 -0.376,-3.08 -0.1,-1.272 -0.184,-2.544 -0.184,-3.83333 0,-5.51067 0.87333,-11.50267 4.736,-15.96 2.10666,-2.42667 4.66933,-3.936 7.86266,-4.93867 1.372,-0.43467 2.824,-0.672 4.29067,-0.73467 m 0.27333,0.72667 c -2.14933,0.0707 -4.22,0.556 -6.16933,1.37067 -3.75067,1.572 -6.46667,4.28 -8.03067,7.69866 -0.99066,2.168 -1.54666,4.28934 -1.88666,6.59334 -0.268,1.82 -0.32667,3.64666 -0.32667,5.52666 0,0.71867 0.0347,1.45734 0.0933,2.17067 0.0813,1.03467 0.14934,2.05467 0.292,3.08133 0.184,1.328 0.34,2.69334 0.65067,3.99867 0.26,1.10667 0.44533,2.23867 0.78267,3.32533 0.72666,-0.38266 1.51066,-0.67466 2.25733,-1.024 0.11733,-0.0547 0.0573,-0.184 0.0573,-0.296 -0.0267,-1.952 0.24,-3.73066 2.30534,-4.75866 1.712,-0.85467 3.224,-0.14134 4.18,1.24133 0.15733,0.21867 0.28933,0.45333 0.41066,0.69333 1.44667,-0.71733 2.96934,-1.392 4.51734,-1.89733 0.17466,-0.0573 0.108,-0.1 0.0987,-0.25467 -0.116,-2.12666 0.43867,-4.48133 2.99467,-5.168 1.25333,-0.336 2.436,-0.28533 3.492,0.468 0.86667,0.61467 1.35467,1.568 1.78667,2.448 1.272,-0.32933 2.592,-0.51333 3.94,-0.59066 0.35066,-0.016 0.696,-0.036 1.044,-0.0587 -0.41334,-1.65333 -0.072,-4.064 2.25733,-4.26667 2.08533,-0.18133 3.49733,1.95734 4.312,3.384 0.068,0.116 0.13467,0.072 0.28,0.0507 0.7,-0.10133 1.44533,-0.13333 2.15867,-0.0653 -1.46134,-4.82934 -3.492,-9.68267 -6.42934,-14.06934 -1.852,-2.77333 -4.172,-5.416 -7.152,-7.31733 -2.31466,-1.48 -5.06533,-2.33867 -7.916,-2.284" style="fill:#000000;fill-opacity:1;fill-rule:nonzero;stroke:none;stroke-width:1.33333"></path>
      <path id="path96" d="m 302.83838,571.88449 c 0.0293,-0.005 0.0107,0.012 0.0107,0.0173 -0.0213,0.176 -0.0947,0.344 -0.12934,0.52 -0.0107,0.036 -0.02,0.192 -0.0467,0.216 -0.032,0.0227 -0.35867,0.044 -0.45067,0.052 -3.32133,0.32666 -6.66133,0.648 -9.84933,1.14133 -3.18934,0.49467 -6.20134,1.14533 -8.83467,1.92533 -2.12133,0.62934 -4.104,1.316 -5.92667,2.044 -1.24666,0.5 -2.432,1.004 -3.58266,1.53067 -2.37867,1.08267 -4.5,2.236 -6.59334,3.38667 -0.156,-0.14534 -0.308,-0.3 -0.456,-0.45467 -0.0733,-0.0773 -0.116,-0.0707 0.0107,-0.14533 0.81867,-0.46934 1.68667,-0.93067 2.55467,-1.396 2.47866,-1.32534 5.21066,-2.60267 8.248,-3.80134 1.11733,-0.43733 2.32266,-0.844 3.54,-1.26133 0.404,-0.136 0.84133,-0.26133 1.25466,-0.39067 0.8,-0.256 1.66134,-0.48666 2.51734,-0.71333 3.116,-0.828 6.79466,-1.472 10.51333,-1.91733 2.384,-0.28534 4.79867,-0.52267 7.22,-0.75334" style="fill:#000000;fill-opacity:1;fill-rule:nonzero;stroke:none;stroke-width:1.33333"></path>
      <path id="path145" d="m 259.98878,458.42489 c -0.0373,-5.36933 -0.04,-9.32 0.016,-9.81333 0.20667,-1.69867 6.32133,-2.104 6.832,-0.75733 0.47467,1.25066 1.71067,6.88 1.612,12.056 -2.264,-3.63067 -5.72667,-3.70134 -8.46,-1.48534" style="fill:#66e204;fill-opacity:1;fill-rule:nonzero;stroke:none;stroke-width:1.33333"></path>
      <path id="path146" d="m 263.19971,482.57983 c -0.908,0.0853 -1.89067,0.24 -2.908,0.45067 -0.0813,-7.072 -0.24267,-15.06667 -0.30267,-24.60533 2.73334,-2.216 6.196,-2.14667 8.46,1.48533 -0.0253,1.388 -0.14666,2.73867 -0.408,3.96933 -1.39066,6.616 -4.40933,10.092 -4.40933,10.092 z" style="fill:#f5f5f5;fill-opacity:1;fill-rule:nonzero;stroke:none;stroke-width:1.33333"></path>
      <path id="path147" d="m 260.29158,483.03036 c 1.01733,-0.21066 2,-0.364 2.908,-0.45066 l -0.14,10.97066 -2.712,-0.06 c 0,0 -0.0213,-7.716 -0.056,-10.46" style="fill:#d1d1d1;fill-opacity:1;fill-rule:nonzero;stroke:none;stroke-width:1.33333"></path>
      <path id="path148" d="m 264.40358,446.68796 c 0.26533,0.003 0.52667,0.02 0.79067,0.044 0.392,0.0453 0.78133,0.104 1.16666,0.27734 0.23334,0.108 0.508,0.18133 0.72667,0.54266 0.15333,0.26267 0.31333,0.8 0.43467,1.29867 0.508,2.04933 0.95333,4.62 1.18533,7.50133 0.224,2.84534 0.15067,5.556 -0.332,7.752 -0.5,2.27334 -1.11067,4.036 -1.74133,5.456 -0.83734,1.88134 -1.68267,3.31334 -2.568,4.47467 -0.056,0.0747 -0.068,0 -0.084,0.29867 -0.092,2.128 -0.21867,4.23066 -0.31334,6.35066 -0.04,0.80267 -0.0947,1.59867 -0.10133,2.42934 -0.0147,1.35866 -0.044,2.73066 -0.052,4.08933 -0.016,1.94133 -0.0627,3.88267 -0.076,5.82133 -0.003,0.288 0.0133,0.60667 -0.0533,0.71467 -0.16534,0.26933 -0.38934,0.17067 -0.57334,0.17067 -0.208,0 -0.41733,-0.0147 -0.632,-0.0147 -0.43466,0 -0.868,-0.02 -1.304,-0.02 -0.20133,0 -0.40666,0.032 -0.60933,-0.0147 -0.0573,-0.0133 -0.284,-0.0707 -0.28933,-0.416 -0.005,-0.40933 0.003,-0.82266 0,-1.236 -0.0213,-1.25066 0,-2.53066 -0.0187,-3.77733 -0.016,-1.18267 -0.005,-2.37867 -0.0213,-3.564 -0.0107,-0.97733 -0.0133,-1.95733 -0.0333,-2.92933 -0.024,-1.60134 -0.04,-3.20267 -0.064,-4.80134 -0.0267,-1.76533 -0.0573,-3.544 -0.0787,-5.31866 -0.0293,-2.3 -0.068,-4.60534 -0.0867,-6.91467 -0.0133,-1.27733 -0.0373,-2.57733 -0.04,-3.86 0,-0.99333 -0.0213,-1.992 -0.0213,-2.98267 0,-0.968 -0.016,-1.944 -0.016,-2.90933 0,-0.98933 -0.003,-1.972 -0.003,-2.96 0,-0.88533 -0.008,-1.86667 0.0107,-2.72933 0.0133,-0.59334 0.005,-1.00667 0.14533,-1.26 0.18,-0.324 0.37333,-0.48534 0.564,-0.61067 0.67733,-0.456 1.38533,-0.63733 2.07333,-0.74533 0.67067,-0.10534 1.34267,-0.184 2.01467,-0.15734 m -0.448,0.73467 c -0.39733,0.0467 -0.8,0.0267 -1.19867,0.12 -0.208,0.048 -0.42133,0.0587 -0.62933,0.12 -0.41067,0.11333 -0.82933,0.18133 -1.23333,0.436 -0.15734,0.0853 -0.316,0.17733 -0.46267,0.40933 -0.0853,0.13867 -0.072,0.61867 -0.084,0.976 -0.016,1.436 -0.009,2.89067 -0.009,4.34267 0,1.56133 0.009,3.144 0.0267,4.704 0.008,1.264 0.0107,2.544 0.0267,3.79867 0.0107,0.456 0.0107,0.92933 0.016,1.38266 0.0187,1.37467 0.0267,2.748 0.0467,4.11467 0.016,1.06133 0.0293,2.116 0.04,3.17467 0.024,1.60266 0.048,3.18933 0.0707,4.788 0.024,1.776 0.0587,3.56133 0.0747,5.34 0.012,1.45866 0.0427,2.92933 0.0427,4.40133 0,0.83467 0.0147,1.69867 0.02,2.53733 0.005,0.94267 0.0107,1.88267 0.0107,2.828 0,0.74267 0.0107,1.48 0.008,2.22134 0.656,0.0413 1.30934,0.028 1.968,0.06 0.0267,-1.116 0.0333,-2.29467 0.048,-3.42934 0.0333,-2.028 0.052,-4.06666 0.076,-6.09333 0.008,-0.44533 0.007,-0.89067 0.0307,-1.324 0.0427,-0.72133 0.0693,-1.46267 0.11067,-2.18933 0.0693,-1.29867 0.12133,-2.632 0.192,-3.928 0.04,-0.7 0.0747,-1.41467 0.104,-2.11867 0.0227,-0.372 0.12666,-0.392 0.19466,-0.47333 0.86667,-1.07734 1.71467,-2.58134 2.53867,-4.42534 0.596,-1.34266 1.21467,-3.12933 1.67867,-5.324 0.432,-2.03466 0.52133,-4.54 0.32533,-7.16266 -0.236,-3.144 -0.724,-5.89467 -1.28267,-8.02534 -0.0867,-0.344 -0.192,-0.71866 -0.308,-0.80666 -0.32266,-0.24934 -0.67066,-0.34 -1,-0.36 -0.31066,-0.016 -0.62,-0.0827 -0.93466,-0.0827 -0.16667,0 -0.336,-0.028 -0.50667,-0.012" style="fill:#000000;fill-opacity:1;fill-rule:nonzero;stroke:none;stroke-width:1.33333"></path>
      <path id="path149" d="m 263.68811,456.71663 c 0.50533,-0.005 0.996,0.0533 1.444,0.18667 0.576,0.17067 1.06667,0.41733 1.49067,0.70933 0.25733,0.176 0.47333,0.35867 0.69466,0.556 0.39467,0.352 0.732,0.764 1.012,1.16134 0.0267,0.0373 0.11334,0.13733 0.116,0.17866 0.024,0.26934 -0.003,0.548 0.003,0.81467 -0.40133,-0.636 -0.83733,-1.296 -1.48,-1.868 -0.67467,-0.60133 -1.628,-1.21067 -2.89333,-1.28533 -1.74534,-0.10534 -3.136,0.764 -4.08,1.536 -0.003,-0.128 -0.008,-0.26134 -0.008,-0.4 0,-0.032 -0.0107,-0.148 0.0107,-0.17334 0.0733,-0.0547 0.15067,-0.112 0.22934,-0.16666 0.88,-0.63067 2.052,-1.21734 3.46133,-1.24934" style="fill:#000000;fill-opacity:1;fill-rule:nonzero;stroke:none;stroke-width:1.33333"></path>
      <path id="path150" d="m 234.59304,456.31156 c 0.31867,0.372 2.50533,3.66134 5.46,8.15067 -3.50267,-0.332 -6.34533,1.65333 -6.216,5.93333 -2.95333,-4.256 -5.04933,-9.62666 -5.34933,-10.92533 -0.31734,-1.40933 4.99466,-4.46133 6.10533,-3.15867" style="fill:#66e204;fill-opacity:1;fill-rule:nonzero;stroke:none;stroke-width:1.33333"></path>
      <path id="path151" d="m 240.05264,464.46263 c 5.21867,7.93467 9.88933,15.23067 13.75867,21.184 -0.948,0.32667 -1.87067,0.71067 -2.74267,1.14534 l -5.42533,-7.37334 c 0,0 -4.43467,-1.212 -9.27067,-5.95466 -0.89467,-0.87334 -1.74667,-1.93467 -2.536,-3.06934 -0.12933,-4.28 2.71467,-6.264 6.216,-5.932" style="fill:#f5f5f5;fill-opacity:1;fill-rule:nonzero;stroke:none;stroke-width:1.33333"></path>
      <path id="path152" d="m 253.81171,485.64623 c 1.52,2.34134 5.39467,8.19067 5.39467,8.19067 l -2.22534,1.55467 -5.91333,-8.6 c 0.87333,-0.43467 1.796,-0.81867 2.744,-1.14534" style="fill:#d1d1d1;fill-opacity:1;fill-rule:nonzero;stroke:none;stroke-width:1.33333"></path>
      <path id="path153" d="m 233.49664,455.64103 c 0.492,-0.024 1.04,0.012 1.40933,0.46534 0.224,0.27066 0.44534,0.61066 0.648,0.90933 0.30267,0.448 0.61334,0.888 0.908,1.33867 0.896,1.372 1.83067,2.71333 2.716,4.092 1.70667,2.66266 3.47467,5.27066 5.18,7.92666 0.53867,0.83467 1.10534,1.64934 1.624,2.492 0.65334,1.05067 1.36534,2.04134 2.00534,3.09334 0.74,1.22666 1.572,2.37866 2.328,3.59466 0.76933,1.24934 1.60933,2.43867 2.38133,3.688 0.90667,1.464 1.87867,2.86534 2.81067,4.30667 1.196,1.868 2.452,3.68533 3.65333,5.55467 0.19733,0.30133 0.66667,0.73333 0.24,1.05866 -0.66933,0.50667 -1.38267,0.944 -2.06,1.44134 -0.572,0.412 -0.716,-0.076 -1.056,-0.57067 -0.83733,-1.20933 -1.67733,-2.41067 -2.5,-3.62933 -0.52933,-0.78267 -1.064,-1.584 -1.61467,-2.33467 -0.448,-0.616 -0.856,-1.296 -1.304,-1.91067 -0.75333,-1.02933 -1.496,-2.08533 -2.268,-3.09066 -0.94266,-1.228 -1.836,-2.52934 -2.77066,-3.768 -0.10534,-0.14267 -0.34534,-0.52934 -0.46667,-0.568 -0.38667,-0.13067 -0.772,-0.27734 -1.15067,-0.44 -1.48533,-0.62134 -2.996,-1.47067 -4.384,-2.456 -1.29066,-0.92134 -2.536,-1.928 -3.7,-3.084 -1.23333,-1.23067 -2.408,-2.74667 -3.388,-4.32 -0.936,-1.51467 -1.8,-3.096 -2.58933,-4.74934 -0.74267,-1.54933 -1.50933,-3.30666 -1.99467,-5.01333 -0.23333,-0.82133 0.52,-1.55467 0.98134,-1.952 1.28533,-1.10667 2.84666,-1.884 4.36133,-2.07467 m 0.0973,0.72934 c -1.37466,0.208 -2.844,0.90266 -4.00666,1.93866 -0.21334,0.18934 -0.80534,0.75867 -0.72134,1.132 0.168,0.744 0.51067,1.53067 0.78534,2.23734 0.7,1.81866 1.57466,3.52133 2.44666,5.184 0.632,1.204 1.38267,2.336 2.12534,3.43733 1.944,2.86933 4.60666,5.05467 7.23066,6.712 1.28267,0.816 2.72934,1.55867 4.096,1.99867 0.33467,0.104 0.33467,0.10666 0.572,0.42666 0.66667,0.89734 1.31734,1.81467 1.98134,2.70534 1.48266,1.992 2.97866,3.976 4.38,6.04533 0.46666,0.69467 0.94533,1.404 1.42266,2.08533 1.048,1.484 2.08134,2.99867 3.108,4.51067 0.0893,0.132 0.108,0.0613 0.22667,-0.024 0.48267,-0.32933 0.96933,-0.684 1.448,-1.024 -4.192,-6.32267 -8.33333,-12.68933 -12.44267,-19.088 -2.81066,-4.38267 -5.68666,-8.69467 -8.52933,-13.04667 -0.74533,-1.148 -1.52267,-2.26533 -2.27067,-3.41066 -0.292,-0.448 -0.60133,-0.90534 -0.90933,-1.33334 -0.29733,-0.41066 -0.408,-0.48 -0.85333,-0.48666 z" style="fill:#000000;fill-opacity:1;fill-rule:nonzero;stroke:none;stroke-width:1.33333"></path>
      <path id="path154" d="m 239.13144,464.21143 c 0.23733,-0.005 0.47733,0 0.71067,0.0133 0.0427,0.004 0.048,-0.005 0.0693,0.0267 0.0973,0.14934 0.19733,0.29734 0.29467,0.448 -0.27734,-0.0227 -0.56667,-0.0427 -0.856,-0.048 -1.32534,-0.0187 -2.66667,0.36267 -3.66934,1.25734 -0.48,0.436 -0.85866,0.96 -1.112,1.54933 -0.13066,0.296 -0.21866,0.576 -0.30266,0.888 -0.1,0.36133 -0.14,0.728 -0.18667,1.10667 -0.0133,0.132 -0.008,0.272 -0.016,0.40933 -0.024,0.28933 0.008,0.584 0.003,0.87067 -0.08,-0.11867 -0.16134,-0.23867 -0.24,-0.35734 -0.068,-0.096 -0.156,-0.21866 -0.208,-0.324 -0.016,-0.0293 -0.008,-0.204 -0.005,-0.25466 0.0347,-0.908 0.208,-1.79734 0.59734,-2.62267 0.24533,-0.53067 0.57466,-1.008 0.988,-1.424 1.04933,-1.036 2.484,-1.516 3.93333,-1.53867" style="fill:#000000;fill-opacity:1;fill-rule:nonzero;stroke:none;stroke-width:1.33333"></path>
      <path id="path155" d="m 209.04024,540.07076 c -0.84267,-3.32933 1.24533,-6.86266 4.336,-10.06266 -0.932,2.668 -1.21733,5.46533 -0.456,8.284 1.05333,3.91733 3.71467,6.776 7.044,8.856 -5.244,-1.00934 -9.90133,-3.06134 -10.924,-7.07734" style="fill:#66e204;fill-opacity:1;fill-rule:nonzero;stroke:none;stroke-width:1.33333"></path>
      <path id="path156" d="m 212.91984,538.29209 c -0.76133,-2.81866 -0.47467,-5.616 0.456,-8.284 1.47733,-1.53066 3.18133,-2.98 4.90667,-4.29866 -2.14134,4.412 3.08133,5.376 4.38666,10.652 0.816,3.26666 -3.95466,7.12666 2.43867,11.472 -1.70667,-0.14 -3.456,-0.356 -5.144,-0.68534 -3.328,-2.08 -5.99067,-4.93866 -7.044,-8.856" style="fill:#bbbbbb;fill-opacity:1;fill-rule:nonzero;stroke:none;stroke-width:1.33333"></path>
      <path id="path157" d="m 223.65544,522.00303 c 2.872,-1.80666 5.016,-2.90933 5.016,-2.90933 l 8.57867,28.73733 c 0,0 -2.112,0.192 -5.18134,0.232 -6.77733,-6.55866 -9.98533,-18.35733 -8.41333,-26.06" style="fill:#d1d1d1;fill-opacity:1;fill-rule:nonzero;stroke:none;stroke-width:1.33333"></path>
      <path id="path158" d="m 223.65544,522.00303 c -1.572,7.70267 1.636,19.50134 8.41333,26.06 -2.01466,0.0267 -4.44133,-0.02 -6.96133,-0.22933 -6.39333,-4.34533 -1.62267,-8.20533 -2.43733,-11.472 -1.30667,-5.276 -6.52934,-6.24 -4.388,-10.652 1.85733,-1.41733 3.73466,-2.67867 5.37333,-3.70667" style="fill:#f5f5f5;fill-opacity:1;fill-rule:nonzero;stroke:none;stroke-width:1.33333"></path>
      <path id="path159" d="m 228.59624,518.72956 c 0.172,-0.0347 0.36667,0.0707 0.42667,0.236 0.0947,0.25867 0.15466,0.53334 0.23466,0.80134 0.62934,2.008 1.18534,4.04533 1.80934,6.056 0.812,2.624 1.54666,5.272 2.36,7.892 0.44266,1.43866 0.84133,2.88266 1.29066,4.32 0.50667,1.62 0.968,3.25866 1.45734,4.888 0.41866,1.388 0.85066,2.78 1.25066,4.176 0.108,0.37866 0.45334,1.05866 -0.19733,1.10933 -1.25067,0.092 -2.51067,0.17867 -3.77467,0.19733 -0.99866,0.009 -2.004,0.0293 -3.01066,0.0293 -0.94267,0 -1.868,-0.0347 -2.80267,-0.0667 -1.65467,-0.056 -3.33733,-0.19467 -4.96267,-0.416 -2.084,-0.27867 -4.11733,-0.64267 -6.12666,-1.25733 -2.33734,-0.71867 -5.05067,-1.95867 -6.59334,-3.96667 -1.33333,-1.73733 -1.77333,-3.69333 -1.284,-5.83867 0.49067,-2.13466 1.81867,-4.188 3.25067,-5.83733 0.656,-0.752 1.36267,-1.544 2.108,-2.224 1.25067,-1.148 2.51067,-2.27867 3.856,-3.28667 1.708,-1.28266 3.44,-2.524 5.25733,-3.656 0.84667,-0.53066 1.7,-1.08666 2.57734,-1.57066 0.95066,-0.52934 1.888,-1.11734 2.87333,-1.58534 m -0.148,0.91067 c -3.65733,1.984 -7.148,4.204 -10.42,6.73867 -2.59733,2.01466 -5.224,4.41733 -7.04933,7.168 -1.588,2.38933 -2.484,5.30133 -0.956,7.94666 1.456,2.52267 4.40133,3.75334 7.03066,4.572 1.61467,0.50134 3.26534,0.78 4.93867,1.044 1.692,0.26934 3.39867,0.36934 5.124,0.49334 0.94267,0.0707 1.896,0.0467 2.84133,0.0933 0.75734,0.0373 1.552,-0.008 2.31334,-0.008 0.99333,0 1.97866,-0.0573 2.96266,-0.0933 0.504,-0.012 1.01467,-0.06 1.516,-0.0907 -0.42133,-1.45333 -0.85466,-2.94933 -1.3,-4.40933 -0.52933,-1.73334 -1.05333,-3.46934 -1.55866,-5.21067 -0.35867,-1.256 -0.756,-2.50667 -1.12134,-3.76133 -0.812,-2.776 -1.684,-5.532 -2.48533,-8.31067 -0.38667,-1.34933 -0.824,-2.68667 -1.208,-4.03733 -0.204,-0.71467 -0.43067,-1.42134 -0.628,-2.13467" style="fill:#000000;fill-opacity:1;fill-rule:nonzero;stroke:none;stroke-width:1.33333"></path>
      <path id="path160" d="m 213.16264,529.94049 c 0.14267,0.04 0.284,0.0947 0.42933,0.14 -0.67733,1.90667 -1.05333,4.10534 -0.804,6.348 0.27734,2.492 1.32,4.652 2.44267,6.15867 1.56133,2.09867 3.39733,3.49867 5.22533,4.60533 -0.21333,-0.0147 -0.42933,-0.032 -0.64266,-0.056 -0.11867,-0.0187 -0.28934,0 -0.39734,-0.0747 -0.98533,-0.64134 -1.952,-1.40267 -2.88933,-2.304 -1.86,-1.80534 -3.86533,-4.684 -4.22,-8.628 -0.19733,-2.18534 0.21333,-4.35334 0.856,-6.18934" style="fill:#000000;fill-opacity:1;fill-rule:nonzero;stroke:none;stroke-width:1.33333"></path>
      <path id="path161" d="m 218.66851,525.42103 c -0.208,0.44 -0.45067,0.91334 -0.58267,1.49867 -0.212,0.95067 -0.009,1.69333 0.348,2.352 0.332,0.62267 0.77734,1.13333 1.172,1.592 1.16534,1.36133 2.60534,2.86 3.25734,5.364 0.17333,0.66267 0.14933,1.288 0.0227,1.97733 -0.244,1.30934 -0.732,2.404 -0.89866,3.76667 -0.18134,1.496 0.256,2.61867 0.83333,3.43467 0.816,1.14533 1.77733,1.79866 2.68933,2.43733 -0.17466,-0.009 -0.36133,0.02 -0.54266,-0.007 -0.08,-0.0147 -0.23467,0.0147 -0.308,-0.0387 -0.256,-0.17867 -0.51067,-0.37867 -0.76134,-0.59067 -0.75866,-0.65333 -1.69866,-1.56133 -2.168,-2.99467 -0.46666,-1.43333 -0.15066,-2.82 0.216,-4.16 0.284,-1.04133 0.8,-2.44666 0.50267,-3.64666 -0.55333,-2.236 -1.80933,-3.64667 -2.83333,-4.844 -0.612,-0.712 -1.284,-1.416 -1.77067,-2.47734 -0.308,-0.68933 -0.37733,-1.53866 -0.17333,-2.37066 0.0413,-0.15467 0.184,-0.64934 0.252,-0.712 0.24533,-0.21734 0.496,-0.392 0.74533,-0.58134" style="fill:#000000;fill-opacity:1;fill-rule:nonzero;stroke:none;stroke-width:1.33333"></path>
      <path id="path162" d="m 280.59824,558.17489 c -12.00933,3.63734 -24.11333,2.88 -33.964,-1.27733 -9.85467,-4.164 -17.468,-11.72933 -20.48933,-21.716 -3.024,-9.98667 -0.89734,-20.504 5,-29.436 5.88933,-8.92666 15.53866,-16.26933 27.548,-19.90666 12.01333,-3.636 24.11066,-2.88134 33.964,1.28 9.85733,4.15733 17.46666,11.728 20.48799,21.71333 3.02667,9.992 0.896,20.50933 -4.99333,29.43733 -5.89333,8.92667 -15.54133,16.268 -27.55333,19.90533" style="fill:#f5f5f5;fill-opacity:1;fill-rule:nonzero;stroke:none;stroke-width:1.33333"></path>
      <path id="path163" d="m 273.01944,483.15796 c 3.21333,-0.0707 6.388,0.13467 9.464,0.664 1.884,0.31734 3.604,0.74267 5.44267,1.236 3,0.804 5.74533,2.06667 8.456,3.44534 4.33333,2.2 7.94399,5.368 10.95466,8.81333 1.58133,1.81333 2.78667,3.84133 3.92267,5.89867 1.728,3.13733 2.61066,6.472 3.24,9.84266 0.256,1.352 0.38133,2.90267 0.4,4.29467 0.0293,2.36533 -0.128,4.74667 -0.58,7.012 -1.56934,7.784 -5.52,15.12 -11.63333,21.17867 -1.77334,1.75333 -3.62,3.36266 -5.66134,4.88133 -2.60533,1.93867 -5.43733,3.61867 -8.45066,5.05733 -10.92134,5.21067 -23.792,6.98533 -35.85867,3.872 -3.664,-0.94266 -6.90933,-2.30266 -10.188,-4.03333 -5.46933,-2.88667 -9.79467,-7.14133 -12.97333,-11.86933 -2.21334,-3.29467 -3.77467,-7.344 -4.508,-10.99334 -0.568,-2.80666 -0.792,-5.77333 -0.58267,-8.692 0.20667,-2.90933 0.772,-5.71866 1.648,-8.49466 1.74,-5.5 4.872,-10.51467 8.86533,-15.08 0.812,-0.93334 1.70934,-1.83334 2.64,-2.68534 2.384,-2.19333 4.92534,-4.256 7.72534,-5.99733 8.108,-5.03067 17.704,-8.132 27.67733,-8.35067 m 0.41867,0.72 c -3.168,0.0467 -6.224,0.44534 -9.25867,1.00267 -6.38533,1.16267 -12.428,3.67467 -17.82,6.90667 -3.364,2.01333 -6.44267,4.47866 -9.15067,7.16266 -3.29333,3.26667 -5.83066,6.82 -7.94266,10.75867 -1.62267,3.028 -2.79467,6.42667 -3.456,9.66133 -1.63334,8.03067 -0.224,16.456 4.33866,23.60534 4.80934,7.54 13.3,13.32 22.864,15.68533 2.784,0.68667 5.41067,1.09067 8.30534,1.33867 9.344,0.80133 18.69733,-1.34134 26.82933,-5.12667 4.78533,-2.22533 9.14533,-5.31067 12.88667,-8.75067 2.77599,-2.548 5.18666,-5.53333 7.13066,-8.57866 1.224,-1.91867 2.196,-3.80134 3.084,-5.824 1.69867,-3.876 2.55733,-7.78934 2.83467,-11.94667 0.29466,-4.38267 -0.48,-9.048 -2.09467,-13.10267 -0.948,-2.37866 -2.16533,-4.71733 -3.716,-6.88266 -6.58,-9.19734 -17.76,-14.80267 -30.06933,-15.728 -1.56667,-0.11867 -3.15867,-0.22134 -4.76533,-0.18134" style="fill:#000000;fill-opacity:1;fill-rule:nonzero;stroke:none;stroke-width:1.33333"></path>
      <path id="path164" d="m 272.42571,545.27649 c -9.82267,3.1 -19.65867,2.668 -27.616,-0.52666 -7.95467,-3.19334 -14.02667,-9.15867 -16.332,-17.13067 -2.308,-7.972 -0.41333,-16.44667 4.51467,-23.696 4.92666,-7.24933 12.892,-13.28933 22.72,-16.384 9.83333,-3.09333 19.66666,-2.66533 27.62133,0.52934 7.95867,3.19466 14.02933,9.16133 16.33733,17.13199 2.30667,7.97334 0.416,16.44 -4.51466,23.69867 -4.92934,7.248 -12.89734,13.28133 -22.73067,16.37733" style="fill:#bbbbbb;fill-opacity:1;fill-rule:nonzero;stroke:none;stroke-width:1.33333"></path>
      <path id="path165" d="m 268.91531,485.22049 c 6.89067,-0.048 13.708,1.61734 19.32933,5.05734 6.29067,3.848 10.16267,9.33066 11.85333,15.59466 0.848,3.156 1.044,6.924 0.48534,10.17067 -0.42934,2.492 -1.028,4.80933 -2.05467,7.188 -3.59866,8.38667 -10.86666,15.61733 -20.10133,19.95867 -3.86667,1.81733 -8.18267,3.19866 -12.452,3.86933 -1.00267,0.156 -2.13333,0.33733 -3.148,0.39333 -2.99467,0.17867 -6.12667,0.276 -9.072,-0.15866 -4.10933,-0.6 -7.684,-1.596 -11.37867,-3.376 -1.78666,-0.864 -3.30133,-1.892 -4.884,-3.00934 -1.70133,-1.20266 -3.188,-2.768 -4.46,-4.25333 -5.352,-6.26133 -6.872,-14.82 -5.00133,-22.28933 1.008,-3.996 2.80267,-7.932 5.416,-11.47334 3.27867,-4.45333 7.66533,-8.50266 12.84533,-11.44533 6.75467,-3.83733 14.47734,-6.192 22.62267,-6.22667 m -0.11333,0.42534 c -7.43334,0.10533 -14.55334,2.07733 -20.88267,5.412 -3.34133,1.76266 -6.38533,3.964 -9.092,6.456 -1.532,1.40533 -2.92267,2.924 -4.16133,4.50933 -1.99067,2.54267 -3.54,5.23467 -4.752,8.09067 -1.196,2.82133 -1.90667,5.77333 -2.12534,8.784 -0.20266,2.74266 0.0733,5.56266 0.76934,8.176 0.376,1.416 0.89466,2.82133 1.53066,4.18133 0.86134,1.83867 2.04534,3.57733 3.36534,5.184 1.968,2.38667 4.408,4.34533 7.2,6.02133 3.93733,2.37334 9.01333,3.972 13.73066,4.44667 2.43734,0.24533 4.776,0.31333 7.26267,0.168 8.54,-0.5 16.448,-3.52667 23.136,-8.084 6.688,-4.56667 12.144,-11.56533 14.27733,-18.51733 0.964,-3.15067 1.472,-6.16934 1.33467,-9.51334 -0.23734,-5.892 -2.80533,-12.08666 -7.552,-16.55466 -3.22667,-3.04134 -7.03733,-5.36267 -11.51867,-6.828 -2.36533,-0.77334 -4.77866,-1.32134 -7.268,-1.62534 -1.72533,-0.21333 -3.48,-0.29466 -5.25466,-0.30666" style="fill:#000000;fill-opacity:1;fill-rule:nonzero;stroke:none;stroke-width:1.33333"></path>
      <path id="path166" d="m 270.60864,538.68276 c -7.75733,2.44667 -15.52267,2.10934 -21.8,-0.408 -6.27733,-2.51733 -11.07333,-7.22266 -12.89333,-13.508 -1.82134,-6.28666 -0.324,-12.97333 3.57066,-18.69466 3.89334,-5.71867 10.17867,-10.48 17.93867,-12.91867 7.76,-2.44667 15.52133,-2.10933 21.79867,0.404 6.28133,2.52 11.07333,7.22 12.89333,13.51067 1.82,6.284 0.324,12.96933 -3.564,18.69333 -3.90133,5.716 -10.18133,10.48133 -17.944,12.92133" style="fill:#2c2c2c;fill-opacity:1;fill-rule:nonzero;stroke:none;stroke-width:1.33333"></path>
      <path id="path167" d="m 267.73558,491.26863 c 0.21333,-0.0293 0.44,-0.003 0.65333,0 1.172,0.024 2.31067,0.0853 3.44534,0.224 7.71866,0.93067 14.50666,4.58 18.268,10.52534 2.716,4.308 3.62666,9.58933 2.64266,14.41733 -0.60666,2.97067 -1.66266,5.684 -3.31733,8.41333 -1.76667,2.90667 -4.20133,5.54 -6.99867,7.83067 -1.24266,1.016 -2.67333,1.98667 -4.08,2.81467 -3.032,1.79066 -6.56,3.264 -10.1,4.09066 -6.72133,1.572 -13.512,1.348 -19.856,-1.23333 -3.09733,-1.25867 -5.88,-3.14933 -8.02666,-5.44133 -1.14534,-1.21734 -2.12534,-2.47867 -2.91067,-3.904 -2.85733,-5.16934 -3.27067,-11.05334 -1.408,-16.52934 1.51333,-4.444 4.19333,-8.46933 7.91733,-11.89866 1.204,-1.108 2.52134,-2.15467 3.904,-3.064 2.54267,-1.67467 5.152,-3.056 8.156,-4.12 3.72934,-1.32 7.63067,-2.088 11.71067,-2.12534 m -0.372,0.44267 c -2.27733,0.028 -4.42,0.38 -6.58933,0.79733 -1.68667,0.32267 -3.56134,0.88534 -5.15067,1.50667 -3.848,1.504 -7.04133,3.32 -10.09333,5.81467 -5.124,4.192 -8.68267,9.80533 -9.79467,15.67333 -0.18133,0.93733 -0.28933,1.88533 -0.33333,2.85067 -0.0427,1.02666 -0.004,2.03466 0.092,3.036 0.71866,7.46666 5.98133,14.04266 14.29466,17.01733 2.02267,0.72667 4.104,1.22133 6.25867,1.48 2.07067,0.248 4.072,0.276 6.188,0.17333 3,-0.14933 5.924,-0.85066 8.732,-1.71733 2.724,-0.83733 5.368,-2.17333 7.71333,-3.57867 1.86534,-1.11466 3.66667,-2.532 5.228,-3.968 6.468,-5.95333 10.16267,-14.59066 8.26667,-22.60266 -0.48267,-2.04 -1.27867,-4.03067 -2.448,-5.912 -2.56533,-4.11467 -6.72667,-7.148 -11.768,-8.95067 -3.32267,-1.192 -6.94133,-1.65467 -10.596,-1.62" style="fill:#000000;fill-opacity:1;fill-rule:nonzero;stroke:none;stroke-width:1.33333"></path>
      <path id="path168" d="m 258.13731,510.57329 c 0.148,-0.003 0.30267,0.0107 0.45333,0.028 0.80134,0.08 1.67467,0.52 2.27867,1.04934 0.30267,0.26533 0.61333,0.56 0.86933,0.864 0.208,0.24666 0.448,0.496 0.616,0.76666 0.064,0.108 0.0667,0.152 0.0667,0.28 0,0.12534 -0.0747,0.244 -0.16933,0.32934 -0.0707,0.0653 -0.26134,0.13066 -0.35334,0.108 -0.14133,-0.0373 -0.208,-0.0773 -0.3,-0.188 -0.2,-0.22934 -0.38,-0.432 -0.624,-0.624 -0.292,-0.22934 -0.57733,-0.4 -0.91866,-0.55334 -0.68,-0.31066 -1.37334,-0.37466 -2.108,-0.208 -0.32134,0.076 -0.68,0.208 -0.97734,0.36134 -0.34533,0.176 -0.68,0.384 -0.98266,0.624 -0.724,0.576 -1.39867,1.312 -1.87467,2.08 -0.10533,0.16933 -0.20133,0.364 -0.31467,0.52533 -0.06,0.0867 -0.0973,0.11733 -0.192,0.16533 -0.0733,0.032 -0.0733,0.028 -0.15466,0.032 -0.148,0.0133 -0.22667,-0.0293 -0.34,-0.11466 -0.14267,-0.10667 -0.20534,-0.328 -0.14267,-0.48534 0.0893,-0.224 0.22933,-0.44533 0.34,-0.66133 0.19733,-0.364 0.392,-0.72267 0.588,-1.084 0.29733,-0.544 0.64,-1.05867 1.03467,-1.53733 0.54266,-0.66134 1.16666,-1.18134 1.97066,-1.508 0.392,-0.16134 0.8,-0.236 1.23467,-0.24934" style="fill:#4ae1ff;fill-opacity:1;fill-rule:nonzero;stroke:none;stroke-width:1.33333"></path>
      <path id="path169" d="m 268.35411,507.56556 c 0.088,-0.003 0.18,-0.008 0.272,-0.003 0.7,0.0253 1.48533,0.23466 2.12,0.52133 0.572,0.256 1.132,0.56933 1.63867,0.91467 0.24,0.16266 0.532,0.32133 0.748,0.51333 0.0707,0.0707 0.11066,0.10267 0.14266,0.19333 0.0227,0.0787 0.036,0.10667 0.0267,0.18667 -0.004,0.0773 -0.007,0.1 -0.04,0.168 -0.0293,0.0653 -0.0373,0.084 -0.0893,0.13867 -0.0667,0.064 -0.0893,0.0773 -0.172,0.11733 -0.0733,0.0307 -0.11334,0.0227 -0.19467,0.0227 -0.148,0 -0.32933,-0.148 -0.45067,-0.23067 -0.85066,-0.528 -1.90666,-0.84933 -2.91866,-0.88533 -0.48134,-0.0133 -1.01867,0.076 -1.45867,0.22933 -0.456,0.16 -0.94133,0.42933 -1.30933,0.724 -0.63467,0.51067 -1.16667,1.232 -1.468,1.95867 -0.076,0.19333 -0.13334,0.39066 -0.21067,0.58533 -0.0467,0.11867 -0.0813,0.14933 -0.184,0.22933 -0.068,0.056 -0.17867,0.076 -0.27067,0.0653 -0.12533,-0.0147 -0.22133,-0.052 -0.30933,-0.13867 -0.0653,-0.072 -0.076,-0.0893 -0.10533,-0.18 -0.0387,-0.0987 -0.0307,-0.184 -0.003,-0.284 0.08,-0.33467 0.17733,-0.672 0.28,-1.00133 0.18667,-0.61067 0.37467,-1.18934 0.69733,-1.76267 0.25067,-0.444 0.58,-0.91067 0.996,-1.24267 0.24,-0.18933 0.51334,-0.38666 0.80134,-0.51333 0.46133,-0.196 0.956,-0.31067 1.46133,-0.32667" style="fill:#4ae1ff;fill-opacity:1;fill-rule:nonzero;stroke:none;stroke-width:1.33333"></path>
      <path id="path170" d="m 316.69718,522.49396 c -2.616,1.604 -4.50533,2.57067 -4.50533,2.57067 -1.35334,0.36933 -3.11334,-0.87067 -4.728,-3.24933 -1.60667,-2.37734 -3.15867,-5.84934 -4.26134,-9.85334 -1.104,-4.00133 -1.552,-7.77866 -1.39333,-10.64933 0.16267,-2.87067 0.93733,-4.75467 2.29333,-5.12667 0,0 2.4,-0.21466 5.796,-0.22133 0.24267,0 0.49467,0 0.748,10e-4 -1.66533,2.45467 1.12667,4.04267 1.59334,5.43867 1.072,3.25333 -1.232,4.45733 -0.20267,7.92933 0.73467,2.484 4.39867,3.13734 4.86533,6.16934 0.4,2.57333 -2.5,4.39066 -0.003,6.86 -0.0667,0.0453 -0.13467,0.0907 -0.20267,0.13066" style="fill:#f5f5f5;fill-opacity:1;fill-rule:nonzero;stroke:none;stroke-width:1.33333"></path>
      <path id="path171" d="m 326.40091,515.29596 c -1.24133,1.16 -2.58933,2.264 -3.93867,3.288 -1.94133,1.45867 -3.892,2.748 -5.56266,3.78 -2.49734,-2.47066 0.40266,-4.28666 0.003,-6.86133 -0.46666,-3.03067 -4.13066,-3.684 -4.86533,-6.16933 -1.028,-3.47067 1.27467,-4.676 0.20267,-7.92934 -0.46667,-1.396 -3.25867,-2.98266 -1.59334,-5.43733 1.76,0.0107 3.74,0.0827 5.77334,0.26667 1.652,0.14533 3.34266,0.36533 4.968,0.68933 -0.17067,0.37733 -0.31867,0.772 -0.45467,1.184 -0.78133,2.48267 -0.82,5.62133 0.0627,8.83467 0.888,3.212 2.53333,5.88933 4.48266,7.61733 0.29867,0.272 0.60934,0.516 0.92267,0.73733" style="fill:#bbbbbb;fill-opacity:1;fill-rule:nonzero;stroke:none;stroke-width:1.33333"></path>
      <path id="path172" d="m 331.90091,503.44049 c 1.27733,3.93867 -1.56,8.16134 -5.5,11.856 -0.31333,-0.22133 -0.624,-0.46533 -0.92267,-0.73733 -1.94933,-1.728 -3.59466,-4.40667 -4.48266,-7.61733 -0.88267,-3.21334 -0.84534,-6.35334 -0.0627,-8.83467 0.136,-0.41333 0.284,-0.80667 0.45467,-1.18533 0.49866,0.10133 0.99333,0.20533 1.47733,0.324 4.316,1.056 7.96667,2.93066 9.036,6.19466" style="fill:#66e204;fill-opacity:1;fill-rule:nonzero;stroke:none;stroke-width:1.33333"></path>
      <path id="path173" d="m 308.98878,495.60463 c 0.65067,-0.02 1.31733,-0.0107 1.972,0 0.77733,0.008 1.56267,0.005 2.33467,0.0533 0.44266,0.0253 0.888,0.0413 1.33333,0.068 2.95067,0.184 5.92933,0.53466 8.75867,1.26666 2.584,0.672 5.49733,1.78134 7.36933,3.82267 2.04533,2.22533 2.292,5.10533 1.14667,7.81467 -0.88267,2.084 -2.25067,3.90933 -3.82534,5.53466 -1.38,1.428 -2.83333,2.72667 -4.38266,3.93334 -0.70667,0.548 -1.396,1.09066 -2.124,1.60666 -1.37467,0.97867 -2.776,1.92534 -4.21334,2.81867 -0.59333,0.37333 -1.212,0.77333 -1.824,1.108 -0.856,0.46133 -1.67466,1.00267 -2.54666,1.436 -0.28,0.13467 -0.82667,0.57467 -1.08267,0.23467 -0.22667,-0.29467 -0.024,-0.5 0.24,-0.62934 1.41733,-0.72 2.81467,-1.54933 4.16667,-2.38133 1.86,-1.14533 3.66133,-2.332 5.42133,-3.62533 1.772,-1.30267 3.53467,-2.73067 5.11467,-4.308 0.63066,-0.63334 1.24666,-1.292 1.816,-1.97334 1.09066,-1.30133 2.044,-2.71866 2.65466,-4.316 0.35334,-0.93333 0.61334,-2.10666 0.5,-3.12133 -0.11066,-1.036 -0.392,-1.98533 -1,-2.85467 -0.94133,-1.348 -2.3,-2.31866 -3.77733,-3.01066 -2.56133,-1.19867 -5.22667,-1.76267 -7.98133,-2.17067 -0.764,-0.11333 -1.528,-0.17733 -2.29734,-0.27067 -1.23066,-0.13333 -2.47866,-0.17733 -3.72266,-0.248 -0.992,-0.056 -2.00667,-0.0533 -3.00534,-0.0533 -0.86666,0 -1.728,0.0373 -2.58933,0.0373 -0.7,0 -1.404,0.0893 -2.10133,0.1 -0.42667,0.005 -0.84534,0.0813 -1.272,0.076 -0.432,-0.008 -0.496,-0.69866 0.0467,-0.74266 1.61467,-0.12267 3.23467,-0.18267 4.87067,-0.20534" style="fill:#000000;fill-opacity:1;fill-rule:nonzero;stroke:none;stroke-width:1.33333"></path>
      <path id="path174" d="m 310.77664,495.96916 c 0.0427,-0.0107 0.0973,-0.008 0.14,0 -0.17733,0.26667 -0.356,0.52667 -0.48267,0.956 -0.26533,0.86934 0.15867,1.684 0.40934,2.06267 0.34133,0.512 0.692,0.912 1.03733,1.38 0.33467,0.448 0.61067,0.848 0.78267,1.796 0.19733,1.076 0.0413,1.956 -0.20267,2.85333 -0.224,0.83067 -0.56667,1.912 -0.45067,3.024 0.128,1.184 0.41867,1.8 0.816,2.30534 0.36667,0.47333 0.78534,0.82533 1.172,1.132 0.64,0.496 1.28667,0.98133 1.908,1.632 0.40534,0.42266 0.99734,1.14266 1.196,2.244 0.216,1.184 -0.19866,2.14266 -0.48533,2.91466 -0.224,0.60134 -0.71333,1.652 -0.43733,2.57467 0.216,0.73467 0.61866,1.06933 0.92,1.412 -0.04,0.0213 -0.08,0.044 -0.116,0.068 -0.0693,0.032 -0.256,0.188 -0.308,0.13733 -0.29867,-0.29866 -0.72534,-0.80133 -0.92534,-1.50666 -0.26533,-0.91734 0.0787,-1.84667 0.31334,-2.48667 0.28933,-0.78267 0.852,-1.92133 0.57466,-3.148 -0.232,-1.03733 -0.80666,-1.66267 -1.21466,-2.068 -0.58134,-0.56667 -1.172,-0.99333 -1.76267,-1.47467 -0.50267,-0.40933 -1.064,-0.87466 -1.516,-1.63866 -0.28,-0.47467 -0.53867,-1.304 -0.588,-2.20267 -0.11067,-1.86933 0.616,-2.82933 0.73733,-4.48 0.0653,-0.88267 -0.16266,-1.89867 -0.44266,-2.34667 -0.332,-0.53066 -0.70267,-0.93733 -1.048,-1.40266 -0.25334,-0.34134 -0.60267,-0.80534 -0.78,-1.41067 -0.18667,-0.63333 -0.15467,-1.15733 0.0507,-1.71067 0.06,-0.168 0.252,-0.61066 0.332,-0.61066 0.124,0 0.24667,-0.003 0.37067,-0.005" style="fill:#000000;fill-opacity:1;fill-rule:nonzero;stroke:none;stroke-width:1.33333"></path>
      <path id="path175" d="m 321.16331,496.87929 c 0.148,0.0267 0.3,0.0587 0.448,0.0907 -0.26667,0.584 -0.50267,1.25867 -0.68267,2.00933 -0.33466,1.388 -0.43466,2.91067 -0.31333,4.49867 0.20533,2.78933 1.096,5.264 1.98133,6.94133 1.17467,2.23067 2.57334,3.74267 3.972,4.72534 -0.0653,0.0613 -0.132,0.11866 -0.19733,0.18133 -0.0453,0.04 -0.11333,0.14133 -0.15867,0.10667 -0.97466,-0.70134 -1.936,-1.63334 -2.84133,-2.90534 -0.81733,-1.144 -1.612,-2.56266 -2.236,-4.384 -0.24267,-0.71066 -0.48533,-1.52533 -0.64933,-2.37866 -0.24934,-1.26934 -0.40534,-2.532 -0.36267,-3.97734 0.0547,-1.928 0.45867,-3.63466 1.04,-4.908" style="fill:#000000;fill-opacity:1;fill-rule:nonzero;stroke:none;stroke-width:1.33333"></path>
      <path id="path176" d="m 304.05331,495.81809 c 0.11067,-0.012 0.32133,0.0267 0.39733,0.25067 0.11334,0.33067 -0.17333,0.44533 -0.24933,0.472 -0.40133,0.14933 -0.81733,0.39733 -1.15467,1.02933 -0.71333,1.32134 -0.95066,3.388 -0.89066,5.52667 0.11066,3.84267 0.97466,7.50133 1.924,10.512 0.524,1.67067 1.15333,3.23733 1.80933,4.632 0.58,1.24 1.18267,2.296 1.83333,3.29467 0.60267,0.92533 1.26667,1.65733 1.92534,2.252 0.604,0.54533 1.328,0.96266 1.97866,0.96266 0.176,0 0.33467,-0.0227 0.5,-0.0507 0.10267,-0.016 0.44534,-0.003 0.42667,0.38666 -0.003,0.18667 -0.168,0.31334 -0.22933,0.32667 -0.59734,0.14933 -1.15867,0.0733 -1.74,-0.152 -1.40934,-0.55333 -2.86134,-2.20533 -4.052,-4.21733 -0.996,-1.696 -1.936,-3.672 -2.74,-5.96667 -0.89734,-2.54667 -1.672,-5.42667 -2.10667,-8.64 -0.27733,-2.068 -0.408,-4.512 -0.0973,-6.61467 0.38666,-2.58933 1.428,-3.78533 2.46533,-4.004" style="fill:#000000;fill-opacity:1;fill-rule:nonzero;stroke:none;stroke-width:1.33333"></path>
      <path id="path177" d="m 309.65024,474.25823 c -0.0187,1.46934 -0.59333,2.87467 -1.57467,4.03334 -1.19066,1.40933 -2.98,2.44666 -5.08933,2.77866 -2.10533,0.32667 -4.13067,-0.11066 -5.69733,-1.09066 -1.32534,-0.82667 -2.324,-2.036 -2.77734,-3.488 -0.0813,-0.26934 -0.14533,-0.54267 -0.18933,-0.82667 -0.28267,-1.824 0.31067,-3.60667 1.50667,-5.016 1.19066,-1.41067 2.98666,-2.44667 5.092,-2.776 2.10666,-0.32933 4.13066,0.108 5.69733,1.09067 1.56533,0.97466 2.67867,2.48666 2.964,4.30933 0.028,0.32133 0.0467,0.648 0.068,0.98533" style="fill:#5e5e5e;fill-opacity:1;fill-rule:nonzero;stroke:none;stroke-width:1.33333"></path>
      <path id="path178" d="m 294.51158,476.49129 c 0.45333,1.452 1.452,2.66134 2.77733,3.488 1.56667,0.98134 3.592,1.41867 5.69734,1.092 2.10933,-0.332 3.89866,-1.37066 5.08933,-2.77866 0.98133,-1.16 1.556,-2.56534 1.57467,-4.03467 0.35066,5.06 0.56666,11.99867 0.30266,19.94267 -0.21333,6.25866 -0.71866,13.14666 -1.704,20.228 -0.86133,6.204 -2.08666,12.572 -3.79866,18.80666 -1.496,5.47467 -3.36667,10.85067 -5.692,15.92667 -1.776,3.89067 -3.82,7.60533 -6.16134,11.06533 -2.38933,3.53067 -7.17066,1.144 -5.29733,-2.752 1.70133,-3.556 3.13733,-7.236 4.33333,-10.98933 1.60667,-5.024 2.792,-10.17333 3.64,-15.31067 0.98267,-5.94 1.512,-11.86533 1.73334,-17.55866 0.256,-6.728 0.076,-13.13867 -0.324,-18.89467 -0.51334,-7.41733 -1.39867,-13.744 -2.17067,-18.23067" style="fill:#8f8f8f;fill-opacity:1;fill-rule:nonzero;stroke:none;stroke-width:1.33333"></path>
      <path id="path179" d="m 309.53958,472.92236 c 0.13867,0.0307 0.4,-0.08 0.432,0.50934 0.076,1.25066 0.176,2.48133 0.22933,3.74533 0.14134,3.18267 0.24934,6.356 0.24934,9.65333 0,5.852 -0.23067,11.39334 -0.668,16.90934 -0.31067,3.93866 -0.72534,7.568 -1.236,11.316 -0.53467,3.912 -1.23734,7.564 -1.96267,11.02133 -0.46133,2.184 -0.972,4.236 -1.50133,6.25867 -1.10934,4.24133 -2.34667,7.94133 -3.64267,11.39333 -0.61333,1.648 -1.26133,3.2 -1.91467,4.656 -1.75733,3.90533 -3.65733,7.60533 -5.592,10.50266 -0.44533,0.66134 -0.912,1.516 -1.368,2.01067 -1.072,1.16933 -2.32,1.67733 -3.47466,1.39333 -0.716,-0.17466 -1.756,-0.452 -2.35734,-1.888 -0.54533,-1.308 -0.0253,-2.52266 0.324,-3.264 1.40134,-2.95066 2.79067,-6.31199 4.01734,-10.11599 1.14533,-3.55334 2.144,-7.25734 3.024,-11.52934 0.672,-3.26533 1.212,-6.73066 1.65866,-10.43466 0.572,-4.78534 0.85467,-9.62667 0.96534,-14.78267 0.16266,-7.53733 -0.27467,-15.57467 -1.02534,-22.49333 -0.14933,-1.35867 -0.31333,-2.65334 -0.476,-4 -0.25866,-2.20534 -0.60666,-4.27867 -0.93333,-6.38267 -0.0347,-0.22133 -0.17867,-0.856 -0.12667,-1.04 0.0947,-0.32 0.516,-0.23467 0.636,-0.10533 0.12534,0.136 0.25734,1.20133 0.32267,1.60933 0.644,3.86933 1.136,7.936 1.54667,12.076 0.308,3.056 0.49066,6.18933 0.65066,9.36 0.15334,2.99067 0.196,6.19467 0.17734,9.29867 -0.0107,1.744 -0.048,3.508 -0.116,5.208 -0.064,1.59333 -0.156,3.16133 -0.264,4.72 -0.47467,7.004 -1.48534,13.71866 -2.77867,19.428 -0.35867,1.584 -0.732,3.14666 -1.144,4.58533 -0.55067,1.93067 -1.09467,3.84533 -1.69867,5.58133 -1.10666,3.17467 -2.24666,6.14533 -3.47466,8.716 -0.232,0.48533 -1.04267,1.82533 -0.67467,3.04267 0.372,1.24133 1.244,1.49866 1.73867,1.63066 0.988,0.25067 2.208,-0.0493 3.10666,-1.33866 0.85067,-1.22534 1.69867,-2.56267 2.528,-4.00134 0.84267,-1.46666 1.69734,-2.96 2.50267,-4.61999 1.15867,-2.38667 2.32933,-4.9 3.39067,-7.74134 0.46133,-1.228 0.94266,-2.46266 1.38,-3.78 0.46933,-1.404 0.92933,-2.82666 1.37466,-4.33333 2.084,-7.036 3.70934,-14.83067 4.87334,-24.02 0.33466,-2.648 0.62666,-5.58533 0.83733,-8.356 0.23467,-3.15867 0.44267,-6.512 0.52667,-9.77867 0.0427,-1.75066 0.0947,-3.51333 0.0947,-5.28666 0,-5.04934 -0.108,-9.91734 -0.468,-14.68667 -0.0533,-0.70667 0.17867,-0.564 0.31067,-0.64667" style="fill:#000000;fill-opacity:1;fill-rule:nonzero;stroke:none;stroke-width:1.33333"></path>
      <path id="path180" d="m 302.20104,467.39756 c 1.10933,-0.008 2.22,0.17067 3.22667,0.564 2.28133,0.89467 3.91733,2.612 4.436,4.79734 0.75333,3.19733 -1.12,6.376 -4.288,7.90133 -1.51467,0.72533 -3.23467,1.00667 -4.952,0.83333 -2.788,-0.28266 -5.288,-1.94933 -6.272,-4.36266 -1.07067,-2.61867 -0.264,-5.49734 1.92533,-7.47067 1.57733,-1.42267 3.70933,-2.24667 5.924,-2.26267 m 0.04,0.74 c -2.27067,0.009 -4.46,0.948 -5.93333,2.53734 -1.99334,2.144 -2.29867,5.24933 -0.452,7.55466 0.62133,0.772 1.428,1.388 2.35466,1.83334 2.05734,0.988 4.58667,0.956 6.67734,0.0893 1.15866,-0.48 2.13333,-1.20667 2.916,-2.11467 0.632,-0.728 1.10666,-1.65733 1.32,-2.548 0.56933,-2.43066 -0.464,-4.85466 -2.77867,-6.256 -1.21733,-0.73466 -2.64267,-1.10666 -4.104,-1.096" style="fill:#000000;fill-opacity:1;fill-rule:nonzero;stroke:none;stroke-width:1.33333"></path>
      <path id="path181" d="m 309.96931,493.82849 c 0.003,0.0787 -0.003,0.17734 -0.008,0.264 -0.012,0.156 -0.0333,0.316 -0.036,0.47067 0,0.0373 -0.072,0.10133 -0.108,0.13333 -0.95067,1.02667 -2.41867,2.088 -4.51467,2.61334 -0.868,0.216 -1.83066,0.336 -2.81466,0.276 -2.572,-0.13467 -4.424,-1.28 -5.568,-2.33334 -0.0493,-0.0427 -0.208,-0.16666 -0.208,-0.20666 -0.005,-0.21867 -0.056,-0.44534 -0.048,-0.664 0.288,0.30533 0.60933,0.60133 0.95733,0.89066 0.95067,0.78534 2.504,1.63334 4.40133,1.83334 1.99067,0.208 3.75867,-0.26667 5.12267,-0.956 0.33733,-0.17334 0.636,-0.35067 0.92,-0.53734 0.81867,-0.54 1.41733,-1.16133 1.904,-1.784" style="fill:#000000;fill-opacity:1;fill-rule:nonzero;stroke:none;stroke-width:1.33333"></path>
      <path id="path182" d="m 297.01424,513.31423 c 0.80667,0.80534 1.73067,1.61467 3.216,2.20267 1.19333,0.47067 2.68933,0.70533 4.20933,0.44267 1.07467,-0.18534 1.98667,-0.548 2.67334,-0.97467 0.456,-0.28267 0.84,-0.57733 1.19066,-0.89333 -0.0253,0.164 -0.0547,0.332 -0.0787,0.5 -0.008,0.048 -0.003,0.15866 -0.048,0.196 -0.90534,0.724 -2.252,1.464 -4.07467,1.67066 -0.74,0.0853 -1.56667,0.0707 -2.284,-0.0507 -0.808,-0.13467 -1.50133,-0.35334 -2.12,-0.628 -0.54533,-0.24934 -1.01733,-0.51867 -1.43067,-0.808 -0.468,-0.32134 -0.88933,-0.672 -1.248,-1.02267 -0.04,-0.044 -0.0187,-0.096 -0.0187,-0.144 0.008,-0.164 0.005,-0.32933 0.0133,-0.49067" style="fill:#000000;fill-opacity:1;fill-rule:nonzero;stroke:none;stroke-width:1.33333"></path>
      <path id="path183" d="m 295.49398,530.96129 c 0.008,0.028 0.005,0.0613 0.005,0.0853 0,0.0387 -0.003,0.0533 0.024,0.084 0.136,0.176 0.28134,0.34666 0.43334,0.52533 0.264,0.29867 0.57733,0.58533 0.92,0.85733 0.73733,0.58134 1.83333,1.16934 3.14533,1.348 0.432,0.0587 0.84,0.0773 1.29333,0.056 0.26,-0.0107 0.50267,-0.0427 0.748,-0.0787 0.97734,-0.156 1.79067,-0.508 2.476,-0.90534 -0.0453,0.17067 -0.0973,0.34134 -0.14933,0.508 -0.005,0.028 -0.007,0.0853 -0.04,0.10267 -0.10267,0.056 -0.216,0.10667 -0.32667,0.15733 -0.31866,0.15467 -0.66933,0.28134 -1.048,0.38934 -0.83066,0.23466 -1.752,0.34266 -2.69066,0.25333 -0.67334,-0.0707 -1.28,-0.22133 -1.84534,-0.43467 -0.34533,-0.132 -0.64133,-0.28 -0.94133,-0.44533 -0.23733,-0.12667 -0.46267,-0.27867 -0.66133,-0.424 -0.592,-0.43467 -1.09334,-0.91467 -1.49334,-1.41467 -0.0267,-0.0373 -0.12533,-0.136 -0.12266,-0.17066 0.007,-0.0507 0.02,-0.10267 0.0307,-0.156 0.005,-0.028 0.005,-0.108 0.024,-0.13067 0.0573,-0.068 0.15734,-0.136 0.21867,-0.20667" style="fill:#000000;fill-opacity:1;fill-rule:nonzero;stroke:none;stroke-width:1.33333"></path>
      <path id="path184" d="m 291.75184,546.11636 c 0.0213,0.0627 0.0493,0.14534 0.068,0.21334 0.32933,1.11733 0.99067,2.4 2.42667,3.048 0.51333,0.22666 1.08666,0.35066 1.68533,0.35066 1.12533,0 2.14133,-0.388 2.97467,-0.90933 -0.088,0.208 -0.17467,0.42133 -0.28,0.62667 -0.016,0.032 -0.016,0.0533 -0.06,0.076 -0.40934,0.20133 -0.82534,0.36133 -1.296,0.48533 -1.11734,0.292 -2.36267,0.20267 -3.35334,-0.292 -1.23866,-0.624 -1.912,-1.63867 -2.31866,-2.64533 -0.0187,-0.0507 -0.0787,-0.17334 -0.0707,-0.22134 0.0587,-0.24666 0.148,-0.48533 0.224,-0.732" style="fill:#000000;fill-opacity:1;fill-rule:nonzero;stroke:none;stroke-width:1.33333"></path>
      <path id="path277" d="m 298.91011,446.68009 c 5.67467,0.85734 12.744,12.87334 7.452,20.896 -3.02667,4.56 -6.32933,2.46 -6.02133,0.108 0.176,-1.388 1.236,-4.42 -0.068,-7.476 -1.60934,-3.74 -3.35067,-3.69466 -5.61734,-5.03333 -2.99333,-1.78 -0.036,-9.14533 4.25467,-8.49467" style="fill:#f5f5f5;fill-opacity:1;fill-rule:nonzero;stroke:none;stroke-width:1.33333"></path>
      <path id="path278" d="m 298.18864,446.27783 c 1.49067,-0.0293 2.972,0.67334 4.22533,1.69067 1.396,1.136 2.70267,2.66 3.68267,4.38533 0.484,0.852 0.89867,1.67867 1.28267,2.62534 0.67066,1.66933 1.124,3.57866 1.20666,5.43066 0.0787,1.75734 -0.164,3.56267 -0.764,5.124 -1.01466,2.62 -3.20666,5.488 -5.68666,5.068 -1.15467,-0.19066 -2.39067,-1.308 -2.16134,-2.988 0.0827,-0.61333 0.232,-1.22933 0.33734,-1.836 0.17866,-0.98 0.25866,-1.85866 0.208,-2.892 -0.0787,-1.69466 -0.848,-3.38 -1.764,-4.60933 -0.87734,-1.17733 -2.108,-1.65733 -3.25067,-2.21867 -0.95067,-0.468 -1.87067,-0.87733 -2.268,-2.196 -0.55867,-1.84 0.30267,-4.036 1.296,-5.39066 0.95333,-1.29334 2.28133,-2.13334 3.656,-2.19334 m 0.0707,0.73734 c -2.152,0.1 -4.11467,2.468 -4.42,5.16 -0.13467,1.14933 0.192,2.19733 1.04266,2.70533 1.26534,0.75333 2.596,1.12933 3.752,2.18133 1.096,0.99334 2.00134,2.68667 2.40934,4.296 0.42266,1.64667 0.23466,3.472 -0.0947,5.10934 -0.0893,0.43333 -0.228,0.95466 -0.25467,1.39466 -0.084,1.288 0.992,2.044 1.86934,2.044 1.93066,0 3.66933,-2.39733 4.48666,-4.45733 2.05734,-5.17867 -0.14266,-11.43733 -3.28533,-15.12533 -1.38,-1.612 -3.10533,-3.012 -4.976,-3.27867 -0.176,-0.0267 -0.35333,-0.0347 -0.52933,-0.0293" style="fill:#000000;fill-opacity:1;fill-rule:nonzero;stroke:none;stroke-width:1.33333"></path>
      <path id="path279" d="m 298.90424,446.31289 c 0.0347,0 0.0653,0.005 0.1,0.0107 0.26,0.0547 0.53733,0.14267 0.78267,0.26267 0.56133,0.26666 1.10133,0.70133 1.42133,1.376 0.124,0.24933 0.20933,0.48933 0.272,0.76666 0.21867,0.94534 0.0867,1.95734 -0.17867,2.85467 -0.16133,0.556 -0.372,1.056 -0.612,1.552 -0.228,0.468 -0.55466,0.908 -0.88933,1.248 -0.44267,0.448 -0.93067,0.83733 -1.45733,1.11867 -0.624,0.33466 -1.296,0.56266 -1.97867,0.57333 -0.51867,0.005 -1.056,-0.0853 -1.52533,-0.34667 -0.13867,-0.0787 -0.3,-0.168 -0.42534,-0.27733 -0.056,-0.048 -0.12933,-0.164 -0.12266,-0.256 0.004,-0.0827 0.003,-0.096 0.0347,-0.16667 0.0533,-0.12266 0.11067,-0.16 0.208,-0.20533 0.0533,-0.028 0.092,-0.0187 0.15067,-0.0187 0.092,0 0.18133,0.0613 0.26133,0.11867 0.70534,0.49067 1.556,0.50533 2.31467,0.24667 0.548,-0.18134 1.11467,-0.50267 1.592,-0.916 0.38133,-0.324 0.78933,-0.748 1.05867,-1.23467 0.48666,-0.888 0.87066,-1.95867 0.92933,-3.048 0.024,-0.45333 -0.0133,-0.86933 -0.14267,-1.288 -0.24933,-0.84667 -0.86933,-1.34 -1.516,-1.53867 -0.12933,-0.0427 -0.26666,-0.068 -0.39066,-0.11066 -0.0813,-0.0293 -0.11334,-0.048 -0.176,-0.128 -0.0533,-0.0613 -0.0773,-0.14267 -0.0693,-0.23334 0.005,-0.11333 0.0427,-0.18933 0.11334,-0.26 0.068,-0.0707 0.16,-0.0973 0.24533,-0.1" style="fill:#000000;fill-opacity:1;fill-rule:nonzero;stroke:none;stroke-width:1.33333"></path>
      <path id="path280" d="m 309.12944,450.19049 c 4.96533,2.97467 7.14667,16.79734 -0.71867,22.164 -4.46533,3.05067 -6.78,-0.15333 -5.62933,-2.21066 0.67867,-1.21467 2.77333,-3.604 2.668,-6.928 -0.132,-4.07734 -1.772,-4.70134 -3.38267,-6.81334 -2.14133,-2.796 3.30134,-8.45866 7.06267,-6.212" style="fill:#f5f5f5;fill-opacity:1;fill-rule:nonzero;stroke:none;stroke-width:1.33333"></path>
      <path id="path281" d="m 307.16064,449.31289 c 1.76933,-0.0973 3.43467,1.188 4.64933,3.22667 1.99334,3.35067 2.728,8.4 1.68534,12.71733 -0.41067,1.69334 -1.04,3.07467 -1.85867,4.33867 -0.75733,1.17467 -1.72533,2.14267 -2.688,2.83467 -1.48267,1.06133 -3.092,1.84133 -4.73867,1.456 -0.84,-0.19867 -2.11733,-1.02134 -2.09333,-2.684 0.0147,-0.9 0.53867,-1.588 0.92667,-2.17467 0.75333,-1.12 1.48,-2.352 1.844,-3.896 0.28933,-1.23467 0.232,-2.70133 -0.0573,-3.92533 -0.412,-1.76534 -1.39733,-2.65334 -2.308,-3.67467 -0.56933,-0.63467 -1.37333,-1.43333 -1.31466,-2.71333 0.076,-1.552 1.12,-2.94267 1.91466,-3.672 1.244,-1.14134 2.61067,-1.80534 4.03867,-1.83334 m 0.044,0.73734 c -1.59067,0.0573 -3.17067,0.94533 -4.40133,2.592 -0.61867,0.828 -1.24534,2.33466 -0.508,3.43866 0.36266,0.54534 0.82666,1 1.23333,1.45067 0.43067,0.48267 0.91333,0.988 1.27733,1.61733 0.532,0.93467 0.808,1.83067 0.95067,3.06 0.18933,1.676 -0.0187,3.076 -0.588,4.50534 -0.53467,1.34266 -1.31333,2.41066 -2.02533,3.54533 -0.55334,0.888 -0.224,1.98667 0.4,2.47467 0.628,0.5 1.24933,0.552 1.95466,0.48533 0.464,-0.0467 0.92534,-0.236 1.37467,-0.412 0.664,-0.26933 1.35733,-0.74667 1.98133,-1.23867 1.20934,-0.95066 2.328,-2.36 3.112,-4.128 1.79334,-4.02 1.61067,-9.46666 -0.204,-13.38933 -1.072,-2.324 -2.712,-4.08 -4.55733,-4.00133" style="fill:#000000;fill-opacity:1;fill-rule:nonzero;stroke:none;stroke-width:1.33333"></path>
      <path id="path282" d="m 309.04544,449.82596 c 0.12133,-0.016 0.21867,0.005 0.31333,0.076 0.21867,0.16134 0.43467,0.332 0.616,0.528 0.18267,0.20134 0.324,0.38934 0.456,0.616 0.11867,0.208 0.208,0.42134 0.264,0.64267 0.092,0.33067 0.144,0.68933 0.11067,1.03733 -0.0293,0.46667 -0.13467,0.94 -0.32267,1.37067 -0.18933,0.432 -0.41866,0.86533 -0.70266,1.25467 -0.22667,0.304 -0.47334,0.61333 -0.73734,0.89066 -0.45333,0.464 -0.92,0.89734 -1.504,1.20667 -0.85333,0.45067 -1.77066,0.69867 -2.756,0.69867 -0.36,0 -0.676,-0.0427 -1.01866,-0.12134 -0.65334,-0.14266 -1.336,-0.54 -1.74134,-1.04533 -0.10266,-0.132 -0.24,-0.292 -0.30266,-0.44 -0.0213,-0.0533 -0.032,-0.17333 -0.0187,-0.22667 0.0293,-0.10266 0.116,-0.20266 0.22133,-0.248 0.0667,-0.028 0.0973,-0.0307 0.17067,-0.0333 0.0507,-0.003 0.0867,0.0173 0.13467,0.036 0.068,0.024 0.12133,0.0893 0.156,0.14267 0.128,0.192 0.24133,0.34533 0.416,0.50533 0.632,0.57467 1.52266,0.75467 2.38666,0.67467 1.032,-0.0933 2.05734,-0.488 2.80534,-1.16934 0.81066,-0.74 1.56666,-1.65466 1.896,-2.65866 0.15866,-0.484 0.248,-1.04534 0.124,-1.54934 -0.13734,-0.54666 -0.4,-0.95333 -0.85867,-1.33733 -0.0973,-0.0813 -0.31333,-0.212 -0.35867,-0.31333 -0.0547,-0.11734 -0.0547,-0.21334 0.003,-0.332 0.048,-0.10267 0.13467,-0.16534 0.248,-0.20534" style="fill:#000000;fill-opacity:1;fill-rule:nonzero;stroke:none;stroke-width:1.33333"></path>
      <path id="path283" d="m 296.08838,430.53169 3.53067,1.55467 c 0,0 -1.9,3.048 0.17066,3.94533 2.028,0.87734 3.31067,-2.21333 3.31067,-2.21333 l 3.13467,1.38667 c 0,0 -1.04267,2.87066 1.20666,3.86933 2.24934,0.99333 4.13067,-1.67467 4.13067,-1.67467 l 3.39467,1.54 c -0.88,1.74934 -1.73334,3.412 -2.53867,5.03867 -1.55733,-0.316 -3.43733,0.11333 -4.128,2.17867 -0.37867,1.136 -0.32133,2.65066 1.248,4.084 -0.96667,2.30666 -1.15867,2.70133 -1.764,5.19333 -1.13067,0.156 -2.97067,0.47733 -3.34267,2.64533 -0.364,2.13067 0.972,3.91334 1.704,4.39334 -0.148,1.768 -0.20266,3.66666 -0.14133,5.73466 l -4.17067,-2.28133 c 0,0 0.30534,-4.10667 -1.26933,-4.88667 -1.57067,-0.784 -3.12933,2.48 -3.12933,2.48 l -2.624,-1.43866 c 0,0 0.36,-3.63867 -1.60134,-4.35067 -1.96266,-0.70667 -2.60533,2.05067 -2.60533,2.05067 l -2.252,-1.23067 c -0.132,-1.324 -0.192,-2.63067 -0.18267,-3.92667 1.74667,-0.30266 2.39467,-1.264 2.66134,-2.54666 0.31866,-1.57334 0.024,-3.728 -1.82,-4.484 0.316,-2.52267 0.53733,-3.548 1.18666,-5.30667 2.15067,0.252 3.388,-1.28667 3.92134,-2.22133 1.48533,-2.61334 0.009,-3.58534 -0.91734,-4.55734 0.884,-1.69866 1.84934,-3.35866 2.88667,-4.976" style="fill:#fdb556;fill-opacity:1;fill-rule:nonzero;stroke:none;stroke-width:1.33333"></path>
      <path id="path284" d="m 296.17758,430.17236 c 1.00667,0.42667 2.00267,0.89467 3.008,1.32267 0.19867,0.0853 1.02,0.28667 0.76133,0.772 -0.29466,0.55333 -0.54266,1.036 -0.692,1.70267 -0.28,1.25733 0.45867,1.84533 1.26667,1.84533 0.76933,0 1.472,-0.73333 1.936,-1.54667 0.24,-0.432 0.356,-0.98266 0.84267,-0.772 0.86666,0.38534 1.74666,0.76134 2.61066,1.164 0.23734,0.11067 0.82134,0.20934 0.66934,0.70667 -0.38534,1.256 -0.29334,2.52267 0.66666,3.184 1.22934,0.84533 2.59734,0.164 3.62934,-0.89733 0.27733,-0.288 0.48,-0.744 0.87466,-0.58 0.38934,0.168 0.764,0.35866 1.14934,0.52666 0.57066,0.24 1.13466,0.53734 1.704,0.77467 0.23066,0.0947 0.93733,0.26 0.68133,0.76933 -0.72933,1.464 -1.48,2.908 -2.20933,4.372 -0.20267,0.40267 -0.32667,0.90934 -0.748,0.82 -1.08267,-0.216 -2.60534,-0.028 -3.34934,1.24267 -0.824,1.40267 -0.57333,2.90667 0.41734,3.988 0.192,0.208 0.632,0.46533 0.492,0.848 -0.12934,0.34 -0.28934,0.704 -0.43467,1.04133 -0.472,1.096 -0.84267,2.20934 -1.14533,3.41067 -0.10534,0.42933 -0.1,0.88667 -0.50534,0.94933 -0.79066,0.12 -1.74666,0.25734 -2.38933,0.996 -1.23333,1.42134 -0.55867,3.84534 0.53733,5.00667 0.11867,0.12133 0.48667,0.37867 0.54,0.508 0.06,0.14133 -0.0267,0.90133 -0.0427,1.112 -0.0893,1.28533 -0.0813,2.6 -0.0813,3.91333 0,0.20667 0.0493,0.87734 -0.0187,1.012 -0.184,0.41067 -0.59067,0.14 -0.82934,0.003 -1.088,-0.61067 -2.18933,-1.21067 -3.28266,-1.79867 -0.17334,-0.0907 -0.548,-0.24 -0.67734,-0.39066 -0.168,-0.18134 -0.0733,-0.724 -0.0707,-0.996 0.008,-1 -0.124,-2.64534 -0.65067,-3.38934 -0.92933,-1.31733 -2.08133,0.296 -2.72133,1.27467 -0.276,0.41733 -0.38667,1.02133 -0.89067,0.764 -0.74533,-0.37867 -1.492,-0.812 -2.23333,-1.21733 -0.23067,-0.12534 -0.57867,-0.208 -0.556,-0.63734 0.0213,-0.35066 0.04,-0.672 0.016,-1.03466 -0.11067,-1.54667 -0.58534,-2.94267 -1.88267,-2.94267 -0.71467,0 -1.33067,0.85867 -1.56267,1.74667 -0.108,0.39733 -0.33733,0.50266 -0.62933,0.34533 -0.60533,-0.332 -1.20933,-0.68533 -1.82267,-1.00267 -0.23466,-0.11466 -0.55066,-0.204 -0.58533,-0.59066 -0.0387,-0.32267 -0.0573,-0.65867 -0.0813,-0.98134 -0.0533,-0.764 -0.072,-1.51866 -0.0947,-2.29333 -0.0107,-0.45333 -0.0813,-0.87733 0.324,-0.956 1.07467,-0.22133 2.05733,-0.672 2.352,-2.3 0.31067,-1.676 -0.10533,-3.16133 -1.28533,-3.86667 -0.19734,-0.12266 -0.57467,-0.17333 -0.53467,-0.572 0.056,-0.592 0.15067,-1.18 0.24267,-1.76133 0.2,-1.25733 0.49733,-2.32667 0.916,-3.50133 0.17733,-0.49734 0.51466,-0.32134 0.856,-0.32134 1.51466,0 2.916,-1.11733 3.572,-3.04266 0.45333,-1.33334 -0.24934,-2.09067 -0.96667,-2.792 -0.23067,-0.22667 -0.57467,-0.41467 -0.35067,-0.85067 0.736,-1.45467 1.568,-2.884 2.416,-4.22933 0.216,-0.344 0.472,-0.95334 0.84267,-0.85734 m 0.0533,0.82934 c -0.904,1.436 -1.77333,2.908 -2.568,4.44666 0.90267,0.84 1.79067,1.84934 1.34,3.49867 -0.46933,1.72 -1.78,3.09733 -3.048,3.524 -0.472,0.15733 -0.87733,0.21333 -1.38,0.21333 -0.168,0 -0.124,0.003 -0.19466,0.19734 -0.408,1.16266 -0.672,2.34666 -0.84,3.596 -0.0373,0.26266 -0.0787,0.52133 -0.108,0.78533 -0.0213,0.16533 0.02,0.13067 0.12133,0.184 1.65333,0.88 2.196,3.41867 1.40933,5.51067 -0.424,1.14533 -1.33066,1.64666 -2.18133,1.91066 -0.076,0.0253 -0.164,0.048 -0.232,0.0733 -0.016,1.07333 0.0573,2.11466 0.13733,3.16 0.024,0.28533 0.0187,0.224 0.212,0.33466 0.49334,0.26667 0.99067,0.52934 1.484,0.80267 0.63467,-1.82533 2.068,-2.43867 3.38534,-1.63733 0.948,0.57333 1.35066,1.95466 1.42133,3.272 0.016,0.30266 0.0187,0.57333 0.0133,0.87866 -0.003,0.18267 0.0667,0.156 0.17734,0.21867 0.60533,0.35333 1.21333,0.67733 1.82533,1.00133 0.116,0.0613 0.10533,-0.0187 0.176,-0.14666 0.824,-1.47067 2.20267,-2.872 3.56933,-1.984 1.09334,0.71066 1.28534,2.94666 1.28534,4.396 0,0.0747 -0.024,0.41866 -0.0107,0.45733 0.0187,0.06 0.47733,0.284 0.55867,0.32533 0.84533,0.47467 1.69866,0.95334 2.552,1.40134 0.0907,0.0493 0.19066,0.112 0.28266,0.14666 -0.024,-1.516 -0.003,-3.03333 0.108,-4.512 0.007,-0.076 0.0373,-0.36933 0.0187,-0.416 -0.0107,-0.0187 -0.32267,-0.3 -0.372,-0.348 -1.224,-1.31066 -1.91733,-3.764 -0.824,-5.568 0.68133,-1.124 1.83333,-1.40666 2.80533,-1.59866 0.184,-0.032 0.132,-0.0667 0.18934,-0.28267 0.28133,-1.056 0.55333,-2.04667 0.96133,-3.04533 0.19467,-0.48934 0.396,-0.97867 0.59333,-1.45867 -1.05466,-1.016 -1.75466,-2.616 -1.13066,-4.35067 0.77733,-2.16266 2.584,-2.588 4.172,-2.42933 0.116,0.0133 0.116,-0.0707 0.17733,-0.196 0.716,-1.41067 1.42533,-2.828 2.13067,-4.24 -0.888,-0.42533 -1.79067,-0.8 -2.68134,-1.22533 -0.11333,-0.0547 -0.11333,0.0133 -0.20266,0.11066 -1.17467,1.25734 -2.51334,2.00534 -4.02,1.50934 -1.212,-0.40267 -2.11867,-1.54667 -1.888,-3.388 0.0333,-0.23867 0.0707,-0.476 0.128,-0.708 -0.81067,-0.32534 -1.62534,-0.78 -2.444,-1.08534 -0.0827,-0.032 -0.0973,0.048 -0.148,0.14534 -0.956,1.756 -2.45467,2.67333 -3.96934,1.66133 -0.93466,-0.624 -0.89866,-1.89867 -0.5,-3.01867 0.108,-0.304 0.228,-0.59066 0.37067,-0.86266 -0.956,-0.41467 -1.90933,-0.832 -2.86267,-1.26" style="fill:#000000;fill-opacity:1;fill-rule:nonzero;stroke:none;stroke-width:1.33333"></path>
      <path id="path285" d="m 298.79611,457.99916 c -1.73867,0.272 -3.25067,-0.58533 -4.29333,-2.188 -1.03867,-1.60933 -1.608,-3.96 -1.46267,-6.684 0.15067,-2.72133 0.98533,-5.29466 2.228,-7.25866 1.23333,-1.95867 2.86667,-3.30934 4.60533,-3.58267 1.74134,-0.26933 3.25334,0.58533 4.29067,2.192 1.04533,1.60667 1.61467,3.956 1.468,6.67733 -0.15333,2.72134 -0.99067,5.29867 -2.22667,7.26 -1.23733,1.96134 -2.87066,3.31067 -4.60933,3.584" style="fill:#fdffb9;fill-opacity:1;fill-rule:nonzero;stroke:none;stroke-width:1.33333"></path>
      <path id="path286" d="m 298.44784,450.50036 c -0.824,-0.192 -1.44133,-0.88266 -1.784,-1.844 -0.34,-0.968 -0.40533,-2.20533 -0.104,-3.49066 0.304,-1.28 0.91067,-2.368 1.64533,-3.08134 0.73734,-0.716 1.60134,-1.06266 2.424,-0.87466 0.82134,0.192 1.44267,0.88266 1.78267,1.844 0.34267,0.968 0.40533,2.20533 0.10267,3.48533 -0.30534,1.28533 -0.904,2.36667 -1.648,3.088 -0.73067,0.712 -1.59467,1.064 -2.41867,0.87333" style="fill:#fd6757;fill-opacity:1;fill-rule:nonzero;stroke:none;stroke-width:1.33333"></path>
      <path id="path287" d="m 295.10011,450.21143 5.832,2.824 -0.34533,1.28534 -5.83467,-2.82267 z" style="fill:#fd6757;fill-opacity:1;fill-rule:nonzero;stroke:none;stroke-width:1.33333"></path>
      <path id="path288" d="m 294.38731,452.86369 5.832,2.81867 -0.34267,1.28267 -5.83466,-2.82134 z" style="fill:#fd6757;fill-opacity:1;fill-rule:nonzero;stroke:none;stroke-width:1.33333"></path>
      <path id="path289" d="m 288.97651,458.00169 c 3.196,-3.45866 7.47867,0.80267 7.19067,3.69867 -0.13067,1.33333 -1.85734,2.82267 -1.304,6.10933 0.45333,2.67867 2.432,3.748 3.22533,4.63467 0.78933,0.888 -0.44,4.752 -4.82133,2.89067 -7.72,-3.264 -7.49067,-13.87734 -4.29067,-17.33334" style="fill:#f5f5f5;fill-opacity:1;fill-rule:nonzero;stroke:none;stroke-width:1.33333"></path>
      <path id="path290" d="m 291.70104,456.34156 c 0.90667,0.005 1.76,0.36934 2.58267,0.96134 0.876,0.63866 1.97466,1.984 2.21733,3.54133 0.11733,0.72667 0.0213,1.264 -0.24533,1.87067 -0.332,0.76666 -0.696,1.42133 -0.932,2.296 -0.256,0.95866 -0.26134,2.13333 -0.0187,3.09866 0.44533,1.788 1.52533,2.72 2.53067,3.58134 0.37466,0.316 0.844,0.68266 0.844,1.46266 0,1.188 -0.71467,2.088 -1.344,2.51067 -0.67734,0.45733 -1.548,0.61867 -2.29867,0.53067 -0.83333,-0.0987 -1.62667,-0.34934 -2.42133,-0.74267 -1.81467,-0.90533 -3.52534,-2.308 -4.752,-4.74267 -1.568,-3.11066 -1.85467,-7.52133 -0.432,-10.89866 0.95066,-2.272 2.58133,-3.52134 4.26933,-3.46934 m -0.18933,0.74267 c -1.54667,0.0507 -2.92667,1.49867 -3.648,3.68667 -1.11734,3.38933 -0.64534,7.36133 0.95333,10.14266 1.348,2.344 3.29467,3.66134 5.176,4.3 0.79867,0.276 1.79467,0.4 2.58933,0.0227 0.55867,-0.26533 1.296,-0.92667 1.356,-1.964 0.0293,-0.54533 -0.216,-0.68 -0.46533,-0.904 -0.90133,-0.83333 -1.88667,-1.57067 -2.51333,-2.976 -0.648,-1.44933 -0.76667,-3.25733 -0.27067,-4.864 0.23467,-0.76533 0.57333,-1.408 0.87467,-2.09333 0.26266,-0.57734 0.30533,-1.04 0.15733,-1.71467 -0.23467,-1.10667 -1.032,-2.112 -1.65867,-2.64 -0.79333,-0.66667 -1.652,-1.02667 -2.55066,-0.996" style="fill:#000000;fill-opacity:1;fill-rule:nonzero;stroke:none;stroke-width:1.33333"></path>
    </g>
  </g>
</svg>