<?xml version="1.0" encoding="UTF-8" standalone="no"?>


<svg version="1.1" id="svg1" width="129.57452" height="172.53595" viewBox="0 0 129.57452 172.53595" xmlns="http://www.w3.org/2000/svg" xmlns:svg="http://www.w3.org/2000/svg">
  <defs id="defs1"></defs>
  <g id="layer-MC0" transform="translate(-783.98891,-454.25427)">
    <g id="g1232">
      <path id="path1" d="m 896.26673,590.59852 c -1.644,0.0293 -5.17867,-0.176 -8.156,-2.228 -1.28267,-0.888 -0.43734,-3.21866 1.028,-2.67333 3.152,1.16667 5.608,0.928 7.29866,0.64667 0.83334,-0.14667 1.796,0.98 1.74534,2.23466 -0.0427,1.18534 -0.952,2.00267 -1.916,2.02" style="fill:#f5f5f5;fill-opacity:1;fill-rule:nonzero;stroke:none;stroke-width:1.33333"></path>
      <path id="path2" d="m 888.72633,585.24958 c 0.0853,0.0107 0.21466,0.0107 0.3,0.0347 0.188,0.048 0.352,0.108 0.52533,0.168 1.48,0.516 3.024,0.80133 4.77067,0.74267 0.684,-0.0227 1.308,-0.10534 1.96133,-0.20534 0.11867,-0.016 0.22133,-0.0213 0.348,-0.024 0.088,-0.007 0.18533,0.0187 0.264,0.04 0.092,0.0107 0.156,0.044 0.236,0.0733 0.0773,0.0293 0.12133,0.0533 0.18533,0.0933 0.084,0.0467 0.14667,0.0907 0.216,0.144 0.584,0.45467 0.864,1.07733 0.96667,1.62 0.0733,0.38667 0.088,0.80933 -0.02,1.19067 -0.072,0.25466 -0.156,0.48533 -0.304,0.72933 -0.124,0.19867 -0.27733,0.38 -0.47733,0.55867 -0.27067,0.24 -0.732,0.50266 -1.248,0.54266 -0.28134,0.024 -0.58534,0.016 -0.87467,0.0107 -1.64133,-0.0427 -3.308,-0.32133 -4.72133,-0.81733 -1.1,-0.38667 -2.06934,-0.86534 -2.89867,-1.43067 -0.43067,-0.29733 -0.652,-0.65467 -0.76267,-1.016 -0.028,-0.1 -0.048,-0.192 -0.0627,-0.29467 -0.0307,-0.16133 -0.0133,-0.32133 -0.0107,-0.48 0.003,-0.0707 0.016,-0.13866 0.028,-0.21066 0.0333,-0.184 0.0987,-0.35067 0.17867,-0.52934 0.0653,-0.15466 0.168,-0.29466 0.29466,-0.43733 0.0707,-0.0787 0.14267,-0.13867 0.23334,-0.21333 0.0747,-0.06 0.16133,-0.10267 0.256,-0.156 0.0787,-0.0453 0.184,-0.068 0.28266,-0.096 0.1,-0.032 0.22534,-0.0267 0.33334,-0.0373 m -0.0253,0.74 c -0.36133,0.0187 -0.54,0.248 -0.648,0.41867 -0.18133,0.28267 -0.232,0.63467 -0.17866,0.94133 0.0227,0.12534 0.0627,0.27067 0.13866,0.38934 0.08,0.116 0.15334,0.20533 0.28134,0.308 0.164,0.124 0.37733,0.25333 0.56666,0.36933 0.67734,0.41733 1.48534,0.77867 2.328,1.06133 1.15467,0.39467 2.472,0.63734 3.78534,0.724 0.43733,0.0267 0.96266,0.0507 1.41066,0.016 0.42,-0.0293 0.77467,-0.29733 0.95867,-0.49466 0.3,-0.31867 0.432,-0.70134 0.46,-1.06267 0.0453,-0.52933 -0.10133,-1.05333 -0.48667,-1.532 -0.10266,-0.12933 -0.24266,-0.25067 -0.42666,-0.348 -0.0707,-0.0347 -0.21067,-0.08 -0.30667,-0.0747 -0.224,0.0107 -0.44533,0.0613 -0.66267,0.0907 -0.54266,0.068 -1.10133,0.136 -1.66133,0.144 -1.152,0.024 -2.18,-0.076 -3.23333,-0.3 -0.692,-0.148 -1.364,-0.34933 -1.98267,-0.57867 -0.10267,-0.04 -0.22133,-0.0693 -0.34267,-0.072" style="fill:#000000;fill-opacity:1;fill-rule:nonzero;stroke:none;stroke-width:1.33333"></path>
      <path id="path3" d="m 888.94766,582.84078 c -3.86667,-4.94 -0.87467,-9.85466 0.27466,-11.02666 1.61734,-1.66 4.628,0.19733 3.52134,2.23066 -0.50267,0.912 -3.28,3.39867 -1.65334,8.208 0.32934,0.97467 -1.212,1.712 -2.14266,0.588" style="fill:#f5f5f5;fill-opacity:1;fill-rule:nonzero;stroke:none;stroke-width:1.33333"></path>
      <path id="path4" d="m 890.79926,570.81212 c 0.704,0.0253 1.456,0.29867 2.01733,0.948 0.19067,0.224 0.344,0.49734 0.44533,0.816 0.0373,0.11067 0.048,0.19734 0.0693,0.31067 0.028,0.17067 0.0227,0.33733 0.003,0.50533 -0.04,0.39867 -0.20133,0.75467 -0.396,1.044 -0.20533,0.29867 -0.42133,0.57467 -0.62666,0.872 -0.43734,0.63467 -0.77467,1.25067 -1.04134,2.05467 -0.5,1.496 -0.352,3.20133 0.13734,4.66 0.032,0.10267 0.0507,0.18667 0.076,0.29467 0.0253,0.12133 0.0227,0.168 0.012,0.29733 -0.004,0.12933 -0.0147,0.168 -0.0587,0.28533 -0.0387,0.11334 -0.0693,0.16 -0.12667,0.25467 -0.0627,0.0973 -0.11333,0.148 -0.18933,0.22133 -0.0747,0.0707 -0.13467,0.11334 -0.21067,0.16134 -0.17333,0.10266 -0.32666,0.16266 -0.508,0.2 -0.264,0.056 -0.53333,0.044 -0.79066,-0.0293 -0.332,-0.084 -0.71334,-0.316 -0.96934,-0.65066 -0.80533,-1.05867 -1.45466,-2.212 -1.79333,-3.716 -0.53333,-2.368 0.128,-4.87067 1.248,-6.652 0.31867,-0.508 0.69333,-1.03067 1.10667,-1.35467 0.49466,-0.38667 1.03466,-0.544 1.596,-0.52267 m -0.18667,0.73867 c -0.488,0.0227 -0.94267,0.27467 -1.31733,0.73867 -1.00134,1.24533 -1.80534,3.04133 -1.88134,4.96 -0.04,1.05066 0.10534,1.91466 0.41734,2.84266 0.32,0.92934 0.85066,1.81467 1.39333,2.50667 0.236,0.29867 0.56133,0.432 0.86267,0.432 0.20933,0 0.564,-0.0973 0.664,-0.412 0.048,-0.15333 -0.0733,-0.42533 -0.12,-0.57067 -0.48267,-1.55333 -0.59334,-3.33466 -0.072,-4.90666 0.35066,-1.072 0.86133,-1.904 1.46533,-2.71334 0.244,-0.324 0.51333,-0.64533 0.576,-1.13466 0.0973,-0.80934 -0.6,-1.35734 -1.03467,-1.56 -0.30666,-0.13734 -0.628,-0.2 -0.95333,-0.18267" style="fill:#000000;fill-opacity:1;fill-rule:nonzero;stroke:none;stroke-width:1.33333"></path>
      <path id="path5" d="m 889.05446,581.98012 c 1.43733,-6.12933 7.416,-6.936 9.12933,-6.796 2.42133,0.2 2.916,3.7 0.524,4.13334 -1.07067,0.19466 -4.93333,-0.36934 -7.75733,3.94266 -0.576,0.872 -2.19867,0.15334 -1.896,-1.28" style="fill:#f5f5f5;fill-opacity:1;fill-rule:nonzero;stroke:none;stroke-width:1.33333"></path>
      <path id="path6" d="m 897.71993,574.80305 c 0.65866,-0.0267 1.25733,0.11334 1.75333,0.44934 0.32,0.20933 0.56267,0.47733 0.74933,0.768 0.52534,0.82933 0.59867,2.00133 -0.02,2.81333 -0.26933,0.35733 -0.684,0.66667 -1.192,0.79733 -0.516,0.132 -1.08666,0.108 -1.62533,0.156 -0.98,0.084 -1.87467,0.276 -2.74667,0.66667 -0.89866,0.408 -1.72933,1.024 -2.33333,1.68267 -0.33867,0.372 -0.688,0.77466 -0.94667,1.18933 -0.0733,0.116 -0.15466,0.212 -0.24,0.31733 -0.0627,0.0733 -0.13333,0.108 -0.21066,0.168 -0.0893,0.0627 -0.14134,0.08 -0.244,0.124 -0.108,0.04 -0.17467,0.0453 -0.28934,0.0627 -0.296,0.0373 -0.58133,-0.036 -0.828,-0.16667 -0.16533,-0.0853 -0.29466,-0.18266 -0.412,-0.30133 -0.19333,-0.19733 -0.34133,-0.43733 -0.40533,-0.67733 -0.0907,-0.31867 -0.108,-0.64 -0.036,-0.96534 0.132,-0.55066 0.3,-1.092 0.532,-1.62133 0.352,-0.816 0.80133,-1.572 1.42533,-2.292 1.588,-1.83333 4.23334,-3.1 7.06934,-3.17067 m 0.0267,0.73734 c -1.62,0.0467 -3.22266,0.52133 -4.53333,1.27733 -2.13067,1.24133 -3.30667,3.17333 -3.76667,5.13467 -0.084,0.34 -0.0867,0.684 0.156,0.99066 0.16,0.204 0.50267,0.40534 0.81867,0.292 0.19467,-0.0707 0.33467,-0.352 0.44,-0.50266 0.86933,-1.212 1.99333,-2.31867 3.58267,-3.004 0.94,-0.40534 1.90666,-0.60534 2.95733,-0.68534 0.40133,-0.036 0.832,-0.0307 1.22933,-0.088 0.45067,-0.0613 0.86,-0.34266 1.04934,-0.664 0.40133,-0.70133 0.24266,-1.61466 -0.368,-2.21866 -0.38534,-0.38667 -0.94534,-0.55867 -1.56534,-0.532" style="fill:#000000;fill-opacity:1;fill-rule:nonzero;stroke:none;stroke-width:1.33333"></path>
      <path id="path7" d="m 859.4634,574.42278 c -1.34267,-1.18 0.216,-4.25066 1.924,-3.86133 0.52133,0.12933 3.32266,1.604 7.12933,3.23467 1.84133,0.78533 3.91867,1.60666 6.08533,2.32933 0.14267,0.0453 0.27334,0.088 0.41334,0.136 2.032,0.66933 4.01466,1.272 5.84266,1.796 2.11467,0.61733 4.02534,1.128 5.52934,1.51067 2.184,0.55866 3.54533,0.868 3.54533,0.868 0,0 1.57067,2.392 0.396,4.98133 -1.176,2.59067 -3.37467,2.57867 -3.37467,2.57867 0,0 -1.37866,-0.384 -3.576,-1.12934 -1.49866,-0.50266 -3.37066,-1.172 -5.45466,-1.99733 -1.768,-0.69867 -3.68534,-1.51867 -5.636,-2.43867 -2.12134,-1.00133 -4.29067,-2.128 -6.37067,-3.37733 -2.328,-1.39333 -4.544,-2.94 -6.45333,-4.63067" style="fill:#8f8f8f;fill-opacity:1;fill-rule:nonzero;stroke:none;stroke-width:1.33333"></path>
      <path id="path8" d="m 861.19126,570.16492 c 0.208,0.0213 0.42,0.0707 0.596,0.14534 0.98133,0.41866 1.89866,0.89066 2.84933,1.33333 3.38267,1.56667 6.79067,3.06267 10.58933,4.29867 1.88934,0.616 3.80667,1.20666 5.76534,1.76533 2.75333,0.78667 5.50933,1.54 8.32933,2.20667 0.27467,0.064 0.80933,0.13733 0.91733,0.30266 0.18134,0.28134 0.34,0.60134 0.44267,0.888 0.31333,0.88 0.54533,1.78534 0.44267,2.70534 -0.0573,0.53466 -0.15334,1.04533 -0.364,1.56 -0.41867,1.044 -1.42667,2.636 -3.488,2.97066 -0.368,0.0573 -0.524,-0.0107 -0.83734,-0.10133 -1.56933,-0.468 -3.08666,-0.97333 -4.58,-1.496 -2.54533,-0.89733 -5.008,-1.86667 -7.376,-2.9 -3.524,-1.54667 -6.856,-3.272 -9.89066,-5.16267 -1.66267,-1.03733 -3.188,-2.15466 -4.58134,-3.29466 -0.34133,-0.28 -0.76933,-0.60934 -1.00933,-0.92 -0.724,-0.932 -0.428,-2.32 0.264,-3.23467 0.33733,-0.448 0.92933,-1.08133 1.93067,-1.06667 m -0.18134,0.73734 c -0.76666,0.14533 -1.12133,0.69333 -1.34666,1.088 -0.36267,0.61733 -0.56134,1.62266 0.1,2.19866 1.8,1.56667 3.84266,3.04534 6.128,4.41867 1.92933,1.16133 3.996,2.276 6.13733,3.28667 2.45467,1.15733 4.94933,2.24133 7.59467,3.24266 2.28,0.85734 4.62933,1.67334 7.07466,2.39867 0.25334,0.076 0.25867,0.10533 0.548,0.0573 1.41734,-0.232 2.228,-1.34266 2.61067,-2.05733 0.32133,-0.59867 0.44533,-1.18133 0.52933,-1.81467 0.0413,-0.31733 -0.004,-0.672 -0.0347,-0.99066 -0.0493,-0.45067 -0.21334,-0.91867 -0.36934,-1.35867 -0.068,-0.188 -0.16266,-0.37467 -0.26266,-0.556 -0.0467,-0.0773 -0.11067,-0.072 -0.24267,-0.1 -4.08533,-0.94667 -8.07333,-2.088 -11.99333,-3.27467 -3.116,-0.93333 -6.04534,-2.00933 -8.85867,-3.196 -1.90533,-0.80266 -3.76667,-1.66133 -5.58933,-2.53333 -0.49867,-0.24133 -0.99334,-0.49067 -1.52534,-0.704 -0.152,-0.0627 -0.308,-0.116 -0.5,-0.10533" style="fill:#000000;fill-opacity:1;fill-rule:nonzero;stroke:none;stroke-width:1.33333"></path>
      <path id="path9" d="m 880.62353,577.98398 c 0.15333,0.0427 0.3,0.0973 0.45066,0.14267 0.0133,0.005 0.0267,0 0.0293,0.0253 0.12666,0.624 0.12133,1.396 0.0133,2.02 -0.088,0.52267 -0.224,1.016 -0.408,1.48667 -0.27867,0.704 -0.65067,1.36267 -1.06267,1.89333 -0.40533,0.51734 -0.848,0.968 -1.32666,1.312 -0.0267,0.0267 -0.12934,0.10667 -0.15334,0.10134 -0.168,-0.056 -0.332,-0.128 -0.49466,-0.19067 0.42666,-0.264 0.832,-0.604 1.20933,-1.012 0.47067,-0.49467 0.91333,-1.14267 1.248,-1.87467 0.20267,-0.44266 0.38933,-0.964 0.49467,-1.488 0.076,-0.388 0.12933,-0.77733 0.12933,-1.19066 0,-0.428 -0.0467,-0.83334 -0.13867,-1.228 0.003,0.003 0.007,0 0.009,0.003" style="fill:#000000;fill-opacity:1;fill-rule:nonzero;stroke:none;stroke-width:1.33333"></path>
      <path id="path10" d="m 874.76673,576.18318 c 0.15866,0.048 0.31866,0.10534 0.47466,0.16134 0.016,0.005 0.0187,-0.005 0.0253,0.0227 0.0107,0.06 0.0213,0.116 0.0347,0.17734 0.0387,0.224 0.0533,0.44133 0.0667,0.67733 0.003,0.076 0.003,0.152 0.003,0.22933 0,0.25734 -0.028,0.50534 -0.064,0.74934 -0.16534,1.11733 -0.664,2.07866 -1.224,2.824 -0.23867,0.32666 -0.51467,0.62666 -0.788,0.87733 -0.22134,0.204 -0.44934,0.416 -0.69067,0.57467 -0.0227,0.0187 -0.0733,0.068 -0.0947,0.0573 -0.152,-0.068 -0.30533,-0.14133 -0.45066,-0.212 0.17066,-0.12267 0.34,-0.23867 0.50533,-0.37467 0.564,-0.45866 1.11733,-1.02 1.54933,-1.76266 0.216,-0.36934 0.40667,-0.756 0.548,-1.20134 0.156,-0.492 0.26134,-1.012 0.26134,-1.56266 0,-0.43467 -0.0507,-0.84 -0.156,-1.23734" style="fill:#000000;fill-opacity:1;fill-rule:nonzero;stroke:none;stroke-width:1.33333"></path>
      <path id="path11" d="m 868.28886,573.69625 c 0.148,0.0627 0.292,0.13067 0.43733,0.192 0.0173,0.008 0.02,0 0.0227,0.0213 0.008,0.12666 0.0107,0.25733 0.0107,0.38 0,0.204 -0.008,0.38933 -0.028,0.584 -0.0533,0.58533 -0.21866,1.15866 -0.44266,1.65466 -0.192,0.424 -0.42534,0.80667 -0.69067,1.15067 -0.22133,0.292 -0.45333,0.54533 -0.696,0.79067 -0.23867,0.24133 -0.48933,0.46266 -0.74667,0.67333 -0.0173,0.0187 -0.0253,0.0347 -0.048,0.024 -0.13466,-0.076 -0.26666,-0.15467 -0.39733,-0.22933 0.39733,-0.33467 0.79467,-0.66934 1.15733,-1.07467 0.19067,-0.21867 0.388,-0.44933 0.56,-0.71067 0.328,-0.484 0.61334,-1.03733 0.76,-1.69333 0.0347,-0.16933 0.0667,-0.33733 0.088,-0.51333 0.0387,-0.27867 0.0413,-0.55734 0.036,-0.84667 -0.003,-0.13867 -0.02,-0.272 -0.0227,-0.40267" style="fill:#000000;fill-opacity:1;fill-rule:nonzero;stroke:none;stroke-width:1.33333"></path>
      <path id="path12" d="m 886.14433,579.50745 c 0.15066,0.04 0.30533,0.0787 0.46,0.11867 0.012,0.005 0.0253,0 0.0307,0.0227 0.0333,0.12 0.0573,0.26933 0.0827,0.39466 0.0453,0.244 0.072,0.47867 0.0907,0.732 0.02,0.216 0.02,0.432 0.02,0.65334 0,0.0867 -0.008,0.176 -0.0147,0.26266 -0.0733,1.28 -0.53333,2.46667 -1.13067,3.344 -0.29066,0.428 -0.60533,0.79467 -0.948,1.116 -0.188,0.18134 -0.392,0.34 -0.59733,0.49467 -0.14133,0.108 -0.28533,0.196 -0.43067,0.288 -0.028,0.0227 -0.0707,0.06 -0.10266,0.0453 -0.156,-0.0747 -0.31467,-0.15066 -0.468,-0.228 0.632,-0.32933 1.24266,-0.81333 1.77733,-1.43733 0.64,-0.744 1.19067,-1.812 1.38667,-3.032 0.14933,-0.92533 0.0853,-1.904 -0.156,-2.772 -0.003,-0.003 0,-0.007 0,-0.003" style="fill:#000000;fill-opacity:1;fill-rule:nonzero;stroke:none;stroke-width:1.33333"></path>
      <path id="path13" d="m 864.06886,586.14025 c -3.544,-3.25066 -6.992,-0.94133 -7.40667,-1.24266 -0.66667,-0.49067 -1.016,-1.90134 0.34133,-2.37467 0.83067,-0.292 23.01734,-2.992 25.484,-2.876 1.37867,0.0627 2.47734,1.24933 2.944,2.32533 2.556,5.86267 3.31334,11.416 -3.61466,12.22 -8.95067,1.04667 -16.616,-7.012 -17.748,-8.052" style="fill:#dfae90;fill-opacity:1;fill-rule:nonzero;stroke:none;stroke-width:1.33333"></path>
      <path id="path14" d="m 882.28633,579.27438 c 0.53333,-0.0133 1.02133,0.12134 1.40133,0.30534 1.02,0.48133 1.71467,1.428 2.01867,2.09333 0.608,1.35333 1.11866,2.72933 1.48133,4.11467 0.448,1.70266 0.71467,3.588 0.0933,5.28933 -0.44533,1.22533 -1.51466,2.61067 -3.896,3.20667 -3.41733,0.856 -7.06133,0.12933 -9.8,-1.03467 -0.86,-0.364 -1.75333,-0.784 -2.49733,-1.22 -1.21067,-0.70667 -2.312,-1.41733 -3.33467,-2.192 -1.14666,-0.86133 -2.22,-1.77067 -3.17866,-2.69467 -0.888,-0.856 -2.088,-2.12933 -4.132,-2.348 -1.228,-0.13333 -2.03467,0.12 -3.076,0.396 -0.26667,0.064 -0.372,0.11067 -0.67334,0.0893 -0.24266,-0.0253 -0.35733,-0.15867 -0.456,-0.26134 -0.67866,-0.676 -0.77466,-1.89866 0.08,-2.548 0.38667,-0.29066 0.74267,-0.34933 1.37867,-0.45466 1.75067,-0.276 3.56533,-0.48934 5.34,-0.71867 2.424,-0.31333 4.87067,-0.59733 7.30533,-0.88133 1.65867,-0.188 3.32667,-0.36134 4.984,-0.55067 1.04534,-0.116 2.112,-0.21867 3.168,-0.31733 1.248,-0.12 2.51334,-0.23867 3.79334,-0.27334 m 0,0.74 c -2.06534,0.0813 -4.09067,0.30267 -6.108,0.508 -2.424,0.248 -4.82134,0.54 -7.23867,0.80667 -1.992,0.22133 -3.97333,0.47733 -5.956,0.72667 -1.76,0.21866 -3.548,0.44 -5.27867,0.71466 -0.548,0.088 -0.836,0.14534 -1.08533,0.42934 -0.29467,0.332 -0.172,0.984 0.15333,1.30533 0.088,0.0773 0.20134,0.0133 0.33334,-0.0227 0.73733,-0.18 1.33066,-0.38 2.15333,-0.448 2.38933,-0.18533 4.02667,0.88534 5.05733,1.83067 0.50267,0.45867 0.96667,0.932 1.48,1.38533 1.54534,1.38267 3.224,2.70534 5.27334,3.90934 2.11466,1.23466 4.868,2.46533 8.1,2.716 2.54,0.204 5.00666,-0.29467 6.31466,-1.444 1.408,-1.23734 1.46934,-2.89734 1.37334,-4.312 -0.0467,-0.71734 -0.22267,-1.436 -0.39467,-2.14667 -0.31867,-1.30667 -0.82933,-2.624 -1.408,-3.90933 -0.27467,-0.61867 -0.836,-1.436 -1.82133,-1.872 -0.26134,-0.11067 -0.608,-0.18267 -0.948,-0.17734" style="fill:#000000;fill-opacity:1;fill-rule:nonzero;stroke:none;stroke-width:1.33333"></path>
      <path id="path15" d="m 861.54793,607.28478 c -1.248,-0.148 -3.12134,-0.948 -3.98534,-4.38533 -0.73733,-2.93467 -2.90266,-16.37466 -0.75466,-18.31066 5.148,-0.64934 15.364,-1.912 26.05066,-3.516 2.476,0.58266 5.832,16.23066 6.36134,18.63999 0.52133,2.38134 -0.84267,4.18534 -4.15734,4.912 -2.09066,0.46267 -20.3,3.05067 -23.51466,2.66" style="fill:#bd8155;fill-opacity:1;fill-rule:nonzero;stroke:none;stroke-width:1.33333"></path>
      <path id="path16" d="m 882.77193,580.71318 c 0.0347,-0.008 0.0707,-0.0133 0.1,-0.0107 0.45866,0.0307 1.004,0.64933 1.19066,0.94266 0.68267,1.064 1.204,2.19867 1.59334,3.32934 0.32133,0.95333 0.68933,1.90266 0.956,2.86266 0.26666,0.95334 0.55866,1.90267 0.82,2.85467 0.39466,1.436 0.78666,2.88667 1.10133,4.328 0.23333,1.036 0.50267,2.06933 0.72133,3.104 0.25734,1.24667 0.70267,2.50667 0.252,3.772 -0.684,1.90533 -2.70666,2.84267 -5.07466,3.23333 -1.18267,0.192 -2.38267,0.4 -3.57467,0.556 -1.60667,0.20934 -3.204,0.47334 -4.816,0.67334 -2.68667,0.328 -5.37333,0.70533 -8.084,0.95866 -1.10267,0.10134 -2.21867,0.232 -3.332,0.29467 -1.804,0.096 -3.64,0.33733 -5.07333,-0.69467 -2.01734,-1.45733 -2.40534,-4.00133 -2.784,-5.96133 -0.24267,-1.264 -0.41467,-2.54133 -0.60134,-3.816 -0.264,-1.828 -0.46,-3.672 -0.57333,-5.52267 -0.096,-1.56933 -0.164,-3.24666 0.0387,-4.80133 0.0893,-0.696 0.24266,-1.692 0.74,-2.29733 0.14533,-0.176 0.20933,-0.26534 0.484,-0.3 1.72933,-0.23467 3.46266,-0.432 5.188,-0.664 2.08266,-0.27867 4.16933,-0.51334 6.24266,-0.81067 1.96,-0.276 3.93467,-0.512 5.892,-0.79333 2.86667,-0.408 5.73867,-0.79067 8.59334,-1.23734 m -0.008,0.75067 c -2.44667,0.376 -4.90667,0.71867 -7.36267,1.064 -4.10933,0.584 -8.24,1.112 -12.36667,1.65333 -1.95733,0.25334 -3.928,0.48 -5.888,0.73867 -0.208,0.0307 -0.208,0.0787 -0.29333,0.22133 -0.35733,0.59734 -0.45467,1.48 -0.51733,2.136 -0.204,2.30534 0.02,4.652 0.23066,6.92267 0.232,2.452 0.61334,4.91733 1.076,7.33333 0.28667,1.49334 0.68667,3.26934 1.98534,4.48934 0.69333,0.652 1.59066,0.93333 2.65733,0.93333 2.176,0 4.27867,-0.26 6.39867,-0.46 1.164,-0.108 2.33066,-0.26933 3.49066,-0.39733 2.476,-0.28267 4.94134,-0.64934 7.40267,-0.976 1.44,-0.19867 2.90267,-0.41067 4.32667,-0.65734 0.616,-0.108 1.17333,-0.216 1.77066,-0.37733 1.636,-0.44267 2.87867,-1.38 3.19734,-2.71067 0.22933,-0.948 -0.1,-1.928 -0.292,-2.85466 -0.31867,-1.54134 -0.72534,-3.08534 -1.09334,-4.61867 -0.42933,-1.79333 -0.92666,-3.57867 -1.45066,-5.35467 -0.40934,-1.39333 -0.85467,-2.78133 -1.41067,-4.144 -0.34667,-0.86133 -0.72667,-1.736 -1.31867,-2.528 -0.11066,-0.15066 -0.31866,-0.38 -0.54266,-0.41333" style="fill:#000000;fill-opacity:1;fill-rule:nonzero;stroke:none;stroke-width:1.33333"></path>
      <path id="path17" d="m 879.93726,583.59465 h 0.0107 c 0.0493,0 0.168,0.032 0.20534,0.136 0.0213,0.0453 0.0307,0.0507 0.0213,0.12534 -0.0107,0.06 -0.064,0.116 -0.084,0.14133 -0.196,0.22933 -0.37467,0.508 -0.54,0.99067 -0.30267,0.872 -0.428,2.22533 -0.41067,3.612 0.0253,1.26666 0.128,2.47866 0.26267,3.64266 0.192,1.66 0.44933,3.25067 0.72667,4.72534 0.35333,1.91466 0.75066,3.74266 1.17866,5.47866 0.0173,0.0693 0.0827,0.284 0.088,0.352 0.0107,0.12267 -0.0787,0.196 -0.0973,0.20667 -0.0933,0.0453 -0.27867,0.0947 -0.34533,-0.15467 -0.1,-0.35866 -0.196,-0.77733 -0.284,-1.164 -0.45334,-1.94666 -0.87734,-3.95733 -1.24534,-6.13333 -0.156,-0.96133 -0.316,-1.98933 -0.43733,-3.036 -0.21333,-1.808 -0.42133,-4.16 -0.19333,-6.076 0.13333,-1.13733 0.39066,-1.90667 0.69333,-2.376 0.14,-0.22667 0.292,-0.448 0.45067,-0.47067" style="fill:#000000;fill-opacity:1;fill-rule:nonzero;stroke:none;stroke-width:1.33333"></path>
      <path id="path18" d="m 849.6626,585.52825 c -4.28267,-1.97866 -9.596,-5.40666 -10.56934,-8.26266 -0.92266,-2.708 0.0827,-5.036 3.37867,-5.772 1.412,-0.212 5.832,1.604 3.86667,2.87466 -3.664,2.384 0.164,2.79334 5.66666,7.036 2.028,1.56667 1.83334,6.05867 -2.34266,4.124" style="fill:#bd8155;fill-opacity:1;fill-rule:nonzero;stroke:none;stroke-width:1.33333"></path>
      <path id="path19" d="m 842.68473,571.11025 c 0.16533,0 0.32933,0.008 0.492,0.028 0.58133,0.076 1.20933,0.24934 1.756,0.476 0.76266,0.316 1.85866,0.84 2.19733,1.652 0.0507,0.13067 0.056,0.21867 0.0733,0.35467 0.009,0.12133 -0.0147,0.18533 -0.0453,0.30133 -0.0507,0.224 -0.22533,0.47334 -0.41467,0.61334 -0.448,0.32933 -0.94,0.61066 -1.29866,1.056 -0.356,0.44 -0.0867,0.78 0.26933,1.1 0.484,0.42 1.04267,0.77733 1.588,1.11333 0.908,0.55867 1.81733,1.116 2.7,1.71067 0.468,0.312 0.95333,0.636 1.404,0.97866 0.49467,0.37867 1.03333,0.71067 1.42,1.216 0.81333,1.06 1.19333,2.848 0.28,3.95734 -0.83333,1.016 -2.37467,0.764 -3.42,0.28133 -2.092,-0.96667 -4.112,-2.08533 -6.004,-3.37733 -0.82667,-0.56667 -1.60667,-1.172 -2.36533,-1.83334 -0.4,-0.34266 -0.77734,-0.72133 -1.14,-1.10666 -0.35867,-0.39734 -0.69067,-0.82534 -0.97067,-1.27467 -0.63067,-1.032 -0.95067,-2.44933 -0.74933,-3.65333 0.26666,-1.588 1.38,-2.70267 2.852,-3.24534 0.44266,-0.16666 0.904,-0.32933 1.376,-0.348 m -0.0453,0.74 c -0.43733,0.0653 -0.864,0.21334 -1.27733,0.38534 -1.03867,0.43466 -1.88133,1.26933 -2.13067,2.396 -0.20133,0.92266 -0.0293,2.02133 0.36,2.86666 0.42134,0.91734 1.20934,1.76 1.94934,2.44 1.45733,1.34267 3.13466,2.472 4.83333,3.46 0.71733,0.40934 1.44133,0.82 2.18667,1.184 0.652,0.32534 1.304,0.66667 1.98533,0.89334 0.68133,0.224 1.61333,0.29733 2.06933,-0.39334 0.55867,-0.85066 0.184,-2.284 -0.45333,-3.00666 -0.376,-0.42534 -0.88533,-0.752 -1.33733,-1.084 -1.05467,-0.77734 -2.18267,-1.49067 -3.30134,-2.17334 -0.65866,-0.40266 -1.32266,-0.804 -1.93466,-1.26933 -0.52,-0.392 -1.13867,-0.95867 -1.05067,-1.67067 0.0173,-0.132 0.0293,-0.19466 0.0773,-0.31866 0.27467,-0.70134 1.04134,-1.16934 1.628,-1.57734 0.43467,-0.29866 0.11734,-0.616 -0.156,-0.86933 -0.37733,-0.35067 -0.95866,-0.616 -1.42933,-0.80933 -0.55733,-0.23467 -1.184,-0.388 -1.77867,-0.45334 -0.08,-0.005 -0.16,0.003 -0.24,0" style="fill:#000000;fill-opacity:1;fill-rule:nonzero;stroke:none;stroke-width:1.33333"></path>
      <path id="path426" d="m 864.82006,621.49705 c 0.0907,1.18 0.192,2.24667 0.28933,3.10534 0.0853,0.764 -2.512,1.83066 -4.53467,1.712 -1.82266,-0.108 -3.428,-0.88667 -3.61733,-1.51734 -0.084,-0.284 -0.31867,-1.384 -0.54533,-3.04133 2.216,0.78933 5.584,0.96133 8.408,-0.25867" style="fill:#8f8f8f;fill-opacity:1;fill-rule:nonzero;stroke:none;stroke-width:1.33333"></path>
      <path id="path427" d="m 864.82006,621.49705 c -2.824,1.22 -6.192,1.048 -8.408,0.25867 -0.47734,-3.45333 -0.91467,-9.32533 0.16666,-15.22533 1.828,0.516 4.64,0.94 8.57867,0.57333 -0.124,0.692 -0.24933,1.42133 -0.36533,2.18667 -0.46134,2.99466 -0.27467,8.24266 0.028,12.20666" style="fill:#363636;fill-opacity:1;fill-rule:nonzero;stroke:none;stroke-width:1.33333"></path>
      <path id="path428" d="m 856.57926,606.53092 c 0.84,-4.584 2.592,-9.188 5.95733,-12.67866 2.32933,-2.41334 7.06267,-0.364 6.46533,1.18 -0.54266,1.40666 -2.47066,4.668 -3.844,12.072 -3.94,0.36666 -6.75066,-0.0573 -8.57866,-0.57334" style="fill:#1c1c1c;fill-opacity:1;fill-rule:nonzero;stroke:none;stroke-width:1.33333"></path>
      <path id="path429" d="m 865.05446,592.29132 c 0.656,-0.0227 1.31733,0.02 1.94933,0.22934 0.71867,0.23866 1.53333,0.508 2.17733,1.328 0.11334,0.14933 0.19067,0.27866 0.26667,0.51066 0.148,0.44 0.0293,0.76934 -0.116,1.11067 -0.47733,1.09867 -0.98533,2.13467 -1.42533,3.304 -0.78267,2.09867 -1.46134,4.34933 -1.98,6.85867 -0.16134,0.796 -0.30667,1.57466 -0.45334,2.372 -0.22666,1.24266 -0.38133,2.412 -0.43733,3.74 -0.132,2.94133 -0.003,5.92933 0.18133,8.78933 0.084,1.25467 0.19467,2.492 0.32,3.72 0.0227,0.26533 0.0547,0.3 0.007,0.56933 -0.0347,0.20267 -0.16,0.392 -0.24267,0.48667 -0.312,0.32667 -0.676,0.55333 -1.004,0.704 -1.27466,0.59067 -2.65866,0.87733 -3.996,0.744 -0.94133,-0.10133 -1.904,-0.28133 -2.804,-0.81467 -0.348,-0.20666 -0.86533,-0.46 -1.04933,-1.25733 -0.292,-1.272 -0.5,-2.71867 -0.648,-4.08 -0.30533,-2.71867 -0.42533,-5.47467 -0.31467,-8.34267 0.14134,-3.54 0.70267,-6.85733 1.62134,-9.804 0.928,-2.98266 2.232,-5.36266 3.612,-7.188 0.44533,-0.58533 0.896,-1.09333 1.36133,-1.60266 0.92,-1.02 1.95333,-1.292 2.97467,-1.37734 m 0.276,0.91334 c -0.89467,0.032 -1.772,0.22533 -2.57334,1.104 -0.95866,1.04133 -1.84133,2.15733 -2.67333,3.60933 -1.70933,2.972 -2.93733,6.78267 -3.44533,11.46667 -0.35867,3.272 -0.32667,6.68 -0.032,9.97466 0.13866,1.54134 0.34266,3.056 0.61866,4.516 0.0453,0.24667 0.132,0.75467 0.232,0.876 0.292,0.34 0.69067,0.5 1.004,0.63067 1.55867,0.64667 3.23734,0.608 4.8,0.0467 0.432,-0.15467 0.90267,-0.31334 1.308,-0.7 0.116,-0.116 0.068,-0.16667 0.04,-0.40534 -0.136,-1.16666 -0.224,-2.392 -0.312,-3.57866 -0.0773,-1.01867 -0.11733,-2.05467 -0.168,-3.08667 -0.0733,-1.37733 -0.0787,-2.776 -0.0787,-4.18533 0,-0.84534 0.04,-1.77067 0.1,-2.58667 0.13466,-1.73333 0.46133,-3.46667 0.79066,-5.08667 0.63467,-3.11333 1.47867,-5.90533 2.51734,-8.39066 0.34933,-0.84 0.72,-1.63467 1.07866,-2.45467 0.0907,-0.208 0.0387,-0.316 -0.0453,-0.472 -0.184,-0.33467 -0.588,-0.56267 -0.81467,-0.68933 -0.58666,-0.31867 -1.15333,-0.45067 -1.76133,-0.55067 -0.19733,-0.0347 -0.38933,-0.0253 -0.58533,-0.0373" style="fill:#000000;fill-opacity:1;fill-rule:nonzero;stroke:none;stroke-width:1.33333"></path>
      <path id="path430" d="m 864.80326,621.25998 c 0.003,0.0133 0.007,0.032 0.007,0.0453 0,0.136 0.028,0.272 0.028,0.40266 0,0.0187 0.012,0.0227 -0.0227,0.032 -0.81734,0.33734 -1.86134,0.65867 -3.17067,0.79067 -0.28267,0.0333 -0.60667,0.06 -0.90133,0.0653 -0.208,0.005 -0.43734,0.0107 -0.64534,0.005 -0.284,-0.005 -0.54533,-0.0133 -0.81866,-0.0373 -1.05867,-0.0813 -2.036,-0.28666 -2.78134,-0.53733 -0.0347,-0.0147 -0.048,-0.012 -0.0507,-0.032 -0.032,-0.16 -0.0493,-0.32133 -0.072,-0.484 0.372,0.13467 0.78933,0.26533 1.252,0.36133 0.86933,0.19467 1.89733,0.31067 2.976,0.284 0.51733,-0.016 1.004,-0.0587 1.476,-0.12666 0.332,-0.0493 0.61066,-0.10534 0.90266,-0.168 0.244,-0.056 0.456,-0.116 0.67467,-0.17867 0.43467,-0.128 0.804,-0.27467 1.14667,-0.42267" style="fill:#000000;fill-opacity:1;fill-rule:nonzero;stroke:none;stroke-width:1.33333"></path>
      <path id="path431" d="m 851.949,621.49705 c 0.088,1.18 0.18933,2.24667 0.28666,3.10534 0.088,0.764 -2.50933,1.83066 -4.53466,1.712 -1.82267,-0.108 -3.42534,-0.88667 -3.61734,-1.51734 -0.0813,-0.284 -0.32133,-1.384 -0.54533,-3.04133 2.216,0.78933 5.584,0.96133 8.41067,-0.25867" style="fill:#8f8f8f;fill-opacity:1;fill-rule:nonzero;stroke:none;stroke-width:1.33333"></path>
      <path id="path432" d="m 843.53886,621.75612 c -0.47467,-3.45333 -0.91334,-9.32533 0.16666,-15.22533 1.828,0.516 4.63867,0.94 8.58134,0.57333 -0.12667,0.69067 -0.252,1.42 -0.37067,2.18534 -0.456,2.99466 -0.272,8.244 0.0333,12.208 -2.828,1.22 -6.19466,1.048 -8.41066,0.25866" style="fill:#363636;fill-opacity:1;fill-rule:nonzero;stroke:none;stroke-width:1.33333"></path>
      <path id="path433" d="m 852.28633,607.10372 c -3.94134,0.36667 -6.752,-0.0573 -8.58134,-0.57333 0.83734,-4.584 2.59334,-9.18667 5.96,-12.67733 2.32934,-2.41467 7.05734,-0.36534 6.46667,1.17866 -0.54267,1.40667 -2.47333,4.668 -3.84533,12.072" style="fill:#1c1c1c;fill-opacity:1;fill-rule:nonzero;stroke:none;stroke-width:1.33333"></path>
      <path id="path434" d="m 852.1834,592.29132 c 0.65333,-0.0227 1.31466,0.02 1.94933,0.22934 0.71867,0.23866 1.528,0.508 2.17733,1.328 0.11334,0.14933 0.188,0.27866 0.264,0.51066 0.14534,0.44 0.032,0.76934 -0.11333,1.11067 -0.47733,1.09867 -0.988,2.13467 -1.42533,3.304 -0.78534,2.09867 -1.464,4.34933 -1.98,6.85867 -0.164,0.796 -0.30934,1.57466 -0.45734,2.372 -0.22533,1.24266 -0.37733,2.412 -0.43866,3.74 -0.12934,2.94133 0,5.92933 0.18666,8.78933 0.0813,1.25467 0.192,2.492 0.32,3.72 0.0227,0.26533 0.052,0.3 0.007,0.56933 -0.0347,0.20267 -0.16,0.392 -0.24533,0.48667 -0.31067,0.32667 -0.67467,0.55333 -1.004,0.704 -1.272,0.59067 -2.65734,0.87733 -3.99334,0.744 -0.94266,-0.10133 -1.904,-0.28133 -2.804,-0.81467 -0.348,-0.20666 -0.868,-0.46 -1.052,-1.25733 -0.292,-1.272 -0.49733,-2.71867 -0.648,-4.08 -0.30266,-2.71867 -0.42533,-5.47467 -0.312,-8.34267 0.136,-3.54 0.70134,-6.85733 1.61867,-9.804 0.928,-2.98266 2.232,-5.36266 3.60933,-7.188 0.44267,-0.58533 0.9,-1.09333 1.364,-1.60266 0.91734,-1.02 1.95734,-1.292 2.97734,-1.37734 m 0.27066,0.91334 c -0.892,0.032 -1.76933,0.22533 -2.57066,1.104 -0.95467,1.04133 -1.84134,2.15733 -2.67467,3.60933 -1.70533,2.972 -2.93333,6.78267 -3.44533,11.46667 -0.35467,3.272 -0.32267,6.68 -0.028,9.97466 0.13333,1.54134 0.34266,3.056 0.616,4.516 0.0453,0.24667 0.132,0.75467 0.23466,0.876 0.28934,0.34 0.68534,0.5 1.00534,0.63067 1.55733,0.64667 3.236,0.608 4.79866,0.0467 0.43067,-0.15467 0.9,-0.31334 1.30534,-0.7 0.116,-0.116 0.0707,-0.16667 0.0427,-0.40534 -0.13733,-1.16666 -0.224,-2.392 -0.31466,-3.57866 -0.0733,-1.01867 -0.11734,-2.05467 -0.168,-3.08667 -0.0707,-1.37733 -0.076,-2.776 -0.076,-4.18533 0,-0.84534 0.04,-1.77067 0.1,-2.58667 0.132,-1.73333 0.46133,-3.46667 0.788,-5.08667 0.632,-3.11333 1.47866,-5.90533 2.51733,-8.39066 0.348,-0.84 0.72267,-1.63467 1.076,-2.45467 0.0933,-0.208 0.0413,-0.316 -0.04,-0.472 -0.18667,-0.33467 -0.59067,-0.56267 -0.81467,-0.68933 -0.58933,-0.31867 -1.15866,-0.45067 -1.76533,-0.55067 -0.196,-0.0347 -0.38933,-0.0253 -0.58667,-0.0373" style="fill:#000000;fill-opacity:1;fill-rule:nonzero;stroke:none;stroke-width:1.33333"></path>
      <path id="path435" d="m 851.93206,621.25998 c 0.004,0.0133 0.004,0.032 0.004,0.0453 0,0.136 0.028,0.272 0.028,0.40266 0,0.0187 0.007,0.0227 -0.02,0.032 -0.816,0.33734 -1.86667,0.65867 -3.17334,0.79067 -0.28,0.0333 -0.604,0.06 -0.89866,0.0653 -0.208,0.005 -0.44,0.0107 -0.648,0.005 -0.284,-0.005 -0.54534,-0.0133 -0.816,-0.0373 -1.05867,-0.0813 -2.03867,-0.28666 -2.78267,-0.53733 -0.036,-0.0147 -0.0493,-0.012 -0.052,-0.032 -0.032,-0.16 -0.052,-0.32133 -0.0693,-0.484 0.36666,0.13467 0.78933,0.26533 1.252,0.36133 0.87066,0.19467 1.89866,0.31067 2.97333,0.284 0.52,-0.016 1.004,-0.0587 1.476,-0.12666 0.332,-0.0493 0.61067,-0.10534 0.90533,-0.168 0.24134,-0.056 0.45334,-0.116 0.67467,-0.17867 0.43467,-0.128 0.79867,-0.27467 1.14667,-0.42267" style="fill:#000000;fill-opacity:1;fill-rule:nonzero;stroke:none;stroke-width:1.33333"></path>
      <path id="path436" d="m 839.45033,602.39812 c 0,0 -0.54534,-3.35733 -0.508,-7.912 12.876,3.67734 26.23733,2.144 36.632,-5.32666 1.33333,4.53333 1.76266,8.08133 1.76266,8.08133 0,0 -0.712,0.76133 -2.47466,1.81333 -0.096,0.0573 -2.05467,-3.46133 -4.73467,-2.38933 -1.328,0.53333 -1.74133,2.51467 -1.276,5.052 -1.59467,0.564 -3.14933,1.04 -5.31867,1.54 -1.192,-2.17867 -2.59333,-3.67467 -4.81866,-3.316 -2.55334,0.40267 -3.272,3.08133 -3.36,4.56533 -1.83867,0.088 -3.75467,0.0373 -5.41734,-0.0907 -0.25066,-1.40534 -0.59333,-4.43867 -3.40666,-4.64 -2.144,-0.15067 -3.46934,1.50133 -4.012,3.47866 -1.92,-0.45466 -3.068,-0.856 -3.068,-0.856" style="fill:#bbbbbb;fill-opacity:1;fill-rule:nonzero;stroke:none;stroke-width:1.33333"></path>
      <path id="path437" d="m 855.09753,576.05558 c 2.32666,-0.28 4.368,-1.084 5.78533,-2.148 1.07733,-0.808 1.79867,-1.77066 2.00933,-2.776 7.01734,3.11067 10.78134,11.57467 12.68134,18.028 -10.39334,7.47067 -23.75467,9.004 -36.63067,5.32667 0.0547,-6.70667 1.38,-16.01867 7.59467,-21.02933 0.49466,0.77733 1.34266,1.424 2.43333,1.88933 1.628,0.696 3.80133,0.988 6.12667,0.70933" style="fill:#f5f5f5;fill-opacity:1;fill-rule:nonzero;stroke:none;stroke-width:1.33333"></path>
      <path id="path438" d="m 862.8918,571.13118 c -0.20934,1.00534 -0.93067,1.96934 -2.00934,2.776 -1.416,1.064 -3.45866,1.868 -5.78533,2.148 -2.32533,0.27867 -4.49867,-0.012 -6.12533,-0.70933 -1.092,-0.464 -1.94,-1.112 -2.43467,-1.88933 1.63733,-1.324 3.608,-2.34134 5.97867,-2.94667 4.06933,-1.02533 7.496,-0.64933 10.376,0.62133" style="fill:#d1d1d1;fill-opacity:1;fill-rule:nonzero;stroke:none;stroke-width:1.33333"></path>
      <path id="path439" d="m 856.46593,569.55945 c 3.36933,-0.13866 6.59333,0.86667 9.24533,2.76267 2.66,1.89733 4.516,4.328 6.12533,6.98667 0.91334,1.50933 1.62934,3.08133 2.30134,4.66666 0.432,1.01734 0.82533,2.04667 1.16666,3.08267 1.01467,3.116 1.864,6.316 2.32134,9.536 0.048,0.34667 0.208,0.716 -0.0893,0.98667 -0.74533,0.68266 -1.576,1.24133 -2.44,1.768 -0.368,0.22133 -0.568,-0.084 -0.76,-0.32934 -0.45333,-0.58666 -0.852,-1.02266 -1.44133,-1.512 -0.78667,-0.65333 -2.11733,-0.96933 -2.98533,-0.27733 -0.99467,0.79067 -0.916,2.71067 -0.784,3.79867 0.04,0.316 0.264,0.89866 -0.156,1.048 -1.57467,0.536 -3.12667,1.02 -4.74134,1.40266 -0.4,0.096 -0.81866,0.32534 -1.06666,-0.10266 -0.79867,-1.396 -1.87734,-3.116 -3.82934,-3.116 -2.33866,0 -3.26933,2.00933 -3.55866,3.80533 -0.0427,0.28933 0.0333,0.764 -0.39067,0.80933 -0.516,0.0507 -1.09067,0.0413 -1.62,0.0413 -1.04533,0 -2.13867,0.0133 -3.164,-0.0787 -0.428,-0.04 -0.956,0.0707 -1.04533,-0.42667 -0.316,-1.65066 -0.608,-3.90933 -2.84534,-4.24133 -1.904,-0.284 -3.048,1.13467 -3.63733,2.584 -0.14267,0.348 -0.124,0.972 -0.70133,0.84933 -0.74267,-0.15066 -1.488,-0.37466 -2.21734,-0.588 -0.27466,-0.0733 -0.964,-0.22133 -1.052,-0.49066 -0.116,-0.36267 -0.11333,-0.84534 -0.168,-1.22934 -0.16,-1.06933 -0.19733,-2.156 -0.28133,-3.24533 -0.0507,-0.68533 -0.0787,-1.42 -0.0787,-2.11733 0,-1.652 0.0173,-3.272 0.13867,-4.9 0.15867,-2.10934 0.448,-4.236 0.952,-6.272 0.44533,-1.78934 0.99867,-3.50267 1.79067,-5.21067 0.88266,-1.92267 2.03333,-3.59333 3.51333,-5.16267 2.88,-3.056 7.22533,-4.66266 11.49867,-4.828 m 0.30533,0.732 c -2.45333,0.0707 -4.78667,0.59067 -6.99867,1.596 -4.42266,2 -7.23866,6.2 -8.608,10.39467 -0.84666,2.58667 -1.36,5.13867 -1.61866,7.84667 -0.30667,3.208 -0.31734,6.59066 -0.008,9.8 0.0667,0.69733 0.12266,1.424 0.236,2.11466 0.0173,0.12134 0.11066,0.108 0.232,0.14934 0.73733,0.24533 1.50133,0.42666 2.25066,0.61733 0.63867,-2.11333 2.508,-3.97067 5.08534,-3.26133 2.02666,0.556 2.61733,2.68933 2.88133,4.35333 0.044,0.24933 0.108,0.17467 0.35467,0.18533 1.18,0.064 2.43466,0.144 3.63466,0.092 0.11467,-0.005 0.69867,0.003 0.76267,-0.028 0.0733,-0.032 0.0707,-0.27466 0.0867,-0.35733 0.316,-2.16933 1.66,-4.24533 4.312,-4.28 2.07066,-0.0227 3.40666,1.70267 4.28266,3.20933 0.0973,0.17067 0.1,0.0973 0.288,0.06 1.08267,-0.224 2.18534,-0.564 3.24,-0.89066 0.38934,-0.116 0.77867,-0.25334 1.16134,-0.392 0.11866,-0.0453 0.0867,-0.0827 0.0627,-0.196 -0.21066,-1.152 -0.192,-2.77867 0.37467,-3.832 0.58133,-1.08534 1.60933,-1.50934 2.88667,-1.324 1.40666,0.20933 2.49733,1.41333 3.27466,2.42266 0.652,-0.43466 1.396,-0.86666 1.94667,-1.42 0.092,-0.0893 0.0187,-0.22266 0.005,-0.34266 -0.33733,-2.46267 -0.956,-4.86934 -1.60933,-7.272 -0.40933,-1.508 -0.936,-3.03734 -1.52133,-4.50534 -0.78134,-1.96533 -1.69334,-3.824 -2.78134,-5.68933 -0.996,-1.71733 -2.27333,-3.312 -3.71466,-4.75467 -2.70667,-2.7 -6.49467,-4.40666 -10.49867,-4.296" style="fill:#000000;fill-opacity:1;fill-rule:nonzero;stroke:none;stroke-width:1.33333"></path>
      <path id="path440" d="m 875.45553,588.78345 c 0.076,0.14267 0.0907,0.31067 0.14266,0.46267 0.0213,0.0693 0.132,0.25867 0.0587,0.31333 -1.28933,0.91467 -2.72933,1.81867 -4.37333,2.684 -2.844,1.492 -6.692,3.07734 -11.78,3.936 -2.63467,0.44267 -5.332,0.64534 -8.36667,0.58 -4.336,-0.0973 -8.636,-0.88 -11.8,-1.77466 -0.124,-0.0307 -0.39467,-0.0827 -0.4,-0.13334 -0.032,-0.24933 0.0307,-0.49733 0.0107,-0.74266 1.99866,0.572 4.16133,1.064 6.632,1.42666 1.312,0.20134 2.63733,0.33067 4.04533,0.42 1.05733,0.068 2.116,0.076 3.22,0.0733 0.72667,-0.003 1.436,-0.0413 2.14133,-0.0813 4.216,-0.23866 8.212,-1.19333 10.95334,-2.192 1.34533,-0.484 2.6,-0.98666 3.71066,-1.52666 2.24134,-1.08934 4.17867,-2.25334 5.80534,-3.44534" style="fill:#000000;fill-opacity:1;fill-rule:nonzero;stroke:none;stroke-width:1.33333"></path>
      <path id="path441" d="m 844.3618,571.12598 c 0,0 14.10266,0.44267 20.15333,2.376 7.84533,2.50267 17.20933,7.16534 19.79333,14.076 0.364,0.98134 2.236,2.56134 2.31867,4.61867 0.0813,2.00933 -2.75333,2.964 -3.89867,0.81067 -0.676,-1.272 -2.13733,-3.73734 -2.68,-4.436 -6.94133,-8.872 -19.19466,-11.10267 -24.61866,-12.20667 -3.95067,-0.80533 -8.824,-1.03733 -14.24,-0.81067 -2.28534,0.0973 3.172,-4.428 3.172,-4.428" style="fill:#bd8155;fill-opacity:1;fill-rule:nonzero;stroke:none;stroke-width:1.33333"></path>
      <path id="path442" d="m 844.3918,570.76398 c 0.84266,0.0227 1.67466,0.0653 2.50533,0.108 1.54133,0.0707 3.06533,0.18667 4.592,0.29467 2.12267,0.148 4.308,0.36933 6.37733,0.64533 2.256,0.29734 4.74534,0.68267 6.78534,1.34667 2.968,0.96667 5.67333,2.028 8.224,3.32133 1.024,0.516 2.012,1.048 2.94666,1.61467 2.52134,1.53067 4.66,3.23733 6.25867,5.12267 0.932,1.092 1.616,2.156 2.192,3.30666 0.232,0.468 0.33733,0.97467 0.664,1.42934 1.01867,1.41866 2.044,2.736 2.07733,4.29466 0.0133,0.72667 -0.36,1.74134 -1.524,2.18667 -1.492,0.576 -2.61866,-0.41333 -3.00266,-1.08933 -0.412,-0.72934 -0.79734,-1.46134 -1.23734,-2.188 -0.44266,-0.732 -0.852,-1.49867 -1.39333,-2.21067 -2.33333,-3.07333 -5.832,-5.90267 -10.52267,-8.06267 -3.36133,-1.54666 -7.228,-2.752 -11.332,-3.612 -1.53866,-0.32133 -3.124,-0.676 -4.70533,-0.90266 -1.59467,-0.22667 -3.224,-0.364 -4.87467,-0.448 -0.43733,-0.0187 -0.87466,-0.0267 -1.31733,-0.0427 -1.536,-0.0627 -3.068,-0.0253 -4.604,0.008 -0.43067,0.005 -0.904,0.048 -1.32533,0.0347 -0.292,-0.008 -0.36267,-0.23867 -0.356,-0.36667 0.005,-0.26267 0.132,-0.368 0.612,-0.38133 0.94266,-0.0333 1.904,-0.0733 2.85466,-0.0733 3.69867,0 7.396,0.148 10.816,0.82134 2.58134,0.51066 5.16534,1.04133 7.62534,1.75866 1.536,0.44534 2.94,0.912 4.36,1.448 3.09466,1.16667 5.99866,2.724 8.23466,4.39067 1.62,1.21067 2.97067,2.44667 4.17734,3.808 0.672,0.76 1.22533,1.50933 1.696,2.29733 0.48933,0.816 0.98533,1.62267 1.44533,2.43867 0.25867,0.45067 0.55333,1.27733 1.192,1.6 1.156,0.58 2.09733,-0.22133 2.308,-0.79867 0.32,-0.88933 -0.12267,-2.00666 -0.66667,-2.844 -0.54533,-0.832 -1.24666,-1.63866 -1.59866,-2.50266 -0.76667,-1.87067 -2.00534,-3.65334 -3.81734,-5.33734 -0.752,-0.70266 -1.59466,-1.41733 -2.51333,-2.05333 -1.03733,-0.71733 -2.104,-1.428 -3.29333,-2.08267 -0.616,-0.33866 -1.25334,-0.70266 -1.90934,-1.00533 -0.824,-0.38 -1.61466,-0.804 -2.48133,-1.14933 -0.84533,-0.33467 -1.65067,-0.708 -2.53333,-1.01867 -1.29067,-0.45333 -2.55067,-0.95067 -3.956,-1.312 -2.30134,-0.592 -4.92134,-0.95067 -7.37867,-1.22267 -2.724,-0.29733 -5.41867,-0.49733 -8.196,-0.66933 -0.79733,-0.052 -1.59733,-0.0707 -2.38933,-0.12267 -0.34134,-0.024 -0.716,-0.0133 -1.05067,-0.04 -0.492,-0.0413 -0.516,-0.73466 0.0347,-0.74" style="fill:#000000;fill-opacity:1;fill-rule:nonzero;stroke:none;stroke-width:1.33333"></path>
      <path id="path443" d="m 788.5962,535.65852 c -0.12534,4.05334 1.59466,7.55734 4.18,10.52 -4.72534,-2.49066 -8.592,-5.80533 -8.40267,-9.944 0.15867,-3.43066 3.18,-6.208 7.06267,-8.376 -1.66267,2.28134 -2.74667,4.88267 -2.84,7.8" style="fill:#66e204;fill-opacity:1;fill-rule:nonzero;stroke:none;stroke-width:1.33333"></path>
      <path id="path444" d="m 788.5962,535.65852 c 0.0933,-2.91733 1.17733,-5.51866 2.84,-7.8 1.85466,-1.032 3.90933,-1.928 5.94,-2.68933 -3.32,3.60133 1.39066,6.03467 1.11333,11.46133 -0.168,3.37067 -5.84933,5.68134 -0.988,11.69067 -1.59733,-0.62933 -3.20667,-1.34667 -4.72533,-2.14267 -2.58534,-2.96266 -4.30534,-6.46666 -4.18,-10.52" style="fill:#bbbbbb;fill-opacity:1;fill-rule:nonzero;stroke:none;stroke-width:1.33333"></path>
      <path id="path445" d="m 804.0962,550.55692 c -1.93467,-0.55866 -4.24934,-1.30533 -6.59467,-2.236 -4.86133,-6.00933 0.82,-8.32 0.988,-11.68933 0.27733,-5.428 -4.43333,-7.86133 -1.11333,-11.46266 2.19066,-0.82 4.35333,-1.47867 6.21866,-1.992 -3.73733,6.916 -4.08533,19.13999 0.50134,27.37999" style="fill:#f5f5f5;fill-opacity:1;fill-rule:nonzero;stroke:none;stroke-width:1.33333"></path>
      <path id="path446" d="m 803.59486,523.17665 c 3.27466,-0.9 5.64533,-1.33066 5.64533,-1.33066 l -0.11867,29.988 c 0,0 -2.076,-0.42 -5.02533,-1.27734 -4.58667,-8.24 -4.23867,-20.464 -0.50133,-27.38" style="fill:#d1d1d1;fill-opacity:1;fill-rule:nonzero;stroke:none;stroke-width:1.33333"></path>
      <path id="path447" d="m 809.31366,521.48665 c 0.196,0.0453 0.30266,0.18934 0.30266,0.42934 0,0.936 -0.0147,1.87866 -0.0147,2.81333 0,1.30133 -0.0133,2.592 -0.0133,3.888 0,5.948 -0.0733,11.89867 -0.0733,17.844 0,1.12267 0.02,2.26267 -0.012,3.38133 -0.02,0.63867 -0.008,1.3 -0.008,1.94134 0,0.332 -0.228,0.472 -0.48667,0.41466 -2.83066,-0.62933 -5.63466,-1.40133 -8.408,-2.344 -1.648,-0.56133 -3.29466,-1.176 -4.91733,-1.87333 -2.20533,-0.948 -4.47867,-2.108 -6.51733,-3.556 -1.976,-1.39867 -4.08,-3.35067 -4.892,-5.99333 -0.89334,-2.89467 0.43466,-5.628 2.32133,-7.48934 1.144,-1.132 2.40667,-2.072 3.74533,-2.87333 1.27467,-0.76267 2.60267,-1.45733 3.928,-2.028 2.07867,-0.896 4.18,-1.71467 6.31334,-2.364 0.99066,-0.29867 1.984,-0.628 2.98266,-0.876 1.608,-0.40133 3.20267,-0.84667 4.82934,-1.15867 0.304,-0.056 0.61466,-0.15066 0.92,-0.156 m -0.46,0.81734 c -1.72267,0.36266 -3.44534,0.74266 -5.14,1.22666 -4.40667,1.25334 -8.73467,2.7 -12.88134,5.11334 -1.572,0.916 -3.18133,2.108 -4.40133,3.60666 -1.35867,1.65334 -2.08933,3.64 -1.456,5.91734 0.74533,2.67466 3.09733,4.56 5.03467,5.936 0.69466,0.48933 1.47866,0.96 2.21333,1.35333 1.76267,0.94933 3.52533,1.784 5.34667,2.492 1.972,0.76667 3.93333,1.448 5.93866,2.052 1.73067,0.52267 3.47734,0.97733 5.23734,1.37733 0.02,-7.42533 0.0907,-14.86133 0.0907,-22.292 0,-2.21066 0.0253,-4.42533 0.0253,-6.63866 0,-0.036 0.012,-0.13867 -0.008,-0.144" style="fill:#000000;fill-opacity:1;fill-rule:nonzero;stroke:none;stroke-width:1.33333"></path>
      <path id="path448" d="m 791.2602,527.73665 c 0.12266,0.0827 0.23866,0.17334 0.36,0.256 -0.32534,0.448 -0.65067,0.92667 -0.95867,1.46134 -0.86133,1.504 -1.91467,3.83066 -1.84667,6.888 0.0347,1.42133 0.29467,2.71333 0.64134,3.77733 0.16133,0.48 0.33466,0.93867 0.51866,1.356 0.95067,2.13733 2.11734,3.588 3.25734,4.88933 -0.232,-0.084 -0.464,-0.19466 -0.69467,-0.28666 -0.0707,-0.028 -0.18667,-0.0507 -0.24267,-0.124 -0.67066,-0.812 -1.33466,-1.69467 -1.94933,-2.75867 -0.796,-1.38267 -1.72533,-3.43467 -1.93333,-6.04533 -0.19067,-2.43734 0.30533,-4.53734 0.964,-6.11067 0.568,-1.34133 1.20933,-2.4 1.884,-3.30267" style="fill:#000000;fill-opacity:1;fill-rule:nonzero;stroke:none;stroke-width:1.33333"></path>
      <path id="path449" d="m 797.81886,525.00745 c -0.124,0.16667 -0.30534,0.332 -0.45334,0.51334 -0.292,0.364 -0.75066,0.936 -0.9,1.748 -0.11866,0.652 -0.02,1.252 0.136,1.78 0.22667,0.76666 0.53734,1.40933 0.812,2.04 0.57867,1.32533 1.40134,3.15333 1.31067,5.42 -0.0307,0.63733 -0.17867,1.12133 -0.35733,1.528 -0.42,0.95333 -0.92,1.60933 -1.396,2.37466 -0.37734,0.612 -0.896,1.41867 -1.11467,2.48934 -0.22667,1.104 -0.005,2.07866 0.308,2.84 0.492,1.19866 1.128,1.94933 1.72,2.71066 -0.18133,-0.0507 -0.36,-0.10533 -0.532,-0.17333 -0.0693,-0.0227 -0.216,-0.0453 -0.27333,-0.12133 -0.22934,-0.304 -0.45334,-0.62534 -0.67467,-0.97467 -0.35067,-0.56133 -0.836,-1.46933 -1.012,-2.50533 -0.17333,-1.02134 -0.028,-1.91734 0.256,-2.66534 0.384,-1.03333 0.888,-1.74133 1.356,-2.47733 0.332,-0.53333 0.704,-1.05467 0.99333,-1.75867 0.22134,-0.55066 0.29867,-0.988 0.28134,-1.81466 -0.06,-2.244 -0.948,-3.91467 -1.53467,-5.28134 -0.26667,-0.624 -0.636,-1.43333 -0.74667,-2.35733 -0.14933,-1.20667 0.304,-2.08933 0.644,-2.58267 0.0787,-0.108 0.22934,-0.36533 0.30667,-0.39466 0.28933,-0.116 0.57867,-0.23734 0.87067,-0.33734" style="fill:#000000;fill-opacity:1;fill-rule:nonzero;stroke:none;stroke-width:1.33333"></path>
      <path id="path450" d="m 852.68086,455.89812 c 0.332,-1.67733 6.456,-1.62666 6.868,-0.24666 0.37866,1.28266 1.188,6.98933 0.7,12.148 -1.98534,-3.79334 -5.432,-4.12534 -8.32667,-2.116 0.372,-5.36134 0.664,-9.30534 0.75867,-9.78534" style="fill:#66e204;fill-opacity:1;fill-rule:nonzero;stroke:none;stroke-width:1.33333"></path>
      <path id="path451" d="m 852.86433,496.00878 c -0.91067,0.02 -1.904,0.0947 -2.93467,0.236 0.448,-7.064 1.34133,-21.04933 1.992,-30.56133 2.89467,-2.00933 6.34267,-1.67733 8.32667,2.116 -0.12934,1.37734 -0.35067,2.71867 -0.69867,3.92 -1.884,6.50133 -5.16267,9.73733 -5.16267,9.73733 z" style="fill:#f5f5f5;fill-opacity:1;fill-rule:nonzero;stroke:none;stroke-width:1.33333"></path>
      <path id="path452" d="m 849.92953,496.24438 c 1.03066,-0.14 2.02533,-0.216 2.93466,-0.236 l -0.516,4.92267 -2.69466,-0.26 c 0,0 0.10533,-1.692 0.276,-4.42667" style="fill:#d1d1d1;fill-opacity:1;fill-rule:nonzero;stroke:none;stroke-width:1.33333"></path>
      <path id="path453" d="m 855.79673,454.27172 c 0.32933,-0.0453 0.664,0.012 0.99066,0.012 0.368,0 0.748,0.0133 1.112,0.108 0.316,0.08 0.63467,0.13067 0.94267,0.264 0.31867,0.12667 0.70933,0.224 0.99333,0.74534 0.11334,0.20533 0.22134,0.75066 0.28667,1.136 0.55333,3.168 0.83733,7.35333 0.524,10.99733 -0.23733,2.80933 -0.76533,4.552 -1.38267,6.272 -0.46666,1.27467 -0.98266,2.41467 -1.49866,3.39067 -0.90134,1.7 -1.852,3.14933 -2.808,4.20266 -0.048,0.0533 -0.16267,0.14267 -0.19867,0.21867 -0.02,0.0347 -0.0827,0.67733 -0.0987,0.80133 -0.15066,1.42134 -0.29333,2.85734 -0.44533,4.28267 -0.11067,1.03733 -0.21867,2.07067 -0.324,3.104 -0.0747,0.68933 -0.148,1.38133 -0.21867,2.07467 -0.22133,2.21333 -0.45866,4.42666 -0.69333,6.632 -0.0813,0.792 -0.15867,1.62933 -0.252,2.40933 -0.0347,0.29467 -0.208,0.37333 -0.28667,0.376 -0.256,0.0107 -0.50666,-0.0133 -0.76666,-0.0587 -0.26134,-0.0467 -0.52267,-0.0227 -0.788,-0.0573 -0.31067,-0.044 -0.62267,-0.0413 -0.93467,-0.0973 -0.18267,-0.032 -0.38267,0.0133 -0.56133,-0.14267 -0.0693,-0.0707 -0.11867,-0.128 -0.1,-0.43467 0.076,-1.24266 0.16,-2.47733 0.236,-3.72133 0.20133,-3.30533 0.41066,-6.62 0.632,-9.91467 0.10533,-1.59733 0.2,-3.196 0.304,-4.792 0.18133,-2.69733 0.35466,-5.39466 0.532,-8.08933 0.104,-1.47867 0.19466,-2.972 0.29466,-4.45733 0.26134,-3.87734 0.524,-7.76267 0.82267,-11.6 0.0493,-0.59334 0.10267,-1.36534 0.18133,-1.916 0.0947,-0.652 0.408,-0.87334 0.58667,-0.99467 0.94667,-0.64267 1.93867,-0.656 2.91867,-0.75067 m 0.0507,0.72934 c -0.80666,0.076 -1.61466,0.11333 -2.4,0.53466 -0.10266,0.056 -0.372,0.19734 -0.42133,0.56667 -0.10133,0.81867 -0.16133,1.812 -0.23467,2.67333 -0.0627,0.75867 -0.11333,1.556 -0.17066,2.32534 -0.12134,1.58533 -0.22667,3.192 -0.33734,4.78933 -0.23866,3.49067 -0.46133,7.01467 -0.704,10.504 -0.11066,1.58667 -0.20266,3.196 -0.31066,4.784 -0.16267,2.444 -0.31334,4.89733 -0.476,7.34133 -0.11334,1.752 -0.21867,3.50934 -0.33734,5.26267 -0.14,2.17867 -0.26666,4.38133 -0.408,6.55733 0.54934,0.0467 1.09467,0.12267 1.64534,0.17334 0.1,0.008 0.20533,0.032 0.304,0.0187 0.036,-0.004 0.0333,-0.0947 0.048,-0.21066 0.15066,-1.42 0.29333,-2.85867 0.44666,-4.27734 0.11334,-1.072 0.21734,-2.184 0.33734,-3.24933 0.124,-1.092 0.22666,-2.216 0.348,-3.30533 0.0973,-0.864 0.18133,-1.764 0.276,-2.63067 0.18133,-1.72267 0.36,-3.452 0.53866,-5.17733 0.048,-0.46 0.068,-0.40534 0.19334,-0.54134 0.956,-1.05333 1.90933,-2.38133 2.80933,-4.088 0.66267,-1.24133 1.27333,-2.616 1.84533,-4.31066 0.56934,-1.68267 0.98534,-3.49734 1.12934,-6.16934 0.18,-3.24666 -0.068,-7.11466 -0.57334,-9.86933 -0.0573,-0.31867 -0.16533,-0.91733 -0.264,-1.028 -0.23333,-0.26267 -0.50533,-0.312 -0.752,-0.4 -0.272,-0.1 -0.55333,-0.11333 -0.83066,-0.18933 -0.216,-0.0627 -0.44267,-0.044 -0.65867,-0.0627 -0.34533,-0.0267 -0.69333,-0.0187 -1.04267,-0.0213" style="fill:#000000;fill-opacity:1;fill-rule:nonzero;stroke:none;stroke-width:1.33333"></path>
      <path id="path454" d="m 855.4946,464.24305 c 0.67466,0.003 1.34933,0.15067 1.90933,0.4 0.34933,0.15067 0.70933,0.34667 0.984,0.556 0.32133,0.25067 0.62133,0.5 0.87733,0.784 0.34667,0.38534 0.65334,0.80134 0.9,1.21467 0.0347,0.0587 0.108,0.148 0.108,0.204 0,0.268 -0.04,0.536 -0.0573,0.80533 -0.024,-0.0413 -0.048,-0.0813 -0.068,-0.124 -0.36933,-0.71866 -0.81467,-1.43066 -1.48133,-2.068 -0.64267,-0.616 -1.604,-1.20666 -2.784,-1.30666 -1.58267,-0.13867 -2.956,0.53066 -3.976,1.25466 0.012,-0.16133 0.009,-0.324 0.032,-0.48 0.003,-0.0333 -0.007,-0.076 0.0267,-0.10133 0.416,-0.26133 0.84667,-0.51467 1.33867,-0.704 0.67467,-0.25867 1.396,-0.44267 2.19067,-0.43467" style="fill:#000000;fill-opacity:1;fill-rule:nonzero;stroke:none;stroke-width:1.33333"></path>
      <path id="path455" d="m 843.5922,465.73665 c -2.96534,-1.90133 -6.396,-1.44133 -8.24134,2.42134 -0.676,-5.132 -0.0827,-10.864 0.252,-12.16 0.35867,-1.39334 6.48,-1.67467 6.872,-0.0133 0.11334,0.48267 0.55067,4.408 1.11734,9.752" style="fill:#66e204;fill-opacity:1;fill-rule:nonzero;stroke:none;stroke-width:1.33333"></path>
      <path id="path456" d="m 846.7082,496.11678 c 0.27866,2.77334 0.45066,4.504 0.45066,4.504 l -2.68666,0.35867 -0.72667,-5.10533 c 0.97067,0.016 1.96933,0.10266 2.96267,0.24266" style="fill:#d1d1d1;fill-opacity:1;fill-rule:nonzero;stroke:none;stroke-width:1.33333"></path>
      <path id="path457" d="m 846.7082,496.11678 c -0.99334,-0.14 -1.992,-0.22666 -2.96267,-0.24266 l -2.02933,-14.284 c 0,0 -3.39467,-3.10667 -5.51867,-9.536 -0.392,-1.18667 -0.66533,-2.52 -0.84667,-3.896 1.84534,-3.86267 5.276,-4.32267 8.24134,-2.42133 1.00133,9.448 2.404,23.31466 3.116,30.37999" style="fill:#f5f5f5;fill-opacity:1;fill-rule:nonzero;stroke:none;stroke-width:1.33333"></path>
      <path id="path458" d="m 839.0506,454.48012 c 0.53733,0.003 1.08266,-0.0133 1.61466,0.0947 0.62134,0.12667 1.22667,0.23733 1.82,0.74 0.11867,0.10267 0.21334,0.23733 0.31067,0.488 0.084,0.21067 0.124,0.59333 0.16533,0.90267 0.284,2.228 0.53067,4.524 0.76934,6.80133 0.12533,1.27467 0.26933,2.53467 0.40266,3.80933 0.27734,2.64534 0.556,5.28934 0.828,7.94134 0.29067,2.89733 0.58267,5.80533 0.88934,8.69066 0.24133,2.3 0.46266,4.62534 0.70133,6.928 0.156,1.496 0.30267,3.00267 0.456,4.50134 0.15333,1.49333 0.30533,3.008 0.45467,4.50933 0.0147,0.168 0.088,0.72933 0.056,0.852 -0.0893,0.30933 -0.468,0.27333 -0.60267,0.3 -0.356,0.068 -0.71867,0.1 -1.07467,0.14267 -0.20933,0.0227 -0.42666,0.0827 -0.63733,0.0827 -0.296,0 -0.62133,0.18 -0.912,0.0453 -0.17333,-0.076 -0.18133,-0.21334 -0.24933,-0.69867 -0.24934,-1.848 -0.52534,-3.66933 -0.78267,-5.512 -0.372,-2.63733 -0.752,-5.26933 -1.124,-7.91333 -0.24133,-1.73067 -0.50533,-3.44 -0.74133,-5.18134 -0.0187,-0.152 -0.0107,-0.216 -0.0613,-0.26533 -0.14133,-0.13067 -0.27866,-0.27467 -0.41733,-0.432 -1.82267,-2.092 -3.68667,-4.916 -5.12667,-9.31067 -0.93866,-2.87866 -1.26133,-7.18533 -1.064,-11.27866 0.068,-1.452 0.20267,-3.388 0.47467,-4.61467 0.13867,-0.60133 0.43467,-0.80133 0.64667,-0.91867 1.04133,-0.588 2.12666,-0.652 3.204,-0.704 m -0.192,0.74 c -0.87467,0.1 -1.76534,0.092 -2.61334,0.58267 -0.11066,0.068 -0.25066,0.13067 -0.31866,0.46533 -0.332,1.63867 -0.44267,3.78534 -0.50267,5.688 -0.08,2.77867 0.14133,5.876 0.636,8.14134 0.44,2.02133 1.08133,3.51866 1.68933,4.88133 0.89867,2 1.928,3.57733 2.93067,4.876 0.37733,0.488 0.78,1.00133 1.16933,1.35867 0.0933,0.0853 0.20134,0.11066 0.24934,0.42266 0.4,2.74667 0.76933,5.55734 1.17733,8.29867 0.40933,2.74 0.776,5.55867 1.184,8.29867 0.108,0.72666 0.20667,1.46666 0.30933,2.204 0.032,0.21066 0.0347,0.12666 0.1,0.124 0.292,-0.0107 0.592,-0.0733 0.88267,-0.12134 0.24667,-0.0413 0.49733,-0.0453 0.74533,-0.10533 0.084,-0.0213 0.176,0.005 0.256,-0.0387 -0.568,-5.732 -1.16,-11.428 -1.73466,-17.156 -0.536,-5.31866 -1.08667,-10.624 -1.64534,-15.91866 -0.284,-2.672 -0.56666,-5.34267 -0.86533,-8.008 -0.10267,-0.95334 -0.216,-2.00934 -0.35733,-2.91334 -0.0773,-0.49466 -0.24534,-0.51333 -0.392,-0.60533 -0.392,-0.244 -0.804,-0.292 -1.20667,-0.39067 -0.21067,-0.052 -0.42533,-0.0187 -0.63733,-0.0707 -0.18534,-0.0467 -0.384,-0.0133 -0.572,-0.0133 z" style="fill:#000000;fill-opacity:1;fill-rule:nonzero;stroke:none;stroke-width:1.33333"></path>
      <path id="path459" d="m 840.17953,464.42665 c 0.116,0 0.23866,0.003 0.35733,0.0147 0.38533,0.0253 0.74667,0.0853 1.112,0.18 0.288,0.0787 0.54533,0.172 0.812,0.27733 0.384,0.144 0.716,0.33734 1.05067,0.528 0.04,0.024 0.048,0.0187 0.0507,0.0533 0.0227,0.176 0.0493,0.36 0.0573,0.53733 -0.85067,-0.55733 -1.896,-1.05333 -3.10267,-1.13067 -1.356,-0.0933 -2.44267,0.392 -3.264,1.07334 -0.43333,0.36 -0.788,0.78 -1.07467,1.20533 -0.31333,0.46133 -0.556,0.93067 -0.77733,1.4 -0.032,-0.196 -0.0453,-0.396 -0.0733,-0.59333 -0.005,-0.0627 -0.032,-0.19334 -0.008,-0.25067 0.22933,-0.46533 0.54266,-0.91333 0.89333,-1.34533 0.32933,-0.408 0.75333,-0.788 1.24533,-1.12534 0.192,-0.132 0.43467,-0.268 0.664,-0.37466 0.60134,-0.27867 1.32267,-0.44934 2.05734,-0.44934" style="fill:#000000;fill-opacity:1;fill-rule:nonzero;stroke:none;stroke-width:1.33333"></path>
      <path id="path460" d="m 848.90606,574.47878 c -12.54667,0 -23.912,-4.22533 -32.136,-11.064 -8.22534,-6.84 -13.31333,-16.28666 -13.31333,-26.72266 0,-10.432 5.08799,-19.88 13.31333,-26.71867 8.224,-6.83866 19.58933,-11.07066 32.136,-11.07066 12.55466,0 23.91466,4.232 32.14,11.07066 8.22666,6.83867 13.31466,16.28667 13.31466,26.71867 0,10.436 -5.088,19.88266 -13.31466,26.72266 -8.22534,6.83867 -19.58534,11.064 -32.14,11.064" style="fill:#f5f5f5;fill-opacity:1;fill-rule:nonzero;stroke:none;stroke-width:1.33333"></path>
      <path id="path461" d="m 847.47766,498.56078 c 3.32666,-0.076 6.62666,0.108 9.82,0.60667 2.97333,0.46533 5.91333,1.16133 8.73466,2.128 10.80534,3.70133 19.07867,10.19467 24.24934,18.94667 2.31333,3.91466 3.82,8.54266 4.268,12.844 0.11066,1.044 0.20533,2.112 0.20533,3.16666 0,5.94 -1.372,11.15334 -4.248,16.51334 -1.03067,1.91733 -2.348,3.66266 -3.70933,5.41066 -0.92267,1.18534 -2.00667,2.25734 -3.08,3.35067 -1.73334,1.76667 -3.75067,3.25333 -5.81067,4.72 -5.23733,3.73067 -12.612,6.64667 -19.268,7.76 -5.98,1.00133 -12.36533,1.18 -18.38933,0.172 -11.67467,-1.94933 -21.628,-7.196 -28.70934,-15.376 -2.94,-3.40267 -5.23733,-7.33333 -6.61199,-11.34267 -3.67734,-10.67866 -1.82267,-21.92 5.36399,-31.336 8.052,-10.54666 22.384,-17.29466 37.18534,-17.564 m 0.088,0.72 c -5.76667,0.168 -11.22667,1.19867 -16.51734,3.07067 -5.46,1.92533 -10.51066,4.82533 -14.62933,8.44267 -0.68533,0.60266 -1.31733,1.23466 -1.98933,1.83066 -1.164,1.04 -2.168,2.3 -3.13734,3.46267 -1.46266,1.75067 -2.73066,3.83067 -3.78666,5.796 -2.01867,3.77467 -3.18533,7.98533 -3.536,12.09333 -0.372,4.344 0.124,8.86134 1.564,12.93867 3.33066,9.38267 10.55066,17.22667 20.77066,22.15867 2.40534,1.15866 4.77334,2.012 7.336,2.832 3.74534,1.20666 7.85467,1.81733 11.856,2.104 3.56534,0.25866 7.14667,0.032 10.61867,-0.36534 2.77333,-0.31333 5.58667,-1.00666 8.232,-1.77866 4.82667,-1.41734 9.36133,-3.648 13.312,-6.35867 7.616,-5.236 12.84133,-12.29067 15.11467,-20.19467 0.36933,-1.276 0.712,-2.672 0.86933,-3.98666 0.3,-2.52667 0.488,-5.07334 0.18,-7.632 -0.30533,-2.57067 -0.74,-4.99067 -1.636,-7.44934 -0.432,-1.17866 -0.88,-2.36133 -1.43333,-3.508 -1.93067,-4.00666 -4.77334,-7.736 -8.20534,-10.92666 -1.81733,-1.688 -3.816,-3.23734 -5.93733,-4.62 -8.28667,-5.37867 -18.54667,-8.13867 -29.04533,-7.90934" style="fill:#000000;fill-opacity:1;fill-rule:nonzero;stroke:none;stroke-width:1.33333"></path>
      <path id="path462" d="m 844.1378,567.75878 c -10.31867,0 -19.65867,-3.73733 -26.416,-9.776 -6.76534,-6.04 -10.94667,-14.38266 -10.94667,-23.59866 0,-9.22 4.18133,-17.56267 10.94667,-23.60533 6.75733,-6.03867 16.09733,-9.77467 26.416,-9.77467 10.32133,0 19.66133,3.736 26.42133,9.77467 6.76533,6.04266 10.94667,14.38533 10.94667,23.60533 0,9.216 -4.18134,17.55866 -10.94667,23.59866 -6.76,6.03867 -16.1,9.776 -26.42133,9.776" style="fill:#bbbbbb;fill-opacity:1;fill-rule:nonzero;stroke:none;stroke-width:1.33333"></path>
      <path id="path463" d="m 843.56233,500.79385 c 4.028,-0.02 8.068,0.42 11.82933,1.51467 7.5,2.18 14.01867,6.18533 18.8,11.89333 4.204,5.016 6.89333,11.11867 7.41067,17.29867 0.184,2.176 0.204,4.42533 -0.08,6.57733 -0.496,3.78267 -1.60667,7.28 -3.424,10.768 -0.972,1.86 -2.18667,3.59067 -3.50267,5.244 -4.776,6.00134 -11.928,10.44267 -19.73867,12.51867 -10.38133,2.75467 -21.74666,1.35867 -30.91866,-3.88 -4.61334,-2.632 -8.304,-5.996 -11.348,-10.05467 -3.32667,-4.42533 -5.44267,-10.10933 -5.91467,-15.32 -0.216,-2.33733 -0.176,-4.77066 0.14533,-7.08266 0.21067,-1.49867 0.556,-2.88534 0.92934,-4.35067 0.404,-1.59867 1.09333,-3.136 1.776,-4.66667 1.52266,-3.40933 4.012,-6.67733 6.72133,-9.40666 1.13867,-1.14667 2.53467,-2.368 3.87067,-3.31734 3.42933,-2.43333 7.28266,-4.592 11.47066,-5.82133 3.89467,-1.15067 7.788,-1.90667 11.97334,-1.91467 m -0.0707,0.43067 c -8.41733,0.136 -16.64667,2.85467 -23.16267,7.728 -7.25733,5.432 -11.644,12.756 -12.984,20.95733 -0.21066,1.25334 -0.31866,2.54134 -0.31866,3.84 0,2.61334 0.15733,5.12534 0.80933,7.62267 0.732,2.79867 1.70667,5.52933 3.244,8.12933 2.59067,4.40934 5.94267,7.984 10.32933,11.09867 3.46667,2.46533 7.45334,4.19733 11.62134,5.42267 5.63466,1.66266 11.89066,1.87866 17.78666,0.988 5.13067,-0.77467 10.02534,-2.7 14.4,-5.32934 2.66667,-1.60133 5.24134,-3.70133 7.32667,-5.93733 2.24267,-2.40133 3.99067,-4.89067 5.46,-7.74667 4.75333,-9.21866 4.26267,-20.23333 -1.08,-29.192 -6.53867,-10.96 -19.22267,-17.58133 -32.94933,-17.58133 z" style="fill:#000000;fill-opacity:1;fill-rule:nonzero;stroke:none;stroke-width:1.33333"></path>
      <path id="path464" d="m 844.2238,560.16105 c -8.14267,0 -15.52,-2.948 -20.85734,-7.708 -5.33733,-4.764 -8.64,-11.34533 -8.64,-18.61333 0,-7.26933 3.30267,-13.852 8.64,-18.61466 5.33734,-4.76267 12.71467,-7.708 20.85734,-7.708 8.14266,0 15.51733,2.94533 20.85333,7.708 5.34,4.76266 8.64133,11.34533 8.64133,18.61466 0,7.268 -3.30133,13.84933 -8.64133,18.61333 -5.336,4.76 -12.71067,7.708 -20.85333,7.708" style="fill:#2c2c2c;fill-opacity:1;fill-rule:nonzero;stroke:none;stroke-width:1.33333"></path>
      <path id="path465" d="m 843.2954,507.31732 c 3.95066,-0.16 7.676,0.504 11.324,1.648 3.21733,1.01067 6.45866,2.796 9.02666,4.78534 2.65334,2.05466 4.74534,4.38133 6.488,7.05466 1.93467,2.96534 3.15867,6.516 3.60934,9.84534 0.10533,0.75466 0.12133,1.49733 0.18133,2.26666 0.0773,1.024 -0.0107,2.03734 -0.076,3.04 -0.15333,2.404 -0.82933,5.02 -1.796,7.25334 -2.69733,6.22666 -7.82133,11.42266 -14.55067,14.39333 -9.544,4.21467 -20.932,3.64267 -29.81866,-1.70133 -6.03067,-3.62267 -10.316,-9.00134 -12.20267,-15.22267 -0.508,-1.676 -0.808,-3.428 -0.93067,-5.17733 -0.28,-4.056 0.476,-7.94667 2.11734,-11.632 1.356,-3.05734 3.37333,-5.74134 5.852,-8.15334 5.332,-5.19066 13.02666,-8.21333 20.776,-8.4 m 0.5,0.42267 c -4.54134,0.0573 -8.776,1.04667 -12.848,2.84133 -4.88934,2.16134 -9.00134,5.71734 -11.844,9.85467 -0.93734,1.372 -1.70134,2.856 -2.336,4.34533 -3.664,8.59334 -1.68934,18.93734 5.128,25.91867 3.084,3.164 6.612,5.56267 10.92933,7.196 3.75333,1.42267 7.61067,2.04133 11.73733,2.04133 9.70134,0 19.084,-4.688 24.33734,-12.06133 4.78133,-6.70667 5.86533,-14.85333 3.07333,-22.36133 -3.68667,-9.888 -13.976,-16.96667 -25.48267,-17.684 -0.556,-0.036 -1.108,-0.0707 -1.68,-0.0773 -0.33466,-0.008 -0.67466,-0.0253 -1.01466,-0.0133" style="fill:#000000;fill-opacity:1;fill-rule:nonzero;stroke:none;stroke-width:1.33333"></path>
      <path id="path466" d="m 820.2694,550.41625 c -4.136,-0.56666 -7.65067,-2.764 -9.98934,-5.848 -2.336,-3.08533 -3.496,-7.06 -2.928,-11.196 0.57067,-4.13733 2.76,-7.65466 5.84667,-9.99333 3.08667,-2.33466 7.06267,-3.496 11.2,-2.924 4.136,0.56667 7.65067,2.76 9.98933,5.84267 2.336,3.08933 3.49734,7.064 2.92667,11.2 -0.568,4.136 -2.76133,7.652 -5.84533,9.99066 -3.08667,2.33734 -7.06267,3.49867 -11.2,2.928" style="fill:#4ae1ff;fill-opacity:1;fill-rule:nonzero;stroke:none;stroke-width:1.33333"></path>
      <path id="path467" d="m 853.35793,523.36812 c 0.0573,0.005 0.116,0.02 0.17333,0.0293 0.04,0.016 0.0853,0.0627 0.12133,0.084 0.0493,0.0373 0.0693,0.0787 0.1,0.12533 0.04,0.0587 0.048,0.116 0.0627,0.17467 0.0173,0.0587 0,0.11866 -0.005,0.18 -0.005,0.0413 -0.04,0.0827 -0.06,0.12266 -0.048,0.0813 -0.108,0.12667 -0.216,0.17734 -0.33734,0.152 -0.66667,0.30266 -0.97734,0.47733 -1.44,0.81733 -2.652,1.796 -3.71066,2.81733 1.13466,-0.38266 2.288,-0.71733 3.47866,-0.984 0.93734,-0.204 1.90534,-0.37466 2.876,-0.49866 0.164,-0.0213 0.37734,-0.0667 0.54134,-0.0373 0.0627,0.0107 0.12,0.0507 0.17333,0.0787 0.0427,0.024 0.076,0.0853 0.10267,0.12 0.0333,0.0507 0.0427,0.10133 0.0587,0.152 0.0173,0.0627 0.007,0.11333 0.007,0.18 0,0.0573 -0.0373,0.11067 -0.0573,0.16533 -0.0213,0.0467 -0.076,0.084 -0.11067,0.12134 -0.11067,0.10266 -0.324,0.10533 -0.49067,0.128 -1.248,0.15333 -2.44933,0.37733 -3.64933,0.67466 -1.428,0.35067 -2.79067,0.82934 -4.14133,1.31734 -0.0987,0.0373 -0.30267,0.12133 -0.40534,0.12666 -0.352,0.0293 -0.508,-0.264 -0.508,-0.45333 0,-0.168 0.0707,-0.25333 0.188,-0.39733 0.76534,-0.896 1.65467,-1.73334 2.616,-2.53734 0.40534,-0.34 0.84534,-0.67733 1.30534,-0.988 0.66,-0.44533 1.34533,-0.868 2.108,-1.21333 0.128,-0.06 0.264,-0.13733 0.42,-0.14267" style="fill:#4ae1ff;fill-opacity:1;fill-rule:nonzero;stroke:none;stroke-width:1.33333"></path>
      <path id="path468" d="m 890.1534,522.02305 c 0,0 2.30533,0.71067 5.45733,1.97867 0.224,0.0933 0.45733,0.18667 0.69067,0.284 -2.46667,1.65067 -0.47467,4.17467 -0.56934,5.64133 -0.232,3.412 -2.81866,3.66134 -3.172,7.26534 -0.252,2.57866 2.89734,4.56533 2.192,7.54666 -0.6,2.53334 -3.968,3.12934 -2.58666,6.35867 -0.0813,0.012 -0.15867,0.032 -0.23734,0.04 -3.032,0.508 -5.14,0.68667 -5.14,0.68667 -1.396,-0.16534 -2.56266,-1.972 -3.15733,-4.78534 -0.59467,-2.808 -0.72667,-6.612 -0.24267,-10.73466 0.48267,-4.124 1.484,-7.79334 2.71867,-10.39334 1.22667,-2.59066 2.66,-4.04933 4.04667,-3.888" style="fill:#f5f5f5;fill-opacity:1;fill-rule:nonzero;stroke:none;stroke-width:1.33333"></path>
      <path id="path469" d="m 905.8982,529.21052 c -0.30134,0.28667 -0.588,0.59467 -0.86667,0.932 -1.65867,2.00267 -2.87867,4.89734 -3.26533,8.208 -0.392,3.308 0.12666,6.40667 1.28,8.74 0.17866,0.36267 0.376,0.70667 0.58133,1.03467 -1.58933,0.61067 -3.252,1.12267 -4.89067,1.56 -2.34,0.62667 -4.63333,1.08533 -6.572,1.412 -1.38133,-3.22933 1.98667,-3.82533 2.588,-6.35867 0.704,-2.98133 -2.444,-4.968 -2.19333,-7.54666 0.35467,-3.604 2.94,-3.852 3.172,-7.26534 0.0947,-1.46533 -1.89733,-3.99066 0.57067,-5.64 1.62266,0.67467 3.43466,1.48267 5.248,2.41867 1.48,0.756 2.96,1.59867 4.348,2.50533" style="fill:#bbbbbb;fill-opacity:1;fill-rule:nonzero;stroke:none;stroke-width:1.33333"></path>
      <path id="path470" d="m 907.14046,530.06998 c 3.60666,2.59734 6.28533,5.71334 6.03866,9.13467 -0.29333,4.136 -4.51333,6.976 -9.552,8.92 -0.20533,-0.32667 -0.40266,-0.672 -0.58,-1.03333 -1.15466,-2.33334 -1.672,-5.43334 -1.28,-8.74 0.38667,-3.31067 1.60667,-6.20534 3.264,-8.208 0.27867,-0.33734 0.56667,-0.64667 0.86667,-0.93334 0.42133,0.28134 0.836,0.568 1.24267,0.86" style="fill:#66e204;fill-opacity:1;fill-rule:nonzero;stroke:none;stroke-width:1.33333"></path>
      <path id="path471" d="m 890.0806,521.65972 c 0.0573,-0.0227 0.11466,-0.004 0.168,0.0133 1.32,0.39733 2.64533,0.87733 3.948,1.37333 1.99733,0.772 3.984,1.59867 5.936,2.54667 1.63466,0.788 3.30933,1.62533 4.864,2.60533 1.128,0.71733 2.24533,1.444 3.30133,2.27867 2.11467,1.67066 4.62,4.112 5.148,7.04933 0.436,2.41467 -0.37467,4.40933 -1.88133,6.13733 -1.12267,1.28934 -2.63734,2.31334 -4.07334,3.10534 -2.48266,1.35333 -5.08533,2.27333 -7.70933,3.02133 -0.95467,0.27067 -1.91867,0.51467 -2.884,0.74267 -1.85333,0.43733 -3.728,0.788 -5.604,1.09066 -1.264,0.20534 -2.55467,0.38667 -3.82933,0.51467 -0.30134,0.0253 -1.01867,0.22533 -1.044,-0.296 -0.0227,-0.40267 0.35466,-0.37333 0.596,-0.40533 1.62533,-0.19867 3.25466,-0.37467 4.86666,-0.66134 0.968,-0.172 1.93734,-0.32933 2.89467,-0.536 0.86267,-0.196 1.72,-0.38 2.58,-0.58133 0.92267,-0.21867 1.86533,-0.46 2.772,-0.74667 1.26667,-0.39466 2.54667,-0.77733 3.792,-1.292 1.204,-0.508 2.42667,-1.032 3.58133,-1.71733 1.728,-1.02 3.468,-2.284 4.52934,-4.17067 1.18933,-2.112 0.968,-4.42666 -0.25734,-6.45333 -1.05066,-1.728 -2.564,-3.17333 -4.096,-4.33867 -1.376,-1.048 -2.824,-1.988 -4.32533,-2.83333 -1.112,-0.62667 -2.22933,-1.20667 -3.36933,-1.76533 -1.61467,-0.79067 -3.27734,-1.49334 -4.93067,-2.16 -0.79333,-0.31867 -1.592,-0.616 -2.39333,-0.90667 -0.86267,-0.31333 -1.72534,-0.58667 -2.58534,-0.884 -0.40266,-0.13467 -0.38,-0.61467 0.005,-0.73067" style="fill:#000000;fill-opacity:1;fill-rule:nonzero;stroke:none;stroke-width:1.33333"></path>
      <path id="path472" d="m 896.04273,524.20012 c 0.17066,0.0427 0.34266,0.12134 0.51066,0.18667 -0.11066,0.088 -0.22933,0.148 -0.34,0.24133 -0.256,0.216 -0.624,0.48934 -0.82933,1.15867 -0.25467,0.82933 0.06,1.83867 0.232,2.428 0.0693,0.248 0.16267,0.51733 0.224,0.79867 0.072,0.32 0.14267,0.61333 0.10533,1.056 -0.0787,0.86133 -0.292,1.504 -0.504,1.91733 -0.6,1.19067 -1.24533,1.74133 -1.86133,2.75867 -0.28667,0.476 -0.71867,1.35066 -0.804,2.56266 -0.0427,0.656 0.16667,1.26667 0.296,1.58 0.284,0.69067 0.60267,1.19334 0.908,1.752 0.30267,0.55334 0.65333,1.11734 0.90133,1.95734 0.16267,0.55066 0.27867,1.28533 0.12,2.036 -0.15466,0.72666 -0.41733,1.17466 -0.64666,1.48933 -0.51734,0.712 -1.04534,1.164 -1.56134,1.796 -0.20666,0.24933 -0.50266,0.59733 -0.65866,1.172 -0.21867,0.824 0.088,1.56667 0.25466,1.97333 -0.0613,0.008 -0.12666,0.0307 -0.19466,0.0333 -0.0747,0.005 -0.17067,0.0507 -0.25067,0.032 -0.0387,-0.0133 -0.15333,-0.404 -0.192,-0.52 -0.11867,-0.38934 -0.20267,-1.01067 -0.0747,-1.51867 0.16134,-0.664 0.44934,-1.04667 0.66934,-1.33333 0.464,-0.59867 0.94533,-0.99867 1.412,-1.58 0.25466,-0.324 0.64533,-0.812 0.808,-1.66 0.19066,-0.96667 -0.0987,-1.83067 -0.29734,-2.316 -0.452,-1.09334 -0.97333,-1.772 -1.44266,-2.768 -0.19734,-0.41867 -0.57734,-1.24 -0.488,-2.26534 0.0853,-0.98266 0.40666,-1.81466 0.64266,-2.26 0.49334,-0.94533 1.02267,-1.48533 1.53334,-2.23066 0.336,-0.48267 0.864,-1.25467 0.98533,-2.65734 0.0427,-0.47733 -0.084,-0.86533 -0.16667,-1.17066 -0.15466,-0.572 -0.34133,-1.06667 -0.44666,-1.78267 -0.116,-0.77467 0.012,-1.39333 0.2,-1.75467 0.3,-0.596 0.62933,-0.856 0.956,-1.112" style="fill:#000000;fill-opacity:1;fill-rule:nonzero;stroke:none;stroke-width:1.33333"></path>
      <path id="path473" d="m 905.703,529.09212 c 0.12533,0.0707 0.25333,0.168 0.38133,0.25334 -0.384,0.352 -0.764,0.78533 -1.13867,1.26133 -0.344,0.43733 -0.68666,0.964 -1.01333,1.55067 -0.61067,1.10933 -1.20933,2.47466 -1.63067,4.368 -0.42133,1.86933 -0.59733,4.19333 -0.276,6.36666 0.36267,2.46534 1.096,4.02267 1.816,5.14934 -0.0933,0.0427 -0.19066,0.08 -0.28666,0.116 -0.0253,0.0107 -0.12534,0.068 -0.14667,0.0373 -0.0973,-0.128 -0.19733,-0.32133 -0.29067,-0.48533 -0.76533,-1.372 -1.62933,-3.656 -1.69866,-6.77734 -0.0493,-2.13333 0.29733,-4.16666 0.73733,-5.648 0.16933,-0.568 0.352,-1.11866 0.544,-1.58 0.31067,-0.756 0.64133,-1.45333 0.992,-2.02533 0.652,-1.08 1.316,-1.944 2.01067,-2.58667" style="fill:#000000;fill-opacity:1;fill-rule:nonzero;stroke:none;stroke-width:1.33333"></path>
      <path id="path474" d="m 889.91913,521.64545 c 0.168,0.0107 0.33466,-0.0187 0.49733,0.116 0.0307,0.0267 0.11867,0.14534 0.11333,0.29467 0,0.008 -0.032,0.12667 -0.0373,0.13467 -0.11333,0.26666 -0.352,0.19733 -0.49067,0.19733 -1.29733,0 -2.572,1.51467 -3.664,3.90667 -0.50933,1.124 -1.00533,2.468 -1.424,4.02 -0.71866,2.652 -1.30933,5.97466 -1.42533,9.56133 -0.0707,2.08933 0.0133,3.988 0.28533,5.856 0.38134,2.616 1.11334,4.236 1.90934,5.07867 0.32266,0.344 0.62933,0.5 0.96933,0.61333 0.14267,0.048 0.372,-0.0227 0.49067,0.284 0.0373,0.108 -0.005,0.26133 -0.04,0.31733 -0.152,0.236 -0.37067,0.17067 -0.53467,0.136 -0.912,-0.176 -1.90533,-0.99066 -2.66533,-2.88933 -0.83734,-2.10267 -1.236,-5.23467 -1.17867,-8.73467 0.0827,-4.696 0.99067,-9.23733 2.03733,-12.26266 0.55467,-1.59734 1.156,-2.96534 1.81734,-4.016 1.05333,-1.676 2.16533,-2.61067 3.34,-2.61334" style="fill:#000000;fill-opacity:1;fill-rule:nonzero;stroke:none;stroke-width:1.33333"></path>
      <path id="path475" d="m 826.77193,578.85372 c 0.15333,1.344 -2.64667,3.196 -5.42134,3.31734 -4.14266,0.17066 -4.99466,-1.81867 -4.99466,-1.81867 -0.196,-1.34533 1.55866,-2.82133 3.852,-3.17067 2.30933,-0.36133 6.42133,0.36934 6.564,1.672" style="fill:#5e5e5e;fill-opacity:1;fill-rule:nonzero;stroke:none;stroke-width:1.33333"></path>
      <path id="path476" d="m 826.77193,578.85372 c 0.448,2.03467 1.268,3.98134 2.384,5.548 1.188,1.668 2.7,2.90267 4.43866,3.35067 0.476,0.12267 0.96934,0.188 1.48,0.184 1.89467,0 3.528,-0.33067 4.93867,-0.87867 2.46133,-0.94133 4.24,-2.52933 5.53067,-4.152 1.632,-2.044 2.76,-3.84533 3.29466,-4.70266 1.91867,-3.068 6.996,-0.80267 5.668,3.22133 -0.95066,2.85867 -2.256,5.29333 -3.79733,7.336 -2.55067,3.372 -5.76133,5.65867 -9.10933,6.99467 -2.62,1.04533 -5.32934,1.508 -7.87067,1.448 -1.85733,-0.0413 -3.55867,-0.392 -5.108,-0.95867 -4.004,-1.49333 -6.97733,-4.49867 -8.99333,-7.67333 -1.89334,-2.96534 -2.95734,-6.06534 -3.272,-8.21867 0,0 0.852,1.98933 4.99466,1.81867 2.77467,-0.12134 5.57467,-1.97334 5.42134,-3.31734" style="fill:#8f8f8f;fill-opacity:1;fill-rule:nonzero;stroke:none;stroke-width:1.33333"></path>
      <path id="path477" d="m 851.49593,576.41492 c 1.188,0.052 2.09733,0.632 2.632,1.21734 1.252,1.36266 1.10666,2.96533 0.56,4.42266 -0.61334,1.63734 -1.28267,3.27734 -2.276,4.86 -1.11334,1.78534 -2.44667,3.624 -4.288,5.21467 -1.35067,1.168 -2.81734,2.284 -4.70267,3.21467 -3.00133,1.484 -6.752,2.52266 -10.78,2.17733 -4.30133,-0.37333 -7.72,-2.44667 -9.87067,-4.53867 -2.836,-2.74133 -4.66666,-5.79733 -5.784,-8.86 -0.40666,-1.12 -0.71866,-2.21066 -0.94266,-3.352 -0.184,-0.95333 0.04,-1.748 0.94,-2.56 1.032,-0.92133 2.58933,-1.472 4.47733,-1.49066 2.12933,-0.0133 5.356,0.57466 5.67333,2.02266 0.23067,1.06667 0.57067,2.12267 1.03067,3.156 0.55333,1.26134 1.34933,2.57867 2.51333,3.72534 0.616,0.608 1.41734,1.17733 2.42934,1.58 1.27466,0.51333 2.90933,0.40533 4.30666,0.18133 3.76667,-0.6 6.288,-2.75733 7.84267,-4.71467 1.068,-1.34133 2.064,-2.728 2.91733,-4.10933 0.556,-0.89733 1.304,-2.184 3.32134,-2.14667 m -0.228,0.73467 c -1.78934,0.148 -2.16534,1.41467 -2.72134,2.22533 -0.78,1.13334 -1.52266,2.28134 -2.416,3.396 -0.68,0.84134 -1.36133,1.676 -2.28133,2.43334 -1.67067,1.37333 -3.672,2.516 -6.54267,2.95066 -1.15333,0.176 -2.63466,0.25334 -3.75333,-0.0333 -2.45333,-0.61733 -3.96933,-2.43467 -4.91067,-3.8 -0.98533,-1.432 -1.58266,-2.98533 -2.01333,-4.49067 -0.0987,-0.33066 -0.14667,-0.66933 -0.24933,-0.99733 -0.184,-0.596 -1.828,-1.02267 -2.708,-1.184 -2.144,-0.38933 -4.34667,-0.22933 -5.83467,0.84267 -0.808,0.58266 -1.24,1.24133 -1.07467,1.992 0.11867,0.568 0.20267,1.12533 0.368,1.68666 0.43467,1.456 0.98134,2.868 1.716,4.28534 1.04,2.02266 2.40534,4.024 4.30934,5.86533 1.96666,1.90267 5.05733,3.94133 8.964,4.396 3.1,0.36133 6.068,-0.12 8.72133,-1.06933 3.49067,-1.24267 6.26133,-3.36534 8.16267,-5.43334 2.16266,-2.34933 3.63333,-4.9 4.616,-7.444 0.35866,-0.924 0.74266,-1.836 0.724,-2.80266 -0.0187,-0.90134 -0.67734,-2.32667 -2.26534,-2.72667 -0.25733,-0.0627 -0.52933,-0.092 -0.81066,-0.092" style="fill:#000000;fill-opacity:1;fill-rule:nonzero;stroke:none;stroke-width:1.33333"></path>
      <path id="path478" d="m 826.7498,578.48665 c 0.0347,0 0.0733,0.008 0.11066,0.0133 0.0533,0.008 0.088,0.0373 0.12134,0.0573 0.052,0.028 0.0653,0.0587 0.092,0.0933 0.076,0.10267 0.0707,0.20267 0.0707,0.316 0,0.16667 -0.0253,0.34 -0.0893,0.50534 -0.084,0.208 -0.18667,0.41066 -0.33733,0.62 -0.38934,0.52533 -1.024,1.03466 -1.824,1.46133 -0.71734,0.38667 -1.62667,0.73733 -2.69334,0.90533 -0.432,0.064 -0.85333,0.0907 -1.312,0.0907 -1.324,0 -2.44133,-0.20933 -3.33466,-0.652 -0.544,-0.27333 -0.98,-0.616 -1.25334,-0.95867 -0.108,-0.14133 -0.216,-0.28133 -0.27466,-0.42266 -0.0373,-0.0853 -0.032,-0.15067 -0.0227,-0.236 0.005,-0.0467 0.0253,-0.08 0.052,-0.12267 0.024,-0.0453 0.064,-0.0733 0.11333,-0.116 0.0133,-0.0133 0.11334,-0.056 0.13734,-0.0627 h 0.14266 c 0.0147,0.007 0.12534,0.0627 0.13067,0.068 0.0813,0.068 0.11067,0.148 0.156,0.21867 0.428,0.692 1.464,1.312 3.08667,1.49067 0.608,0.0653 1.40933,0.0813 2.01333,0.003 0.83733,-0.10533 1.52933,-0.31866 2.156,-0.59066 0.26133,-0.11067 0.51733,-0.244 0.73867,-0.37334 0.82533,-0.48 1.52266,-1.088 1.656,-1.69333 0.0293,-0.11867 -0.005,-0.24533 0.0267,-0.364 0.0133,-0.0493 0.0373,-0.084 0.068,-0.12933 0.028,-0.0387 0.056,-0.0507 0.108,-0.084 0.048,-0.0267 0.0933,-0.0267 0.16134,-0.0373" style="fill:#000000;fill-opacity:1;fill-rule:nonzero;stroke:none;stroke-width:1.33333"></path>
      <path id="path479" d="m 828.98806,584.17025 c 0.0973,0.12667 0.20133,0.272 0.292,0.41067 0.024,0.0347 0.0427,0.0453 0.032,0.0853 -0.04,0.15334 -0.1,0.324 -0.15867,0.47734 -0.216,0.552 -0.49733,1.12133 -0.9,1.63466 -0.40667,0.51867 -0.9,1.02667 -1.528,1.43067 -0.51333,0.33467 -1.09067,0.64 -1.73867,0.83333 -0.38666,0.12 -0.76666,0.21334 -1.17733,0.27067 -1.29867,0.184 -2.54667,0.0387 -3.73733,-0.34267 -0.0613,-0.024 -0.228,-0.064 -0.256,-0.1 -0.14267,-0.2 -0.26134,-0.412 -0.392,-0.61333 0.32133,0.124 0.65066,0.252 0.99066,0.352 0.732,0.212 1.46134,0.33733 2.26667,0.33733 0.69067,0 1.28133,-0.0813 1.91333,-0.25066 1.59334,-0.42534 2.83467,-1.43467 3.52667,-2.50534 0.42133,-0.65466 0.69867,-1.324 0.86667,-2.02" style="fill:#000000;fill-opacity:1;fill-rule:nonzero;stroke:none;stroke-width:1.33333"></path>
      <path id="path480" d="m 833.34873,587.68452 c 0.15333,0.0373 0.30666,0.084 0.45866,0.128 0.0373,0.0107 0.0467,0.003 0.06,0.0453 0.116,0.31866 0.19334,0.69333 0.24534,1.036 0.20533,1.31866 -0.0293,2.676 -0.59467,3.82933 -0.58,1.19067 -1.40933,2.096 -2.4,2.76533 -0.55867,0.37467 -1.17733,0.65867 -1.78267,0.82667 -0.064,0.0147 -0.23866,0.0747 -0.29333,0.0587 -0.288,-0.076 -0.56667,-0.184 -0.85067,-0.28534 0.092,-0.012 0.184,-0.0333 0.276,-0.044 0.588,-0.0893 1.152,-0.26 1.708,-0.52666 1.79067,-0.86934 3.32134,-2.77334 3.54,-5.14 0.0867,-0.94134 -0.0667,-1.85867 -0.38,-2.696 0.003,0.003 0.0107,0 0.0133,0.003" style="fill:#000000;fill-opacity:1;fill-rule:nonzero;stroke:none;stroke-width:1.33333"></path>
      <path id="path481" d="m 840.25766,586.97745 c 0.0107,-0.005 0.0173,0.003 0.028,0.008 0.324,0.248 0.648,0.53467 0.94666,0.864 0.87867,0.96934 1.696,2.45734 1.696,4.39067 0,1.204 -0.34,2.312 -0.82266,3.14267 -0.036,0.0547 -0.1,0.188 -0.14134,0.20533 -0.24533,0.12133 -0.5,0.22933 -0.748,0.32667 0.16267,-0.23334 0.32667,-0.46 0.47734,-0.72134 0.276,-0.47466 0.5,-1.00666 0.64666,-1.63466 0.23067,-1.02934 0.18267,-2.14267 -0.12133,-3.10934 -0.196,-0.612 -0.44933,-1.12533 -0.75467,-1.58133 -0.49866,-0.75333 -1.09866,-1.28 -1.7,-1.71467 0.164,-0.0627 0.332,-0.116 0.49334,-0.176" style="fill:#000000;fill-opacity:1;fill-rule:nonzero;stroke:none;stroke-width:1.33333"></path>
      <path id="path482" d="m 845.7042,582.71185 c 0.22666,0.0427 0.45333,0.0973 0.67466,0.16667 1.944,0.6 3.59067,2.10933 4.272,4.20933 0.0987,0.31734 0.172,0.63467 0.224,0.968 0.0187,0.12134 0.04,0.26934 0.0453,0.396 0,0.0293 -0.0267,0.0627 -0.0427,0.0867 -0.128,0.16933 -0.24933,0.34267 -0.38133,0.504 -0.008,-0.33467 -0.016,-0.66933 -0.0787,-0.99333 -0.1,-0.60667 -0.28933,-1.20267 -0.57467,-1.752 -0.24,-0.45067 -0.532,-0.89067 -0.88,-1.26134 -0.45333,-0.496 -0.93466,-0.87733 -1.496,-1.204 -0.65866,-0.38 -1.36933,-0.60666 -2.08133,-0.728 0.108,-0.13333 0.21333,-0.26533 0.31867,-0.392" style="fill:#000000;fill-opacity:1;fill-rule:nonzero;stroke:none;stroke-width:1.33333"></path>
      <path id="path483" d="m 824.4894,567.97225 c 2.13066,0.70667 4.97866,2.80267 4.20133,6.52134 -0.56133,2.668 -3.23867,4.28666 -5.22533,4.88933 -2.17067,0.66133 -3.09067,-3.15467 -1.75067,-3.81333 1.50933,-0.744 2.076,-1.20934 2.308,-1.89467 0.26,-0.74533 -0.28267,-1.84 -1.89467,-3.01333 -1.112,-0.808 0.024,-3.464 2.36134,-2.68934" style="fill:#f5f5f5;fill-opacity:1;fill-rule:nonzero;stroke:none;stroke-width:1.33333"></path>
      <path id="path484" d="m 823.6418,567.46452 c 0.5,-0.008 0.98,0.14267 1.44533,0.34 1.484,0.61334 3.14933,1.77734 3.828,3.76134 0.45333,1.32533 0.33733,2.95733 -0.25867,4.18266 -0.35466,0.73467 -0.84,1.37467 -1.38266,1.87334 -0.86134,0.8 -1.83334,1.404 -2.83467,1.80933 -0.564,0.228 -1.15867,0.472 -1.76133,0.37333 -0.74134,-0.128 -1.34934,-0.7 -1.704,-1.58933 -0.37734,-0.93867 -0.39334,-2.33867 0.424,-2.87733 0.29733,-0.19734 0.61333,-0.316 0.91333,-0.49467 0.42267,-0.256 0.996,-0.556 1.26667,-1.076 0.104,-0.20267 0.17466,-0.42533 0.116,-0.66933 -0.168,-0.692 -0.70534,-1.22 -1.13467,-1.612 -0.25067,-0.22934 -0.52933,-0.41067 -0.78,-0.644 -0.076,-0.0707 -0.132,-0.136 -0.19733,-0.23467 -0.06,-0.08 -0.0853,-0.14267 -0.12934,-0.24 -0.0387,-0.0987 -0.06,-0.164 -0.0813,-0.26933 -0.0267,-0.10134 -0.0293,-0.17334 -0.0373,-0.27867 -0.044,-0.49333 0.18266,-1.04933 0.44266,-1.396 0.256,-0.33733 0.50667,-0.53467 0.83467,-0.712 0.32133,-0.176 0.68267,-0.22933 1.03067,-0.24667 m -0.0453,0.74267 c -0.61333,0.008 -1.36933,0.47467 -1.50666,1.344 -0.0573,0.31733 0.0267,0.604 0.22666,0.78267 0.128,0.11066 0.276,0.20933 0.40534,0.31466 0.58,0.46934 1.17066,1.02267 1.53333,1.80534 0.1,0.21333 0.16133,0.42666 0.18933,0.66666 0.009,0.108 0.009,0.18134 0.004,0.292 -0.0147,0.37867 -0.216,0.76934 -0.42,1.028 -0.36666,0.476 -0.94533,0.82534 -1.42,1.08667 -0.22666,0.124 -0.46533,0.23467 -0.7,0.36133 -0.18533,0.10134 -0.28666,0.22934 -0.36933,0.47867 -0.176,0.53733 -0.028,1.26533 0.19333,1.74267 0.34934,0.74666 0.908,1.1 1.556,0.93866 0.28934,-0.0707 0.6,-0.18933 0.87867,-0.30533 0.67867,-0.284 1.33333,-0.656 1.964,-1.12133 0.964,-0.71467 1.94667,-1.83867 2.22,-3.31467 0.19467,-1.076 0.10133,-2.11467 -0.364,-3.04267 -0.584,-1.16133 -1.46933,-1.86666 -2.41467,-2.412 -0.42666,-0.24933 -0.87466,-0.41733 -1.32266,-0.56133 -0.20534,-0.0733 -0.432,-0.08 -0.65334,-0.084" style="fill:#000000;fill-opacity:1;fill-rule:nonzero;stroke:none;stroke-width:1.33333"></path>
      <path id="path485" d="m 822.3266,585.03092 c -0.64934,-0.0213 -3.51467,-0.17866 -3.808,-0.22666 -0.29467,-0.0507 -0.768,-0.33467 -0.72934,-1.368 0.005,-0.184 0.088,-1.1 0.21867,-2.48267 l 5.49067,0.32267 c -0.04,1.40266 -0.0667,2.296 -0.0733,2.39866 -0.0253,0.57067 -0.44533,1.37334 -1.09866,1.356" style="fill:#8f8f8f;fill-opacity:1;fill-rule:nonzero;stroke:none;stroke-width:1.33333"></path>
      <path id="path486" d="m 820.3826,557.35372 3.78933,-0.0547 -0.0933,3.33733 -4.00267,-0.23733 c 0.188,-1.86 0.30667,-3.04534 0.30667,-3.04534" style="fill:#d1d1d1;fill-opacity:1;fill-rule:nonzero;stroke:none;stroke-width:1.33333"></path>
      <path id="path487" d="m 824.07926,560.63638 c -0.15334,5.39467 -0.448,15.912 -0.58134,20.63867 l -5.49066,-0.32133 c 0.46666,-4.81867 1.53733,-15.344 2.068,-20.55467 z" style="fill:#f5f5f5;fill-opacity:1;fill-rule:nonzero;stroke:none;stroke-width:1.33333"></path>
      <path id="path488" d="m 823.953,556.93972 c 0.088,-0.005 0.18133,-0.0267 0.26666,-0.0133 0.0707,0.016 0.27867,0.084 0.31867,0.308 0.0107,0.0653 -0.003,0.42133 -0.008,0.51467 -0.0467,1.456 -0.0787,2.92266 -0.12133,4.38133 -0.0787,2.788 -0.156,5.58 -0.23734,8.36933 -0.068,2.45467 -0.136,4.90667 -0.20533,7.36267 -0.048,1.61467 -0.092,3.22933 -0.13867,4.84667 -0.0107,0.33733 -0.0107,0.82 -0.048,1.12533 -0.06,0.5 -0.284,0.864 -0.42666,1.032 -0.46134,0.564 -0.94667,0.564 -1.44667,0.524 -0.108,-0.0133 -0.22667,0.0107 -0.332,-0.0173 -0.10267,-0.0253 -0.21067,0.012 -0.316,-0.016 -0.13867,-0.0347 -0.276,-10e-4 -0.416,-0.0187 -0.17867,-0.0267 -0.35467,-0.005 -0.532,-0.032 -0.22133,-0.024 -0.44267,0 -0.664,-0.0467 -0.20267,-0.0347 -0.408,-0.008 -0.61067,-0.032 -0.21066,-0.0293 -0.424,-0.003 -0.62533,-0.0587 -0.27067,-0.0707 -0.616,-0.22134 -0.84533,-0.764 -0.19734,-0.47067 -0.16,-0.96667 -0.0973,-1.656 0.0773,-0.86667 0.15867,-1.74667 0.24267,-2.60267 0.19733,-1.87867 0.368,-3.788 0.564,-5.668 0.17867,-1.68267 0.33467,-3.39067 0.508,-5.06933 0.14133,-1.30934 0.26667,-2.64134 0.40267,-3.94934 0.18533,-1.79866 0.364,-3.61066 0.548,-5.40933 0.0933,-0.89333 0.184,-1.79333 0.27466,-2.67867 0.0347,-0.33733 0.27334,-0.38533 0.364,-0.38533 1.19467,0 2.38667,-0.0573 3.58134,-0.0467 m -0.40267,0.73734 c -0.93733,0.0413 -1.87333,0.007 -2.80533,0.0467 -0.036,0 -0.0267,0.0213 -0.036,0.116 -0.0987,0.89867 -0.18534,1.816 -0.28,2.71867 -0.0867,0.82933 -0.17067,1.672 -0.256,2.508 -0.39467,3.93733 -0.79734,7.86267 -1.18934,11.796 -0.17733,1.78533 -0.35866,3.56933 -0.528,5.36267 -0.0947,0.996 -0.2,2.00133 -0.28133,3.01066 -0.0827,1.048 0.264,1.20667 0.48267,1.21734 0.16266,0.005 0.332,0.032 0.49466,0.032 0.348,0 0.7,0.0707 1.048,0.0707 0.564,0 1.128,0.0867 1.696,0.0867 0.35867,0 0.79867,0.2 1.08934,-0.64267 0.088,-0.25466 0.08,-0.61066 0.088,-0.98 0.056,-1.98533 0.11333,-3.97466 0.16933,-5.964 0.06,-2.004 0.11333,-4.016 0.17333,-6.02133 0.12934,-4.45333 0.248,-8.904 0.37734,-13.35067 -0.0813,-0.012 -0.164,-0.004 -0.24267,-0.007" style="fill:#000000;fill-opacity:1;fill-rule:nonzero;stroke:none;stroke-width:1.33333"></path>
      <path id="path489" d="m 818.03886,580.58692 c 1.00266,0.056 2.00133,0.116 3.00266,0.176 0.824,0.048 1.64667,0.0933 2.47067,0.14267 l -0.016,0.424 c -0.005,0.10533 -0.008,0.21333 -0.0187,0.31867 -1.83333,-0.10534 -3.66933,-0.216 -5.50266,-0.324 0,-0.0573 0.0133,-0.11334 0.0133,-0.168 0,-0.092 0.02,-0.17734 0.0267,-0.26934 0.005,-0.10133 0.016,-0.20266 0.024,-0.3" style="fill:#000000;fill-opacity:1;fill-rule:nonzero;stroke:none;stroke-width:1.33333"></path>
      <path id="path490" d="m 820.38913,557.49958 c 5.85866,0.212 11.288,-1.89866 15.368,-5.528 4.20133,-3.736 6.97733,-9.068 7.32666,-15.11866 0.36534,-6.048 -1.76533,-11.67867 -5.5,-15.87467 -3.636,-4.09333 -8.79866,-6.83333 -14.65733,-7.3 1.268,0.088 4.46267,0.34534 6.10133,0.656 4.748,0.89867 9.092,3.124 12.424,6.87067 3.73467,4.2 5.86134,9.82533 5.50534,15.87467 -0.35734,6.05599 -3.12934,11.38266 -7.33334,15.12133 -3.82533,3.4 -8.94,5.204 -14.096,5.40933 -1.02933,0.04 -3.916,-0.0627 -5.13866,-0.11067" style="fill:#d1d1d1;fill-opacity:1;fill-rule:nonzero;stroke:none;stroke-width:1.33333"></path>
      <path id="path491" d="m 821.18993,553.77572 c -4.316,-0.66933 -8.09067,-2.83733 -10.832,-5.92 -3.11067,-3.50266 -4.88667,-8.17866 -4.58934,-13.22266 0.296,-5.044 2.61067,-9.488 6.10667,-12.59867 3.08667,-2.74 7.09067,-4.44666 11.45333,-4.60666 4.312,0.67333 8.09467,2.83466 10.83334,5.92266 3.108,3.49334 4.884,8.18267 4.58933,13.22667 -0.30267,5.04133 -2.61067,9.48 -6.10933,12.596 -3.088,2.73733 -7.096,4.444 -11.452,4.60266" style="fill:#d3faff;fill-opacity:1;fill-rule:nonzero;stroke:none;stroke-width:1.33333"></path>
      <path id="path492" d="m 821.18993,553.77572 c -0.588,0.0227 -1.18267,0.016 -1.776,-0.016 -5.04667,-0.30266 -9.48534,-2.61466 -12.592,-6.11333 -3.108,-3.50133 -4.888,-8.17733 -4.59067,-13.21866 0.29733,-5.044 2.61067,-9.49334 6.10933,-12.60134 3.496,-3.108 8.18134,-4.884 13.22534,-4.584 0.59466,0.032 1.18266,0.0973 1.76266,0.18534 -4.36266,0.16 -8.36666,1.86666 -11.45333,4.60666 -3.496,3.11067 -5.81067,7.55467 -6.10667,12.59867 -0.29733,5.044 1.47867,9.72 4.58934,13.22266 2.74133,3.08267 6.516,5.25067 10.832,5.92" style="fill:#d1d1d1;fill-opacity:1;fill-rule:nonzero;stroke:none;stroke-width:1.33333"></path>
      <path id="path493" d="m 820.25366,557.49305 -0.124,-0.005 -0.0653,-0.003 -0.18,-0.008 c -6.05333,-0.35866 -11.38933,-3.13333 -15.11466,-7.328 -3.73467,-4.20533 -5.86534,-9.828 -5.512,-15.87599 0.35866,-6.05334 3.13466,-11.388 7.33066,-15.11734 4.20134,-3.73733 9.82534,-5.864 15.87334,-5.51066 l 0.14666,0.0107 0.072,0.005 0.0933,0.004 0.15333,0.0133 c 5.85733,0.46667 11.02133,3.20667 14.65733,7.3 3.73467,4.196 5.864,9.82533 5.5,15.87467 -0.35066,6.05066 -3.12666,11.38266 -7.32666,15.11866 -4.08134,3.62933 -9.51067,5.74 -15.368,5.528 h -0.028 z m -0.84,-3.73333 c 0.59333,0.032 1.188,0.0387 1.776,0.016 4.356,-0.15867 8.36533,-1.86533 11.452,-4.60267 3.49866,-3.116 5.80666,-7.55466 6.10933,-12.59733 0.29467,-5.04266 -1.48133,-9.732 -4.58933,-13.22533 -2.73867,-3.088 -6.52134,-5.24933 -10.832,-5.92267 -0.58134,-0.088 -1.16934,-0.15333 -1.764,-0.18533 -5.044,-0.3 -9.728,1.476 -13.22534,4.584 -3.49866,3.108 -5.812,7.55733 -6.10933,12.60133 -0.29733,5.04 1.48267,9.71733 4.59067,13.21867 3.10666,3.49866 7.54533,5.81066 12.592,6.11333" style="fill:#f5f5f5;fill-opacity:1;fill-rule:nonzero;stroke:none;stroke-width:1.33333"></path>
      <path id="path494" d="m 821.0962,513.24305 c 2.87733,0.003 5.724,0.516 8.372,1.58267 5.16266,2.08667 9.49066,6.08267 11.85866,11.12667 0.62667,1.33333 1.08534,2.608 1.46534,4.00666 0.65466,2.38134 0.80533,4.876 0.62933,7.38934 -0.19067,2.752 -0.944,5.528 -2.184,8.02533 -2.28933,4.63467 -6.224,8.556 -11.00933,10.608 -1.43467,0.616 -2.82934,1.07333 -4.336,1.41467 -2.072,0.464 -4.48934,0.624 -6.64667,0.41066 -1.54133,-0.156 -2.90667,-0.41866 -4.38667,-0.82 -1.61466,-0.436 -3.38933,-1.21333 -4.86,-2.08 -5.51333,-3.256 -9.444,-8.6 -10.69466,-14.83733 -0.63067,-3.16133 -0.61867,-6.484 0.13466,-9.612 1.172,-4.856 3.71334,-8.93067 7.61467,-12.18 3.90133,-3.25467 8.99867,-5.02133 14.04267,-5.03467 m -0.42667,0.74 c -4.11733,0.11867 -8.24267,1.38267 -11.66667,3.75867 -1.61466,1.12267 -3.18933,2.49467 -4.42933,4.05467 -0.97067,1.224 -1.85333,2.41866 -2.55067,3.832 -0.96533,1.952 -1.68666,3.856 -2.05466,5.96666 -0.80934,4.59334 -0.26134,9.23867 1.804,13.41334 1.24666,2.52533 2.808,4.58 4.88666,6.51866 1.76,1.64 3.73467,2.84534 5.92667,3.83334 5.168,2.344 11.85333,2.38666 17.03867,0.0627 1.98266,-0.88266 3.84,-1.94933 5.48,-3.37066 1.536,-1.328 2.948,-2.844 4.04133,-4.52934 2.94267,-4.53866 4.16267,-9.73733 3.37467,-15.10666 -0.49467,-3.36267 -1.74934,-6.48 -3.72934,-9.312 -0.772,-1.108 -1.67466,-2.13067 -2.65333,-3.08934 -4.07867,-4.004 -9.79467,-6.156 -15.468,-6.032" style="fill:#000000;fill-opacity:1;fill-rule:nonzero;stroke:none;stroke-width:1.33333"></path>
      <path id="path495" d="m 820.19126,516.84465 c 4.088,-0.056 8.25866,1.22667 11.51333,3.73467 1.65733,1.288 3.13067,2.77867 4.288,4.516 2.324,3.48667 3.40933,7.58 3.116,11.75733 -0.236,3.28267 -1.34267,6.52534 -3.268,9.27067 -2.872,4.09333 -7.02533,6.76933 -11.89067,7.72533 -2.47333,0.48534 -5.28933,0.408 -7.72,-0.176 -1.37866,-0.32666 -2.71866,-0.8 -4.01066,-1.43333 -2.372,-1.16 -4.456,-2.852 -6.14134,-4.88933 -2.42133,-2.92267 -3.91466,-6.60667 -4.19466,-10.33867 -0.252,-3.42 0.36133,-6.56133 1.79733,-9.62267 1.072,-2.28533 2.616,-4.212 4.504,-5.90933 3.25867,-2.93333 7.66,-4.58267 12.00667,-4.63467 m -0.16934,0.73734 c -2.56266,0.084 -5.03066,0.66133 -7.34,1.79733 -2.02133,0.98667 -3.87333,2.33067 -5.40266,4.016 -2.38934,2.64533 -3.93067,5.81467 -4.484,9.28267 -0.63334,3.988 0.108,8.17866 2.11733,11.67733 0.764,1.34 1.76,2.68533 2.88,3.78 1.89867,1.85467 3.98267,3.256 6.47867,4.172 2.108,0.76933 4.124,1.112 6.412,1.112 1.48933,0 2.86533,-0.21867 4.27333,-0.56667 3.684,-0.89066 7.00667,-3.11333 9.43333,-6.04266 1.33467,-1.604 2.35467,-3.49334 3.036,-5.45734 2.608,-7.48933 -0.108,-16.06533 -6.77733,-20.612 -3.14,-2.144 -6.812,-3.248 -10.62667,-3.15866" style="fill:#000000;fill-opacity:1;fill-rule:nonzero;stroke:none;stroke-width:1.33333"></path>
      <path id="path496" d="m 822.55193,517.11292 c 0.51333,0.18134 1.02666,0.44267 1.53733,0.65467 -4.456,0.108 -8.89867,1.448 -12.808,5.352 -2.55333,2.552 -5.168,6.956 -5.168,12.45067 0,2.904 0.592,5.33733 1.61467,7.59466 0.85866,1.90667 2.072,3.58267 3.24,4.81334 3.368,3.544 7.17866,5.03066 11.01333,5.55066 -0.464,0.144 -0.93067,0.31467 -1.396,0.43067 -0.224,0.0573 -0.38,0.0267 -0.60533,-0.0253 -3.536,-0.77467 -7.21334,-2.65334 -10.24534,-6.228 -2.284,-2.692 -4.36933,-6.872 -4.36933,-11.91467 0,-6.864 3.48933,-11.772 6.75333,-14.45067 3.28934,-2.69866 6.82,-3.93066 10.43334,-4.228" style="fill:#000000;fill-opacity:1;fill-rule:nonzero;stroke:none;stroke-width:1.33333"></path>
      <path id="path497" d="m 822.48673,513.28345 c 0.49866,0.0173 1.00933,0.0733 1.512,0.10267 0.84933,0.048 1.72,0.14667 2.57066,0.24133 1.69734,0.184 3.352,0.46534 5.008,0.94667 4.544,1.312 9.512,4.396 12.73067,9.95067 0.57733,0.99066 1.07733,1.992 1.52267,3.128 1.436,3.64533 1.936,7.82933 1.204,11.97733 -0.82934,4.69467 -2.892,8.27867 -5.392,11.09467 -1.144,1.29066 -2.464,2.452 -3.77467,3.32933 -3.43733,2.29733 -6.97867,3.38267 -10.69733,3.81467 -1.472,0.16666 -2.93467,0.092 -4.42,0.092 -0.26934,0 -0.58267,0.008 -0.84934,-0.028 -0.67333,-0.072 -1.36133,-0.008 -2.03466,-0.0827 -0.47734,-0.0533 -0.45867,-0.69467 -0.0253,-0.73733 0.42,-0.0453 0.87334,0.0533 1.29734,0.0533 1.2,0 2.392,0.0827 3.59733,0.0827 1.93867,0 3.76933,-0.26267 5.64,-0.68934 1.17733,-0.26933 2.38933,-0.67866 3.52667,-1.18266 3.06666,-1.36 6.00133,-3.38934 8.44666,-6.69867 1.248,-1.68267 2.344,-3.62933 3.11067,-5.89467 1.492,-4.41466 1.564,-9.36133 0.0653,-13.80533 -2.252,-6.652 -6.94533,-10.67467 -11.392,-12.66667 -1.60533,-0.72 -3.20133,-1.16533 -4.856,-1.548 -1.16133,-0.268 -2.34933,-0.324 -3.52666,-0.46133 -1.088,-0.128 -2.19734,-0.224 -3.29334,-0.28133 -0.51866,-0.0267 -0.43866,-0.78534 0.0293,-0.73734" style="fill:#000000;fill-opacity:1;fill-rule:nonzero;stroke:none;stroke-width:1.33333"></path>
      <path id="path498" d="m 826.4282,537.88638 c -1.93334,-0.11066 -3.63734,-1.004 -4.824,-2.34133 -1.2,-1.34533 -1.87734,-3.14 -1.76534,-5.07467 0.116,-1.93466 1.00134,-3.63733 2.33867,-4.82933 1.34533,-1.196 3.14133,-1.87333 5.07733,-1.76 1.932,0.11333 3.63734,0.99867 4.82934,2.344 1.19466,1.33867 1.87333,3.13733 1.76,5.07333 -0.11467,1.93067 -1,3.63334 -2.34134,4.828 -1.34266,1.18934 -3.13866,1.87334 -5.07466,1.76" style="fill:#f9ffff;fill-opacity:1;fill-rule:nonzero;stroke:none;stroke-width:1.33333"></path>
      <path id="path499" d="m 818.49846,542.93838 c -0.788,-0.0467 -1.48134,-0.40533 -1.96667,-0.95333 -0.48267,-0.54267 -0.76,-1.27467 -0.71733,-2.06133 0.048,-0.78534 0.41333,-1.476 0.95333,-1.96134 0.54533,-0.48666 1.27733,-0.76266 2.06267,-0.71733 0.78666,0.048 1.48133,0.40267 1.96666,0.95067 0.48267,0.54666 0.76,1.27733 0.71467,2.064 -0.048,0.78533 -0.408,1.48 -0.95333,1.96266 -0.54534,0.48534 -1.27467,0.76134 -2.06,0.716" style="fill:#f9ffff;fill-opacity:1;fill-rule:nonzero;stroke:none;stroke-width:1.33333"></path>
      <path id="path500" d="m 815.85006,572.96705 c -0.79467,-2.01466 -0.964,-5.01066 2.40533,-7.10933 2.43333,-1.50667 5.37067,-0.75467 7.09333,0.22133 1.87334,1.07067 0.564,4.52134 -0.78666,4.04 -1.536,-0.54 -3.264,-0.65866 -4.16267,-0.0893 -0.684,0.43733 -1.08533,1.23467 -0.98533,3.21333 0.0747,1.37067 -2.692,1.94134 -3.564,-0.276" style="fill:#f5f5f5;fill-opacity:1;fill-rule:nonzero;stroke:none;stroke-width:1.33333"></path>
      <path id="path501" d="m 821.37353,564.63505 c 0.25333,0.005 0.52266,0.008 0.776,0.0373 1.13733,0.13066 2.26933,0.47066 3.26666,1.02133 0.49067,0.26933 0.82534,0.61067 1.02934,1.096 0.18266,0.44 0.244,0.91867 0.19066,1.39333 -0.0827,0.764 -0.42133,1.69867 -1.17466,2.16 -0.092,0.0587 -0.156,0.0893 -0.25867,0.124 -0.14,0.0453 -0.33733,0.0853 -0.48933,0.0653 -0.31734,-0.052 -0.624,-0.184 -0.93334,-0.26134 -0.832,-0.21466 -1.92666,-0.37333 -2.76933,-0.108 -0.68133,0.216 -0.96533,0.668 -1.11867,1.26534 -0.0787,0.332 -0.084,0.65066 -0.11333,0.99333 -0.0307,0.33867 0.0293,0.68133 0,1.01333 -0.0107,0.116 -0.0453,0.20534 -0.076,0.31334 -0.0227,0.0813 -0.0547,0.12933 -0.0947,0.19866 -0.0507,0.0893 -0.0947,0.15467 -0.164,0.23467 -0.0707,0.0853 -0.13333,0.14133 -0.224,0.21067 -0.744,0.59466 -1.92666,0.548 -2.696,0.0173 -0.56133,-0.384 -0.84666,-0.85467 -1.07066,-1.44 -0.27867,-0.71467 -0.456,-1.54667 -0.456,-2.31867 0,-0.46533 0.0453,-0.92666 0.15066,-1.372 0.36667,-1.528 1.368,-2.732 2.78134,-3.648 1.01466,-0.65866 2.192,-1.00133 3.444,-0.996 m -0.196,0.74534 c -1.112,0.024 -2.156,0.384 -3.03867,1 -1.16667,0.81466 -1.992,1.83333 -2.28133,3.13066 -0.24534,1.10134 -0.072,2.25867 0.32933,3.30267 0.23467,0.60533 0.74267,1.17733 1.496,1.25733 0.50533,0.0573 1.18533,-0.12133 1.336,-0.61466 0.052,-0.176 0.0147,-0.41867 0.0147,-0.60267 0,-0.74933 0.024,-1.444 0.31733,-2.136 0.38,-0.904 1.256,-1.352 2.288,-1.41733 1.032,-0.0613 2.036,0.12533 2.984,0.452 0.216,0.0733 0.34133,0.0453 0.52267,-0.0827 0.35466,-0.23867 0.58666,-0.78267 0.67866,-1.152 0.17867,-0.70933 0.124,-1.612 -0.60533,-2.08133 -0.46667,-0.29467 -1.04933,-0.516 -1.58,-0.69467 -0.324,-0.11067 -0.66933,-0.184 -1.004,-0.248 -0.46933,-0.0947 -0.96267,-0.12133 -1.45733,-0.11333" style="fill:#000000;fill-opacity:1;fill-rule:nonzero;stroke:none;stroke-width:1.33333"></path>
      <path id="path502" d="m 815.3266,578.27572 c -0.68134,-2.052 -0.684,-5.05733 2.80266,-6.96133 2.50934,-1.368 5.40134,-0.45333 7.068,0.61867 1.81467,1.172 0.31334,4.544 -1.012,3.988 -1.50133,-0.62534 -3.22133,-0.844 -4.15066,-0.324 -0.70667,0.39733 -1.14934,1.172 -1.164,3.15333 -0.003,1.372 -2.796,1.788 -3.544,-0.47467" style="fill:#f5f5f5;fill-opacity:1;fill-rule:nonzero;stroke:none;stroke-width:1.33333"></path>
      <path id="path503" d="m 820.8318,570.25612 c 1.568,-0.008 3.11866,0.47734 4.40666,1.26667 0.31467,0.19467 0.57334,0.408 0.772,0.70267 0.34,0.512 0.42934,1.06533 0.38,1.66 -0.0653,0.75066 -0.41333,1.65466 -1.09066,2.17466 -0.172,0.128 -0.416,0.24667 -0.64267,0.284 -0.208,0.028 -0.44533,-0.009 -0.63333,-0.0853 -0.77867,-0.32133 -1.56934,-0.52667 -2.42,-0.57333 -0.484,-0.028 -1.064,0.0227 -1.46134,0.284 -0.688,0.45333 -0.79333,1.28 -0.86133,1.96933 -0.0347,0.33733 -0.0213,0.69067 -0.0613,1.03067 -0.012,0.11333 -0.0547,0.20266 -0.0893,0.31066 -0.036,0.092 -0.084,0.15467 -0.13866,0.23467 -0.0533,0.0867 -0.10667,0.144 -0.18267,0.21333 -0.67467,0.66 -1.87467,0.66 -2.668,0.17467 -0.5,-0.29867 -0.88533,-0.772 -1.08,-1.27333 -0.172,-0.43734 -0.292,-0.90134 -0.36933,-1.35467 -0.084,-0.48533 -0.10934,-0.98933 -0.0733,-1.48933 0.084,-1.328 0.62134,-2.58934 1.66934,-3.58534 0.51733,-0.496 1.09333,-0.916 1.74,-1.252 0.86,-0.44533 1.81066,-0.68666 2.804,-0.692 m -0.068,0.74134 c -0.97467,0.0173 -1.91067,0.30666 -2.71867,0.792 -0.872,0.53866 -1.612,1.17466 -2.08667,2.02 -0.44266,0.79733 -0.61066,1.556 -0.61066,2.444 0,0.68266 0.148,1.42533 0.392,2.06 0.27733,0.72666 0.95733,1.27733 1.876,1.18 0.38266,-0.0413 0.832,-0.292 0.872,-0.65867 0.0333,-0.25733 0.016,-0.532 0.0387,-0.79733 0.064,-0.79334 0.17467,-1.57734 0.712,-2.252 0.38134,-0.48 0.996,-0.73334 1.63334,-0.81467 0.248,-0.0293 0.50133,-0.0427 0.75333,-0.024 0.94267,0.0493 1.78,0.264 2.63467,0.61067 0.22133,0.0853 0.32266,0.0667 0.51866,-0.044 0.19467,-0.10534 0.416,-0.392 0.516,-0.56934 0.36667,-0.65733 0.524,-1.52 0.168,-2.204 -0.224,-0.41733 -0.73466,-0.66666 -1.172,-0.896 -0.608,-0.32133 -1.32266,-0.56 -1.996,-0.70266 -0.48933,-0.104 -1.00933,-0.15067 -1.53066,-0.144" style="fill:#000000;fill-opacity:1;fill-rule:nonzero;stroke:none;stroke-width:1.33333"></path>
    </g>
  </g>
</svg>