<?xml version="1.0" encoding="UTF-8" standalone="no"?>
<!-- Created with Inkscape (http://www.inkscape.org/) -->

<svg
   width="34.271019mm"
   height="31.381948mm"
   viewBox="0 0 34.271019 31.381948"
   version="1.1"
   id="svg1"
   inkscape:export-filename="bitmap.svg"
   inkscape:export-xdpi="6.0476189"
   inkscape:export-ydpi="6.0476189"
   sodipodi:docname="icon_sigi2.svg"
   inkscape:version="1.4.2 (ebf0e940, 2025-05-08)"
   xmlns:inkscape="http://www.inkscape.org/namespaces/inkscape"
   xmlns:sodipodi="http://sodipodi.sourceforge.net/DTD/sodipodi-0.dtd"
   xmlns="http://www.w3.org/2000/svg"
   xmlns:svg="http://www.w3.org/2000/svg">
  <sodipodi:namedview
     id="namedview1"
     pagecolor="#ffffff"
     bordercolor="#000000"
     borderopacity="0.25"
     inkscape:showpageshadow="2"
     inkscape:pageopacity="0.0"
     inkscape:pagecheckerboard="0"
     inkscape:deskcolor="#d1d1d1"
     inkscape:document-units="mm"
     inkscape:export-bgcolor="#ffffff00"
     inkscape:zoom="6.4233087"
     inkscape:cx="63.518666"
     inkscape:cy="59.237383"
     inkscape:window-width="2016"
     inkscape:window-height="1116"
     inkscape:window-x="0"
     inkscape:window-y="25"
     inkscape:window-maximized="0"
     inkscape:current-layer="layer1">
    <inkscape:page
       x="0"
       y="0"
       width="34.271019"
       height="31.381948"
       id="page2"
       margin="0"
       bleed="0" />
  </sodipodi:namedview>
  <defs
     id="defs1">
    <clipPath
       clipPathUnits="userSpaceOnUse"
       id="clipPath2400-1">
      <path
         d="M 0,486 H 864 V 0 H 0 Z"
         transform="translate(-210.2173,-466.76711)"
         id="path2400-5" />
    </clipPath>
    <clipPath
       clipPathUnits="userSpaceOnUse"
       id="clipPath2402-5">
      <path
         d="M 0,486 H 864 V 0 H 0 Z"
         transform="translate(-203.77981,-444.71681)"
         id="path2402-5" />
    </clipPath>
    <clipPath
       clipPathUnits="userSpaceOnUse"
       id="clipPath2404-8">
      <path
         d="M 0,486 H 864 V 0 H 0 Z"
         transform="translate(-205.9687,-444.40921)"
         id="path2404-2" />
    </clipPath>
    <clipPath
       clipPathUnits="userSpaceOnUse"
       id="clipPath2406-9">
      <path
         d="M 0,486 H 864 V 0 H 0 Z"
         transform="translate(-213.68851,-474.59961)"
         id="path2406-8" />
    </clipPath>
    <clipPath
       clipPathUnits="userSpaceOnUse"
       id="clipPath2408-2">
      <path
         d="M 0,486 H 864 V 0 H 0 Z"
         transform="translate(-212.2021,-467.33591)"
         id="path2408-0" />
    </clipPath>
    <clipPath
       clipPathUnits="userSpaceOnUse"
       id="clipPath2410-7">
      <path
         d="M 0,486 H 864 V 0 H 0 Z"
         transform="translate(-194.59671,-466.76711)"
         id="path2410-4" />
    </clipPath>
    <clipPath
       clipPathUnits="userSpaceOnUse"
       id="clipPath2412-8">
      <path
         d="M 0,486 H 864 V 0 H 0 Z"
         transform="translate(-198.7944,-444.55661)"
         id="path2412-5" />
    </clipPath>
    <clipPath
       clipPathUnits="userSpaceOnUse"
       id="clipPath2414-8">
      <path
         d="M 0,486 H 864 V 0 H 0 Z"
         transform="translate(-198.7944,-444.55661)"
         id="path2414-3" />
    </clipPath>
    <clipPath
       clipPathUnits="userSpaceOnUse"
       id="clipPath2416-0">
      <path
         d="M 0,486 H 864 V 0 H 0 Z"
         transform="translate(-190.9092,-474.59961)"
         id="path2416-6" />
    </clipPath>
    <clipPath
       clipPathUnits="userSpaceOnUse"
       id="clipPath2418-2">
      <path
         d="M 0,486 H 864 V 0 H 0 Z"
         transform="translate(-192.6001,-467.33591)"
         id="path2418-2" />
    </clipPath>
    <clipPath
       clipPathUnits="userSpaceOnUse"
       id="clipPath2420-5">
      <path
         d="M 0,486 H 864 V 0 H 0 Z"
         transform="translate(-247.79541,-415.04051)"
         id="path2420-2" />
    </clipPath>
    <clipPath
       clipPathUnits="userSpaceOnUse"
       id="clipPath2422-2">
      <path
         d="M 0,486 H 864 V 0 H 0 Z"
         transform="translate(-245.6689,-420.88871)"
         id="path2422-7" />
    </clipPath>
    <clipPath
       clipPathUnits="userSpaceOnUse"
       id="clipPath2424-1">
      <path
         d="M 0,486 H 864 V 0 H 0 Z"
         transform="translate(-241.21,-422.90531)"
         id="path2424-5" />
    </clipPath>
    <clipPath
       clipPathUnits="userSpaceOnUse"
       id="clipPath2426-2">
      <path
         d="M 0,486 H 864 V 0 H 0 Z"
         transform="translate(-236.5483,-424.39991)"
         id="path2426-1" />
    </clipPath>
    <clipPath
       clipPathUnits="userSpaceOnUse"
       id="clipPath2428-1">
      <path
         d="M 0,486 H 864 V 0 H 0 Z"
         transform="translate(-232.25781,-425.66751)"
         id="path2428-0" />
    </clipPath>
    <clipPath
       clipPathUnits="userSpaceOnUse"
       id="clipPath2430-1">
      <path
         d="M 0,486 H 864 V 0 H 0 Z"
         transform="translate(-245.79691,-420.97951)"
         id="path2430-8" />
    </clipPath>
    <clipPath
       clipPathUnits="userSpaceOnUse"
       id="clipPath2432-7">
      <path
         d="M 0,486 H 864 V 0 H 0 Z"
         transform="translate(-240.874,-423.02291)"
         id="path2432-6" />
    </clipPath>
    <clipPath
       clipPathUnits="userSpaceOnUse"
       id="clipPath2434-0">
      <path
         d="M 0,486 H 864 V 0 H 0 Z"
         transform="translate(-160.69191,-407.15091)"
         id="path2434-0" />
    </clipPath>
    <clipPath
       clipPathUnits="userSpaceOnUse"
       id="clipPath2436-9">
      <path
         d="M 0,486 H 864 V 0 H 0 Z"
         transform="translate(-159.6895,-420.88871)"
         id="path2436-5" />
    </clipPath>
    <clipPath
       clipPathUnits="userSpaceOnUse"
       id="clipPath2438-6">
      <path
         d="M 0,486 H 864 V 0 H 0 Z"
         transform="translate(-169.1826,-403.86431)"
         id="path2438-2" />
    </clipPath>
    <clipPath
       clipPathUnits="userSpaceOnUse"
       id="clipPath2440-8">
      <path
         d="M 0,486 H 864 V 0 H 0 Z"
         transform="translate(-168.80811,-424.39991)"
         id="path2440-5" />
    </clipPath>
    <clipPath
       clipPathUnits="userSpaceOnUse"
       id="clipPath2442-9">
      <path
         d="M 0,486 H 864 V 0 H 0 Z"
         transform="translate(-173.00001,-425.66751)"
         id="path2442-4" />
    </clipPath>
    <clipPath
       clipPathUnits="userSpaceOnUse"
       id="clipPath2444-3">
      <path
         d="M 0,486 H 864 V 0 H 0 Z"
         transform="translate(-159.5557,-420.97951)"
         id="path2444-9" />
    </clipPath>
    <clipPath
       clipPathUnits="userSpaceOnUse"
       id="clipPath2446-0">
      <path
         d="M 0,486 H 864 V 0 H 0 Z"
         transform="translate(-164.47851,-423.02881)"
         id="path2446-5" />
    </clipPath>
    <clipPath
       clipPathUnits="userSpaceOnUse"
       id="clipPath2448-6">
      <path
         d="M 0,486 H 864 V 0 H 0 Z"
         transform="translate(-202.79391,-385.92291)"
         id="path2448-3" />
    </clipPath>
    <clipPath
       clipPathUnits="userSpaceOnUse"
       id="clipPath2450-6">
      <path
         d="M 0,486 H 864 V 0 H 0 Z"
         transform="translate(-201.7183,-442.86621)"
         id="path2450-3" />
    </clipPath>
    <clipPath
       clipPathUnits="userSpaceOnUse"
       id="clipPath2452-0">
      <path
         d="M 0,486 H 864 V 0 H 0 Z"
         transform="translate(-202.53471,-391.57031)"
         id="path2452-8" />
    </clipPath>
    <clipPath
       clipPathUnits="userSpaceOnUse"
       id="clipPath2454-4">
      <path
         d="M 0,486 H 864 V 0 H 0 Z"
         transform="translate(-202.10301,-441.79251)"
         id="path2454-0" />
    </clipPath>
    <clipPath
       clipPathUnits="userSpaceOnUse"
       id="clipPath2456-4">
      <path
         d="M 0,486 H 864 V 0 H 0 Z"
         transform="translate(-202.5952,-397.26711)"
         id="path2456-6" />
    </clipPath>
    <clipPath
       clipPathUnits="userSpaceOnUse"
       id="clipPath2458-4">
      <path
         d="M 0,486 H 864 V 0 H 0 Z"
         transform="translate(-201.8989,-436.90041)"
         id="path2458-6" />
    </clipPath>
    <clipPath
       clipPathUnits="userSpaceOnUse"
       id="clipPath2460-4">
      <path
         d="M 0,486 H 864 V 0 H 0 Z"
         transform="translate(-197.9902,-411.10991)"
         id="path2460-3" />
    </clipPath>
    <clipPath
       clipPathUnits="userSpaceOnUse"
       id="clipPath2462-8">
      <path
         d="M 0,486 H 864 V 0 H 0 Z"
         transform="translate(-207.814,-411.10991)"
         id="path2462-4" />
    </clipPath>
  </defs>
  <g
     inkscape:label="Layer 1"
     inkscape:groupmode="layer"
     id="layer1"
     transform="translate(-91.016662,-58.737508)">
    <path
       id="path2399-3"
       d="M 0,0 C 1.142,3.864 2.001,6.703 2.148,7.041 2.663,8.215 7.138,7.179 7.215,6.099 7.284,5.097 6.948,0.79 5.751,-2.904 4.915,0.194 2.444,1 0,0"
       style="fill:#66e204;fill-opacity:1;fill-rule:nonzero;stroke:none"
       transform="matrix(0.35277776,0,0,-0.35277776,110.81324,61.50124)"
       clip-path="url(#clipPath2400-1)" />
    <path
       id="path2403-5"
       d="m 0,0 -1.18,-3.521 -1.932,0.631 c 0,0 0.352,1.223 0.923,3.198 C -1.411,0.241 -0.67,0.138 0,0"
       style="fill:#d1d1d1;fill-opacity:1;fill-rule:nonzero;stroke:none"
       transform="matrix(0.35277776,0,0,-0.35277776,109.31443,69.388609)"
       clip-path="url(#clipPath2404-8)" />
    <path
       id="path2405-7"
       d="M 0,0 C 0.407,0.012 0.82,-0.041 1.227,-0.105 1.802,-0.2 2.399,-0.376 2.956,-0.64 3.218,-0.763 3.621,-0.959 3.843,-1.282 3.987,-1.484 4.027,-1.607 4.032,-1.988 4.04,-2.843 3.944,-3.762 3.852,-4.576 3.612,-6.648 3.201,-8.677 2.657,-10.483 2.27,-11.765 1.764,-12.976 1.208,-13.94 c -0.647,-1.128 -1.338,-2.134 -2.065,-3.017 -0.883,-1.075 -1.804,-2.003 -2.744,-2.718 -0.081,-0.06 -0.377,-0.233 -0.417,-0.342 -0.103,-0.267 -0.188,-0.571 -0.283,-0.848 -0.162,-0.478 -0.32,-0.981 -0.484,-1.452 -0.243,-0.681 -0.466,-1.398 -0.703,-2.092 -0.666,-1.946 -1.308,-3.929 -1.968,-5.885 -0.385,-1.152 -0.778,-2.298 -1.163,-3.458 -0.081,-0.237 -0.233,-0.27 -0.364,-0.229 -0.563,0.18 -1.126,0.382 -1.693,0.548 -0.089,0.029 -0.451,0.078 -0.433,0.371 0.002,0.071 0.141,0.512 0.168,0.607 0.913,3.22 1.871,6.387 2.784,9.609 0.357,1.243 0.727,2.46 1.083,3.708 0.574,2.013 1.181,3.985 1.754,6 0.245,0.859 0.498,1.705 0.749,2.555 0.515,1.75 1.023,3.522 1.553,5.25 0.357,1.166 0.691,2.391 1.068,3.527 0.131,0.407 0.302,1.106 0.508,1.332 C -1.019,0 -0.476,-0.052 0,0 m 0.026,-0.553 c -0.314,-0.044 -0.658,0.004 -0.954,-0.208 -0.18,-0.128 -0.273,-0.535 -0.376,-0.857 -0.545,-1.678 -1.037,-3.45 -1.564,-5.164 -0.547,-1.788 -1.065,-3.624 -1.601,-5.433 -0.618,-2.094 -1.228,-4.193 -1.841,-6.295 -0.99,-3.412 -2.001,-6.808 -2.977,-10.241 -0.393,-1.389 -0.812,-2.762 -1.197,-4.159 0.454,-0.136 0.905,-0.298 1.357,-0.444 0.071,-0.024 0.067,0.035 0.107,0.154 0.792,2.357 1.572,4.745 2.374,7.088 0.583,1.705 1.14,3.456 1.723,5.161 0.14,0.399 0.271,0.803 0.405,1.209 0.065,0.203 0.336,0.326 0.452,0.408 0.714,0.52 1.419,1.21 2.104,1.952 1.148,1.239 2.259,2.819 3.199,4.716 0.166,0.328 0.332,0.765 0.472,1.134 0.775,2.065 1.316,4.611 1.602,7.178 0.083,0.756 0.137,1.446 0.158,2.234 0.012,0.411 -0.012,0.48 -0.187,0.622 -0.518,0.419 -1.119,0.601 -1.668,0.737 -0.523,0.132 -1.052,0.2 -1.588,0.208"
       style="fill:#000000;fill-opacity:1;fill-rule:nonzero;stroke:none"
       transform="matrix(0.35277776,0,0,-0.35277776,112.0378,58.738106)"
       clip-path="url(#clipPath2406-9)" />
    <path
       id="path2407-2"
       d="m 0,0 c 0.943,-0.002 1.831,-0.354 2.458,-0.905 0.687,-0.608 1.08,-1.351 1.345,-2.114 0.01,-0.03 0.054,-0.142 0.049,-0.17 -0.049,-0.193 -0.118,-0.389 -0.179,-0.582 -0.275,1.078 -0.749,2.252 -1.93,2.967 -0.555,0.336 -1.285,0.509 -1.988,0.468 -0.638,-0.037 -1.228,-0.194 -1.795,-0.435 0.009,0.048 0.025,0.107 0.041,0.16 0.024,0.072 0.042,0.162 0.069,0.235 0.01,0.02 0.069,0.034 0.093,0.042 C -1.251,-0.125 -0.648,0.012 0,0"
       style="fill:#000000;fill-opacity:1;fill-rule:nonzero;stroke:none"
       transform="matrix(0.35277776,0,0,-0.35277776,111.51343,61.30058)"
       clip-path="url(#clipPath2408-2)" />
    <path
       id="path2409-9"
       d="M 0,0 C -2.446,1 -4.915,0.194 -5.751,-2.904 -6.946,0.79 -7.286,5.097 -7.217,6.099 -7.14,7.179 -2.665,8.215 -2.148,7.041 -1.999,6.703 -1.145,3.864 0,0"
       style="fill:#66e204;fill-opacity:1;fill-rule:nonzero;stroke:none"
       transform="matrix(0.35277776,0,0,-0.35277776,105.30264,61.50124)"
       clip-path="url(#clipPath2410-7)" />
    <path
       id="path2413-5"
       d="M 0,0 C 0.723,0.12 1.468,0.19 2.219,0.221 2.8,-1.788 3.163,-3.037 3.163,-3.037 L 1.231,-3.669 Z"
       style="fill:#d1d1d1;fill-opacity:1;fill-rule:nonzero;stroke:none"
       transform="matrix(0.35277776,0,0,-0.35277776,106.7835,69.336611)"
       clip-path="url(#clipPath2414-8)" />
    <path
       id="path2415-6"
       d="m 0,0 c 0.53,-0.026 1.111,0.035 1.598,-0.413 0.208,-0.192 0.319,-0.591 0.441,-0.99 0.83,-2.703 1.652,-5.423 2.452,-8.175 0.389,-1.333 0.782,-2.663 1.173,-3.991 0.391,-1.312 0.779,-2.635 1.158,-3.961 0.841,-2.959 1.725,-5.869 2.566,-8.831 0.338,-1.185 0.698,-2.345 1.034,-3.536 0.29,-1.033 0.6,-2.041 0.888,-3.082 0.066,-0.243 -0.085,-0.34 -0.171,-0.371 -0.508,-0.17 -1.016,-0.338 -1.524,-0.502 -0.205,-0.065 -0.638,-0.32 -0.782,0.1 -0.31,0.907 -0.614,1.824 -0.917,2.737 -0.391,1.164 -0.792,2.325 -1.177,3.503 -0.783,2.412 -1.606,4.771 -2.398,7.171 -0.046,0.138 -0.093,0.354 -0.166,0.405 -0.17,0.116 -0.336,0.239 -0.502,0.371 -1.606,1.263 -3.194,3.12 -4.536,5.415 -0.812,1.38 -1.397,2.909 -1.906,4.837 -0.362,1.379 -0.603,2.807 -0.812,4.295 -0.101,0.695 -0.18,1.531 -0.212,2.258 -0.018,0.381 -0.081,1.07 0.077,1.341 0.241,0.409 0.64,0.619 0.931,0.753 C -1.879,-0.241 -0.946,-0.046 0,0 m 0.041,-0.553 c -0.938,-0.081 -1.898,-0.208 -2.791,-0.722 -0.114,-0.065 -0.496,-0.264 -0.504,-0.574 -0.025,-0.875 0.087,-1.851 0.18,-2.679 0.377,-3.4 1.269,-6.863 2.547,-9.084 0.725,-1.262 1.486,-2.363 2.307,-3.323 0.856,-1.002 1.784,-1.912 2.697,-2.535 0.148,-0.101 0.189,-0.071 0.282,-0.363 0.287,-0.899 0.601,-1.764 0.892,-2.654 0.254,-0.786 0.521,-1.566 0.782,-2.339 0.486,-1.426 0.96,-2.878 1.444,-4.312 0.462,-1.379 0.926,-2.762 1.387,-4.145 0.043,-0.134 0.075,-0.069 0.142,-0.042 0.431,0.159 0.866,0.263 1.296,0.415 -0.513,1.81 -1.053,3.615 -1.567,5.427 -0.252,0.887 -0.515,1.759 -0.768,2.647 -0.652,2.288 -1.336,4.531 -1.984,6.82 -0.482,1.684 -0.978,3.357 -1.472,5.024 -0.861,2.922 -1.708,5.88 -2.593,8.77 -0.326,1.057 -0.633,2.14 -0.982,3.159 -0.125,0.371 -0.31,0.371 -0.504,0.434 -0.257,0.085 -0.524,0.056 -0.791,0.076"
       style="fill:#000000;fill-opacity:1;fill-rule:nonzero;stroke:none"
       transform="matrix(0.35277776,0,0,-0.35277776,104.00177,58.738106)"
       clip-path="url(#clipPath2416-0)" />
    <path
       id="path2417-5"
       d="m 0,0 c 0.133,0.002 0.269,-0.002 0.403,-0.01 0.516,-0.036 1.01,-0.166 1.486,-0.338 0.023,-0.008 0.047,-0.012 0.051,-0.032 0.038,-0.132 0.081,-0.264 0.113,-0.391 -0.79,0.332 -1.695,0.541 -2.59,0.393 -0.437,-0.071 -0.844,-0.215 -1.203,-0.43 -0.392,-0.241 -0.704,-0.528 -0.966,-0.854 -0.218,-0.275 -0.38,-0.563 -0.528,-0.863 -0.199,-0.407 -0.316,-0.828 -0.432,-1.246 -0.06,0.193 -0.119,0.383 -0.174,0.574 -0.01,0.042 0.029,0.117 0.041,0.164 0.289,0.874 0.82,1.808 1.733,2.415 C -1.484,-0.233 -0.764,-0.006 0,0"
       style="fill:#000000;fill-opacity:1;fill-rule:nonzero;stroke:none"
       transform="matrix(0.35277776,0,0,-0.35277776,104.59828,61.30058)"
       clip-path="url(#clipPath2418-2)" />
    <path
       id="path2419-3"
       d="M 0,0 C -0.067,2.189 -0.881,4.137 -2.126,5.848 0.786,4.222 3.052,2.14 3.169,-0.434 3.309,-3.538 0.413,-6.022 -3.133,-7.89 -1.191,-5.668 0.097,-3.042 0,0"
       style="fill:#66e204;fill-opacity:1;fill-rule:nonzero;stroke:none"
       transform="matrix(0.35277776,0,0,-0.35277776,124.06996,79.749235)"
       clip-path="url(#clipPath2420-5)" />
    <path
       id="path2423-4"
       d="m 0,0 c 2.495,-2.699 -1.041,-4.526 -0.832,-8.596 0.125,-2.525 4.619,-3.404 0.743,-8.768 -1.76,-0.695 -3.495,-1.258 -4.947,-1.677 3.44,6.183 3.177,15.348 0.374,20.536 C -3.26,1.112 -1.64,0.616 0,0"
       style="fill:#f5f5f5;fill-opacity:1;fill-rule:nonzero;stroke:none"
       transform="matrix(0.35277776,0,0,-0.35277776,121.74678,76.974708)"
       clip-path="url(#clipPath2424-1)" />
    <path
       id="path2425-8"
       d="m 0,0 c 2.803,-5.188 3.066,-14.353 -0.375,-20.536 -2.213,-0.639 -3.77,-0.957 -3.77,-0.957 L -4.232,1 c 0,0 1.776,-0.326 4.232,-1"
       style="fill:#d1d1d1;fill-opacity:1;fill-rule:nonzero;stroke:none"
       transform="matrix(0.35277776,0,0,-0.35277776,120.10223,76.447447)"
       clip-path="url(#clipPath2426-2)" />
    <path
       id="path2427-5"
       d="m 0,0 c 0.028,0.008 0.059,0.006 0.089,0.002 0.33,-0.048 0.668,-0.124 0.992,-0.194 2.922,-0.64 5.788,-1.471 8.623,-2.56 0.771,-0.295 1.559,-0.627 2.312,-0.998 2.029,-1.002 4.093,-2.141 5.65,-4.042 1.039,-1.27 1.594,-2.884 1.192,-4.631 -0.396,-1.722 -1.696,-3.18 -2.921,-4.15 -2.184,-1.731 -4.678,-2.926 -7.145,-3.882 -2.681,-1.043 -5.374,-1.828 -8.124,-2.48 -0.21,-0.051 -0.792,-0.272 -0.796,0.176 -0.01,0.891 -0.014,1.784 -0.014,2.673 0,2.977 -0.036,5.952 -0.036,8.924 0,2.505 -0.009,5.014 -0.029,7.515 -0.014,0.972 -0.014,1.944 -0.014,2.914 0,0.263 -0.073,0.674 0.221,0.733 m 0.344,-0.611 c 0.031,-7.266 0.049,-14.54 0.089,-21.808 2.236,0.523 4.465,1.132 6.648,1.918 1.207,0.435 2.39,0.919 3.578,1.434 0.638,0.279 1.26,0.617 1.885,0.937 0.928,0.472 1.825,1.082 2.676,1.703 0.915,0.673 1.794,1.55 2.448,2.582 0.836,1.316 1.022,2.945 0.36,4.41 -0.565,1.244 -1.569,2.228 -2.553,2.981 -1.157,0.883 -2.424,1.582 -3.694,2.198 -2.007,0.974 -4.104,1.686 -6.184,2.322 -0.913,0.282 -1.833,0.527 -2.752,0.76 -0.83,0.206 -1.665,0.395 -2.501,0.563"
       style="fill:#000000;fill-opacity:1;fill-rule:nonzero;stroke:none"
       transform="matrix(0.35277776,0,0,-0.35277776,118.58864,76.000264)"
       clip-path="url(#clipPath2428-1)" />
    <path
       id="path2429-5"
       d="M 0,0 C 0.008,0.008 0.012,-0.006 0.018,-0.012 0.117,-0.146 0.214,-0.287 0.312,-0.433 0.856,-1.245 1.411,-2.241 1.804,-3.588 2.059,-4.469 2.213,-5.557 2.165,-6.682 2.08,-8.604 1.484,-10.09 0.923,-11.166 c -0.476,-0.911 -1.018,-1.68 -1.555,-2.326 -0.049,-0.059 -0.121,-0.176 -0.17,-0.197 -0.227,-0.095 -0.449,-0.194 -0.675,-0.281 0.608,0.686 1.216,1.442 1.779,2.379 0.309,0.521 0.605,1.104 0.874,1.798 0.229,0.594 0.438,1.309 0.555,2.102 0.213,1.416 0.093,2.827 -0.251,4.014 -0.451,1.557 -1.105,2.58 -1.746,3.485 C -0.176,-0.125 -0.087,-0.066 0,0"
       style="fill:#000000;fill-opacity:1;fill-rule:nonzero;stroke:none"
       transform="matrix(0.35277776,0,0,-0.35277776,123.36493,77.654087)"
       clip-path="url(#clipPath2430-1)" />
    <path
       id="path2431-5"
       d="m 0,0 c 0.217,-0.057 0.439,-0.164 0.658,-0.247 0.059,-0.023 0.186,-0.229 0.245,-0.314 0.221,-0.336 0.496,-0.84 0.496,-1.587 0,-0.78 -0.352,-1.54 -0.559,-2.036 -0.303,-0.731 -0.64,-1.375 -0.893,-2.255 -0.198,-0.691 -0.338,-1.505 -0.267,-2.38 0.045,-0.5 0.34,-0.996 0.498,-1.231 0.389,-0.559 0.8,-1.023 1.173,-1.612 0.342,-0.533 0.775,-1.423 0.595,-2.594 -0.154,-1.007 -0.601,-1.819 -0.938,-2.384 -0.148,-0.244 -0.301,-0.494 -0.459,-0.706 -0.041,-0.057 -0.152,-0.075 -0.205,-0.097 -0.125,-0.053 -0.251,-0.11 -0.381,-0.154 0.436,0.603 0.867,1.233 1.244,2.055 0.194,0.421 0.401,1.006 0.437,1.667 0.065,1.03 -0.415,1.81 -0.708,2.239 -0.361,0.523 -0.754,0.95 -1.104,1.509 -0.164,0.259 -0.43,0.729 -0.482,1.237 -0.101,0.994 0.105,2.039 0.348,2.781 0.302,0.929 0.671,1.648 1.01,2.47 0.215,0.531 0.489,1.341 0.278,2.11 C 0.8,-0.863 0.417,-0.454 0.134,-0.144 0.091,-0.095 0.044,-0.049 0,0"
       style="fill:#000000;fill-opacity:1;fill-rule:nonzero;stroke:none"
       transform="matrix(0.35277776,0,0,-0.35277776,121.62824,76.933222)"
       clip-path="url(#clipPath2432-7)" />
    <path
       id="path2433-4"
       d="m 0,0 c -3.544,1.867 -6.441,4.352 -6.3,7.456 0.118,2.574 2.383,4.656 5.298,6.282 C -2.252,12.026 -3.064,10.079 -3.131,7.89 -3.23,4.848 -1.938,2.222 0,0"
       style="fill:#66e204;fill-opacity:1;fill-rule:nonzero;stroke:none"
       transform="matrix(0.35277776,0,0,-0.35277776,93.341783,82.532509)"
       clip-path="url(#clipPath2434-0)" />
    <path
       id="path2437-1"
       d="m 0,0 c -1.452,0.419 -3.185,0.982 -4.949,1.677 -3.643,4.51 0.619,6.243 0.747,8.768 0.205,4.07 -3.331,5.897 -0.834,8.596 1.64,0.616 3.26,1.112 4.661,1.495 C -3.177,15.348 -3.438,6.183 0,0"
       style="fill:#f5f5f5;fill-opacity:1;fill-rule:nonzero;stroke:none"
       transform="matrix(0.35277776,0,0,-0.35277776,96.337112,83.69195)"
       clip-path="url(#clipPath2438-6)" />
    <path
       id="path2439-9"
       d="M 0,0 C 2.457,0.674 4.232,1 4.232,1 L 4.143,-21.493 c 0,0 -1.555,0.318 -3.768,0.957 C -3.064,-14.353 -2.803,-5.188 0,0"
       style="fill:#d1d1d1;fill-opacity:1;fill-rule:nonzero;stroke:none"
       transform="matrix(0.35277776,0,0,-0.35277776,96.204998,76.447447)"
       clip-path="url(#clipPath2440-8)" />
    <path
       id="path2441-2"
       d="M 0,0 C 0.133,0.033 0.306,-0.075 0.322,-0.245 0.346,-0.486 0.318,-0.793 0.318,-1.039 0.318,-1.883 0.332,-2.738 0.308,-3.576 0.283,-4.435 0.324,-5.301 0.297,-6.16 0.283,-6.638 0.292,-7.136 0.292,-7.614 c 0,-5.026 -0.057,-10.052 -0.057,-15.08 0,-0.488 -0.423,-0.33 -0.687,-0.271 -1.272,0.293 -2.537,0.617 -3.791,0.994 -1.083,0.328 -2.154,0.674 -3.225,1.053 -1.256,0.443 -2.511,0.961 -3.735,1.539 -1.52,0.717 -3.061,1.561 -4.428,2.645 -1.701,1.35 -3.595,3.44 -3.22,6.107 0.199,1.391 0.988,2.645 1.916,3.544 0.889,0.864 1.849,1.591 2.892,2.201 1.37,0.798 2.735,1.44 4.161,2.021 0.628,0.259 1.276,0.498 1.911,0.715 1.236,0.421 2.481,0.824 3.737,1.158 C -2.833,-0.616 -1.424,-0.263 0,0 m -0.251,-0.611 c -1.288,-0.274 -2.582,-0.559 -3.854,-0.92 -3.303,-0.941 -6.553,-2.027 -9.657,-3.835 -1.178,-0.687 -2.389,-1.584 -3.307,-2.706 -1.016,-1.239 -1.563,-2.729 -1.089,-4.436 0.558,-2.007 2.322,-3.423 3.778,-4.453 0.517,-0.367 1.104,-0.721 1.661,-1.017 1.32,-0.71 2.642,-1.338 4.01,-1.867 1.478,-0.577 2.95,-1.085 4.448,-1.541 1.304,-0.391 2.615,-0.731 3.931,-1.033 0.018,5.571 0.069,11.146 0.069,16.719 0,1.66 0.02,3.319 0.02,4.979 0,0.029 0.006,0.105 -0.01,0.11"
       style="fill:#000000;fill-opacity:1;fill-rule:nonzero;stroke:none"
       transform="matrix(0.35277776,0,0,-0.35277776,97.683807,76.000264)"
       clip-path="url(#clipPath2442-9)" />
    <path
       id="path2443-4"
       d="m 0,0 c 0.089,-0.059 0.183,-0.129 0.27,-0.19 -0.246,-0.336 -0.486,-0.697 -0.717,-1.096 -0.648,-1.128 -1.436,-2.875 -1.386,-5.168 0.025,-1.065 0.219,-2.032 0.482,-2.83 0.118,-0.363 0.251,-0.707 0.387,-1.017 0.715,-1.606 1.59,-2.693 2.444,-3.669 -0.172,0.065 -0.348,0.148 -0.522,0.214 -0.051,0.023 -0.14,0.039 -0.184,0.095 -0.501,0.61 -0.999,1.272 -1.458,2.07 -0.596,1.035 -1.298,2.578 -1.452,4.532 -0.144,1.83 0.229,3.402 0.727,4.582 C -0.986,-1.47 -0.506,-0.676 0,0"
       style="fill:#000000;fill-opacity:1;fill-rule:nonzero;stroke:none"
       transform="matrix(0.35277776,0,0,-0.35277776,92.940955,77.654087)"
       clip-path="url(#clipPath2444-3)" />
    <path
       id="path2445-5"
       d="m 0,0 c -0.099,-0.127 -0.231,-0.251 -0.34,-0.387 -0.223,-0.271 -0.567,-0.702 -0.677,-1.31 -0.09,-0.49 -0.016,-0.939 0.102,-1.334 0.17,-0.577 0.403,-1.057 0.611,-1.531 0.434,-0.992 1.049,-2.365 0.98,-4.063 -0.024,-0.481 -0.131,-0.844 -0.267,-1.149 -0.316,-0.715 -0.695,-1.207 -1.047,-1.778 -0.281,-0.46 -0.67,-1.066 -0.834,-1.869 -0.17,-0.829 -0.008,-1.558 0.227,-2.131 0.368,-0.895 0.844,-1.462 1.289,-2.031 -0.131,0.039 -0.267,0.083 -0.4,0.13 -0.049,0.016 -0.156,0.036 -0.199,0.089 -0.164,0.215 -0.326,0.446 -0.48,0.69 -0.319,0.507 -0.801,1.369 -0.844,2.448 -0.022,0.643 0.14,1.242 0.314,1.645 0.304,0.71 0.656,1.233 1.004,1.772 0.278,0.433 0.618,0.917 0.816,1.61 0.124,0.429 0.101,1.192 0.033,1.674 -0.203,1.4 -0.689,2.315 -1.094,3.271 -0.202,0.469 -0.48,1.073 -0.567,1.77 -0.111,0.902 0.235,1.563 0.49,1.933 0.053,0.081 0.168,0.276 0.227,0.298 C -0.439,-0.168 -0.219,-0.075 0,0"
       style="fill:#000000;fill-opacity:1;fill-rule:nonzero;stroke:none"
       transform="matrix(0.35277776,0,0,-0.35277776,94.677611,76.931139)"
       clip-path="url(#clipPath2446-0)" />
    <path
       id="path2447-8"
       clip-path="url(#clipPath2448-6)"
       style="fill:#f5f5f5;fill-opacity:1;fill-rule:nonzero;stroke:none"
       d="M -1.4575542e-05 56.681815 C -9.4150146 56.681815 -17.936555 53.510546 -24.102555 48.380546 C -30.272555 43.251546 -34.088395 36.167017 -34.088395 28.340017 C -34.088395 20.515017 -30.272555 13.428024 -24.102555 8.298024 C -17.936555 3.171024 -9.4150146 -0.00031629185 -1.4575542e-05 -0.00031629185 C 9.4099854 -0.00031629185 17.934991 3.171024 24.103991 8.298024 C 30.272991 13.428024 34.086901 20.515017 34.086901 28.340017 C 34.086901 36.167017 30.272991 43.251546 24.103991 48.380546 C 17.934991 53.510546 9.4099854 56.681815 -1.4575542e-05 56.681815 z M -0.25929193 55.712089 C 7.4777081 55.712089 14.484186 52.909081 19.554186 48.379081 C 24.629186 43.851081 27.764635 37.591908 27.764635 30.677908 C 27.764635 23.764908 24.629186 17.5082 19.554186 12.9782 C 14.484186 8.4482 7.4777081 5.6481215 -0.25929193 5.6481215 C -7.9972919 5.6481215 -15.001234 8.4482 -20.074234 12.9782 C -25.144234 17.5082 -28.283219 23.764908 -28.283219 30.677908 C -28.283219 37.591908 -25.144234 43.851081 -20.074234 48.379081 C -15.001234 52.909081 -7.9972919 55.712089 -0.25929193 55.712089 z M -0.19923334 50.829764 C -6.3042334 50.829764 -11.836906 48.618561 -15.837906 45.046561 C -19.839906 41.472561 -22.31984 36.537599 -22.31984 31.086599 C -22.31984 25.632599 -19.839906 20.698708 -15.837906 17.123708 C -11.836906 13.551708 -6.3042334 11.344899 -0.19923334 11.344899 C 5.9097666 11.344899 11.440834 13.551708 15.443834 17.123708 C 19.446834 20.698708 21.924303 25.632599 21.924303 31.086599 C 21.924303 36.537599 19.446834 41.472561 15.443834 45.046561 C 11.440834 48.618561 5.9097666 50.829764 -0.19923334 50.829764 z M -3.6093898 40.294608 C -2.6193898 40.294608 -1.7851318 39.451158 -1.2451318 38.084158 C -0.70213178 36.717158 -0.45124898 34.827873 -0.61524898 32.741873 C -0.78124898 30.653873 -1.3333467 28.764587 -2.0903467 27.399587 C -2.8463467 26.032587 -3.8102375 25.187673 -4.8032375 25.187673 C -5.7912375 25.187673 -6.6230306 26.032587 -7.1660306 27.399587 C -7.7090306 28.764587 -7.9653782 30.653873 -7.7973782 32.741873 C -7.6333782 34.827873 -7.0822102 36.717158 -6.3252102 38.084158 C -5.5652102 39.451158 -4.6033898 40.294608 -3.6093898 40.294608 z M 3.8246926 40.294608 C 4.8166926 40.294608 5.7805131 39.451158 6.5405131 38.084158 C 7.2955131 36.717158 7.8466811 34.827873 8.0126811 32.741873 C 8.1786811 30.653873 7.9237983 28.764587 7.3827983 27.399587 C 6.8377983 26.032587 6.0080052 25.187673 5.0200052 25.187673 C 4.0250052 25.187673 3.0601848 26.032587 2.3041848 27.399587 C 1.5471848 28.764587 0.99255187 30.653873 0.83055187 32.741873 C 0.66655194 34.827873 0.91689956 36.717158 1.4618996 38.084158 C 1.9998996 39.451158 2.8326926 40.294608 3.8246926 40.294608 z "
       transform="matrix(0.35277776,0,0,-0.35277776,108.19443,90.021275)" />
    <path
       id="path2449-6"
       d="m 0,0 c 2.499,0.054 4.974,-0.083 7.367,-0.458 2.228,-0.35 4.437,-0.871 6.549,-1.596 8.102,-2.776 14.309,-7.646 18.187,-14.209 1.733,-2.936 2.865,-6.407 3.201,-9.631 0.126,-1.181 0.245,-2.533 0.14,-3.732 -0.089,-1.006 -0.124,-2.049 -0.328,-3.036 -0.203,-0.988 -0.401,-1.976 -0.699,-2.948 -1.919,-6.257 -6.18,-11.658 -12.348,-15.665 -11.535,-7.495 -27.962,-7.938 -40.077,-1.142 -2.246,1.261 -4.311,2.727 -6.189,4.404 -9.155,8.179 -11.528,20.098 -6.496,30.345 2.238,4.56 5.761,8.296 10.324,11.433 2.899,1.992 6.573,3.639 10.123,4.651 C -6.934,-0.638 -3.55,-0.081 0,0 m 0.069,-0.543 c -4.327,-0.125 -8.42,-0.901 -12.389,-2.302 -4.095,-1.446 -7.885,-3.621 -10.975,-6.333 -0.513,-0.451 -0.987,-0.925 -1.491,-1.373 -0.873,-0.781 -1.626,-1.723 -2.351,-2.595 -1.099,-1.315 -2.051,-2.876 -2.839,-4.35 -1.517,-2.829 -2.389,-5.99 -2.65,-9.068 -0.282,-3.261 0.086,-6.648 1.172,-9.706 2.496,-7.037 7.912,-12.918 15.576,-16.617 1.804,-0.869 3.58,-1.509 5.502,-2.127 2.809,-0.903 5.889,-1.359 8.89,-1.575 2.679,-0.194 5.364,-0.024 7.966,0.271 2.076,0.237 4.19,0.755 6.174,1.339 3.619,1.059 7.023,2.731 9.982,4.767 5.712,3.924 9.633,9.217 11.34,15.145 0.273,0.958 0.528,2.004 0.648,2.989 0.229,1.897 0.368,3.805 0.135,5.728 -0.228,1.928 -0.556,3.739 -1.227,5.583 -0.322,0.883 -0.66,1.77 -1.077,2.633 -1.446,3.005 -3.576,5.8 -6.152,8.195 -1.361,1.266 -2.861,2.426 -4.451,3.463 -6.215,4.036 -13.908,6.105 -21.783,5.933"
       style="fill:#000000;fill-opacity:1;fill-rule:nonzero;stroke:none"
       transform="matrix(0.35277776,0,0,-0.35277776,107.81498,69.932945)"
       clip-path="url(#clipPath2450-6)" />
    <path
       id="path2453-5"
       d="m 0,0 c 3.02,0.017 6.051,-0.318 8.872,-1.136 5.623,-1.636 10.511,-4.641 14.1,-8.92 3.153,-3.764 5.172,-8.339 5.561,-12.978 0.135,-1.628 0.149,-3.315 -0.065,-4.929 -0.371,-2.837 -1.203,-5.459 -2.568,-8.076 -0.727,-1.397 -1.642,-2.691 -2.629,-3.932 -3.58,-4.502 -8.942,-7.833 -14.802,-9.388 -7.784,-2.066 -16.31,-1.021 -23.191,2.908 -3.458,1.976 -6.227,4.495 -8.508,7.541 -2.494,3.319 -4.083,7.581 -4.437,11.49 -0.163,1.755 -0.132,3.578 0.111,5.309 0.158,1.124 0.417,2.169 0.697,3.264 0.303,1.199 0.816,2.351 1.328,3.5 1.146,2.559 3.013,5.012 5.044,7.055 0.853,0.862 1.904,1.78 2.904,2.491 2.57,1.824 5.459,3.44 8.603,4.367 C -6.059,-0.575 -3.141,-0.006 0,0 m -0.057,-0.324 c -6.312,-0.101 -12.485,-2.142 -17.368,-5.795 -5.445,-4.075 -8.736,-9.567 -9.742,-15.716 -0.152,-0.946 -0.235,-1.91 -0.235,-2.882 0,-1.96 0.115,-3.845 0.605,-5.715 0.549,-2.102 1.282,-4.149 2.43,-6.103 1.947,-3.303 4.459,-5.982 7.75,-8.32 2.602,-1.85 5.591,-3.147 8.72,-4.067 4.224,-1.245 8.916,-1.409 13.334,-0.743 3.852,0.581 7.525,2.025 10.804,3.995 1.998,1.203 3.928,2.783 5.496,4.46 1.68,1.797 2.989,3.663 4.094,5.807 3.566,6.911 3.196,15.175 -0.812,21.894 -4.904,8.22 -14.418,13.185 -24.713,13.185 z"
       style="fill:#000000;fill-opacity:1;fill-rule:nonzero;stroke:none"
       transform="matrix(0.35277776,0,0,-0.35277776,107.9507,70.311722)"
       clip-path="url(#clipPath2454-4)" />
    <path
       id="path2457-3"
       d="m 0,0 c 2.966,0.119 5.763,-0.381 8.495,-1.235 2.416,-0.76 4.845,-2.096 6.771,-3.591 1.987,-1.541 3.556,-3.286 4.866,-5.291 1.448,-2.221 2.366,-4.888 2.708,-7.383 0.077,-0.569 0.087,-1.124 0.136,-1.701 0.058,-0.766 -0.013,-1.527 -0.059,-2.282 -0.116,-1.799 -0.622,-3.763 -1.347,-5.437 -2.021,-4.67 -5.864,-8.568 -10.911,-10.798 -7.158,-3.161 -15.7,-2.73 -22.364,1.276 -4.525,2.719 -7.735,6.755 -9.153,11.419 -0.38,1.257 -0.609,2.574 -0.699,3.886 -0.208,3.035 0.361,5.957 1.588,8.721 1.015,2.291 2.532,4.306 4.39,6.116 4.002,3.896 9.773,6.16 15.579,6.3 m 0.38,-0.316 c -3.41,-0.044 -6.585,-0.788 -9.634,-2.134 -3.672,-1.62 -6.756,-4.285 -8.886,-7.394 -0.705,-1.024 -1.276,-2.136 -1.752,-3.252 -2.75,-6.446 -1.268,-14.203 3.844,-19.442 2.314,-2.375 4.961,-4.17 8.195,-5.399 2.816,-1.063 5.71,-1.53 8.803,-1.53 7.278,0 14.316,3.517 18.257,9.047 3.586,5.03 4.398,11.14 2.302,16.772 -2.762,7.411 -10.481,12.725 -19.11,13.263 -0.417,0.027 -0.832,0.053 -1.259,0.057 -0.251,0.006 -0.506,0.02 -0.76,0.012"
       style="fill:#000000;fill-opacity:1;fill-rule:nonzero;stroke:none"
       transform="matrix(0.35277776,0,0,-0.35277776,107.87869,72.037546)"
       clip-path="url(#clipPath2458-4)" />
  </g>
</svg>
